<?xml version="1.0" encoding="UTF-8"?>
<svg width="20px" height="20px" viewBox="0 0 20 20" version="1.1" xmlns="http://www.w3.org/2000/svg" xmlns:xlink="http://www.w3.org/1999/xlink">
    <title>icons / Vários / 16 / Produtos TAP Copy 54</title>
    <defs>
        <path d="M17.2565174,4.4893813 L13.3087298,8.43716883 C13.1643566,8.58136577 13.1007196,8.78796578 13.138796,8.98839599 L14.6396428,16.8889069 L14.0425829,17.4861431 L11.3546675,11.6204306 C11.270582,11.436747 11.1017059,11.3059473 10.9030385,11.2703388 C10.8665486,11.2638164 10.8300586,11.2604671 10.793745,11.2604671 C10.6315675,11.2604671 10.4741496,11.3244567 10.3574523,11.4413303 L7.40687997,14.3919026 C7.27308356,14.5258753 7.2080363,14.7137896 7.23060011,14.901704 L7.46752028,16.8698687 L7.07935199,17.2582132 L5.49635884,14.7150236 C5.44647161,14.6349926 5.37895644,14.5673011 5.29892538,14.5174139 L2.7486846,12.9282509 L3.13808682,12.539025 L5.1000817,12.7701279 C5.28852487,12.7925154 5.47502896,12.7269393 5.60847282,12.5936717 L8.55922147,9.64292312 C8.70200815,9.50013644 8.76582148,9.29653317 8.73003667,9.0976895 C8.69442814,8.89884582 8.56362846,8.73014598 8.37994482,8.6458842 L2.5140561,5.95796883 L3.11340763,5.35861731 L10.936708,6.78295862 C11.1360805,6.81927226 11.3402126,6.75528266 11.4835281,6.61214342 L15.4579339,2.63809017 C16.2347993,1.86140109 17.0374015,1.96875553 17.4885017,2.41985569 C17.9457716,2.87712567 18.0513632,3.69435912 17.2565174,4.4893813 M18.361087,1.54727037 C17.4770435,0.663579415 15.8963419,0.454335217 14.5855249,1.76568112 L10.8397541,5.51109941 L3.01627743,4.08658181 C2.8169049,4.05026816 2.61259654,4.11408147 2.46945729,4.257397 L1.01391446,5.71293982 C0.871127771,5.85590278 0.807314461,6.05950605 0.843099273,6.25834972 C0.878707806,6.4571934 1.00950746,6.62589324 1.19319108,6.71015502 L7.05907981,9.39807039 L4.94742333,11.5095506 L2.98542846,11.278624 C2.79733784,11.2562364 2.61048118,11.32146 2.47686105,11.4550801 L1.3269875,12.6049537 C1.19407248,12.7380449 1.12902521,12.924549 1.15035508,13.1114057 C1.17168494,13.2984386 1.27745286,13.4653757 1.43698613,13.5647975 L4.52452794,15.4887159 L6.44227656,18.5699116 C6.54169842,18.7296212 6.70881173,18.8353891 6.89566839,18.8568952 C7.08323015,18.8773437 7.26938171,18.8131778 7.4022967,18.6800865 L8.55217028,17.5303893 C8.68614297,17.3964166 8.75119023,17.208326 8.72862641,17.0204117 L8.49170629,15.052247 L10.6026576,12.9411193 L13.290573,18.8068317 C13.3746585,18.9905154 13.5435346,19.121315 13.742202,19.1569236 C13.7786919,19.1634459 13.8151819,19.1667952 13.8514955,19.1667952 C14.013673,19.1667952 14.1710909,19.1026293 14.2877882,18.9859321 L15.7431547,17.5305656 C15.8873517,17.3863687 15.9509887,17.1797687 15.9129122,16.9793384 L14.4120655,9.07882753 L18.1291027,5.36179034 C19.4573714,4.03352157 19.251124,2.4373074 18.361087,1.54727037" id="path-1"></path>
    </defs>
    <g id="Menu" stroke="none" stroke-width="1" fill="none" fill-rule="evenodd">
        <g id="1920---Menu---Beneficios-TAP-Copy" transform="translate(-498.000000, -128.000000)">
            <g id="Group-9" transform="translate(466.000000, 96.000000)">
                <g id="icons-/-Vários-/-16-/-Produtos-TAP-Copy-54" transform="translate(32.000000, 32.000000)">
                    <mask id="mask-2" fill="white">
                        <use xlink:href="#path-1"></use>
                    </mask>
                    <use id="Flying" fill="#3A970E" fill-rule="nonzero" xlink:href="#path-1"></use>
                </g>
            </g>
        </g>
    </g>
</svg>