<?xml version="1.0" encoding="UTF-8"?>
<svg width="20px" height="20px" viewBox="0 0 20 20" version="1.1" xmlns="http://www.w3.org/2000/svg" xmlns:xlink="http://www.w3.org/1999/xlink">
    <title>icons / Vários / 16 / Produtos TAP Copy 36</title>
    <g id="Menu" stroke="none" stroke-width="1" fill="none" fill-rule="evenodd">
        <g id="1920---Menu---Reservar-e-gerir-Copy" transform="translate(-1158.000000, -128.000000)" fill="#3A970E" fill-rule="nonzero">
            <g id="Group-13-Copy" transform="translate(358.000000, 96.000000)">
                <g id="icons-/-Vários-/-16-/-Produtos-TAP-Copy-36" transform="translate(800.000000, 32.000000)">
                    <path d="M10.4544342,12.6446367 C10.1604292,13.3973137 10.0857926,13.6115462 10.0857926,13.8263711 L10.0857926,14.6303849 C9.99516246,14.7549755 9.83621412,14.9502529 9.76671127,15.0353536 C9.64290932,15.1873896 9.59650823,15.244255 9.55642564,15.3135597 C9.51594811,15.3832593 9.48791005,15.4598697 9.47389097,15.5392443 L9.28394281,16.6123816 L8.17762314,13.2192144 C8.05915236,12.4671297 7.19569779,12.1985986 6.35929405,11.9389527 C6.06193239,11.8465464 5.75667268,11.7517707 5.53138076,11.6502818 C5.28278955,11.2115493 5.02274615,10.7345116 4.93981661,10.5552276 C4.90881675,10.0341588 5.35762358,9.67855245 5.621616,9.51506436 L7.67116058,10.0227067 C7.71400747,10.0331715 7.75784168,10.0398848 7.80207077,10.0418592 L9.10228763,10.1083997 L9.78033542,11.2934907 C9.83917592,11.4190686 9.98173577,11.6370526 10.6520829,12.1296888 C10.5887011,12.3008774 10.5113001,12.4991165 10.4544342,12.6446367 M11.8132941,11.2585422 C11.4661747,11.0198259 11.0977305,10.7356963 10.9895272,10.6237425 L10.114423,9.09429978 C9.99753188,8.88993972 9.78487678,8.75922823 9.54971232,8.74738125 L7.93890452,8.66504491 L5.69645003,8.10981728 C5.54875647,8.07348662 5.39336227,8.0867157 5.25396164,8.14733266 C4.5595254,8.45041742 3.44017394,9.32452576 3.56456826,10.7011427 C3.5554855,10.9009614 3.6532239,11.1552762 4.43355147,12.5155048 C4.49397157,12.6205479 4.5810476,12.708018 4.68589424,12.7690298 C5.04584796,12.9779312 5.50511972,13.1206871 5.94918772,13.2587042 C6.22561952,13.3445947 6.66870025,13.4824144 6.84364211,13.586865 L7.97148399,17.0457829 C8.08877008,17.4017841 8.3375587,17.6906525 8.67204125,17.8594717 C8.8704798,17.9595785 9.08491192,18.0103231 9.30171345,18.0103231 C9.45039428,18.0103231 9.60025984,17.9864317 9.74676872,17.938254 C9.77204249,17.9295663 9.79751367,17.9204836 9.82278743,17.9104137 C9.84095295,17.903108 9.85872359,17.8950126 9.8760993,17.8863248 C10.2925241,17.677226 10.5819877,17.2775884 10.647739,16.8354994 L10.8049102,15.9491492 C10.8155726,15.936315 10.8266299,15.922691 10.8382795,15.9082772 C11.304857,15.3358715 11.4679517,15.1084098 11.4679517,14.8023633 L11.4679517,13.885211 C11.507442,13.7477863 11.6470401,13.3902055 11.7418167,13.1475402 C12.1564644,12.0860525 12.3489795,11.5934163 11.8132941,11.2585422 M9.9993089,18.6220212 C5.24547125,18.6216263 1.37799248,14.7539882 1.37799248,10 C1.37799248,5.94024371 4.19917676,2.52910861 7.98352853,1.61847217 C7.88835699,1.79281995 7.79022369,1.96460089 7.68636429,2.12947111 C7.20043662,2.85647964 6.83258484,2.98896816 6.10892582,3.1179026 C5.85579325,3.16292105 5.64866679,3.34477191 5.57126589,3.59020146 L4.9224409,5.64446462 C4.88374045,5.76411893 4.86300805,5.88870944 4.86063863,6.01468214 C4.84760687,6.7225381 5.4131074,7.3093576 6.13419959,7.32278415 C6.92755892,7.32278415 8.05954729,7.13007355 8.63867197,7.02739988 C8.82151188,7.19839105 9.13466964,7.4914059 9.67430406,7.99588902 L10.9524064,9.18098007 C11.3575765,9.59858543 12.403476,10.0191526 13.7854378,8.99814197 L16.0444782,9.91904576 L16.5444249,10.8650257 C16.6654625,11.0938694 16.9020092,11.2332687 17.1553392,11.2332687 C17.1889059,11.2332687 17.223065,11.2307019 17.2572241,11.2255682 L18.5568486,11.0320678 C18.039921,15.296579 14.3989189,18.6170849 9.9993089,18.6220212 M8.84560091,2.88214806 C9.14572692,2.40570276 9.40932442,1.90418139 9.63520869,1.38725897 C9.75624638,1.38232273 9.87767891,1.37797884 9.99990129,1.37797884 C14.6291472,1.37797884 18.4164607,5.04540325 18.6125299,9.62642579 L17.5378024,9.78635978 L17.1490208,9.05105839 C17.0731995,8.9075127 16.9492001,8.79536147 16.7989396,8.7339547 L13.9295772,7.56446214 C13.6865146,7.46554003 13.4088981,7.51213806 13.2120391,7.68569606 C12.5106921,8.30292275 12.0855794,8.30331768 11.9408476,8.21051645 C11.9295929,8.19432562 11.9394655,8.21130626 11.9088605,8.18287356 L10.6161468,6.98435596 C10.011156,6.41866354 9.40774481,5.85415581 9.34298078,5.79314397 C9.08787368,5.54297563 8.82091954,5.59075834 8.51269803,5.64584672 C8.08817774,5.72146983 7.00199807,5.91575999 6.27893139,5.93846668 L6.76683355,4.39382036 C7.47568378,4.2240139 8.16933021,3.89427347 8.84560091,2.88214806 M9.99990129,-0.00416666667 C4.4837041,-0.00416666667 -0.00416666667,4.48385726 -0.00416666667,10 C-0.00416666667,15.5163402 4.4837041,20.0041667 9.99990129,20.0041667 L10.0006911,20.0041667 C15.5105698,19.9980457 19.9980457,15.5106142 20.0041667,10 C20.0041667,4.48385726 15.5162959,-0.00416666667 9.99990129,-0.00416666667" id="Produtos-TAP"></path>
                </g>
            </g>
        </g>
    </g>
</svg>