<?xml version="1.0" encoding="UTF-8"?>
<svg width="20px" height="20px" viewBox="0 0 20 20" version="1.1" xmlns="http://www.w3.org/2000/svg" xmlns:xlink="http://www.w3.org/1999/xlink">
    <title>icons / Vários / 16 / Produtos TAP Copy 26</title>
    <defs>
        <path d="M9.16747963,12.0203846 L9.31712649,11.8778846 L9.31712649,15.9788461 C9.31712649,16.3505769 9.62266362,16.6519231 10,16.6519231 C10.3771413,16.6519231 10.6828736,16.3505769 10.6828736,15.9788461 L10.6828736,10.2905769 C10.6828736,10.0203846 10.5187888,9.77634615 10.2665158,9.67076925 C10.0142428,9.56576925 9.72216803,9.61903845 9.52511026,9.80673075 L8.2180903,11.0528846 C7.94689194,11.3111538 7.93967303,11.7373077 8.20189643,12.0046154 C8.46431497,12.2719231 8.89647638,12.2790384 9.16747963,12.0203846 Z M18.634253,6.6005769 L1.36574706,6.6005769 L1.36574706,5.0346154 C1.36574706,3.89769231 2.30440551,2.9725 3.45807157,2.9725 L4.46443205,2.9725 L4.46443205,3.73423077 C4.46443205,4.10596154 4.76996918,4.40730769 5.14730559,4.40730769 C5.52444687,4.40730769 5.8301791,4.10596154 5.8301791,3.73423077 L5.8301791,2.9725 L13.9756897,2.9725 L13.9756897,3.73423077 C13.9756897,4.10596154 14.2812268,4.40730769 14.6585633,4.40730769 C15.0357045,4.40730769 15.3414368,4.10596154 15.3414368,3.73423077 L15.3414368,2.9725 L16.5421236,2.9725 C17.6957896,2.9725 18.634253,3.89769231 18.634253,5.0346154 L18.634253,6.6005769 Z M18.634253,16.5917307 C18.634253,17.7288461 17.6955945,18.6538461 16.5419285,18.6538461 L3.45807157,18.6538461 C2.30440551,18.6538461 1.36574706,17.7288461 1.36574706,16.5917307 L1.36574706,7.94673075 L18.634253,7.94673075 L18.634253,16.5917307 Z M16.5421236,1.62634616 L15.3414368,1.62634616 L15.3414368,0.673076925 C15.3414368,0.301538462 15.0357045,0 14.6585633,0 C14.2812268,0 13.9756897,0.301538462 13.9756897,0.673076925 L13.9756897,1.62634616 L5.8301791,1.62634616 L5.8301791,0.673076925 C5.8301791,0.301538462 5.52444687,0 5.14730559,0 C4.76996918,0 4.46443205,0.301538462 4.46443205,0.673076925 L4.46443205,1.62634616 L3.45807157,1.62634616 C1.55129356,1.62634616 0,3.15519231 0,5.0346154 L0,16.5917307 C0,18.4711539 1.55129356,20 3.45807157,20 L16.5419285,20 C18.4487065,20 20,18.4711539 20,16.5917307 L20,5.0346154 C20,3.15519231 18.4489016,1.62634616 16.5421236,1.62634616 Z" id="path-1"></path>
    </defs>
    <g id="Menu" stroke="none" stroke-width="1" fill="none" fill-rule="evenodd">
        <g id="1920---Menu---Reservar-e-gerir-Copy" transform="translate(-391.000000, -128.000000)">
            <g id="Group-13-Copy" transform="translate(358.000000, 96.000000)">
                <g id="icons-/-Vários-/-16-/-Produtos-TAP-Copy-26" transform="translate(33.000000, 32.000000)">
                    <mask id="mask-2" fill="white">
                        <use xlink:href="#path-1"></use>
                    </mask>
                    <use id="Booking" fill="#3A970E" fill-rule="nonzero" xlink:href="#path-1"></use>
                </g>
            </g>
        </g>
    </g>
</svg>