<?xml version="1.0" encoding="UTF-8"?>
<svg width="21px" height="20px" viewBox="0 0 21 20" version="1.1" xmlns="http://www.w3.org/2000/svg" xmlns:xlink="http://www.w3.org/1999/xlink">
    <title>icons / Vários / 16 / Produtos TAP Copy 28</title>
    <defs>
        <path d="M17.1701762,0.15462963 C18.573299,0.15462963 19.7149341,1.43786108 19.7149341,3.01500971 L19.7149341,13.199061 C19.7149341,14.7763977 18.573299,16.059441 17.1701762,16.059441 L13.0356261,16.059441 L13.0356261,18.3949825 L14.2468158,18.3949825 C14.5838736,18.3949825 14.8570163,18.6682145 14.8570163,19.0053825 C14.8570163,19.3425504 14.5838736,19.6159704 14.2468158,19.6159704 L5.46376364,19.6159704 C5.12689385,19.6159704 4.85356315,19.3425504 4.85356315,19.0053825 C4.85356315,18.6682145 5.12689385,18.3949825 5.46376364,18.3949825 L6.67495333,18.3949825 L6.67495333,16.059441 L2.54059121,16.059441 C1.13728047,16.059441 -0.00416666667,14.7763977 -0.00416666667,13.199061 L-0.00416666667,3.01500971 C-0.00416666667,1.43786108 1.13728047,0.15462963 2.54059121,0.15462963 L17.1701762,0.15462963 Z M18.4945331,11.4635769 L18.4945331,3.01500971 C18.4945331,2.11106868 17.9004994,1.37542954 17.1701762,1.37542954 L2.54059121,1.37542954 C1.81026807,1.37542954 1.21623432,2.11106868 1.21623432,3.01500971 L1.21623432,11.4635769 L18.4945331,11.4635769 Z M9.23907371,6.90325366 C9.60244941,6.90325366 9.89702248,7.19792302 9.89702248,7.56141752 C9.89702248,7.92491199 9.60244941,8.21958136 9.23907371,8.21958136 L3.63034238,8.21958136 C3.26696666,8.21958136 2.9723936,7.92491199 2.9723936,7.56141752 C2.9723936,7.19792302 3.26696666,6.90325366 3.63034238,6.90325366 L9.23907371,6.90325366 Z M15.1260234,6.49838887 L16.1240377,8.23913823 C16.3046916,8.5543047 16.1958481,8.95653683 15.8805966,9.13743786 C15.7773927,9.19648455 15.6649774,9.22487964 15.5538781,9.22487964 C15.3258518,9.22487964 15.1042171,9.10603405 14.9825905,8.89391723 L13.9763049,7.13906438 C13.9400237,7.46814629 13.6644372,7.72520628 13.3256875,7.72520628 C12.9623118,7.72520628 12.6677388,7.43053695 12.6677388,7.06704244 L12.6677388,4.68148056 C12.6677388,4.6707619 12.6694306,4.66060739 12.6698066,4.65026479 C12.6701826,4.63992223 12.6709345,4.62957964 12.6718744,4.61923708 C12.6790179,4.54364226 12.6989443,4.47105619 12.7303379,4.40392346 C12.7344736,4.39508527 12.7387972,4.38643513 12.7433089,4.37778496 C12.7589117,4.34769747 12.7765823,4.31855022 12.7966967,4.29090735 C12.7991406,4.28771055 12.8010204,4.28413767 12.8036522,4.28094084 C12.8263984,4.25104141 12.8525284,4.22396267 12.8803502,4.1983883 C12.8874937,4.19161863 12.8950131,4.18522504 12.9027205,4.17883143 C12.9316702,4.15457339 12.9619359,4.13200777 12.9952093,4.11263897 C12.9963372,4.11188678 12.9972771,4.11094655 12.998405,4.11038241 C12.998593,4.11019437 12.998781,4.11000632 12.999157,4.11000632 C12.9995329,4.10981827 12.9999089,4.10963023 13.0002849,4.10944218 C13.0344982,4.08969726 13.0702154,4.07484155 13.1066846,4.06205438 C13.1160839,4.05866951 13.1254831,4.05547272 13.1350704,4.05265202 C13.1704116,4.04193336 13.2063168,4.03328319 13.242598,4.02877007 C13.2448538,4.02839398 13.2471097,4.02801789 13.2493655,4.02782984 C13.2858347,4.02369281 13.3223038,4.02350477 13.358773,4.02519719 C13.3687362,4.02576133 13.3785114,4.02651351 13.3884747,4.02745375 C13.423064,4.03083858 13.4574653,4.03629197 13.4914906,4.04513016 C13.4941224,4.04569429 13.4965662,4.04607039 13.499198,4.04682257 C13.5349153,4.05641295 13.5695046,4.07014038 13.6033419,4.08593633 C13.6127412,4.0902614 13.6215765,4.09496256 13.6307878,4.09985177 C13.641127,4.10511708 13.6518421,4.10963023 13.6618054,4.11564772 L15.6677972,5.30842866 C15.9800409,5.4942189 16.0828689,5.8979554 15.8971394,6.21030117 C15.7365999,6.48052445 15.4127011,6.59297643 15.1260234,6.49838887 Z M18.4945331,13.199061 L18.4945331,12.6843768 L1.21623432,12.6843768 L1.21623432,13.199061 C1.21623432,14.1031901 1.81026807,14.8386412 2.54059121,14.8386412 L17.1701762,14.8386412 C17.9004994,14.8386412 18.4945331,14.1031901 18.4945331,13.199061 Z M7.89535432,18.3949825 L11.8152251,18.3949825 L11.8152251,16.059441 L7.89535432,16.059441 L7.89535432,18.3949825 Z M3.63034238,5.30560793 C3.26696666,5.30560793 2.9723936,5.0109386 2.9723936,4.64744409 C2.9723936,4.28394962 3.26696666,3.98928026 3.63034238,3.98928026 L9.21895927,3.98928026 C9.582335,3.98928026 9.87690803,4.28394962 9.87690803,4.64744409 C9.87690803,5.0109386 9.582335,5.30560793 9.21895927,5.30560793 L3.63034238,5.30560793 Z" id="path-1"></path>
    </defs>
    <g id="Menu" stroke="none" stroke-width="1" fill="none" fill-rule="evenodd">
        <g id="1920---Menu---Reservar-e-gerir-Copy" transform="translate(-773.000000, -128.000000)">
            <g id="Group-13-Copy" transform="translate(358.000000, 96.000000)">
                <g id="icons-/-Vários-/-16-/-Produtos-TAP-Copy-28" transform="translate(416.000000, 32.000000)">
                    <mask id="mask-2" fill="white">
                        <use xlink:href="#path-1"></use>
                    </mask>
                    <use id="Fill-41" fill="#3A970E" fill-rule="nonzero" xlink:href="#path-1"></use>
                </g>
            </g>
        </g>
    </g>
</svg>