<?xml version="1.0" encoding="utf-8"?>
<!-- Generator: Adobe Illustrator 22.0.1, SVG Export Plug-In . SVG Version: 6.00 Build 0)  -->
<svg version="1.1" id="Camada_1" xmlns="http://www.w3.org/2000/svg" xmlns:xlink="http://www.w3.org/1999/xlink" x="0px" y="0px"
	 viewBox="0 0 180 180" enable-background="new 0 0 180 180" xml:space="preserve">
<title>interface/external_link</title>
<desc>Created with Sketch.</desc>
<g id="interface_x2F_external_x5F_link">
	<path id="Fill-1" fill="#127045" d="M116.6,71.6v56.8c0,3.6-3,6.6-6.6,6.6H51.4c-3.6,0-6.6-3-6.6-6.6V71.6c0-3.6,3-6.6,6.6-6.6H110
		c0.7,0,1.4,0.1,2.1,0.3L79.9,97.5c-1.4,1.4-1.4,3.6,0,4.9c0.7,0.7,1.6,1,2.5,1c0.9,0,1.8-0.3,2.5-1l31.7-31.7
		C116.5,71.1,116.6,71.3,116.6,71.6z M144.4,41.6c0-1.9-1.6-3.5-3.5-3.5l-31.3,0c-1.9,0-3.5,1.6-3.5,3.5c0,1.9,1.6,3.5,3.5,3.5
		l22.8,0l-15.1,15.1c-2.1-1.3-4.6-2.1-7.3-2.1H51.4c-7.5,0-13.6,6.1-13.6,13.6v56.8c0,7.5,6.1,13.6,13.6,13.6H110
		c7.5,0,13.6-6.1,13.6-13.6V71.6c0-2.3-0.6-4.4-1.6-6.3l15.4-15.4l0,23c0,1.9,1.6,3.5,3.5,3.5c1.9,0,3.5-1.6,3.5-3.5L144.4,41.6z"/>
</g>
</svg>
