<svg xmlns="http://www.w3.org/2000/svg" width="100" height="100" viewBox="72 48 24 24">
  <path fill="#FFFFFF" d="M94.0147583,69.0791865 C93.5006607,69.5768066 92.6633378,69.5772489 92.1487831,69.0791865 L88.242419,65.2997067 C88.9341305,64.7689119 89.5531506,64.1534112 90.0798205,63.4666955 L94.0147583,67.274042 C94.5290844,67.7716621 94.5290844,68.5815664 94.0147583,69.0791865 M82.0252448,65.8506274 C77.3798513,65.8506274 73.6001257,62.1941151 73.6001257,57.6996106 C73.6001257,53.205106 77.3798513,49.5481514 82.0252448,49.5481514 C86.6706384,49.5481514 90.4499068,53.205106 90.4499068,57.6996106 C90.4499068,62.1941151 86.6706384,65.8506274 82.0252448,65.8506274 M90.9461743,62.1156017 C91.6500011,60.790163 92.0500325,59.2893408 92.0500325,57.6996106 C92.0500325,52.3511899 87.5527649,48 82.0252448,48 C76.4972676,48 72,52.3511899 72,57.6996106 C72,63.04781 76.4972676,67.3987788 82.0252448,67.3987788 C83.7885834,67.3987788 85.446085,66.9546805 86.8871126,66.1777297 L91.0174942,70.1739507 C91.5864532,70.724429 92.3339405,71 93.081885,71 C93.8293723,71 94.5770882,70.724429 95.1460472,70.1739507 C96.2846509,69.0725516 96.2846509,67.2804558 95.1460472,66.1792779 L90.9461743,62.1156017 Z"></path>
</svg>
