<?xml version="1.0" encoding="UTF-8"?>
<svg width="20px" height="18px" viewBox="0 0 20 18" version="1.1" xmlns="http://www.w3.org/2000/svg" xmlns:xlink="http://www.w3.org/1999/xlink">
    <title>icons / navegação / 24 / Suporte Online  Copy 2</title>
    <defs>
        <path d="M9.38152894,7.90459528 L9.38152894,12.3308159 C9.38152894,12.6693946 9.65842729,12.9438658 10,12.9438658 C10.3415727,12.9438658 10.6184711,12.6693946 10.6184711,12.3308159 L10.6184711,7.90459528 C10.6184711,7.56601657 10.3415727,7.29154537 10,7.29154537 C9.65842729,7.29154537 9.38152894,7.56601657 9.38152894,7.90459528 L9.38152894,7.90459528 Z M1.68545204,17.4441779 L10,3.16887206 L18.314548,17.4441779 L1.68545204,17.4441779 Z M19.9213357,17.7507029 L10.5355959,1.63624719 C10.4251547,1.44655203 10.2208825,1.32972222 10,1.32972222 C9.77911747,1.32972222 9.57484533,1.44655203 9.46440408,1.63624719 L0.0786642763,17.7507029 C-0.031776981,17.940398 -0.031776981,18.1740576 0.0786642763,18.3637528 C0.189105533,18.553448 0.393200977,18.6702778 0.614260197,18.6702778 L19.3857398,18.6702778 C19.606799,18.6702778 19.8108945,18.553448 19.9213357,18.3637528 C20.031777,18.1740576 20.031777,17.940398 19.9213357,17.7507029 L19.9213357,17.7507029 Z M10,14.4111571 C9.58509431,14.4111571 9.24882274,14.7444811 9.24882274,15.15575 C9.24882274,15.5668438 9.58491757,15.900343 10,15.900343 C10.4149057,15.900343 10.7511773,15.567019 10.7511773,15.15575 C10.7511773,14.7444811 10.4149057,14.4111571 10,14.4111571 L10,14.4111571 Z" id="path-1"></path>
    </defs>
    <g id="Megadrop" stroke="none" stroke-width="1" fill="none" fill-rule="evenodd">
        <g id="1920---Menu---Reservar-e-gerir-Copy" transform="translate(-524.000000, -341.000000)">
            <g id="Group-13-Copy" transform="translate(358.000000, 96.000000)">
                <g id="icons-/-navegação-/-24-/-Suporte-Online--Copy-2" transform="translate(166.000000, 244.000000)">
                    <mask id="mask-2" fill="white">
                        <use xlink:href="#path-1"></use>
                    </mask>
                    <use id="Error-or-Warning" fill="#4A4A4A" fill-rule="nonzero" xlink:href="#path-1"></use>
                </g>
            </g>
        </g>
    </g>
</svg>