<svg xmlns="http://www.w3.org/2000/svg" width="100" height="100" viewBox="0 0 24 24">
  <defs>
    <clipPath id="clip_100">
      <path d="M12 24C18.6274 24 24 18.6274 24 12C24 5.37258 18.6274 0 12 0C5.37258 0 0 5.37258 0 12C0 18.6274 5.37258 24 12 24Z" />
    </clipPath>
  </defs>
  <g>
    <g clip-path="url(#clip_100)">
      <path d="M12 24C18.6274 24 24 18.6274 24 12C24 5.37258 18.6274 0 12 0C5.37258 0 0 5.37258 0 12C0 18.6274 5.37258 24 12 24Z" fill="none" stroke="#fff" stroke-width="1" stroke-linecap="square" />
    </g>
    <path d="M0.131305 3.83154C0.476355 2.42117 1.75136 0 6.43902 0C11.1267 0 12.4017 2.42117 12.7467 3.83154C12.8779 4.36746 12.5064 5.07703 12.0278 5.35155C10.8906 6.00385 8.74321 7.02439 6.43902 7.02439C4.13484 7.02439 1.98744 6.00385 0.85021 5.35155C0.371618 5.07703 0.000188574 4.36746 0.131305 3.83154Z" transform="translate(5.5609756 15.219512)" fill="#fff" fill-rule="evenodd" stroke="none" />
    <path d="M3.5122 7.02439C5.45193 7.02439 7.02439 5.45193 7.02439 3.5122C7.02439 1.57246 5.45193 0 3.5122 0C1.57246 0 0 1.57246 0 3.5122C0 5.45193 1.57246 7.02439 3.5122 7.02439Z" transform="translate(8.487804 7.02439)" fill="#fff" fill-rule="evenodd" stroke="none" />
  </g>
</svg>
