<?xml version="1.0" encoding="utf-8"?>
<!-- Generator: Adobe Illustrator 22.0.1, SVG Export Plug-In . SVG Version: 6.00 Build 0)  -->
<svg version="1.1" id="Layer_1" xmlns="http://www.w3.org/2000/svg" xmlns:xlink="http://www.w3.org/1999/xlink" x="0px" y="0px"
	 width="310px" height="186px" viewBox="0 0 310 186" style="enable-background:new 0 0 310 186;" xml:space="preserve">
<style type="text/css">
	.st0{fill:none;}
	.st1{fill:#FFFFFF;}
	.st2{fill:#E1F5FF;}
	.st3{fill:#ED5958;}
	.st4{fill:#D0E95D;}
	.st5{fill:#F4FCA0;}
	.st6{fill:#127045;}
	.st7{fill:#A2CA54;}
	.st8{fill:#FDAEAF;}
	.st9{fill:#0B6911;}
	.st10{fill:#DBE684;}
	.st11{fill:#4C9734;}
	.st12{clip-path:url(#SVGID_2_);}
	.st13{opacity:0.2475;clip-path:url(#SVGID_4_);fill:none;}
	.st14{clip-path:url(#SVGID_6_);}
	.st15{clip-path:url(#SVGID_8_);}
	.st16{fill:#73B448;}
	.st17{fill:#356D4A;}
	.st18{fill:#E30613;}
	.st19{fill:#C8D400;}
	.st20{fill:#76B82A;}
	.st21{fill:#B70E0C;}
	.st22{fill:#94CE28;}
	.st23{clip-path:url(#SVGID_10_);}
	.st24{opacity:0.2475;clip-path:url(#SVGID_12_);fill:none;}
	.st25{clip-path:url(#SVGID_14_);}
	.st26{opacity:0.5;}
	.st27{clip-path:url(#SVGID_18_);}
	.st28{fill:#BFD730;}
	.st29{fill-rule:evenodd;clip-rule:evenodd;fill:#ED1D24;}
	.st30{fill-rule:evenodd;clip-rule:evenodd;fill:#72BF44;}
	.st31{fill-rule:evenodd;clip-rule:evenodd;fill:#BA131A;}
	.st32{fill:#F9F9E8;}
	.st33{opacity:0.2475;fill:none;}
	.st34{clip-path:url(#SVGID_22_);}
	.st35{fill:#BA131A;}
	.st36{fill:#EF5854;}
	.st37{clip-path:url(#SVGID_26_);}
	.st38{fill:#3B7F0E;}
	.st39{clip-path:url(#SVGID_30_);}
	.st40{opacity:0.2475;clip-path:url(#SVGID_32_);}
	.st41{clip-path:url(#SVGID_34_);}
	.st42{opacity:0.2475;clip-path:url(#SVGID_36_);}
	.st43{fill:#4F953A;}
	.st44{clip-path:url(#SVGID_38_);}
	.st45{fill:#BED441;}
	.st46{fill-rule:evenodd;clip-rule:evenodd;fill:#74BC4C;}
	.st47{fill:#3D7E1A;}
	.st48{fill:#FFFFFF;stroke:#0B6911;stroke-miterlimit:10;}
	.st49{clip-path:url(#SVGID_40_);}
	.st50{clip-path:url(#SVGID_42_);}
	.st51{opacity:0.2475;clip-path:url(#SVGID_44_);}
	.st52{fill:#ED1D24;}
	.st53{clip-path:url(#SVGID_46_);}
	.st54{clip-path:url(#SVGID_48_);}
	.st55{clip-path:url(#SVGID_50_);}
	.st56{clip-path:url(#SVGID_52_);}
	.st57{opacity:0.2475;clip-path:url(#SVGID_54_);}
	.st58{clip-path:url(#SVGID_56_);}
	.st59{opacity:0.2475;clip-path:url(#SVGID_58_);}
	.st60{clip-path:url(#SVGID_60_);}
	.st61{opacity:0.2475;clip-path:url(#SVGID_62_);}
	.st62{fill:#DAE488;}
	.st63{clip-path:url(#SVGID_66_);}
	.st64{fill:#136818;}
	.st65{fill:#A2C85B;}
	.st66{clip-path:url(#SVGID_68_);}
	.st67{fill-rule:evenodd;clip-rule:evenodd;fill:#E9222D;}
	.st68{fill-rule:evenodd;clip-rule:evenodd;fill:#B71721;}
	.st69{clip-path:url(#SVGID_70_);}
	.st70{clip-path:url(#SVGID_72_);}
	.st71{clip-path:url(#SVGID_76_);}
	.st72{clip-path:url(#SVGID_78_);}
	.st73{clip-path:url(#SVGID_80_);}
	.st74{clip-path:url(#SVGID_82_);}
	.st75{clip-path:url(#SVGID_84_);}
	.st76{clip-path:url(#SVGID_86_);}
	.st77{clip-path:url(#SVGID_88_);}
	.st78{clip-path:url(#SVGID_90_);}
	.st79{clip-path:url(#SVGID_92_);}
	.st80{clip-path:url(#SVGID_94_);}
	.st81{clip-path:url(#SVGID_96_);}
	.st82{clip-path:url(#SVGID_100_);}
	.st83{fill:#B71721;}
	.st84{fill:#EC5958;}
	.st85{clip-path:url(#SVGID_104_);}
	.st86{clip-path:url(#SVGID_106_);}
	.st87{opacity:0.35;}
	.st88{clip-path:url(#SVGID_108_);}
	.st89{fill-rule:evenodd;clip-rule:evenodd;fill:#FDAEAF;}
	.st90{fill-rule:evenodd;clip-rule:evenodd;fill:#73B448;}
	.st91{fill-rule:evenodd;clip-rule:evenodd;fill:#ED5958;}
	.st92{fill-rule:evenodd;clip-rule:evenodd;fill:#ED1C24;}
	.st93{fill-rule:evenodd;clip-rule:evenodd;fill:#46A41A;}
	.st94{fill-rule:evenodd;clip-rule:evenodd;fill:#BA141A;}
	.st95{clip-path:url(#SVGID_110_);}
	.st96{clip-path:url(#SVGID_112_);}
	.st97{clip-path:url(#SVGID_114_);}
	.st98{clip-path:url(#SVGID_116_);fill:#0B6911;}
	.st99{clip-path:url(#SVGID_118_);}
	.st100{opacity:0.2475;clip-path:url(#SVGID_120_);}
	.st101{clip-path:url(#SVGID_122_);}
	.st102{opacity:0.2475;clip-path:url(#SVGID_124_);}
	.st103{clip-path:url(#SVGID_126_);}
	.st104{opacity:0.61;}
	.st105{fill:none;stroke:#FFFFFF;stroke-width:4;stroke-linecap:round;stroke-miterlimit:10;}
	.st106{clip-path:url(#SVGID_128_);}
	.st107{opacity:0.2475;clip-path:url(#SVGID_130_);}
	.st108{clip-path:url(#SVGID_132_);}
	.st109{opacity:0.2475;clip-path:url(#SVGID_134_);}
	.st110{clip-path:url(#SVGID_136_);fill:#FFFFFF;}
	.st111{clip-path:url(#SVGID_136_);}
	.st112{fill:#FFFFFF;stroke:#0B6911;stroke-linecap:round;stroke-miterlimit:10;}
	.st113{fill:#5AA5FB;}
	.st114{clip-path:url(#SVGID_138_);}
	.st115{clip-path:url(#SVGID_140_);}
	.st116{fill:#F1FF8D;}
	.st117{fill-rule:evenodd;clip-rule:evenodd;fill:#A2CA54;}
	.st118{clip-path:url(#SVGID_142_);}
	.st119{clip-path:url(#SVGID_144_);}
	.st120{clip-path:url(#SVGID_148_);}
	.st121{clip-path:url(#SVGID_150_);}
	.st122{clip-path:url(#SVGID_152_);}
	.st123{clip-path:url(#SVGID_154_);}
	.st124{fill:none;stroke:#FFFFFF;stroke-linecap:round;stroke-miterlimit:10;}
	.st125{clip-path:url(#SVGID_156_);fill:#0B6911;}
	.st126{clip-path:url(#SVGID_158_);}
	.st127{opacity:0.2475;clip-path:url(#SVGID_160_);}
	.st128{clip-path:url(#SVGID_162_);}
	.st129{opacity:0.2475;clip-path:url(#SVGID_164_);}
	.st130{clip-path:url(#SVGID_166_);}
	.st131{clip-path:url(#SVGID_168_);}
	.st132{fill:#0B6911;stroke:#0B6911;stroke-width:4.000000e-02;stroke-miterlimit:10;}
	.st133{fill:#0B6911;stroke:#0B6911;stroke-width:8.000000e-02;stroke-miterlimit:10;}
	.st134{fill:#0B6911;stroke:#0B6911;stroke-width:0.12;stroke-miterlimit:10;}
	.st135{fill:#0B6911;stroke:#0B6911;stroke-width:0.16;stroke-miterlimit:10;}
	.st136{fill:#0B6911;stroke:#0B6911;stroke-width:0.2;stroke-miterlimit:10;}
	.st137{fill:#0B6911;stroke:#0B6911;stroke-width:0.24;stroke-miterlimit:10;}
	.st138{fill:#0B6911;stroke:#0B6911;stroke-width:0.28;stroke-miterlimit:10;}
	.st139{fill:#0B6911;stroke:#0B6911;stroke-width:0.32;stroke-miterlimit:10;}
	.st140{fill:#0B6911;stroke:#0B6911;stroke-width:0.36;stroke-miterlimit:10;}
	.st141{fill:#0B6911;stroke:#0B6911;stroke-width:0.4;stroke-miterlimit:10;}
	.st142{fill:#0B6911;stroke:#0B6911;stroke-width:0.44;stroke-miterlimit:10;}
	.st143{fill:#0B6911;stroke:#0B6911;stroke-width:0.48;stroke-miterlimit:10;}
	.st144{fill:#0B6911;stroke:#0B6911;stroke-width:0.52;stroke-miterlimit:10;}
	.st145{fill:#0B6911;stroke:#0B6911;stroke-width:0.56;stroke-miterlimit:10;}
	.st146{fill:#0B6911;stroke:#0B6911;stroke-width:0.6;stroke-miterlimit:10;}
	.st147{fill:#0B6911;stroke:#0B6911;stroke-width:0.64;stroke-miterlimit:10;}
	.st148{fill:#0B6911;stroke:#0B6911;stroke-width:0.68;stroke-miterlimit:10;}
	.st149{fill:#0B6911;stroke:#0B6911;stroke-width:0.72;stroke-miterlimit:10;}
	.st150{fill:#0B6911;stroke:#0B6911;stroke-width:0.76;stroke-miterlimit:10;}
	.st151{fill:#0B6911;stroke:#0B6911;stroke-width:0.8;stroke-miterlimit:10;}
	.st152{fill:#0B6911;stroke:#0B6911;stroke-width:0.84;stroke-miterlimit:10;}
	.st153{fill:#0B6911;stroke:#0B6911;stroke-width:0.88;stroke-miterlimit:10;}
	.st154{fill:#0B6911;stroke:#0B6911;stroke-width:0.92;stroke-miterlimit:10;}
	.st155{fill:#0B6911;stroke:#0B6911;stroke-width:0.96;stroke-miterlimit:10;}
	.st156{fill:#0B6911;stroke:#0B6911;stroke-miterlimit:10;}
	.st157{opacity:0.3;}
	.st158{clip-path:url(#SVGID_170_);}
	.st159{opacity:0.2475;clip-path:url(#SVGID_172_);}
	.st160{clip-path:url(#SVGID_174_);}
	.st161{opacity:0.2475;clip-path:url(#SVGID_176_);}
	.st162{clip-path:url(#SVGID_178_);}
	.st163{clip-path:url(#SVGID_180_);}
	.st164{opacity:0.2475;clip-path:url(#SVGID_182_);}
	.st165{clip-path:url(#SVGID_184_);}
	.st166{opacity:0.2475;clip-path:url(#SVGID_186_);}
	.st167{fill:#EA5A5C;}
	.st168{fill:#E1F4FD;}
	.st169{fill:none;stroke:#FFFFFF;stroke-miterlimit:10;}
	.st170{clip-path:url(#SVGID_190_);}
	.st171{fill:none;stroke:#136818;stroke-miterlimit:10;}
	.st172{fill:none;stroke:#136818;stroke-width:0.9453;stroke-linecap:round;stroke-miterlimit:10;}
	.st173{fill:none;stroke:#136818;stroke-width:1.0199;stroke-linecap:round;stroke-miterlimit:10;}
	.st174{fill:#FAADAF;}
	.st175{clip-path:url(#SVGID_194_);}
	.st176{fill:#FFFFFF;stroke:#136818;stroke-width:0.9453;stroke-linecap:round;stroke-miterlimit:10;}
	.st177{clip-path:url(#SVGID_200_);}
	.st178{clip-path:url(#SVGID_210_);}
	.st179{fill:#75B24E;}
	.st180{fill:#CFE667;}
	.st181{clip-path:url(#SVGID_214_);}
	.st182{fill:#7F2C28;}
	.st183{clip-path:url(#SVGID_216_);}
	.st184{clip-path:url(#SVGID_218_);}
	.st185{clip-path:url(#SVGID_220_);}
	.st186{opacity:0.2475;clip-path:url(#SVGID_222_);}
	.st187{clip-path:url(#SVGID_224_);}
	.st188{opacity:0.2475;clip-path:url(#SVGID_226_);}
	.st189{clip-path:url(#SVGID_228_);}
	.st190{opacity:0.2475;clip-path:url(#SVGID_230_);}
	.st191{clip-path:url(#SVGID_232_);}
	.st192{clip-path:url(#SVGID_234_);}
	.st193{opacity:0.2475;clip-path:url(#SVGID_236_);}
	.st194{clip-path:url(#SVGID_238_);}
	.st195{opacity:0.2475;clip-path:url(#SVGID_240_);}
	.st196{clip-path:url(#SVGID_242_);}
	.st197{clip-path:url(#SVGID_244_);}
	.st198{opacity:0.2475;clip-path:url(#SVGID_246_);}
	.st199{fill:#FC7575;}
	.st200{fill:#D13D3D;}
	.st201{clip-path:url(#SVGID_248_);}
	.st202{opacity:0.2475;clip-path:url(#SVGID_250_);}
	.st203{clip-path:url(#SVGID_252_);}
	.st204{opacity:0.2475;clip-path:url(#SVGID_254_);}
	.st205{clip-path:url(#SVGID_256_);}
	.st206{clip-path:url(#SVGID_258_);}
	.st207{opacity:0.2475;clip-path:url(#SVGID_260_);}
	.st208{clip-path:url(#SVGID_262_);}
	.st209{clip-path:url(#SVGID_264_);}
	.st210{clip-path:url(#SVGID_268_);}
	.st211{clip-path:url(#SVGID_270_);}
	.st212{clip-path:url(#SVGID_272_);}
	.st213{fill:#B62226;}
	.st214{clip-path:url(#SVGID_274_);}
	.st215{opacity:0.2475;clip-path:url(#SVGID_276_);}
	.st216{clip-path:url(#SVGID_278_);}
	.st217{clip-path:url(#SVGID_280_);}
	.st218{clip-path:url(#SVGID_282_);}
	.st219{opacity:0.2475;clip-path:url(#SVGID_284_);}
	.st220{clip-path:url(#SVGID_286_);}
	.st221{opacity:0.2475;clip-path:url(#SVGID_288_);}
	.st222{clip-path:url(#SVGID_290_);}
	.st223{opacity:0.2475;clip-path:url(#SVGID_292_);}
	.st224{clip-path:url(#SVGID_294_);}
	.st225{opacity:0.2475;clip-path:url(#SVGID_296_);}
	.st226{clip-path:url(#SVGID_298_);}
	.st227{opacity:0.2475;clip-path:url(#SVGID_300_);}
	.st228{clip-path:url(#SVGID_302_);}
	.st229{opacity:0.2475;clip-path:url(#SVGID_304_);}
	.st230{clip-path:url(#SVGID_306_);}
	.st231{opacity:0.2475;clip-path:url(#SVGID_308_);}
	.st232{clip-path:url(#SVGID_310_);}
	.st233{fill:#94CB39;}
	.st234{clip-path:url(#SVGID_312_);}
	.st235{clip-path:url(#SVGID_314_);}
	.st236{clip-path:url(#SVGID_316_);}
	.st237{clip-path:url(#SVGID_318_);}
	.st238{clip-path:url(#SVGID_322_);}
	.st239{clip-path:url(#SVGID_324_);}
	.st240{clip-path:url(#SVGID_326_);}
	.st241{clip-path:url(#SVGID_328_);}
	.st242{clip-path:url(#SVGID_330_);}
	.st243{clip-path:url(#SVGID_332_);}
	.st244{clip-path:url(#SVGID_334_);}
	.st245{clip-path:url(#SVGID_336_);}
	.st246{opacity:0.2475;clip-path:url(#SVGID_338_);}
	.st247{clip-path:url(#SVGID_340_);}
	.st248{opacity:0.2475;clip-path:url(#SVGID_342_);}
	.st249{clip-path:url(#SVGID_344_);}
	.st250{opacity:0.2475;clip-path:url(#SVGID_346_);}
	.st251{clip-path:url(#SVGID_348_);}
	.st252{opacity:0.2475;clip-path:url(#SVGID_350_);}
	.st253{clip-path:url(#SVGID_352_);}
	.st254{opacity:0.2475;clip-path:url(#SVGID_354_);}
	.st255{clip-path:url(#SVGID_356_);}
	.st256{opacity:0.2475;clip-path:url(#SVGID_358_);}
	.st257{clip-path:url(#SVGID_360_);}
	.st258{opacity:0.2475;clip-path:url(#SVGID_362_);}
	.st259{clip-path:url(#SVGID_364_);}
	.st260{clip-path:url(#SVGID_366_);}
	.st261{clip-path:url(#SVGID_370_);}
	.st262{clip-path:url(#SVGID_372_);}
	.st263{clip-path:url(#SVGID_374_);}
	.st264{clip-path:url(#SVGID_376_);}
	.st265{clip-path:url(#SVGID_378_);}
	.st266{clip-path:url(#SVGID_380_);}
	.st267{opacity:0.2475;clip-path:url(#SVGID_382_);}
	.st268{clip-path:url(#SVGID_384_);}
	.st269{fill:#FFAEAE;}
	.st270{clip-path:url(#SVGID_386_);}
	.st271{clip-path:url(#SVGID_388_);}
	.st272{clip-path:url(#SVGID_392_);}
	.st273{clip-path:url(#SVGID_395_);}
	.st274{clip-path:url(#SVGID_396_);}
	.st275{clip-path:url(#SVGID_398_);}
	.st276{clip-path:url(#SVGID_400_);}
	.st277{clip-path:url(#SVGID_404_);}
	.st278{clip-path:url(#SVGID_406_);}
	.st279{clip-path:url(#SVGID_408_);}
	.st280{clip-path:url(#SVGID_410_);}
	.st281{clip-path:url(#SVGID_412_);}
	.st282{clip-path:url(#SVGID_414_);}
	.st283{clip-path:url(#SVGID_416_);}
	.st284{clip-path:url(#SVGID_418_);}
	.st285{clip-path:url(#SVGID_422_);}
	.st286{clip-path:url(#SVGID_430_);}
	.st287{clip-path:url(#SVGID_432_);}
	.st288{clip-path:url(#SVGID_434_);}
	.st289{clip-path:url(#SVGID_436_);}
	.st290{clip-path:url(#SVGID_438_);}
	.st291{clip-path:url(#SVGID_440_);}
	.st292{clip-path:url(#SVGID_442_);}
	.st293{clip-path:url(#SVGID_444_);}
	.st294{clip-path:url(#SVGID_446_);}
	.st295{clip-path:url(#SVGID_448_);}
	.st296{clip-path:url(#SVGID_450_);}
	.st297{clip-path:url(#SVGID_452_);}
	.st298{clip-path:url(#SVGID_454_);}
	.st299{clip-path:url(#SVGID_456_);}
	.st300{clip-path:url(#SVGID_458_);}
	.st301{clip-path:url(#SVGID_460_);}
	.st302{clip-path:url(#SVGID_462_);}
	.st303{clip-path:url(#SVGID_464_);}
	.st304{clip-path:url(#SVGID_466_);}
	.st305{clip-path:url(#SVGID_468_);}
	.st306{opacity:0.2475;clip-path:url(#SVGID_470_);}
	.st307{clip-path:url(#SVGID_472_);}
	.st308{opacity:0.2475;clip-path:url(#SVGID_474_);}
	.st309{clip-path:url(#SVGID_476_);}
	.st310{opacity:0.2475;clip-path:url(#SVGID_478_);}
	.st311{clip-path:url(#SVGID_480_);}
	.st312{opacity:0.2475;clip-path:url(#SVGID_482_);}
	.st313{clip-path:url(#SVGID_484_);}
	.st314{opacity:0.2475;clip-path:url(#SVGID_486_);}
	.st315{clip-path:url(#SVGID_488_);}
	.st316{opacity:0.2475;clip-path:url(#SVGID_490_);}
	.st317{clip-path:url(#SVGID_492_);}
	.st318{opacity:0.2475;clip-path:url(#SVGID_494_);}
	.st319{clip-path:url(#SVGID_496_);}
	.st320{opacity:0.2475;clip-path:url(#SVGID_498_);}
	.st321{clip-path:url(#SVGID_500_);}
	.st322{clip-path:url(#SVGID_502_);}
	.st323{clip-path:url(#SVGID_504_);}
	.st324{clip-path:url(#SVGID_506_);}
	.st325{clip-path:url(#SVGID_508_);}
	.st326{clip-path:url(#SVGID_510_);}
	.st327{opacity:0.2475;clip-path:url(#SVGID_512_);}
	.st328{clip-path:url(#SVGID_514_);}
	.st329{clip-path:url(#SVGID_516_);}
	
		.st330{fill:none;stroke:#4C9734;stroke-linecap:round;stroke-linejoin:round;stroke-miterlimit:10;stroke-dasharray:1.6267,4.0666;}
	.st331{clip-path:url(#SVGID_518_);fill:#0B6911;}
	.st332{clip-path:url(#SVGID_520_);}
	.st333{clip-path:url(#SVGID_522_);}
	.st334{clip-path:url(#SVGID_524_);}
	.st335{clip-path:url(#SVGID_526_);}
	.st336{clip-path:url(#SVGID_528_);}
	.st337{clip-path:url(#SVGID_531_);}
	.st338{clip-path:url(#SVGID_534_);}
	.st339{clip-path:url(#SVGID_536_);}
	.st340{clip-path:url(#SVGID_538_);}
	.st341{clip-path:url(#SVGID_540_);}
	.st342{clip-path:url(#SVGID_543_);}
	.st343{clip-path:url(#SVGID_546_);}
	.st344{clip-path:url(#SVGID_548_);}
	.st345{clip-path:url(#SVGID_550_);}
	.st346{clip-path:url(#SVGID_552_);}
	.st347{clip-path:url(#SVGID_554_);}
	.st348{clip-path:url(#SVGID_556_);}
	.st349{clip-path:url(#SVGID_558_);}
	.st350{opacity:0.2475;clip-path:url(#SVGID_560_);}
	.st351{clip-path:url(#SVGID_562_);}
	.st352{clip-path:url(#SVGID_564_);}
	.st353{fill:#0B6911;stroke:#0B6911;stroke-linecap:round;stroke-miterlimit:10;}
	.st354{clip-path:url(#SVGID_566_);}
	.st355{clip-path:url(#SVGID_568_);}
	.st356{opacity:0.2475;clip-path:url(#SVGID_570_);}
	.st357{clip-path:url(#SVGID_572_);}
	.st358{opacity:0.2475;clip-path:url(#SVGID_574_);}
	.st359{clip-path:url(#SVGID_576_);}
	.st360{clip-path:url(#SVGID_578_);}
	.st361{clip-path:url(#SVGID_580_);}
	.st362{clip-path:url(#SVGID_582_);}
	.st363{clip-path:url(#SVGID_584_);}
	.st364{fill:none;stroke:#0B6911;stroke-linecap:round;stroke-linejoin:round;stroke-miterlimit:10;}
	.st365{fill:none;stroke:#0B6911;stroke-width:1.005;stroke-linecap:round;stroke-linejoin:round;stroke-miterlimit:10;}
	.st366{clip-path:url(#SVGID_586_);}
	.st367{opacity:0.2475;clip-path:url(#SVGID_588_);}
	.st368{clip-path:url(#SVGID_590_);}
	.st369{clip-path:url(#SVGID_592_);}
	.st370{clip-path:url(#SVGID_594_);}
	.st371{clip-path:url(#SVGID_596_);}
	.st372{opacity:0.2475;clip-path:url(#SVGID_598_);}
	.st373{clip-path:url(#SVGID_600_);}
	.st374{opacity:0.2475;clip-path:url(#SVGID_602_);}
	.st375{clip-path:url(#SVGID_604_);}
	.st376{clip-path:url(#SVGID_606_);}
	.st377{clip-path:url(#SVGID_612_);}
	.st378{clip-path:url(#SVGID_614_);}
	.st379{clip-path:url(#SVGID_616_);}
	.st380{clip-path:url(#SVGID_618_);}
	.st381{clip-path:url(#SVGID_620_);}
	.st382{clip-path:url(#SVGID_624_);}
	.st383{clip-path:url(#SVGID_628_);}
	.st384{clip-path:url(#SVGID_630_);}
</style>
<g>
	<g>
		<defs>
			<rect id="SVGID_219_" y="-633" width="310" height="186"/>
		</defs>
		<clipPath id="SVGID_2_">
			<use xlink:href="#SVGID_219_"  style="overflow:visible;"/>
		</clipPath>
		<g class="st12">
			<defs>
				<rect id="SVGID_221_" x="-264" y="-847.5" width="1600" height="2462.3"/>
			</defs>
			<clipPath id="SVGID_4_">
				<use xlink:href="#SVGID_221_"  style="overflow:visible;"/>
			</clipPath>
		</g>
	</g>
</g>
<g>
	<g>
		<defs>
			<rect id="SVGID_223_" width="310" height="186"/>
		</defs>
		<clipPath id="SVGID_6_">
			<use xlink:href="#SVGID_223_"  style="overflow:visible;"/>
		</clipPath>
		<g class="st14">
			<defs>
				<rect id="SVGID_225_" x="-264" y="-214.5" width="1600" height="2462.3"/>
			</defs>
			<clipPath id="SVGID_8_">
				<use xlink:href="#SVGID_225_"  style="overflow:visible;"/>
			</clipPath>
			<g style="opacity:0.2475;clip-path:url(#SVGID_8_);">
				<g>
					<rect x="-5" y="-4.9" class="st0" width="320" height="195.8"/>
				</g>
			</g>
		</g>
	</g>
</g>
<g>
	<g>
		<defs>
			<rect id="SVGID_227_" y="315" width="310" height="186"/>
		</defs>
		<clipPath id="SVGID_10_">
			<use xlink:href="#SVGID_227_"  style="overflow:visible;"/>
		</clipPath>
		<g class="st23">
			<defs>
				<rect id="SVGID_229_" x="-264" y="100.5" width="1600" height="2462.3"/>
			</defs>
			<clipPath id="SVGID_12_">
				<use xlink:href="#SVGID_229_"  style="overflow:visible;"/>
			</clipPath>
		</g>
	</g>
</g>
<g>
	<g>
		<defs>
			<rect id="SVGID_335_" x="-1095" y="-345.2" width="310" height="186"/>
		</defs>
		<clipPath id="SVGID_14_">
			<use xlink:href="#SVGID_335_"  style="overflow:visible;"/>
		</clipPath>
		<g class="st25">
			<defs>
				<rect id="SVGID_337_" x="-1359" y="-559.7" width="1600" height="2462.3"/>
			</defs>
			<clipPath id="SVGID_16_">
				<use xlink:href="#SVGID_337_"  style="overflow:visible;"/>
			</clipPath>
		</g>
	</g>
</g>
<g>
	<g>
		<defs>
			<rect id="SVGID_339_" x="-1095" y="-633.1" width="310" height="186"/>
		</defs>
		<clipPath id="SVGID_18_">
			<use xlink:href="#SVGID_339_"  style="overflow:visible;"/>
		</clipPath>
		<g class="st27">
			<defs>
				<rect id="SVGID_341_" x="-1359" y="-847.7" width="1600" height="2462.3"/>
			</defs>
			<clipPath id="SVGID_20_">
				<use xlink:href="#SVGID_341_"  style="overflow:visible;"/>
			</clipPath>
		</g>
	</g>
</g>
<g>
	<g>
		<defs>
			<rect id="SVGID_343_" y="-345" width="310" height="186"/>
		</defs>
		<clipPath id="SVGID_22_">
			<use xlink:href="#SVGID_343_"  style="overflow:visible;"/>
		</clipPath>
		<g class="st34">
			<defs>
				<rect id="SVGID_345_" x="-264" y="-559.5" width="1600" height="2462.3"/>
			</defs>
			<clipPath id="SVGID_24_">
				<use xlink:href="#SVGID_345_"  style="overflow:visible;"/>
			</clipPath>
		</g>
	</g>
</g>
<g>
	<g>
		<path class="st2" d="M16.8,185.1c-6.3-6.6-12.1-16.2-8-24.3c3-6,10.4-8.5,17.2-8.9c6.7-0.5,13.7,0.4,20.1-1.6
			c12.4-3.9,19.4-17.2,21.4-30.1s0.3-26,2-38.8c1.7-12.9,8-26.4,20-31.2c12.7-5,28.6,0.4,37,11.1c9.9,12.6,28.6,48.5,39.1,57.2
			c21.4,17.8,27.2,19.6,45.8,27.1c12.9,5.3,79.1,4.5,88.3,23.6c4.8,9.9-12.5,16.1-18.5,16.3"/>
	</g>
	<g>
		<path class="st2" d="M70.1,61.3c-1.6,4.1-3.3,8.3-4.9,12.4c-0.3,0.7-0.7,1.6-1.4,1.9c-1.3,0.6-2.6-0.9-3.2-2.2
			c-2.2-5.2-0.4-11.8,4-15.2c1.2-0.9,2.5-1.6,4-1.6c1.5,0,3,1,3.3,2.4c0.4,1.8-1.2,3.4-2.6,4.6"/>
	</g>
	<g>
		<path class="st2" d="M297.6,159.5c-1.4-1.1-3-2.1-4.8-2.7c-1-0.3-1.9-0.6-2.9-1c-0.9-0.4-1.8-1.1-2.2-2c-0.3-0.6-0.4-1.4,0-1.9
			c0.4-0.5,1.1-0.5,1.7-0.5c2.4,0.1,4.8,1,6.7,2.5c1.9,1.5,3.3,3.6,3.9,6c0.1,0.3,0.1,0.6,0.1,0.9c-0.1,0.3-0.3,0.6-0.6,0.6
			c-0.4,0-0.7-0.3-0.9-0.6c-0.5-0.6-0.9-1.2-1.4-1.7"/>
	</g>
	<g id="Layer_2_1_">
		<g>
			<g>
				<g>
					<path class="st10" d="M91.7,185H40.8c-1.9,0-3.5-1.6-3.5-3.5v-40.2h57.8v40.2C95.2,183.4,93.6,185,91.7,185z"/>
				</g>
				<g>
					<path class="st16" d="M95.1,141.3H37.3v-16.5c0-1.9,1.6-3.5,3.5-3.5h50.8c1.9,0,3.5,1.6,3.5,3.5V141.3z"/>
				</g>
			</g>
		</g>
		<g>
			<g>
				<path class="st4" d="M85.4,125.9h-0.7c-0.6,0-1.2-0.5-1.2-1.2V118c0-0.6,0.5-1.2,1.2-1.2h0.7c0.6,0,1.2,0.5,1.2,1.2v6.8
					C86.6,125.4,86,125.9,85.4,125.9z"/>
			</g>
			<g>
				<path class="st4" d="M47.8,125.9h-0.7c-0.6,0-1.2-0.5-1.2-1.2V118c0-0.6,0.5-1.2,1.2-1.2h0.7c0.6,0,1.2,0.5,1.2,1.2v6.8
					C48.9,125.4,48.4,125.9,47.8,125.9z"/>
			</g>
		</g>
		<g>
			<g>
				<g>
					<path class="st3" d="M68,156.2c-0.1,0-0.3,0-0.4-0.1l-3.5-3.5c-0.2-0.2-0.2-0.5,0-0.7c0.2-0.2,0.5-0.2,0.7,0l3.5,3.5
						c0.2,0.2,0.2,0.5,0,0.7C68.2,156.2,68.1,156.2,68,156.2z"/>
				</g>
				<g>
					<path class="st3" d="M64.5,156.2c-0.1,0-0.3,0-0.4-0.1c-0.2-0.2-0.2-0.5,0-0.7l3.5-3.5c0.2-0.2,0.5-0.2,0.7,0s0.2,0.5,0,0.7
						l-3.5,3.5C64.7,156.2,64.6,156.2,64.5,156.2z"/>
				</g>
			</g>
			<g>
				<g>
					<path class="st3" d="M68,165.5c-0.1,0-0.3,0-0.4-0.1l-3.5-3.5c-0.2-0.2-0.2-0.5,0-0.7c0.2-0.2,0.5-0.2,0.7,0l3.5,3.5
						c0.2,0.2,0.2,0.5,0,0.7C68.2,165.4,68.1,165.5,68,165.5z"/>
				</g>
				<g>
					<path class="st3" d="M64.5,165.5c-0.1,0-0.3,0-0.4-0.1c-0.2-0.2-0.2-0.5,0-0.7l3.5-3.5c0.2-0.2,0.5-0.2,0.7,0s0.2,0.5,0,0.7
						l-3.5,3.5C64.7,165.4,64.6,165.5,64.5,165.5z"/>
				</g>
			</g>
			<g>
				<g>
					<path class="st3" d="M56.3,165.5c-0.1,0-0.3,0-0.4-0.1l-3.5-3.5c-0.2-0.2-0.2-0.5,0-0.7s0.5-0.2,0.7,0l3.5,3.5
						c0.2,0.2,0.2,0.5,0,0.7C56.6,165.4,56.4,165.5,56.3,165.5z"/>
				</g>
				<g>
					<path class="st3" d="M52.8,165.5c-0.1,0-0.3,0-0.4-0.1c-0.2-0.2-0.2-0.5,0-0.7l3.5-3.5c0.2-0.2,0.5-0.2,0.7,0s0.2,0.5,0,0.7
						l-3.5,3.5C53.1,165.4,53,165.5,52.8,165.5z"/>
				</g>
			</g>
			<g>
				<g>
					<path class="st3" d="M79.6,156.2c-0.1,0-0.3,0-0.4-0.1l-3.5-3.5c-0.2-0.2-0.2-0.5,0-0.7s0.5-0.2,0.7,0l3.5,3.5
						c0.2,0.2,0.2,0.5,0,0.7C79.8,156.2,79.7,156.2,79.6,156.2z"/>
				</g>
				<g>
					<path class="st3" d="M76.1,156.2c-0.1,0-0.3,0-0.4-0.1c-0.2-0.2-0.2-0.5,0-0.7l3.5-3.5c0.2-0.2,0.5-0.2,0.7,0s0.2,0.5,0,0.7
						l-3.5,3.5C76.4,156.2,76.2,156.2,76.1,156.2z"/>
				</g>
			</g>
		</g>
		<g>
			<g>
				<g>
					<path class="st7" d="M48.8,182.2c-0.3,0-0.5-0.2-0.5-0.5v-36.9c0-0.3,0.2-0.5,0.5-0.5s0.5,0.2,0.5,0.5v36.9
						C49.3,182,49.1,182.2,48.8,182.2z"/>
				</g>
				<g>
					<path class="st7" d="M60.4,182.2c-0.3,0-0.5-0.2-0.5-0.5v-36.9c0-0.3,0.2-0.5,0.5-0.5s0.5,0.2,0.5,0.5v36.9
						C60.9,182,60.7,182.2,60.4,182.2z"/>
				</g>
				<g>
					<path class="st7" d="M72,182.2c-0.3,0-0.5-0.2-0.5-0.5v-36.9c0-0.3,0.2-0.5,0.5-0.5s0.5,0.2,0.5,0.5v36.9
						C72.5,182,72.3,182.2,72,182.2z"/>
				</g>
				<g>
					<path class="st7" d="M83.6,182.2c-0.3,0-0.5-0.2-0.5-0.5v-36.9c0-0.3,0.2-0.5,0.5-0.5s0.5,0.2,0.5,0.5v36.9
						C84.1,182,83.9,182.2,83.6,182.2z"/>
				</g>
			</g>
			<g>
				<g>
					<path class="st7" d="M89.3,149.8h-46c-0.3,0-0.5-0.2-0.5-0.5s0.2-0.5,0.5-0.5h46c0.3,0,0.5,0.2,0.5,0.5S89.6,149.8,89.3,149.8z
						"/>
				</g>
				<g>
					<path class="st7" d="M89.3,159.1h-46c-0.3,0-0.5-0.2-0.5-0.5s0.2-0.5,0.5-0.5h46c0.3,0,0.5,0.2,0.5,0.5S89.6,159.1,89.3,159.1z
						"/>
				</g>
				<g>
					<path class="st7" d="M89.3,168.4h-46c-0.3,0-0.5-0.2-0.5-0.5s0.2-0.5,0.5-0.5h46c0.3,0,0.5,0.2,0.5,0.5S89.6,168.4,89.3,168.4z
						"/>
				</g>
				<g>
					<path class="st7" d="M89.3,177.6h-46c-0.3,0-0.5-0.2-0.5-0.5s0.2-0.5,0.5-0.5h46c0.3,0,0.5,0.2,0.5,0.5S89.6,177.6,89.3,177.6z
						"/>
				</g>
			</g>
		</g>
		<g>
			<path class="st10" d="M84.6,134.8H47.9c-0.6,0-1-0.5-1-1l0,0c0-0.6,0.5-1,1-1h36.7c0.6,0,1,0.5,1,1l0,0
				C85.7,134.4,85.2,134.8,84.6,134.8z"/>
		</g>
	</g>
	<g>
		<g>
			<polygon class="st7" points="237,172 233.3,172 221.3,172 221.3,182.5 221.3,185 233.3,185 245.2,185 245.2,172 			"/>
		</g>
		<g>
			<path class="st4" d="M205.2,183h56.1c0.4,0,0.7,0.2,0.7,0.4v1.3c0,0.2-0.3,0.4-0.7,0.4h-56.1c-0.4,0-0.7-0.2-0.7-0.4v-1.3
				C204.5,183.2,204.9,183,205.2,183z"/>
		</g>
		<g>
			<path class="st4" d="M283.8,132.5v25.3H182.7v-57.6h101.1L283.8,132.5z M286.8,94.6h-107c-1.5,0-2.8,1.3-2.8,2.8v73.6
				c0,1.5,1.3,2.8,2.8,2.8h107c1.5,0,2.8-1.3,2.8-2.8V97.4C289.6,95.8,288.3,94.6,286.8,94.6z"/>
		</g>
		<g>
			<polygon class="st32" points="270.6,100.3 182.7,100.3 182.7,157.8 216.4,157.8 281.7,157.8 283.8,157.8 283.8,132.5 
				283.9,100.3 281.8,100.3 			"/>
		</g>
		<g>
			<g>
				<g>
					<path class="st8" d="M278.7,108.5h-90.2c-0.3,0-0.5-0.2-0.5-0.5s0.2-0.5,0.5-0.5h90.2c0.3,0,0.5,0.2,0.5,0.5
						S278.9,108.5,278.7,108.5z"/>
				</g>
				<g>
					<path class="st8" d="M262.2,116.8h-73.8c-0.3,0-0.5-0.2-0.5-0.5s0.2-0.5,0.5-0.5h73.8c0.3,0,0.5,0.2,0.5,0.5
						S262.5,116.8,262.2,116.8z"/>
				</g>
				<g>
					<path class="st8" d="M278.7,125h-60.6c-0.3,0-0.5-0.2-0.5-0.5s0.2-0.5,0.5-0.5h60.6c0.3,0,0.5,0.2,0.5,0.5S278.9,125,278.7,125
						z"/>
				</g>
				<g>
					<path class="st8" d="M278.7,133.2h-60.6c-0.3,0-0.5-0.2-0.5-0.5s0.2-0.5,0.5-0.5h60.6c0.3,0,0.5,0.2,0.5,0.5
						S278.9,133.2,278.7,133.2z"/>
				</g>
				<g>
					<path class="st8" d="M245.8,141.4h-27.7c-0.3,0-0.5-0.2-0.5-0.5s0.2-0.5,0.5-0.5h27.7c0.3,0,0.5,0.2,0.5,0.5
						S246,141.4,245.8,141.4z"/>
				</g>
				<g>
					<path class="st8" d="M262.2,149.7h-44.1c-0.3,0-0.5-0.2-0.5-0.5s0.2-0.5,0.5-0.5h44.1c0.3,0,0.5,0.2,0.5,0.5
						S262.5,149.7,262.2,149.7z"/>
				</g>
			</g>
			<g>
				<rect x="187.9" y="124.5" class="st8" width="22" height="25.5"/>
			</g>
		</g>
		<g>
			<circle class="st11" cx="233.3" cy="165.8" r="2.4"/>
		</g>
		<g>
			<path class="st9" d="M177,146.5v17.3c0,0.4,0.1,0.7,0.1,1.1l8.9-7.3L177,146.5z"/>
		</g>
	</g>
	<g>
		<g>
			<g>
				<g>
					<g>
						<path class="st1" d="M140,166.7c-6,0-11.6-1.9-16.3-6.6c-6.8-6.8-5.8-17.9-4.1-26.8c4.5-24.3,20.8-62.9,21.5-64.5l4.7-11.2
							h6.8l15.5,9.5l-4.7,11.2c-0.2,0.4-16,37.8-20,59.5c-0.3,1.7-0.5,3.1-0.6,4.2c2.6-1,6.1-2.9,8.7-5l9.4-7.6h6.8l8.5,18.7
							l-9.3,7.6c-5,4.1-13.6,9.1-19.5,11C147.2,166.7,143.3,166.7,140,166.7z"/>
						<path class="st9" d="M147.2,167.4H140c-6.6,0-12.3-2.3-16.8-6.8c-7-7-6-18.4-4.3-27.4c4.5-24.3,20.9-63.1,21.6-64.7l4.7-11.2
							c0.1-0.3,0.4-0.4,0.6-0.4h6.8c0.1,0,0.3,0,0.4,0.1l15.5,9.5c0.3,0.2,0.4,0.6,0.3,0.9l-4.7,11.2c-0.2,0.4-16,37.8-20,59.4
							c-0.2,1.1-0.4,2-0.5,3c2.5-1.1,5.3-2.8,7.4-4.4l9.4-7.6c0.1-0.1,0.3-0.2,0.4-0.2h6.8c0.3,0,0.5,0.2,0.6,0.4l8.5,18.7
							c0.1,0.3,0.1,0.6-0.2,0.8l-9.3,7.6c-4.7,3.9-13.4,9.1-19.8,11.1C147.4,167.4,147.3,167.4,147.2,167.4z M146.3,58.3l-4.6,10.7
							c-0.7,1.6-17,40.2-21.5,64.4c-1.6,8.7-2.7,19.6,3.9,26.2c4.2,4.2,9.5,6.4,15.8,6.4h7.2c5.5-1.8,13.9-6.5,19.2-10.8l8.9-7.3
							l-8.1-17.8h-6.1l-9.2,7.4c-2.5,2-6.1,4-8.9,5.1c-0.2,0.1-0.5,0-0.7-0.1c-0.2-0.2-0.3-0.4-0.3-0.6c0.1-1.3,0.4-2.7,0.6-4.2
							c4-21.7,19.9-59.3,20.1-59.7l4.5-10.6l-14.8-9.1H146.3z"/>
					</g>
				</g>
				<g>
					<path class="st1" d="M149.3,36.2c0-9.3,7.5-16.8,16.8-16.8c3.6,0,6.8,0,6.8,0c4.3,3,10,11.1,10,16.8c0,5.2-6.2,13.7-10,16.8
						c0,0-2.7,0-6.8,0C156.8,53,149.3,45.5,149.3,36.2z"/>
					<path class="st9" d="M172.9,53.7h-6.8c-9.6,0-17.5-7.8-17.5-17.5s7.8-17.5,17.5-17.5h6.8c0.1,0,0.3,0,0.4,0.1
						c4.2,3,10.3,11.2,10.3,17.3c0,5.7-6.8,14.4-10.2,17.3C173.2,53.6,173,53.7,172.9,53.7z M166.1,20.2c-8.9,0-16.1,7.2-16.1,16.1
						s7.2,16.1,16.1,16.1h6.5c3.9-3.3,9.5-11.4,9.5-16.1c0-5.1-5.1-12.9-9.5-16.1H166.1z"/>
				</g>
			</g>
			<g>
				<g>
					<path class="st1" d="M146.8,166.7c-6,0-11.6-1.9-16.3-6.6c-6.8-6.8-5.8-17.9-4.1-26.8c4.5-24.3,20.8-62.9,21.5-64.5l4.7-11.2
						l22.3,9.5l-4.7,11.2c-0.2,0.4-16,37.8-20,59.5c-0.3,1.7-0.5,3.1-0.6,4.2c2.6-1,6.1-2.9,8.7-5l9.4-7.6l15.3,18.7l-9.3,7.6
						C165.7,162.2,155.9,166.7,146.8,166.7z"/>
				</g>
			</g>
			<g>
				<circle class="st1" cx="172.9" cy="36.2" r="16.8"/>
			</g>
		</g>
		<g>
			<g>
				<g>
					<path class="st9" d="M130.3,118.2c-0.1,0-0.1,0-0.2,0c-0.4-0.1-0.6-0.5-0.5-0.9c4.2-14.5,10.1-30,14.2-40.4
						c0.1-0.4,0.6-0.5,0.9-0.4c0.4,0.1,0.5,0.6,0.4,0.9c-4.2,10.4-10,25.9-14.2,40.3C130.9,118,130.6,118.2,130.3,118.2z"/>
				</g>
				<g>
					<path class="st9" d="M127.5,128.9c-0.1,0-0.1,0-0.2,0c-0.4-0.1-0.6-0.5-0.5-0.8c0.5-2.2,1.1-4.5,1.7-6.9
						c0.1-0.4,0.5-0.6,0.9-0.5c0.4,0.1,0.6,0.5,0.5,0.9c-0.6,2.4-1.2,4.7-1.7,6.8C128.1,128.7,127.8,128.9,127.5,128.9z"/>
				</g>
				<g>
					<path class="st9" d="M146.8,167.4c-6.6,0-12.3-2.3-16.8-6.8c-7-7-6-18.4-4.3-27.4c0.1-0.4,0.4-0.6,0.8-0.6
						c0.4,0.1,0.6,0.4,0.6,0.8c-1.6,8.7-2.7,19.6,3.9,26.2c4.2,4.2,9.5,6.4,15.8,6.4c8.3,0,18-3.9,26.4-10.8l8.8-7.2l-14.4-17.6
						l-8.9,7.1c-2.5,2-6.1,4-8.9,5.1c-0.2,0.1-0.5,0-0.7-0.1c-0.2-0.1-0.3-0.4-0.3-0.6c0.1-1.3,0.4-2.7,0.6-4.2
						c4-21.7,19.9-59.3,20.1-59.7l4.5-10.5l-21-8.9l-4.5,10.5c-0.2,0.4-0.6,0.5-0.9,0.4c-0.4-0.2-0.5-0.6-0.4-0.9l4.7-11.2
						c0.2-0.4,0.6-0.5,0.9-0.4l22.3,9.5c0.4,0.2,0.5,0.6,0.4,0.9l-4.7,11.2c-0.2,0.4-16,37.8-20,59.4c-0.2,1-0.4,2-0.5,3
						c2.5-1.1,5.3-2.8,7.4-4.4l9.4-7.6c0.3-0.2,0.7-0.2,1,0.1l15.3,18.7c0.2,0.3,0.2,0.7-0.1,1l-9.3,7.6
						C165.4,163.4,155.4,167.4,146.8,167.4z"/>
				</g>
			</g>
			<g>
				<path class="st9" d="M156.1,36.9c-0.4,0-0.7-0.3-0.7-0.7c0-4.6,1.8-9,5-12.3c0.3-0.3,0.7-0.3,1,0s0.3,0.7,0,1
					c-3,3-4.6,7-4.6,11.3C156.8,36.6,156.5,36.9,156.1,36.9z"/>
			</g>
			<g>
				<path class="st9" d="M157.9,44.5c-0.3,0-0.5-0.1-0.6-0.4c-0.4-0.8-0.7-1.6-1-2.5c-0.1-0.4,0.1-0.8,0.5-0.9
					c0.4-0.1,0.8,0.1,0.9,0.5c0.3,0.8,0.6,1.5,0.9,2.3c0.2,0.3,0,0.8-0.3,0.9C158.1,44.4,158,44.5,157.9,44.5z"/>
			</g>
			<g>
				<path class="st9" d="M172.9,53.7c-4.3,0-8.4-1.6-11.6-4.4c-0.3-0.3-0.3-0.7-0.1-1c0.3-0.3,0.7-0.3,1-0.1c2.9,2.6,6.7,4,10.7,4
					c8.9,0,16.1-7.2,16.1-16.1s-7.2-16.1-16.1-16.1c-3.1,0-6.2,0.9-8.8,2.6c-0.3,0.2-0.8,0.1-1-0.2c-0.2-0.3-0.1-0.8,0.2-1
					c2.8-1.8,6.1-2.8,9.5-2.8c9.6,0,17.5,7.8,17.5,17.5S182.5,53.7,172.9,53.7z"/>
			</g>
		</g>
		<g>
			<polygon class="st9" points="156.1,134.1 149.9,142.1 150.3,137.3 			"/>
		</g>
	</g>
	<g>
		<g>
			<path class="st9" d="M309.5,186H0.5c-0.3,0-0.5-0.2-0.5-0.5s0.2-0.5,0.5-0.5h309c0.3,0,0.5,0.2,0.5,0.5S309.8,186,309.5,186z"/>
		</g>
	</g>
</g>
</svg>
