<?xml version="1.0" encoding="utf-8"?>
<!-- Generator: Adobe Illustrator 28.1.0, SVG Export Plug-In . SVG Version: 6.00 Build 0)  -->
<svg version="1.1" id="Layer_1" xmlns="http://www.w3.org/2000/svg" xmlns:xlink="http://www.w3.org/1999/xlink" x="0px" y="0px"
	 viewBox="0 0 371 126.9" style="enable-background:new 0 0 371 126.9;" xml:space="preserve">
<style type="text/css">
	.st0{fill:#B8B8B8;}
	.st1{fill:#969696;}
	.st2{fill:#838383;}
	.st3{fill:#565656;}
</style>
<g>
	<g>
		<path class="st0" d="M63.4,117.6c-13.9,0-27.8-5.3-38.3-15.8C14.9,91.5,9.3,77.9,9.3,63.4c0-14.5,5.6-28.1,15.8-38.3
			C46.3,4,80.6,4,101.7,25.1c0.4,0.4,0.6,0.9,0.6,1.5s-0.2,1.1-0.6,1.5L89.1,40.7c-0.8,0.8-2.1,0.8-2.9,0c-12.6-12.6-33-12.5-45.5,0
			c-12.6,12.6-12.6,33,0,45.5c12.6,12.6,33,12.6,45.5,0c0.8-0.8,2.1-0.8,2.9,0l12.6,12.6c0.4,0.4,0.6,0.9,0.6,1.5
			c0,0.5-0.2,1.1-0.6,1.5C91.2,112.3,77.3,117.6,63.4,117.6z"/>
	</g>
	<g>
		<path class="st1" d="M63.2,108.2L63.2,108.2c-12.1,0-23.4-4.7-31.9-13.2c-0.8-0.8-0.8-2.1,0-2.9l12.6-12.6c0.8-0.8,2.1-0.8,2.9,0
			c9,9,23.7,9,32.7,0c4.4-4.4,6.8-10.2,6.8-16.3c0-6.2-2.4-12-6.8-16.3c-9-9-23.7-9-32.7,0c-0.8,0.8-2.1,0.8-2.9,0L31.3,34.2
			c-0.4-0.4-0.6-0.9-0.6-1.5s0.2-1.1,0.6-1.5c8.5-8.5,19.8-13.2,31.9-13.2l0,0c12.1,0,23.4,4.7,31.9,13.2s13.2,19.8,13.2,31.9
			c0,12.1-4.7,23.4-13.2,31.9S75.2,108.2,63.2,108.2z"/>
	</g>
	<g>
		<path class="st2" d="M36.4,39.3c0.5-0.5,0.9-1,1.4-1.5c14.1-14.1,37.1-14.1,51.2,0c0.4,0.4,0.6,0.9,0.6,1.5c0,0.5-0.2,1-0.6,1.4
			c0,0,0,0,0,0l7.6-7.6c-0.5-0.6-1.1-1.2-1.6-1.8c-8.5-8.5-19.8-13.2-31.9-13.2c-12.1,0-23.4,4.7-31.9,13.2
			c-0.4,0.4-0.6,0.9-0.6,1.5s0.2,1.1,0.6,1.5L36.4,39.3z"/>
		<path class="st2" d="M96.4,93.5l-7.3-7.3c0,0,0,0,0,0c0.4,0.4,0.6,0.9,0.6,1.4c0,0.5-0.2,1.1-0.6,1.5C82,96.1,72.7,99.6,63.4,99.6
			S44.9,96.1,37.8,89c-0.6-0.6-1.1-1.2-1.6-1.8l-4.9,4.9c-0.8,0.8-0.8,2.1,0,2.9c8.5,8.5,19.8,13.2,31.9,13.2h0
			c12.1,0,23.4-4.7,31.9-13.2C95.5,94.6,96,94,96.4,93.5z"/>
	</g>
	<g>
		<path class="st3" d="M63.4,99.6c-9.3,0-18.6-3.5-25.6-10.6c-14.1-14.1-14.1-37.1,0-51.2c14.1-14.1,37.1-14.1,51.2,0
			c0.4,0.4,0.6,0.9,0.6,1.5s-0.2,1.1-0.6,1.5L76.4,53.4c-0.8,0.8-2.1,0.8-2.9,0c-5.6-5.6-14.6-5.6-20.2,0c-5.6,5.6-5.6,14.6,0,20.2
			c5.6,5.6,14.6,5.6,20.2,0c0.8-0.8,2.1-0.8,2.9,0l12.6,12.6c0.4,0.4,0.6,0.9,0.6,1.5s-0.2,1.1-0.6,1.5C82,96.1,72.7,99.6,63.4,99.6
			z"/>
	</g>
</g>
<g>
	<g>
		<g>
			<path class="st3" d="M152.1,77.7c-4.4,4.3-8.9,6-14.5,6c-10.9,0-20-6.6-20-19.9c0-13.4,9.1-19.9,20-19.9c5.3,0,9.5,1.5,13.6,5.6
				l-5.9,6.2c-2.2-2-5-3-7.6-3c-6.3,0-10.8,4.6-10.8,11.2c0,7.2,4.9,11,10.7,11c3,0,6-0.8,8.2-3.1L152.1,77.7z"/>
			<path class="st3" d="M193.6,63.7c0,10.8-7.4,19.6-19.6,19.6s-19.6-8.8-19.6-19.6c0-10.8,7.5-19.6,19.5-19.6
				C185.9,44.1,193.6,52.9,193.6,63.7z M163.7,63.7c0,5.7,3.4,11.1,10.2,11.1s10.2-5.3,10.2-11.1c0-5.7-4-11.2-10.2-11.2
				C167.3,52.6,163.7,58.1,163.7,63.7z"/>
			<path class="st3" d="M227,82.5V62.8c0-5.7-3.1-10.1-9.1-10.1c-5.7,0-9.6,4.8-9.6,10.5v19.2H199V44.8h8.3l0.6,5.1
				c3.8-3.7,7.6-5.6,12.4-5.6c8.9,0,16,6.6,16,18.5v19.8H227z"/>
			<path class="st3" d="M261.6,36.1c-3.2,0-5.7,2.1-5.7,6.7v2.5H267v8.2h-11.1v28.9h-9.3V53.6h-7v-8.2h7v-2.5
				c0-10.1,6.8-14.7,14.4-14.7h2.8v8H261.6"/>
			<path class="st3" d="M283,34.2c0,7.3-11,7.3-11,0S283,27,283,34.2z M272.8,44.7v37.8h9.3V44.7H272.8z"/>
			<path class="st3" d="M328,63.7c0,10.8-7.4,19.6-19.6,19.6c-12.2,0-19.6-8.8-19.6-19.6c0-10.8,7.5-19.6,19.5-19.6
				C320.3,44.1,328,52.9,328,63.7z M298.1,63.7c0,5.7,3.4,11.1,10.2,11.1c6.8,0,10.2-5.3,10.2-11.1c0-5.7-4-11.2-10.2-11.2
				C301.7,52.6,298.1,58.1,298.1,63.7z"/>
		</g>
	</g>
	<path class="st3" d="M261.6,36.1"/>
</g>
<path class="st3" d="M361.7,42.7c0,7.9-5.1,14.6-14.4,14.6c-9.2,0-14.7-6.7-14.7-14.6s5.5-14.6,14.7-14.6
	C356.6,28.1,361.7,34.8,361.7,42.7z M347.3,53.4c6.5,0,10.2-4.7,10.2-10.8s-3.7-10.8-10.2-10.8c-6.5,0-10.4,4.7-10.4,10.8
	S340.9,53.4,347.3,53.4z M353.7,47.9l-2.6-2.4c-0.9,0.9-1.8,1.4-3.2,1.4c-2.3,0-4.4-1.5-4.4-4.1c0-2.8,2-4.3,4.4-4.3
	c1.3,0,2.2,0.4,3.2,1.3l2.6-2.4c-1.6-1.6-3.4-2.5-5.7-2.5c-4.5,0-8.1,2.8-8.1,7.8s3.6,7.6,8.1,7.6C350.3,50.4,352.1,49.5,353.7,47.9
	z"/>
</svg>
