
<svg width="32px" height="32px" viewBox="0 0 32 32" version="1.1" xmlns:xlink="http://www.w3.org/1999/xlink" xmlns="http://www.w3.org/2000/svg">
  <g id="icons--Social-Media--24--Pinterest-Copy-5">
    <path d="M16 0C11.6544 0 11.1104 0.0184 9.4032 0.096C7.7 0.1736 6.5376 0.4448 5.5192 0.84C4.4672 1.2488 3.5752 1.796 2.6848 2.6856C1.796 3.5752 1.2496 4.4672 0.84 5.5192C0.4448 6.5368 0.1744 7.7 0.096 9.4032C0.0184 11.1096 0 11.6544 0 16C0 20.3456 0.0184 20.8904 0.096 22.5968C0.1744 24.3 0.4448 25.4632 0.84 26.4808C1.2496 27.5328 1.796 28.4248 2.6848 29.3144C3.5752 30.204 4.4672 30.7512 5.5192 31.16C6.5376 31.5552 7.7 31.8264 9.4032 31.904C11.1104 31.9816 11.6544 32 16 32C20.3456 32 20.8896 31.9816 22.5968 31.904C24.3 31.8264 25.4624 31.5552 26.4808 31.16C27.5328 30.7512 28.4248 30.204 29.3152 29.3144C30.204 28.4248 30.7504 27.5328 31.16 26.4808C31.5552 25.4632 31.8256 24.3 31.904 22.5968C31.9816 20.8904 32 20.3456 32 16C32 11.6544 31.9816 11.1096 31.904 9.4032C31.8256 7.7 31.5552 6.5368 31.16 5.5192C30.7504 4.4672 30.204 3.5752 29.3152 2.6856C28.4248 1.796 27.5328 1.2488 26.4808 0.84C25.4624 0.4448 24.3 0.1736 22.5968 0.096C20.8896 0.0184 20.3456 0 16 0ZM16 2.8832C20.272 2.8832 20.7784 2.8992 22.4656 2.976C24.0248 3.0472 24.8728 3.308 25.4368 3.5272C26.1832 3.8168 26.7168 4.164 27.276 4.724C27.836 5.284 28.1832 5.8168 28.4728 6.564C28.692 7.1272 28.952 7.9744 29.024 9.5344C29.1008 11.2216 29.1168 11.728 29.1168 16C29.1168 20.272 29.1008 20.7784 29.024 22.4656C28.952 24.0256 28.692 24.8728 28.4728 25.436C28.1832 26.1832 27.836 26.716 27.276 27.276C26.7168 27.836 26.1832 28.1832 25.4368 28.4728C24.8728 28.692 24.0248 28.9528 22.4656 29.024C20.7784 29.1008 20.2728 29.1168 16 29.1168C11.7272 29.1168 11.2216 29.1008 9.5344 29.024C7.9752 28.9528 7.1272 28.692 6.5632 28.4728C5.8168 28.1832 5.2832 27.836 4.724 27.276C4.164 26.716 3.8168 26.1832 3.5272 25.436C3.308 24.8728 3.048 24.0256 2.976 22.4656C2.8992 20.7784 2.8832 20.272 2.8832 16C2.8832 11.728 2.8992 11.2216 2.976 9.5344C3.048 7.9744 3.308 7.1272 3.5272 6.564C3.8168 5.8168 4.164 5.284 4.724 4.724C5.2832 4.164 5.8168 3.8168 6.5632 3.5272C7.1272 3.308 7.9752 3.0472 9.5344 2.976C11.2216 2.8992 11.728 2.8832 16 2.8832ZM24.541 9.37896C25.6018 9.37896 26.461 8.51976 26.461 7.45896C26.461 6.39896 25.6018 5.53896 24.541 5.53896C23.4802 5.53896 22.621 6.39896 22.621 7.45896C22.621 8.51976 23.4802 9.37896 24.541 9.37896ZM16 7.7836C11.4624 7.7836 7.7832 11.4628 7.7832 15.9996C7.7832 20.5372 11.4624 24.2164 16 24.2164C20.5376 24.2164 24.2168 20.5372 24.2168 15.9996C24.2168 11.4628 20.5376 7.7836 16 7.7836ZM16 21.3332C13.0544 21.3332 10.6664 18.946 10.6664 15.9996C10.6664 13.054 13.0544 10.6668 16 10.6668C18.9456 10.6668 21.3336 13.054 21.3336 15.9996C21.3336 18.946 18.9456 21.3332 16 21.3332Z" id="Combined-Shape" fill="#000000" fill-rule="evenodd" stroke="none" />
  </g>
</svg>