
<svg width="32px" height="32px" viewBox="0 0 32 32" version="1.1" xmlns:xlink="http://www.w3.org/1999/xlink" xmlns="http://www.w3.org/2000/svg">
  <g id="icons--Social-Media--24--Pinterest-Copy-4">
    <g id="Linkedin" transform="translate(1.3333334 1.3333334)">
      <path d="M1.61839 0L27.7149 0C28.6086 0 29.3333 0.724736 29.3333 1.61839L29.3333 27.7149C29.3333 28.6086 28.6086 29.3333 27.7149 29.3333L1.61839 29.3333C0.72423 29.3333 0 28.6086 0 27.7149L0 1.61839C0 0.724736 0.72423 0 1.61839 0" id="Fill-8" fill="#000000" fill-rule="evenodd" stroke="none" />
      <path d="M2.29205 0C1.02313 0 0 1.02667 0 2.29103C0 3.55641 1.02313 4.58308 2.29205 4.58308C3.55591 4.58308 4.58207 3.55641 4.58207 2.29103C4.58207 1.02667 3.55591 0 2.29205 0L2.29205 0ZM0.314069 19.0323L4.26851 19.0323L4.26851 6.31982L0.314069 6.31982L0.314069 19.0323ZM14.3278 6.00423C12.4055 6.00423 11.1153 7.05821 10.5888 8.05756L10.5347 8.05756L10.5347 6.31982L6.74768 6.31982L6.74768 19.0323L10.6935 19.0323L10.6935 12.7448C10.6935 11.086 11.0071 9.47922 13.0634 9.47922C15.091 9.47922 15.1168 11.3758 15.1168 12.85L15.1168 19.0323L19.0667 19.0323L19.0667 12.0606C19.0667 8.63664 18.3273 6.00423 14.3278 6.00423L14.3278 6.00423Z" transform="translate(5.13303 5.1503267)" id="Fill-29" fill="#FFFFFF" fill-rule="evenodd" stroke="none" />
    </g>
  </g>
</svg>