<?xml version="1.0" encoding="utf-8"?>
<!-- Generator: Adobe Illustrator 25.2.1, SVG Export Plug-In . SVG Version: 6.00 Build 0)  -->
<svg version="1.1" id="Camada_1" xmlns="http://www.w3.org/2000/svg" xmlns:xlink="http://www.w3.org/1999/xlink" x="0px" y="0px"
	 viewBox="0 0 120 48.4" style="enable-background:new 0 0 120 48.4;" xml:space="preserve">
<style type="text/css">
	.st0{fill:#5A5A5A;}
	.st1{fill:#FFFFFF;}
</style>
<circle class="st0" cx="24.2" cy="24.2" r="24.2"/>
<path class="st0" d="M49.9,19.9c0.8-0.1,1.6-0.2,2.4-0.2c1-0.1,1.9,0.1,2.7,0.7c0.5,0.4,0.8,1.1,0.7,1.7c0,1-0.6,1.9-1.6,2.2l0,0
	c0.7,0.3,1.1,0.9,1.2,1.7c0.2,0.8,0.4,1.6,0.7,2.4h-1.6c-0.2-0.7-0.4-1.3-0.6-2c-0.2-1.1-0.6-1.5-1.5-1.5h-0.8v3.5H50v-8.5H49.9z
	 M51.4,23.7h0.9c1.1,0,1.7-0.6,1.7-1.4c0-0.9-0.7-1.4-1.7-1.4c-0.3,0-0.6,0-0.9,0.1V23.7z"/>
<path class="st0" d="M58.2,25.8c0,0.9,0.8,1.7,1.8,1.6c0.1,0,0.1,0,0.2,0c0.6,0,1.2-0.1,1.7-0.3l0.2,1.1c-0.7,0.3-1.4,0.4-2.2,0.4
	c-1.6,0.1-3.1-1.1-3.2-2.7c0-0.2,0-0.3,0-0.5c-0.1-1.7,1.1-3.2,2.8-3.3c0.1,0,0.2,0,0.2,0c2,0,2.7,1.7,2.7,3c0,0.2,0,0.4-0.1,0.7
	L58.2,25.8z M60.9,24.7c0.1-0.7-0.4-1.4-1.1-1.5h-0.1c-0.8,0-1.4,0.7-1.4,1.5H60.9z"/>
<path class="st0" d="M68.3,28.2c-0.6,0.2-1.2,0.3-1.8,0.3c-1.6,0.1-3.1-1.1-3.2-2.8c0-0.1,0-0.3,0-0.4c-0.1-1.8,1.3-3.3,3.1-3.3
	c0.1,0,0.2,0,0.4,0c0.5,0,1,0.1,1.5,0.3L68,23.5c-0.4-0.2-0.8-0.3-1.2-0.2c-1,0-1.9,0.8-1.9,1.8c0,0.1,0,0.1,0,0.2
	c-0.1,1,0.6,1.9,1.6,2c0.1,0,0.2,0,0.3,0c0.4,0,0.9-0.1,1.2-0.3L68.3,28.2z"/>
<path class="st0" d="M69.4,19.3H71v9.1h-1.6V19.3z"/>
<path class="st0" d="M76.2,28.4l-0.1-0.7l0,0c-0.4,0.5-1.1,0.8-1.8,0.8c-1,0.1-1.9-0.7-2-1.6c0-0.1,0-0.1,0-0.2
	c0-1.6,1.4-2.4,3.7-2.4v-0.1c0-0.4-0.2-1.1-1.3-1.1c-0.6,0-1.2,0.2-1.7,0.5l-0.3-1c0.7-0.4,1.5-0.6,2.2-0.6c1.3-0.1,2.4,0.9,2.5,2.1
	c0,0.2,0,0.3,0,0.5v2.3c0,0.5,0,1,0.1,1.5C77.5,28.4,76.2,28.4,76.2,28.4z M76,25.4c-1.1,0-2.2,0.2-2.2,1.2c0,0.5,0.3,0.9,0.7,0.9
	c0.1,0,0.1,0,0.2,0c0.6,0,1-0.3,1.2-0.9c0-0.1,0.1-0.2,0.1-0.3L76,25.4z"/>
<path class="st0" d="M79.2,24.1c0-0.7,0-1.3-0.1-1.9h1.4l0.1,0.9l0,0c0.4-0.7,1.1-1.1,1.9-1.1s1.5,0.4,1.7,1.1l0,0
	c0.2-0.3,0.5-0.6,0.8-0.8c0.4-0.3,0.8-0.4,1.2-0.4c1,0,2.1,0.7,2.1,2.7v3.7h-1.5V25c0-1-0.4-1.7-1.1-1.7c-0.5,0-0.9,0.4-1.1,0.8
	c0,0.2-0.1,0.3-0.1,0.5v3.7H83v-3.6c0-0.9-0.4-1.5-1.1-1.5c-0.5,0-1,0.4-1.1,0.9c-0.1,0.2-0.1,0.3-0.1,0.5v3.7h-1.5L79.2,24.1z"/>
<path class="st0" d="M93.6,28.4l-0.1-0.7l0,0c-0.4,0.5-1.1,0.8-1.8,0.8c-1,0.1-1.9-0.7-2-1.6c0-0.1,0-0.1,0-0.2
	c0-1.6,1.4-2.4,3.7-2.4v-0.1c0-0.4-0.2-1.1-1.3-1.1c-0.6,0-1.2,0.2-1.7,0.5l-0.3-1c0.7-0.4,1.5-0.6,2.2-0.6c1.3-0.1,2.4,0.8,2.6,2
	c0,0.2,0,0.4,0,0.6v2.3c0,0.5,0,1,0.1,1.5C95,28.4,93.6,28.4,93.6,28.4z M93.4,25.4c-1.1,0-2.2,0.2-2.2,1.2c0,0.5,0.3,0.9,0.7,0.9
	c0.1,0,0.1,0,0.2,0c0.6,0,1-0.3,1.2-0.9c0-0.1,0.1-0.2,0.1-0.3L93.4,25.4z"/>
<path class="st0" d="M101.1,28.2c-0.5,0.2-1,0.3-1.5,0.3L99.3,29c0.5,0,0.9,0.4,0.9,0.9c0,0.8-0.7,1.1-1.5,1.1c-0.3,0-0.7-0.1-1-0.2
	l0.2-0.6c0.2,0.1,0.4,0.2,0.7,0.2c0.3,0,0.5-0.1,0.5-0.4s-0.3-0.5-1-0.5l0.5-0.9C97,28.4,95.9,27,96,25.5c-0.1-1.8,1.3-3.3,3.1-3.3
	c0.1,0,0.2,0,0.4,0c0.5,0,1,0.1,1.5,0.3l-0.3,1.2c-0.4-0.2-0.8-0.3-1.2-0.2c-1,0-1.9,0.8-1.9,1.8c0,0.1,0,0.1,0,0.2
	c-0.1,1,0.6,1.9,1.6,2c0.1,0,0.2,0,0.3,0c0.4,0,0.9-0.1,1.2-0.2L101.1,28.2z"/>
<path class="st0" d="M108.1,25.2c0.1,1.7-1.1,3.2-2.8,3.3c-0.1,0-0.2,0-0.4,0c-1.7,0.1-3.1-1.2-3.1-2.9c0-0.1,0-0.2,0-0.3
	c-0.1-1.7,1.2-3.2,2.8-3.3c0.1,0,0.3,0,0.4,0c1.6-0.1,3,1.2,3.1,2.9C108.1,25,108.1,25.1,108.1,25.2z M103.2,21.2c0-1,0.4-1.5,1-1.5
	c0.3,0,0.6,0.1,0.8,0.3c0.2,0.1,0.3,0.2,0.5,0.2s0.3-0.1,0.3-0.6h0.7c0,1-0.3,1.5-1,1.5c-0.3,0-0.6-0.1-0.8-0.3
	c-0.2-0.1-0.3-0.2-0.5-0.2s-0.3,0.2-0.3,0.6H103.2z M103.4,25.3c0,1.2,0.6,2.1,1.5,2.1s1.5-0.9,1.5-2.1c0-1-0.4-2.1-1.5-2.1
	S103.4,24.3,103.4,25.3L103.4,25.3z"/>
<path class="st0" d="M110.5,25.8c0,0.9,0.8,1.7,1.8,1.6c0.1,0,0.1,0,0.2,0c0.6,0,1.2-0.1,1.7-0.3l0.2,1.1c-0.7,0.3-1.4,0.4-2.2,0.4
	c-1.6,0.1-3.1-1-3.2-2.7c0-0.2,0-0.3,0-0.5c-0.1-1.7,1.1-3.2,2.8-3.3c0.1,0,0.2,0,0.2,0c2,0,2.7,1.7,2.7,3c0,0.2,0,0.4,0,0.7
	L110.5,25.8z M113.2,24.7c0.1-0.7-0.4-1.4-1.1-1.5H112c-0.8,0-1.4,0.7-1.5,1.5H113.2z"/>
<path class="st0" d="M115.9,27c0.5,0.3,1,0.4,1.6,0.5c0.7,0,1-0.3,1-0.7c0-0.4-0.3-0.6-1-0.9c-1.2-0.4-1.7-1.1-1.7-1.8
	c0-1.1,0.9-2,2.3-2c0.6,0,1.1,0.1,1.7,0.4l-0.3,1.1c-0.4-0.2-0.9-0.4-1.3-0.4c-0.6,0-0.9,0.3-0.9,0.7c0,0.4,0.3,0.6,1.1,0.9
	c1.1,0.4,1.7,1,1.7,1.9c0,1.1-0.9,1.9-2.5,1.9c-0.7,0-1.3-0.1-1.9-0.4L115.9,27z"/>
<path class="st1" d="M2.8,19.8h1.6v7.3h3.5v1.3H2.8V19.8z"/>
<path class="st1" d="M10.7,20.5c0,0.5-0.4,0.8-0.8,0.8c0,0,0,0-0.1,0c-0.5,0-0.9-0.3-0.9-0.7v-0.1c0-0.5,0.4-0.9,0.9-0.9
	C10.3,19.6,10.7,20,10.7,20.5z M9.1,28.4v-6.2h1.6v6.2C10.7,28.4,9.1,28.4,9.1,28.4z"/>
<path class="st1" d="M13.3,22.2l1,3.2c0.2,0.6,0.3,1.1,0.4,1.6l0,0c0.1-0.5,0.3-1,0.4-1.6l1-3.2h1.7l-2.4,6.2h-1.5l-2.3-6.2H13.3z"
	/>
<path class="st1" d="M18.8,24.2c0-0.8,0-1.4,0-2h1.4l0.1,1.2h0.1c0.2-0.8,0.9-1.3,1.7-1.3c0.1,0,0.2,0,0.4,0v1.5c-0.2,0-0.3,0-0.5,0
	c-0.7,0-1.3,0.5-1.4,1.2c0,0.2,0,0.3,0,0.5v3.2H19v-4.3H18.8z"/>
<path class="st1" d="M29.2,25.2c0.1,1.7-1.1,3.2-2.8,3.3c-0.1,0-0.2,0-0.4,0c-1.7,0.1-3.1-1.2-3.1-2.9c0-0.1,0-0.2,0-0.3
	c-0.1-1.7,1.2-3.2,2.8-3.3c0.1,0,0.3,0,0.4,0c1.6-0.1,3,1.2,3.1,2.9C29.2,25,29.2,25.1,29.2,25.2z M24.5,25.3c0,1.2,0.6,2.1,1.6,2.1
	s1.5-0.9,1.5-2.1c0-1-0.4-2.1-1.5-2.1C25,23.2,24.5,24.3,24.5,25.3L24.5,25.3z"/>
<path class="st1" d="M38.9,19.3v7.3c0,0.6,0,1.3,0.1,1.8h-1.4l-0.1-1l0,0c-0.4,0.7-1.2,1.2-2,1.1c-1.5,0-2.7-1.3-2.7-3.2
	c0-2.1,1.3-3.3,2.8-3.3c0.7-0.1,1.3,0.3,1.7,0.8l0,0v-3.6h1.6V19.3z M37.3,24.8c0-0.1,0-0.3,0-0.4c-0.1-0.7-0.7-1.1-1.4-1.1
	c-1,0-1.6,0.9-1.6,2.1s0.6,2,1.6,2c0.7,0,1.2-0.5,1.4-1.1c0-0.2,0.1-0.3,0.1-0.5L37.3,24.8z"/>
<path class="st1" d="M41.7,25.8c0,0.1,0,0.1,0,0.2c0.1,0.9,1,1.5,1.9,1.4c0.6,0,1.1-0.1,1.7-0.3l0.2,1.1c-0.7,0.3-1.5,0.4-2.2,0.4
	c-0.2,0-0.3,0-0.5,0c-1.6-0.2-2.8-1.6-2.7-3.2c0,0,0-0.1,0-0.2c0-1.7,1.4-3.1,3.1-3.1c2,0,2.7,1.6,2.7,3c0,0.3-0.1,0.5-0.1,0.7H41.7
	z M44.3,24.7v-0.1c0-0.8-0.6-1.4-1.3-1.4c-0.8,0-1.4,0.7-1.4,1.5H44.3z"/>
</svg>
