<svg width="66" height="56" viewBox="0 0 66 56" fill="none" xmlns="http://www.w3.org/2000/svg">
<mask id="mask0_857_2893" style="mask-type:luminance" maskUnits="userSpaceOnUse" x="18" y="12" width="23" height="23">
<path d="M25.457 13.4283C25.3466 13.4283 25.2362 13.4283 25.2362 13.5387C21.7036 14.9738 19.0542 18.1751 18.3919 22.0389C18.3919 22.1493 18.3919 22.2596 18.3919 22.37C18.3919 22.8116 18.2815 23.3636 18.2815 23.8051C18.2815 29.8767 23.2491 34.8443 29.3207 34.8443C35.3922 34.8443 40.3599 29.8767 40.3599 23.8051C40.3599 19.0583 37.3793 14.9738 33.074 13.4283C32.9636 13.4283 32.9636 13.4283 32.8532 13.3179C32.1909 13.0971 31.4181 12.8763 30.7558 12.8763C30.6454 12.8763 30.6454 12.8763 30.535 12.8763C30.2038 12.8763 29.7622 12.8763 29.4311 12.8763C27.996 12.7659 26.6713 12.9867 25.457 13.4283Z" fill="white"/>
</mask>
<g mask="url(#mask0_857_2893)">
<path d="M7.90454 27.5585L33.0739 45.2212L50.847 20.0518L25.5672 2.3891L7.90454 27.5585Z" fill="url(#paint0_linear_857_2893)"/>
</g>
<mask id="mask1_857_2893" style="mask-type:luminance" maskUnits="userSpaceOnUse" x="18" y="13" width="22" height="22">
<path d="M18.7229 23.8051C18.7229 29.6559 23.4697 34.4027 29.3205 34.4027C35.1713 34.4027 39.9181 29.6559 39.9181 23.8051C39.9181 17.9543 35.1713 13.2075 29.3205 13.2075C23.4697 13.2075 18.7229 17.9543 18.7229 23.8051Z" fill="white"/>
</mask>
<g mask="url(#mask1_857_2893)">
<path d="M8.12524 23.8051L29.3205 45.0003L50.5157 23.8051L29.3205 2.60983L8.12524 23.8051Z" fill="url(#paint1_linear_857_2893)"/>
</g>
<mask id="mask2_857_2893" style="mask-type:luminance" maskUnits="userSpaceOnUse" x="18" y="13" width="22" height="22">
<path d="M27.0025 13.649C25.2362 14.0906 23.5803 14.8634 22.366 16.0777C20.2685 17.9543 18.9438 20.7141 18.9438 23.6947C18.9438 29.4351 23.5803 34.0716 29.3207 34.0716C29.983 34.0716 30.6454 34.0716 31.1973 33.9612C31.1973 33.9612 31.3077 33.9612 31.4181 33.9612C31.9701 33.8508 32.6324 33.63 33.1844 33.4092C33.2948 33.4092 33.4052 33.2988 33.5156 33.2988C34.6195 32.8572 35.613 32.1949 36.4961 31.3118L36.6065 31.2014C38.5936 29.3247 39.8079 26.6753 39.8079 23.6947C39.8079 17.9543 35.1714 13.3179 29.4311 13.3179C28.5479 13.4283 27.7752 13.4283 27.0025 13.649Z" fill="white"/>
</mask>
<g mask="url(#mask2_857_2893)">
<path d="M39.6975 13.4283H18.9438V34.182H39.6975V13.4283Z" fill="url(#paint2_radial_857_2893)"/>
</g>
<mask id="mask3_857_2893" style="mask-type:luminance" maskUnits="userSpaceOnUse" x="27" y="17" width="2" height="2">
<path d="M27.9959 17.0712V17.1816L27.8855 17.292L27.7751 17.4024H27.8855L27.7751 17.6232L27.8855 17.5128H27.9959L27.8855 17.7336H28.2167L28.1063 17.844H28.2167V18.0648H27.8855H27.9959V18.1751L27.8855 18.2855L28.1063 18.3959L28.2167 18.2855L28.1063 18.3959H27.9959L27.7751 18.6167H27.9959L28.1063 18.5063H28.2167L28.6583 18.3959H28.7687L28.6583 18.2855H28.7687V18.1751L28.5479 18.0648H28.6583L28.5479 17.9544H28.6583L28.4375 17.7336V17.6232L28.2167 17.5128H28.3271L28.2167 17.4024H28.3271L28.4375 17.292H28.1063V17.1816H28.2167V17.0712H27.9959Z" fill="white"/>
</mask>
<g mask="url(#mask3_857_2893)">
<path d="M28.8791 17.0712H27.7751V18.6167H28.8791V17.0712Z" fill="url(#paint3_radial_857_2893)"/>
</g>
<mask id="mask4_857_2893" style="mask-type:luminance" maskUnits="userSpaceOnUse" x="27" y="17" width="1" height="2">
<path d="M27.5544 17.7336V17.6232V17.7336H27.444V17.844H27.2232V17.9543H27.3336H27.2232V18.0647H27.3336L27.2232 18.1751H27.3336L27.1128 18.2855H27.2232H27.1128H27.2232H27.1128H27.6648L27.7751 17.9543L27.8855 17.844L27.7751 17.7336H27.6648L27.5544 17.6232V17.7336Z" fill="white"/>
</mask>
<g mask="url(#mask4_857_2893)">
<path d="M27.8855 17.6232H27.1128V18.2855H27.8855V17.6232Z" fill="url(#paint4_radial_857_2893)"/>
</g>
<mask id="mask5_857_2893" style="mask-type:luminance" maskUnits="userSpaceOnUse" x="22" y="13" width="6" height="4">
<path d="M27.2232 13.649L27.3336 13.8698L27.0024 13.649C25.2362 14.0906 23.5803 14.9738 22.366 16.0777L22.4764 16.2985H22.366V16.4088H22.4764H22.5868H22.4764H22.5868H22.4764H22.5868H22.4764H22.8075H22.9179L22.8075 16.5192H23.0283H23.1387L23.3595 16.2985V16.1881H23.4699H23.5803H23.6907H23.8011H23.6907H23.8011L23.6907 16.0777H23.8011H23.9115H24.0218V15.9673H24.1322H24.0218H24.1322V15.8569H24.2426L24.4634 15.7465L24.5738 15.6361H24.6842V15.5257L24.7946 15.6361H25.2362H25.6777L26.2297 15.4153H25.8985H25.5673H25.7881H25.5673H25.6777H26.0089H25.7881L26.1193 15.5257L26.2297 15.6361H26.3401H26.4505V15.5257V15.4153H26.3401H26.4505H26.3401H26.4505L26.2297 15.3049H26.1193H26.2297H26.0089H26.2297H26.0089H26.1193L26.3401 15.1945L26.4505 15.3049H26.6712H26.4505H26.7816H26.5609H26.4505H26.5609H26.4505H26.6712V15.1945H26.5609H26.6712H26.4505V15.0841H27.0024H26.7816H26.892H26.7816H26.6712L26.7816 14.9738H27.0024H26.892H27.1128H26.7816L27.2232 14.8634H26.6712H27.3336H27.6648L27.3336 14.753H27.2232C27.3336 13.649 27.2232 13.649 27.2232 13.649Z" fill="white"/>
</mask>
<g mask="url(#mask5_857_2893)">
<path d="M27.8856 13.649H22.2556V17.1816H27.8856V13.649Z" fill="url(#paint5_radial_857_2893)"/>
</g>
<mask id="mask6_857_2893" style="mask-type:luminance" maskUnits="userSpaceOnUse" x="30" y="13" width="2" height="2">
<path d="M31.1972 13.9802L30.866 13.8698V13.9802V13.8698V13.9802H30.6453H30.7557H31.0868H30.866L31.418 14.0906H31.5284L31.6388 13.9802H31.418V13.8698L31.1972 13.9802L31.3076 13.8698H31.1972V13.9802Z" fill="white"/>
</mask>
<g mask="url(#mask6_857_2893)">
<path d="M31.6388 13.8698H30.6453V14.0906H31.6388V13.8698Z" fill="url(#paint6_radial_857_2893)"/>
</g>
<mask id="mask7_857_2893" style="mask-type:luminance" maskUnits="userSpaceOnUse" x="29" y="13" width="3" height="2">
<path d="M30.5349 13.9802V14.0906L30.4245 13.9802H30.3141V14.0906L30.0933 13.9802H30.3141H29.9829V14.0906H30.0933H30.2037H30.0933L30.2037 14.201H30.4245V14.0906H30.5349V14.201V14.0906V14.201H30.6453H30.3141V14.3114L30.6453 14.201L30.4245 14.3114H30.5349H30.3141H30.4245H30.5349V14.4218H30.6453L30.7557 14.3114V14.201H30.866L31.0868 14.0906H30.7557V13.9802L30.6453 14.0906L30.7557 13.9802H30.5349Z" fill="white"/>
</mask>
<g mask="url(#mask7_857_2893)">
<path d="M31.0868 13.9802H29.9829V14.4218H31.0868V13.9802Z" fill="url(#paint7_radial_857_2893)"/>
</g>
<mask id="mask8_857_2893" style="mask-type:luminance" maskUnits="userSpaceOnUse" x="35" y="29" width="2" height="4">
<path d="M36.2752 29.9871V30.2078L36.1648 30.3182V30.4286H36.0544V30.539V30.6494H35.944L35.7232 30.7598L35.6128 30.9806L35.7232 31.4222L35.5024 31.8637V32.3053L35.8336 32.0845C36.1648 31.8637 36.3856 31.5325 36.6064 31.4222C36.6064 31.4222 36.6064 31.4222 36.7168 31.3118L36.6064 30.8702V30.6494V30.7598V30.6494L36.496 30.2078L36.2752 29.9871Z" fill="white"/>
</mask>
<g mask="url(#mask8_857_2893)">
<path d="M36.496 29.9871H35.2817V32.1949H36.496V29.9871Z" fill="url(#paint8_radial_857_2893)"/>
</g>
<mask id="mask9_857_2893" style="mask-type:luminance" maskUnits="userSpaceOnUse" x="25" y="15" width="15" height="19">
<path d="M32.6324 16.6297H32.9636L33.0739 16.74L32.8532 16.8504L32.6324 16.6297ZM32.0804 15.0842L31.8596 15.1946V15.0842H31.7492L31.5285 15.1946H31.3077V15.305H31.1973L31.0869 15.4153V15.305V15.4153H30.9765L30.8661 15.5257H30.7557H30.8661H30.7557L30.6453 15.6361H30.5349L30.4245 15.7465V15.8569H30.3142H30.4245H30.3142H30.2038L30.0934 15.9673L29.6518 16.4089H29.5414H29.6518H29.5414H29.3206H29.431H29.2102V16.5193H29.431H29.3206H29.0998H28.9894L29.0998 16.4089H29.2102L29.0998 16.5193H29.2102H29.0998H29.2102L29.0998 16.6297H29.2102H29.6518L29.8726 16.4089H29.983V16.2985V16.9608V17.0712L30.0934 17.1816V17.292L30.2038 17.4024V17.5128H30.4245V17.4024H30.6453L30.7557 17.1816V17.0712H30.6453L30.9765 16.9608H30.8661L30.9765 16.8504L30.7557 16.74V16.4089L30.8661 16.2985L31.3077 16.0777V15.9673H31.4181H31.6389L31.7492 16.0777V16.1881H31.6389L31.3077 16.5193H31.1973L31.3077 16.74V16.8504H31.5285L32.1908 16.74H32.3012H32.522H32.1908H31.8596L31.5285 16.8504V16.9608H31.8596V17.1816L31.6389 17.0712H31.5285L31.4181 17.1816V17.5128H31.3077V17.4024L31.0869 17.6232H30.9765V17.5128H30.7557L30.3142 17.6232L30.0934 17.5128H29.983L29.7622 17.6232H29.6518V17.5128V17.4024L29.8726 17.292H29.7622V17.0712L29.6518 17.292V17.5128H29.7622V17.6232V17.7336V17.844H29.6518H29.5414H29.3206V17.9544V17.844L29.2102 18.0647H29.3206L29.0998 18.1751H28.9894H28.8791V18.2855L28.5479 18.5063H28.3271H28.2167V18.7271H27.8855L27.7751 18.8375V18.9479L28.1063 19.0583V19.1687L28.2167 19.2791V19.4998L28.1063 19.831L27.9959 19.9414H27.0024L26.7816 20.0518L26.892 20.1622V20.2726V20.383L26.7816 20.8245H26.892V21.0453H27.1128H27.2232L27.3336 21.2661L27.5544 21.1557H27.8855L28.2167 20.8245V20.7142L28.5479 20.2726L28.8791 20.0518V19.9414V19.831H28.9894H29.0998H29.2102L29.431 19.7206L29.6518 19.6102L29.8726 19.7206L29.983 20.0518L30.6453 20.4934L30.7557 20.7142L30.6453 20.8245L30.7557 20.6038V20.4934H30.6453V20.383L30.8661 20.4934L31.1973 20.2726L30.8661 20.1622V20.0518H30.7557H30.6453L30.4245 19.831L30.3142 19.7206V19.4998H30.5349V19.6102L30.6453 19.4998L30.8661 19.831H30.9765L31.0869 19.9414H30.9765L31.3077 20.1622V20.383L31.4181 20.4934L31.5285 20.6038L31.6389 20.7142H31.8596L32.0804 20.8245V20.7142L31.8596 20.6038V20.4934V20.383L31.97 20.4934H32.0804V20.383H32.1908L32.0804 20.2726H32.1908H32.4116H32.522L32.4116 20.383L32.6324 20.2726H32.8532H32.7428L32.6324 20.1622L32.7428 19.9414V19.7206V19.831H32.8532V19.7206L32.9636 19.6102L33.1843 19.4998H33.0739H33.4051L33.2947 19.6102H33.4051V19.7206H33.5155L33.7363 19.6102H33.8467V19.4998H33.6259L33.5155 19.3895H33.4051L33.5155 19.4998V19.3895V19.4998L33.6259 19.3895L34.0675 19.2791L34.1779 19.1687H34.0675L34.1779 19.2791L33.9571 19.3895L34.7298 19.831L34.8402 19.9414V20.0518L34.6194 20.2726H34.2883H34.0675L33.8467 20.1622H33.6259L33.1843 20.2726H32.8532H32.9636H32.522V20.383V20.4934H32.6324V20.6038H32.522V20.7142H32.6324V20.9349H32.7428L32.6324 21.0453H32.7428L32.9636 21.1557L33.0739 21.0453L33.4051 21.1557L33.6259 21.0453H33.7363H33.8467V21.2661V21.4869L33.7363 21.8181L33.6259 22.1493H33.5155H33.4051H33.1843H32.9636L32.3012 22.0389L31.97 21.9285V21.8181H31.6389L31.5285 21.9285V22.1493L31.4181 22.2596L31.1973 22.1493L30.8661 22.0389L30.7557 21.8181L30.2038 21.7077L29.983 21.5973L30.2038 21.3765L30.0934 21.1557L30.2038 21.0453H30.0934L29.983 20.9349H29.8726H29.3206L28.7687 21.0453L28.2167 21.2661H27.8855L27.7751 21.1557H27.6647L27.444 21.4869L27.0024 21.8181L26.892 22.0389V22.2596V22.37V22.4804L26.4504 22.7012L26.34 22.922L26.2297 23.0324V23.2532L25.8985 23.8051V24.0259L26.0089 24.1363V24.3571V24.4675L25.8985 24.909V25.1298L25.7881 25.2402L25.8985 25.461V25.5714V25.6818L26.0089 25.7922H26.1193H26.0089V25.9026L26.34 26.2338V26.4545L26.5608 26.5649L26.892 26.8961L27.2232 27.0065L27.6647 26.8961H27.9959L28.2167 27.0065L28.7687 26.7857H28.8791H28.9894H29.2102L29.3206 26.8961L29.431 27.0065V27.1169L29.5414 27.2273L29.8726 27.1169L29.983 27.2273H30.0934V27.3377V27.5585V27.7792V27.8896H30.2038H30.0934V28H29.983L30.0934 28.2208L30.4245 28.552L30.5349 28.7728V28.8832V29.1039L30.6453 29.4351V29.6559L30.7557 29.9871V30.2079L30.5349 30.539L30.4245 31.2014V31.3118L30.8661 32.1949V32.4157L30.9765 33.078L31.1973 33.2988L31.4181 33.9612C31.4181 33.9612 31.5285 33.9612 31.6389 33.9612C31.97 33.9612 32.6324 33.7404 33.4051 33.4092C33.5155 33.4092 33.6259 33.2988 33.7363 33.2988L33.8467 32.8573V32.7469L34.1779 32.6365L34.2883 32.5261V32.1949L34.1779 31.8637V31.7533L34.6194 31.3118L34.8402 31.2014L35.061 30.8702V29.8767L34.9506 29.7663V29.5455V29.2143L34.7298 29.1039L34.8402 28.7728L34.9506 28.4416L35.1714 28.2208L35.2818 28L35.8337 27.5585L36.1649 27.2273L36.3857 26.8961L36.6065 26.4545L36.7169 26.1234H36.8273V25.9026H36.7169L36.3857 25.7922L35.613 26.013L35.3922 25.7922H35.2818L35.3922 25.6818V25.5714L35.061 25.2402H34.8402V25.1298L34.6194 24.5779L34.3986 24.4675L34.2883 23.9155L34.0675 23.5843V23.474L33.9571 23.3636L33.6259 22.7012L33.5155 22.4804V22.2596L33.7363 22.7012V22.4804V22.7012H33.8467L34.2883 23.3636L34.3986 23.474L34.509 23.6947V24.0259L34.7298 24.2467L35.061 24.7987V25.0194L35.1714 25.461H35.3922L35.5026 25.3506L35.9441 25.2402L36.0545 25.1298L36.4961 25.0194V24.909L36.6065 24.7987H36.9377L37.3792 24.6883H37.4896V24.5779H37.6V24.3571H37.7104L37.8208 24.0259V23.5843L37.4896 23.474L37.3792 23.3636V23.2532V23.1428L37.0481 23.5843H36.7169H36.6065V23.3636H36.4961V23.5843L36.3857 23.3636V23.1428L36.0545 22.8116L35.9441 22.7012H36.0545H36.1649V22.5908L36.2753 22.7012L36.6065 23.1428L36.9377 23.3636H37.0481L37.3792 23.2532H37.4896L37.6 23.474L38.2624 23.5843H38.8143H39.0351L39.2559 23.8051H39.3663L39.4767 24.0259H39.6975C39.6975 20.6038 37.9312 17.5128 35.3922 15.7465L34.7298 15.9673V16.0777H34.6194L34.3986 15.9673H34.6194V15.8569L34.1779 15.7465H34.2883V15.8569H34.3986V16.0777L33.9571 15.8569L33.7363 15.9673L33.8467 16.1881H33.5155H33.2947V16.2985H33.4051V16.4089H33.2947L32.9636 16.2985V16.1881V16.0777L32.6324 15.8569L33.5155 15.9673L33.7363 15.8569V15.7465L33.0739 15.5257H32.7428H32.6324H32.7428H32.6324H32.522H32.4116H32.3012H32.522H32.3012H32.1908L32.0804 15.0842Z" fill="white"/>
</mask>
<g mask="url(#mask9_857_2893)">
<path d="M39.6976 14.9738H25.457V33.9612H39.6976V14.9738Z" fill="url(#paint9_radial_857_2893)"/>
</g>
<mask id="mask10_857_2893" style="mask-type:luminance" maskUnits="userSpaceOnUse" x="32" y="16" width="1" height="1">
<path d="M32.6323 16.6296L32.7427 16.8504L32.9635 16.74V16.6296L32.7427 16.5192L32.6323 16.6296Z" fill="white"/>
</mask>
<g mask="url(#mask10_857_2893)">
<path d="M32.9635 16.5192H32.6323V16.8504H32.9635V16.5192Z" fill="url(#paint10_radial_857_2893)"/>
</g>
<mask id="mask11_857_2893" style="mask-type:luminance" maskUnits="userSpaceOnUse" x="34" y="13" width="18" height="28">
<path d="M42.678 13.8699C40.5805 14.3114 38.3727 16.0777 37.8207 16.8504C37.1584 17.6232 37.7103 17.6232 37.5999 18.2855C37.4895 18.9479 36.6064 19.7206 35.8337 20.1622C35.0609 20.6038 34.6194 20.8245 34.7297 21.1557C34.8401 21.4869 35.5025 22.0389 35.5025 22.0389C35.5025 22.0389 35.3921 22.37 35.2817 22.8116C35.1713 23.2532 35.0609 23.3636 35.1713 23.4739C35.2817 23.5843 36.2752 24.1363 36.2752 24.1363H35.3921C34.8401 24.1363 34.8401 24.5779 35.1713 25.0194C35.5025 25.3506 35.3921 25.5714 34.9505 26.013C34.6193 26.4545 34.3986 26.7857 34.7297 27.4481C35.0609 28.1104 36.6064 28 36.6064 28C36.6064 28 37.1584 29.1039 37.3791 30.2079C37.5999 31.3118 38.8142 32.8573 39.1454 33.7404C39.4766 34.6235 38.9246 35.7275 38.9246 35.7275C37.7103 37.1625 36.9376 38.708 36.496 39.812L36.3856 40.1431L46.7624 40.6951C46.7624 40.6951 49.743 34.2924 49.4119 33.7404C49.0807 33.078 47.204 30.4286 47.204 30.4286L46.2105 28.8832L47.0936 26.7857C50.0742 24.2467 51.3989 22.8116 51.0677 19.2791C50.7366 16.0777 45.7689 13.7595 43.2299 13.7595C43.1195 13.8699 42.8987 13.8699 42.678 13.8699Z" fill="white"/>
</mask>
<g mask="url(#mask11_857_2893)">
<path d="M21.593 31.8637L45.7688 48.7537L64.0939 22.7012L39.9181 5.70084L21.593 31.8637Z" fill="url(#paint11_linear_857_2893)"/>
</g>
<mask id="mask12_857_2893" style="mask-type:luminance" maskUnits="userSpaceOnUse" x="27" y="38" width="13" height="6">
<path d="M28.5479 39.1496C28.5479 39.3704 27.6648 42.3509 27.6648 42.9029L33.9571 43.6756L39.5871 42.5717L33.5156 38.3768C33.5156 38.2664 28.4375 38.708 28.5479 39.1496Z" fill="white"/>
</mask>
<g mask="url(#mask12_857_2893)">
<path d="M25.8984 38.9288L29.0998 47.6497L41.3533 43.0133L38.0415 34.4027L25.8984 38.9288Z" fill="url(#paint12_linear_857_2893)"/>
</g>
<mask id="mask13_857_2893" style="mask-type:luminance" maskUnits="userSpaceOnUse" x="19" y="29" width="15" height="12">
<path d="M25.6776 30.9806C25.788 31.6429 26.6711 32.7469 26.7815 33.078C26.8919 33.4092 26.1192 33.8508 26.1192 33.8508C26.1192 33.8508 24.5737 33.2988 23.801 32.8573C23.0282 32.5261 22.2555 31.6429 21.7035 31.2014C21.1515 30.6494 20.2684 29.9871 20.0476 29.9871C19.8268 29.9871 19.7165 30.3182 19.9372 30.7598C20.158 31.091 21.3723 32.7469 21.8139 33.2988C22.2555 33.7404 23.0282 34.7339 23.3594 35.3963C23.6906 36.0586 24.4633 36.2794 26.1192 36.8314C27.7751 37.3833 27.9958 38.1561 28.1062 38.5976C28.1062 38.8184 28.1062 39.4808 28.1062 40.0327L31.0868 40.6951H33.2946L32.9635 37.7145C32.9635 37.7145 32.7427 36.169 32.6323 35.8378C32.5219 35.5067 31.6388 34.5131 31.6388 34.5131C30.866 34.7339 29.7621 34.7339 29.7621 34.7339C29.7621 34.7339 28.5478 32.7469 28.2166 32.3053C27.9958 31.8637 26.7815 30.7598 26.2296 30.2078C26.1192 30.0975 25.8984 29.9871 25.788 29.9871C25.6776 30.0975 25.5672 30.539 25.6776 30.9806Z" fill="white"/>
</mask>
<g mask="url(#mask13_857_2893)">
<path d="M14.6384 37.1625L28.7686 47.0978L38.2623 33.5196L24.1321 23.6947L14.6384 37.1625Z" fill="url(#paint13_linear_857_2893)"/>
</g>
<mask id="mask14_857_2893" style="mask-type:luminance" maskUnits="userSpaceOnUse" x="36" y="28" width="6" height="8">
<path d="M37.2689 29.7663C37.3793 30.2079 37.4897 30.7598 37.8208 31.3118C38.152 31.8637 39.0351 33.4092 39.1455 33.7404C39.2559 34.0716 39.0351 35.7275 39.0351 35.7275L41.0222 34.2924C41.0222 34.2924 40.8014 33.7404 40.691 33.2988C40.5806 32.8573 40.691 32.3053 40.691 31.643C40.691 31.091 40.9118 30.3183 41.0222 29.7663C41.1326 29.2143 41.0222 29.1039 40.8014 28.9935C40.5806 28.8832 36.3857 28.1104 36.3857 28.1104C36.3857 28.1104 37.2689 29.3247 37.2689 29.7663Z" fill="white"/>
</mask>
<g mask="url(#mask14_857_2893)">
<path d="M32.9636 33.1884L39.6975 37.8249L44.8859 30.539L38.0416 25.7922L32.9636 33.1884Z" fill="url(#paint14_linear_857_2893)"/>
</g>
<mask id="mask15_857_2893" style="mask-type:luminance" maskUnits="userSpaceOnUse" x="34" y="13" width="18" height="15">
<path d="M38.2624 16.2985C37.2689 17.292 37.3793 17.5128 37.4897 17.9543C37.6001 18.3959 37.4897 18.8375 37.1585 19.1686C36.9377 19.6102 35.7234 20.2726 35.2818 20.383C34.9507 20.4933 34.5091 20.8245 34.6195 21.2661C34.6195 21.5973 35.3922 22.0388 35.3922 22.0388C35.3922 22.0388 35.1714 22.5908 34.9507 23.0324C34.7299 23.4739 34.9507 23.3635 34.9507 23.4739C35.061 23.5843 36.0546 24.0259 36.0546 24.0259C36.0546 24.0259 35.5026 24.0259 35.1714 24.0259C34.8403 24.0259 34.8403 24.0259 34.7299 24.2467C34.7299 24.4675 34.8403 24.7986 34.9507 25.0194C35.061 25.2402 34.9507 25.5714 34.7299 25.7922C34.6195 26.0129 34.0675 26.4545 34.3987 27.2273C34.7299 28 36.3857 27.8896 36.3857 27.8896C35.1714 27.8896 35.5026 27.2273 36.165 26.5649C36.3857 26.2337 37.4897 25.5714 37.9312 25.2402C38.3728 24.909 38.8144 24.7986 38.152 24.2467C37.0481 23.1428 37.7105 22.922 38.152 22.5908C38.5936 22.2596 39.8079 21.8181 39.9183 21.3765C40.0287 20.9349 39.4767 20.2726 39.4767 20.2726C39.4767 20.2726 40.1391 20.2726 40.4702 20.2726C40.8014 20.2726 40.8014 20.0518 40.2495 19.4998C39.8079 19.0583 39.6975 18.6167 39.5871 18.1751C39.5871 17.7335 38.5936 17.6232 38.4832 17.6232C38.4832 17.6232 38.5936 17.4024 38.5936 17.292C39.0352 16.74 41.3534 13.5387 45.8794 15.1945C51.0679 17.0712 51.0679 21.1557 51.0679 21.1557C51.2886 19.1686 49.9639 15.7465 45.6587 14.4218C44.7755 14.0906 43.8924 13.9802 43.1197 13.9802C40.5806 13.9802 39.0352 15.5257 38.2624 16.2985Z" fill="white"/>
</mask>
<g mask="url(#mask15_857_2893)">
<path d="M27.4441 23.2532L45.8795 36.0586L58.3538 18.2855L39.9184 5.36966L27.4441 23.2532Z" fill="url(#paint15_linear_857_2893)"/>
</g>
<mask id="mask16_857_2893" style="mask-type:luminance" maskUnits="userSpaceOnUse" x="34" y="13" width="18" height="28">
<path d="M37.6001 16.74C37.0481 17.4024 37.2689 17.5127 37.3793 17.9543C37.3793 17.9543 37.3793 18.6167 36.9377 19.1686C36.6065 19.4998 35.8338 19.9414 35.3922 20.2725C34.9507 20.6037 34.5091 20.6037 34.5091 20.9349C34.3987 21.2661 34.3987 21.3765 35.0611 21.818L35.3922 22.0388C35.2818 22.2596 35.2818 22.2596 35.1715 22.7012C35.0611 23.0323 34.7299 23.3635 35.0611 23.4739C35.3922 23.5843 36.0546 23.9155 36.0546 23.9155C36.0546 23.9155 35.2818 23.9155 35.1715 23.9155C35.0611 23.9155 34.8403 24.0259 34.8403 24.2467C34.8403 24.4674 34.8403 24.5778 35.0611 24.7986C35.2818 25.1298 35.2818 25.3506 35.0611 25.5714C34.8403 25.7921 34.2883 26.3441 34.3987 27.0064C34.5091 27.6688 34.9507 27.8896 36.165 28H36.2754C36.2754 28 36.8273 28.7727 37.0481 29.1039C37.1585 29.4351 37.2689 29.987 37.4897 30.539C37.6001 31.2013 38.0416 31.6429 38.4832 32.3053C38.9248 32.9676 39.1456 33.63 39.256 33.9611C39.256 34.2923 39.1456 35.2858 39.0352 35.3962C38.9248 35.5066 38.9248 35.5066 38.8144 35.617C38.704 35.7274 38.5936 35.8378 38.4832 35.9482C37.4897 37.1625 36.8273 38.3768 36.4962 39.4807C36.4962 39.5911 36.2754 40.1431 36.2754 40.1431L36.7169 40.0327C36.7169 39.9223 36.9377 39.3703 36.9377 39.3703C37.4897 37.9352 37.9313 36.9417 38.704 36.0586C40.5807 33.9611 43.0093 33.2988 44.5548 33.078C44.9963 33.078 45.3275 32.9676 45.5483 32.9676C45.5483 32.9676 45.5483 32.9676 45.6587 32.9676C45.7691 32.9676 45.8795 32.9676 45.8795 32.9676L45.7691 32.8572C45.6587 32.8572 45.4379 32.8572 45.1067 32.8572C43.1197 33.078 40.5807 34.0715 39.3663 35.0651C39.3663 34.7339 39.4767 34.2923 39.4767 33.9611V33.7404C39.4767 33.2988 39.0352 32.6364 38.5936 31.9741C38.5936 31.9741 37.7105 30.7598 37.6001 30.2078C37.4897 29.6559 37.6001 29.5455 37.4897 29.2143C37.3793 28.8831 37.1585 28.4415 36.8273 28C37.3793 28 39.0352 28 39.256 28.1104C39.5871 28.1104 40.5807 28.2208 41.1326 28.2208C41.9054 28.2208 42.3469 28.1104 42.7885 26.8961C42.7885 26.8961 42.8989 27.1168 43.2301 27.2272C43.5612 27.3376 44.2236 27.0064 44.4444 26.8961C44.8859 26.6753 46.2106 25.9025 46.5418 25.1298C46.873 24.4674 46.9834 23.2531 46.321 22.5908C45.7691 22.0388 44.7755 22.5908 44.6652 22.5908C44.5548 22.7012 44.5548 22.7012 44.6652 22.8116C44.6652 22.9219 44.7755 22.9219 44.8859 22.8116C44.9963 22.7012 45.8795 22.4804 46.1002 22.8116C46.4314 23.2531 46.5418 23.9155 46.2106 24.7986C45.8795 25.6817 44.8859 26.1233 44.6652 26.3441C44.1132 26.6753 43.5612 26.8961 43.3405 26.7857C43.1197 26.6753 42.8989 26.5649 42.7885 25.9025C42.7885 25.7921 42.6781 25.7921 42.5677 25.9025C42.4573 26.0129 42.2365 26.6753 41.9054 27.1168C41.795 27.6688 41.5742 28 40.691 27.8896C39.6975 27.8896 39.0352 27.7792 38.704 27.7792C38.3728 27.7792 35.8338 27.7792 35.1715 27.5584C34.9507 27.448 34.7299 27.2272 34.7299 27.0064C34.6195 26.3441 34.8403 26.1233 35.1715 25.9025C35.3922 25.6817 35.5026 25.5714 35.5026 25.2402C35.5026 25.0194 35.0611 24.7986 35.0611 24.6882C35.0611 24.5778 35.0611 24.357 35.1715 24.2467C35.1715 24.1363 35.613 24.2467 35.9442 24.2467C36.2754 24.2467 36.6065 24.2467 36.6065 24.2467C36.6065 24.1363 35.3922 23.4739 35.2818 23.3635C35.2818 23.2531 35.2818 23.0323 35.3922 22.9219C35.3922 22.8116 35.7234 22.0388 35.7234 22.0388L35.1715 21.7076C34.8403 21.4869 34.8403 21.3765 34.8403 21.2661C34.8403 21.1557 34.8403 21.0453 34.8403 20.9349C35.0611 20.7141 36.6065 20.0518 36.9377 19.6102C37.2689 19.1686 37.6001 18.9478 37.6001 18.6167C37.8209 18.6167 38.3728 19.0582 38.5936 19.1686C38.704 19.279 38.9248 19.3894 39.0352 19.4998C39.1456 19.6102 39.1456 19.4998 39.1456 19.4998C38.9248 19.1686 38.152 18.3959 37.9313 18.1751C37.8209 18.0647 37.7105 17.7335 37.7105 17.5127V17.4024C37.7105 17.292 37.8209 17.1816 37.9313 17.0712C38.0416 16.9608 40.9118 13.4282 44.7755 14.3114C47.0938 14.8633 48.86 15.8569 49.964 17.1816C50.7367 18.1751 51.1783 19.3894 51.1783 20.7141C51.1783 20.9349 51.1783 21.1557 51.1783 21.4869C51.0679 22.7012 50.2951 24.357 47.3146 26.4545L47.0938 26.5649C46.873 26.8961 46.321 28.7727 46.321 28.7727C46.321 28.8831 46.321 29.2143 46.6522 29.6559C46.7626 29.7662 48.6393 32.4157 49.0808 33.1884C49.6328 34.0715 50.6263 36.5002 50.6263 36.5002L51.0679 36.0586C51.0679 36.0586 49.7432 33.1884 49.412 32.8572C49.1912 32.4157 47.2042 29.6559 47.2042 29.6559C46.9834 29.2143 46.6522 28.8831 46.7626 28.6623C46.7626 28.4415 47.3146 27.0064 47.4249 26.7857C47.5353 26.6753 51.2887 24.357 51.6198 21.1557C51.951 17.9543 50.1847 14.8633 44.9963 13.649C44.5548 13.5386 44.1132 13.5386 43.6716 13.5386C40.2495 13.649 37.8209 16.4088 37.6001 16.74Z" fill="white"/>
</mask>
<g mask="url(#mask16_857_2893)">
<path d="M21.4829 31.5325L45.9899 48.6433L64.4253 22.2596L39.9183 5.14883L21.4829 31.5325Z" fill="url(#paint16_linear_857_2893)"/>
</g>
<mask id="mask17_857_2893" style="mask-type:luminance" maskUnits="userSpaceOnUse" x="19" y="29" width="13" height="12">
<path d="M25.5673 30.2078C25.3465 30.7598 25.6777 31.6429 26.1192 32.1949C26.5608 32.7468 26.6712 32.9676 26.5608 33.2988C26.5608 33.5196 26.1192 33.7404 26.1192 33.7404C26.1192 33.7404 24.6841 33.078 24.1322 32.8572C23.5802 32.6364 23.6906 32.7468 23.3594 32.5261C23.1387 32.3053 22.1451 31.5325 21.9244 31.3117C21.7036 31.2014 21.5932 30.8702 21.0412 30.4286C20.4893 30.0974 20.1581 29.6559 19.7165 29.987C19.2749 30.2078 19.4957 30.4286 19.8269 31.091C20.1581 31.7533 20.5997 32.1949 21.0412 32.7468C21.4828 33.4092 22.1451 33.9612 22.4763 34.4027C22.8075 34.7339 23.2491 35.9482 24.0218 36.2794C24.7945 36.5002 26.892 37.2729 27.3336 37.7145C27.6647 38.0457 27.8855 38.0457 27.7751 39.8119L28.1063 39.9223C28.1063 39.5911 28.1063 39.26 28.1063 39.0392C28.1063 38.156 27.9959 37.8249 27.6647 37.4937L27.5543 37.3833C27.0024 36.7209 24.2426 35.8378 24.1322 35.8378C23.6906 35.7274 23.2491 34.9547 23.0283 34.5131C22.9179 34.4027 22.8075 34.1819 22.8075 34.0715C22.6971 33.8508 22.4763 33.63 22.1451 33.2988C21.9244 32.9676 21.5932 32.6364 21.3724 32.4157H21.1516C20.8204 31.9741 20.4893 31.5325 20.1581 30.9806L20.0477 30.7598C19.9373 30.6494 19.8269 30.4286 19.8269 30.3182C19.8269 30.3182 19.8269 30.3182 19.9373 30.3182C20.1581 30.2078 20.2685 30.3182 20.8204 30.6494L20.9308 30.7598C21.1516 30.9806 21.3724 31.2014 21.4828 31.3117C21.5932 31.4221 21.7036 31.5325 21.814 31.6429C21.9244 31.7533 22.9179 32.5261 23.1387 32.7468C23.3594 32.9676 23.4698 32.9676 23.6906 33.078L24.0218 33.1884L25.8985 33.9612C25.7881 34.0715 25.6777 34.2923 25.8985 34.1819C26.1192 33.9612 27.0024 33.5196 26.892 33.078C26.7816 32.6364 26.5608 32.3053 26.2296 31.8637C26.0088 31.5325 25.6777 30.8702 25.6777 30.539C25.6777 30.4286 25.6777 30.3182 25.6777 30.2078C25.8985 29.8767 26.0088 30.0974 26.2296 30.2078C26.34 30.3182 26.5608 30.539 26.6712 30.7598C27.0024 31.091 27.4439 31.6429 27.7751 31.8637C27.9959 31.9741 27.9959 32.0845 28.1063 32.4157C28.2167 32.7468 28.3271 33.078 28.9894 33.9612C30.3141 35.7274 30.5349 36.2794 30.5349 36.6106C30.5349 36.9417 30.6453 39.1496 30.7557 40.5847L31.1973 40.6951C31.0869 39.3704 30.9765 37.0521 30.8661 36.721C30.8661 36.169 30.5349 35.617 29.3206 33.9612C28.1063 32.4157 28.4375 32.1949 27.9959 31.7533C27.4439 31.4221 26.5608 30.3182 26.2296 30.0974C26.1192 29.987 25.8985 29.8767 25.7881 29.8767C25.7881 29.8767 25.6777 29.987 25.5673 30.2078Z" fill="white"/>
</mask>
<g mask="url(#mask17_857_2893)">
<path d="M14.3074 37.0521L27.444 46.3251L36.4961 33.4092L23.3595 24.1363L14.3074 37.0521Z" fill="url(#paint17_linear_857_2893)"/>
</g>
<path d="M44.4442 25.2402C44.113 25.2402 43.7818 25.2402 43.561 25.5714C43.3402 25.7922 43.561 26.1234 43.6714 26.1234C43.7818 26.1234 43.8922 26.013 43.7818 25.9026C43.6714 25.7922 43.7818 25.5714 43.8922 25.461C44.113 25.3506 44.3338 25.461 44.5545 25.461C44.8857 25.461 45.3273 25.2402 45.5481 24.9091C45.6585 24.6883 45.9896 24.2467 45.6585 23.6948C45.3273 23.0324 44.5546 23.3636 44.4442 23.474C44.3338 23.8051 44.4442 23.6947 44.5545 23.5844C44.6649 23.474 44.9961 23.474 45.3273 23.8051C45.5481 24.0259 45.3273 24.3571 45.2169 24.6883C45.3273 25.0195 44.8857 25.3506 44.4442 25.2402Z" fill="#8A6834"/>
<path d="M39.0351 19.831C38.9247 19.7206 38.3727 19.2791 38.2623 19.1687C38.1519 19.0583 38.0415 19.1687 38.0415 19.3895C38.0415 19.4998 37.9312 19.831 37.9312 19.9414C37.9312 20.0518 38.0415 20.0518 38.2623 20.0518C38.3727 20.0518 39.3662 20.1622 39.3662 20.1622C39.2559 20.1622 39.1455 19.9414 39.0351 19.831Z" fill="#B38E40"/>
<path d="M35.3919 21.5973C35.1711 21.5973 35.1711 21.5973 35.1711 21.5973C35.1711 21.5973 35.5023 21.8181 35.7231 21.9285C35.9439 22.0389 36.0543 22.0389 36.0543 22.0389C36.0543 22.0389 36.2751 22.0389 36.0543 21.8181C35.8335 21.5973 35.6127 21.7077 35.3919 21.5973Z" fill="#B48E40"/>
<path d="M31.9699 34.5131L31.5283 34.6235C31.5283 34.6235 32.3011 35.5067 32.4115 35.7274C32.5218 35.9482 32.7426 36.6106 32.853 39.7015V40.6951L33.2946 40.5847C33.1842 39.7015 33.0738 37.6041 32.7426 36.169C32.853 35.3963 32.4115 35.0651 31.9699 34.5131Z" fill="#907037"/>
<mask id="mask18_857_2893" style="mask-type:luminance" maskUnits="userSpaceOnUse" x="9" y="1" width="49" height="50">
<path d="M15.8528 26.1233C15.8528 16.4089 23.6907 8.68143 33.2947 8.68143C42.8988 8.68143 50.7367 16.5193 50.7367 26.1233C50.7367 35.7274 42.8988 43.5653 33.2947 43.5653C23.6907 43.5653 15.8528 35.8378 15.8528 26.1233ZM9.00854 26.1233C9.00854 39.5912 19.9373 50.4096 33.2947 50.4096C46.6522 50.4096 57.5809 39.4808 57.5809 26.1233C57.5809 12.7659 46.7625 1.83713 33.2947 1.83713C19.9373 1.83713 9.00854 12.7659 9.00854 26.1233Z" fill="white"/>
</mask>
<g mask="url(#mask18_857_2893)">
<path d="M57.6913 1.83713H9.00854V50.52H57.6913V1.83713Z" fill="url(#paint18_linear_857_2893)"/>
</g>
<mask id="mask19_857_2893" style="mask-type:luminance" maskUnits="userSpaceOnUse" x="8" y="1" width="50" height="50">
<path d="M9.22917 26.1233C9.22917 12.8763 20.0476 2.0579 33.2946 2.0579C46.5416 2.0579 57.36 12.8763 57.36 26.1233C57.36 39.3704 46.5416 50.1888 33.2946 50.1888C20.0476 50.1888 9.22917 39.4808 9.22917 26.1233ZM8.7876 26.1233C8.7876 39.7015 19.8268 50.6303 33.2946 50.6303C46.7624 50.6303 57.8016 39.5912 57.8016 26.1233C57.8016 12.6555 46.8728 1.61633 33.2946 1.61633C19.8268 1.61633 8.7876 12.6555 8.7876 26.1233Z" fill="white"/>
</mask>
<g mask="url(#mask19_857_2893)">
<path d="M57.8016 1.61633H8.7876V50.6303H57.8016V1.61633Z" fill="url(#paint19_linear_857_2893)"/>
</g>
<mask id="mask20_857_2893" style="mask-type:luminance" maskUnits="userSpaceOnUse" x="15" y="8" width="36" height="36">
<path d="M16.0736 26.1233C16.0736 16.6296 23.8011 8.9022 33.2948 8.9022C42.7885 8.9022 50.5159 16.6296 50.5159 26.1233C50.6263 35.7274 42.8989 43.4549 33.4052 43.4549C23.9115 43.4549 16.0736 35.7274 16.0736 26.1233ZM15.6321 26.1233C15.6321 35.8378 23.5803 43.786 33.2948 43.786C43.0093 43.786 50.9575 35.8378 50.9575 26.1233C50.9575 16.4088 43.0093 8.46063 33.2948 8.46063C23.5803 8.46063 15.6321 16.4088 15.6321 26.1233Z" fill="white"/>
</mask>
<g mask="url(#mask20_857_2893)">
<path d="M50.9575 8.46063H15.6321V43.786H50.9575V8.46063Z" fill="url(#paint20_linear_857_2893)"/>
</g>
<path d="M13.6447 36.8314C13.5343 36.9418 13.4239 37.0521 13.4239 37.1625C13.4239 37.2729 13.4239 37.2729 13.4239 37.3833V37.4937C13.4239 37.4937 13.4239 37.4937 13.3135 37.3833C13.2032 37.1625 13.0928 36.8314 13.0928 36.8314C13.0928 36.8314 12.9824 36.6106 12.872 36.2794C12.872 36.169 12.872 36.169 12.872 36.169C12.872 36.169 12.872 36.169 12.9824 36.2794C12.9824 36.2794 12.9824 36.3898 13.0928 36.3898H13.2032C13.2032 36.3898 13.4239 36.2794 13.6447 36.0586C13.9759 35.8378 15.3006 34.7339 15.5214 34.5131L12.4304 34.6235C12.32 34.6235 12.2096 34.6235 12.2096 34.6235C12.2096 34.6235 12.2096 34.5131 12.4304 34.4027L14.5279 32.3053C14.1967 32.3053 12.6512 32.5261 11.9888 32.5261C11.8785 32.5261 11.7681 32.5261 11.6577 32.5261C11.5473 32.5261 11.5473 32.6365 11.6577 32.8573V32.9676C11.6577 32.9676 11.6577 32.9676 11.5473 32.8573C11.4369 32.6365 11.3265 32.4157 11.3265 32.3053C11.3265 32.3053 11.2161 32.0845 11.1057 31.8637V31.7533C11.1057 31.7533 11.1057 31.7533 11.2161 31.7533C11.2161 31.7533 11.2161 31.8637 11.3265 31.8637C11.4369 31.9741 11.6577 31.9741 11.9888 31.8637C12.7616 31.8637 14.5279 31.7533 15.3006 31.6429C15.5214 31.6429 15.5214 31.6429 15.6318 31.6429C15.6318 31.6429 15.6318 31.7533 15.411 31.8637L13.3135 33.9612C13.6447 33.9612 15.6318 33.9612 16.1837 33.9612C16.4045 33.9612 16.5149 33.9612 16.5149 34.0716C16.5149 34.0716 16.5149 34.182 16.4045 34.2924L13.6447 36.8314Z" fill="#8A6934"/>
<path d="M12.8721 30.0974C11.989 30.0974 10.6643 29.6559 10.5539 28C10.4435 26.6753 11.1058 25.7921 12.4305 25.6818C13.6448 25.5714 14.7488 26.3441 14.8591 27.6688C14.8591 29.2143 13.7552 29.987 12.8721 30.0974ZM12.6513 26.4545C11.437 26.5649 10.7746 27.3376 10.7746 28.2208C10.7746 28.8831 11.2162 29.5455 12.5409 29.4351C13.6448 29.3247 14.528 28.6623 14.4176 27.5584C14.4176 27.1169 14.1968 26.2337 12.6513 26.4545Z" fill="#8A6934"/>
<path d="M12.2098 23.6947C11.437 23.5843 11.2162 23.5843 11.1058 23.4739C10.8851 23.4739 10.8851 23.4739 10.7747 23.6947C10.7747 23.6947 10.7747 23.8051 10.7747 23.9155V24.0259C10.7747 24.0259 10.7747 24.0259 10.7747 23.9155C10.7747 23.5843 10.8851 23.2531 10.8851 23.1428C10.8851 22.922 10.9954 22.5908 10.9954 22.37C10.9954 22.0388 11.1058 21.7077 11.437 21.3765C11.5474 21.2661 11.8786 21.0453 12.2098 21.1557C12.6513 21.1557 12.9825 21.4869 13.3137 22.0388C13.976 21.7077 14.528 21.3765 14.8592 21.1557C15.1903 20.9349 15.3007 20.7141 15.3007 20.6037V20.4933C15.3007 20.4933 15.3007 20.4933 15.3007 20.6037L15.1903 21.1557C15.1903 21.4869 15.0799 21.5973 14.9695 21.7077C14.8592 21.9284 14.528 22.0388 14.0864 22.2596C13.7552 22.37 13.3137 22.5908 13.2033 22.7012C13.2033 22.7012 13.2033 22.7012 13.2033 22.8116L13.0929 23.1428H13.2033C13.6448 23.2531 14.0864 23.2531 14.3072 23.2531C14.4176 23.2531 14.528 23.2531 14.6384 23.1428C14.6384 23.0324 14.6384 22.922 14.6384 22.922C14.6384 22.922 14.6384 22.922 14.6384 23.0324C14.6384 23.3635 14.528 23.6947 14.528 23.8051C14.528 23.9155 14.528 24.2467 14.4176 24.4675C14.4176 24.5778 14.4176 24.5778 14.3072 24.5778C14.3072 24.5778 14.3072 24.5778 14.3072 24.4675C14.3072 24.3571 14.3072 24.3571 14.3072 24.2467C14.3072 24.1363 14.1968 24.1363 14.0864 24.0259C13.8656 24.0259 13.4241 23.9155 12.9825 23.8051L12.2098 23.6947ZM12.7617 23.1428C12.8721 23.0324 12.9825 22.8116 12.9825 22.7012C12.9825 22.4804 12.9825 22.37 12.9825 22.2596C12.8721 22.0388 12.6513 21.9284 12.2098 21.818C11.437 21.7077 11.2162 22.1492 11.1058 22.4804C11.1058 22.5908 11.1058 22.7012 11.1058 22.8116L12.7617 23.1428Z" fill="#8A6934"/>
<path d="M14.4175 18.7271C15.0798 18.9479 15.411 19.1687 15.5214 19.0583C15.6318 19.0583 15.7422 18.9479 15.8526 18.5063C15.963 18.2855 16.0733 18.0647 15.963 17.844C15.963 17.7336 15.8526 17.6232 15.7422 17.6232C15.7422 17.6232 15.6318 17.6232 15.7422 17.5128C15.7422 17.5128 15.7422 17.5128 15.8526 17.5128C15.8526 17.5128 16.2941 17.7336 16.4045 17.844C16.5149 17.9543 16.5149 17.9543 16.4045 18.1751C16.2941 18.5063 16.1837 18.8375 16.0733 19.0583C15.963 19.279 15.8526 19.4998 15.8526 19.6102C15.8526 19.6102 15.8526 19.7206 15.7422 19.9414C15.7422 20.0518 15.6318 20.1622 15.6318 20.2726C15.6318 20.2726 15.6318 20.383 15.5214 20.383C15.5214 20.383 15.5214 20.383 15.5214 20.2726C15.5214 20.1622 15.5214 20.1622 15.5214 20.0518C15.5214 19.9414 15.411 19.831 15.3006 19.831C15.0798 19.7206 14.7486 19.6102 14.3071 19.3894L13.4239 19.0583C12.6512 18.7271 12.5408 18.7271 12.32 18.6167C12.0992 18.6167 12.0992 18.6167 11.9888 18.7271C11.9888 18.7271 11.9888 18.8375 11.8785 18.8375C11.8785 18.8375 11.8785 18.9479 11.7681 18.8375C11.7681 18.8375 11.7681 18.8375 11.7681 18.7271C11.7681 18.5063 11.9888 18.2855 11.9888 18.0647C11.9888 17.9543 12.2096 17.6232 12.2096 17.4024C12.2096 17.292 12.2096 17.292 12.32 17.292C12.32 17.292 12.32 17.292 12.32 17.4024C12.32 17.4024 12.32 17.5128 12.32 17.6232C12.32 17.7336 12.32 17.844 12.5408 17.9543C12.6512 18.0647 12.872 18.0647 13.5343 18.3959L14.4175 18.7271Z" fill="#8A6934"/>
<path d="M15.0799 15.3049C14.4176 14.8633 14.3072 14.7529 14.0864 14.6425C13.976 14.5322 13.8656 14.5322 13.7552 14.6425L13.6448 14.7529C13.6448 14.7529 13.6448 14.8633 13.5344 14.7529C13.5344 14.7529 13.5344 14.7529 13.5344 14.6425C13.6448 14.4218 13.8656 14.0906 13.976 13.9802C14.0864 13.8698 14.1968 13.5386 14.4176 13.3178C14.8591 12.7659 15.3007 11.9931 16.1838 11.8828C16.515 11.8828 17.067 11.8828 17.6189 12.2139C18.1709 12.6555 18.3917 13.0971 18.5021 13.5386C18.5021 13.8698 18.5021 14.5322 17.9501 15.4153C17.8397 15.5257 17.7293 15.7465 17.6189 15.8569C17.5085 15.9673 17.3981 16.188 17.2877 16.2984C17.2877 16.2984 17.1774 16.4088 17.1774 16.5192C17.067 16.6296 17.067 16.74 16.9566 16.8504C16.9566 16.8504 16.8462 16.9608 16.8462 16.8504C16.8462 16.8504 16.8462 16.8504 16.8462 16.74L16.9566 16.6296C16.9566 16.5192 16.9566 16.4088 16.8462 16.2984C16.7358 16.188 16.2942 15.8569 15.963 15.6361L15.0799 15.3049ZM15.963 15.0841C16.4046 15.4153 16.7358 15.6361 16.8462 15.7465C16.9566 15.8569 17.1774 15.9673 17.1774 15.9673C17.2877 15.9673 17.5085 15.8569 17.7293 15.5257C18.0605 15.0841 18.1709 14.7529 18.1709 14.3114C18.1709 13.8698 17.8397 13.4282 17.2877 13.2075C16.7358 12.7659 16.1838 12.7659 15.8527 12.8763C15.1903 12.9867 14.7487 13.4282 14.528 13.8698C14.528 13.9802 14.4176 14.0906 14.4176 14.201C14.4176 14.3114 14.4176 14.3114 14.4176 14.3114C14.528 14.4218 14.9695 14.6425 15.3007 14.9737L15.963 15.0841Z" fill="#8A6934"/>
<path d="M20.2683 7.79828L19.606 8.23985C19.3852 8.46064 19.2748 8.46064 19.2748 8.68142C19.2748 8.79181 19.2748 8.79181 19.2748 8.9022C19.2748 8.9022 19.2748 8.9022 19.2748 9.0126C19.2748 9.0126 19.2748 9.0126 19.1644 9.0126C19.1644 8.9022 18.9436 8.46064 18.9436 8.46064V8.35024C18.9436 8.35024 19.054 8.35024 19.1644 8.23985C19.2748 8.12946 19.4956 8.01907 19.606 7.90868L21.3722 6.69437C21.4826 6.58397 21.593 6.47358 21.7034 6.47358L21.8138 6.36319C21.8138 6.36319 21.8138 6.36319 21.9242 6.36319C21.9242 6.47358 22.145 6.80476 22.2554 6.91515V7.02554C22.2554 7.02554 22.2554 7.02554 22.145 7.02554C22.0346 6.91515 21.8138 6.91515 21.4826 7.13593L20.8203 7.46711L22.0346 9.23338C22.3658 9.67495 22.5865 10.0061 22.6969 10.2269C22.8073 10.3373 22.9177 10.4477 23.1385 10.3373C23.1385 10.3373 23.2489 10.2269 23.3593 10.2269H23.4697V10.3373C23.1385 10.5581 22.9177 10.6685 22.8073 10.7789C22.6969 10.8893 22.4761 10.9997 22.2554 11.2204H22.145C22.145 11.2204 22.145 11.2204 22.145 11.11L22.2554 10.9997C22.3657 10.8893 22.2554 10.7789 22.2554 10.6685C22.145 10.4477 21.9242 10.1165 21.593 9.67495L20.2683 7.79828Z" fill="#8A6934"/>
<path d="M24.3529 6.80474C24.1322 6.14239 24.0218 5.92161 23.9114 5.81122C23.801 5.70082 23.801 5.59043 23.5802 5.59043C23.5802 5.59043 23.4698 5.59043 23.3594 5.59043H23.249C23.249 5.59043 23.249 5.59043 23.3594 5.48004C23.5802 5.36965 23.9114 5.25926 24.0218 5.25926C24.1322 5.25926 24.5737 5.03847 24.6841 4.92808C25.1257 4.92808 25.4569 4.81769 25.788 4.81769C26.0088 4.81769 26.2296 5.03847 26.4504 5.36965C26.5608 5.70082 26.5608 6.14239 26.2296 6.69435C26.892 7.02553 27.4439 7.3567 27.8855 7.57749C28.327 7.79827 28.5478 7.68788 28.5478 7.68788H28.6582C28.6582 7.68788 28.6582 7.68788 28.7686 7.68788C28.7686 7.68788 28.7686 7.68788 28.6582 7.79827L28.2167 8.01905C27.8855 8.12945 27.7751 8.12945 27.5543 8.12945C27.3335 8.12945 27.0023 7.90866 26.5608 7.68788C26.2296 7.46709 25.8984 7.24631 25.788 7.24631C25.788 7.24631 25.788 7.24631 25.6776 7.24631L25.2361 7.3567V7.46709C25.4569 7.90866 25.5673 8.35023 25.6776 8.46062C25.788 8.57101 25.788 8.68141 26.0088 8.68141C26.1192 8.68141 26.2296 8.68141 26.2296 8.57101C26.2296 8.57101 26.2296 8.57101 26.34 8.57101C26.34 8.57101 26.34 8.57101 26.2296 8.68141C25.8984 8.7918 25.5673 8.90219 25.4569 8.90219C25.3465 8.90219 25.0153 9.12297 24.9049 9.12297H24.7945C24.7945 9.12297 24.7945 9.12297 24.7945 9.01258C24.9049 9.01258 24.9049 9.01258 24.9049 8.90219C25.0153 8.90219 25.0153 8.68141 24.9049 8.57101C24.9049 8.35023 24.6841 7.90866 24.4633 7.46709L24.3529 6.80474ZM25.1257 7.02553C25.3465 7.13592 25.4569 7.02553 25.5672 7.02553C25.788 6.91513 25.788 6.91513 25.8984 6.80474C26.0088 6.69435 26.0088 6.36317 25.8984 5.92161C25.5673 5.25926 25.0153 5.14886 24.7945 5.25926C24.6841 5.25926 24.5737 5.36965 24.5737 5.36965C24.5737 5.36965 24.5737 5.36965 24.5737 5.48004L25.1257 7.02553Z" fill="#8A6934"/>
<path d="M29.4309 6.36319L29.2101 7.24633C29.2101 7.35672 29.2101 7.46711 29.2101 7.5775C29.2101 7.68789 29.3205 7.68789 29.4309 7.68789H29.5413H29.6516C29.6516 7.68789 29.6516 7.68789 29.5413 7.68789C29.4309 7.68789 29.0997 7.68789 28.9893 7.79829C28.9893 7.79829 28.6581 7.90868 28.3269 7.90868C28.2166 7.90868 28.2166 7.90868 28.2166 7.90868H28.3269C28.5477 7.79829 28.6581 7.68789 28.6581 7.35672L29.4309 3.82418C29.4309 3.71379 29.4309 3.60339 29.5413 3.60339C29.5413 3.60339 29.6516 3.60339 29.6516 3.71379C29.8724 3.93457 30.9763 6.03202 31.5283 6.80476C31.7491 7.24633 31.9699 7.35672 32.0803 7.35672C32.1907 7.35672 32.1907 7.35672 32.301 7.35672H32.4114C32.4114 7.35672 32.4114 7.35672 32.1907 7.46711C31.9699 7.46711 31.6387 7.5775 31.1971 7.5775C31.0867 7.5775 31.0867 7.5775 31.0867 7.5775V7.46711L30.5348 6.36319H29.4309ZM30.4244 5.92162C30.5348 5.92162 30.5348 5.92162 30.4244 5.92162L29.762 4.70731L29.4309 6.14241L30.4244 5.92162Z" fill="#8A6934"/>
<path d="M32.7426 3.82417C32.6322 3.49299 32.5218 3.49299 32.4114 3.3826C32.3011 3.3826 32.3011 3.3826 32.1907 3.3826C32.1907 3.3826 32.1907 3.3826 32.3011 3.3826C32.6322 3.3826 32.853 3.3826 33.0738 3.3826C33.1842 3.3826 33.5154 3.3826 33.7362 3.3826H33.8465C33.8465 3.3826 33.8465 3.3826 33.7362 3.3826C33.6258 3.3826 33.6258 3.3826 33.5154 3.3826C33.5154 3.3826 33.5154 3.3826 33.5154 3.49299C33.5154 3.60338 33.5154 3.71377 33.6258 3.93456L34.5089 6.36318C34.7297 5.81122 35.5024 4.04495 35.7232 3.71377C35.7232 3.60338 35.7232 3.60338 35.7232 3.49299V3.3826C35.7232 3.3826 35.6128 3.3826 35.5024 3.3826H35.392C35.392 3.3826 35.392 3.3826 35.5024 3.3826C35.7232 3.3826 35.944 3.3826 36.0544 3.3826C36.1648 3.3826 36.3856 3.3826 36.6063 3.3826C36.6063 3.3826 36.4959 3.3826 36.3856 3.3826C36.2752 3.3826 36.2752 3.49299 36.0544 3.82417C35.8336 4.37613 35.7232 4.59691 35.392 5.25926C35.0609 6.032 34.7297 6.58396 34.6193 6.91514C34.5089 7.24632 34.3985 7.35671 34.3985 7.24632C34.2881 7.24632 34.2881 7.13592 34.1777 6.91514L32.7426 3.82417Z" fill="#8A6934"/>
<path d="M37.8207 5.36964C38.0415 4.5969 38.0415 4.37612 38.0415 4.26573C38.0415 4.04494 38.0415 4.04494 37.9311 3.93455C37.9311 3.93455 37.8207 3.93455 37.7103 3.93455C37.7103 3.93455 37.5999 3.93455 37.5999 3.82416C37.5999 3.82416 37.5999 3.82416 37.7103 3.82416C37.8207 3.82416 38.0415 3.93455 38.1519 3.93455C38.2622 3.93455 38.3726 4.04494 38.483 4.04494C38.5934 4.04494 39.6973 4.37612 39.8077 4.37612C39.9181 4.37612 40.0285 4.37612 40.0285 4.37612C40.0285 4.37612 40.0285 4.37612 40.1389 4.37612C40.1389 4.37612 40.1389 4.48651 40.0285 4.70729C40.0285 4.70729 39.9181 4.92808 39.9181 5.03847C39.9181 5.03847 39.9181 5.03847 39.9181 4.92808C39.9181 4.92808 39.9181 4.81769 39.9181 4.70729C39.9181 4.5969 39.9181 4.48651 39.5869 4.48651C39.4766 4.48651 38.9246 4.26573 38.8142 4.26573L38.483 5.70082C38.5934 5.70082 39.2558 5.9216 39.3662 5.9216C39.4766 5.9216 39.5869 5.9216 39.5869 5.9216H39.6973C39.6973 5.9216 39.6973 6.032 39.5869 6.25278C39.5869 6.47356 39.5869 6.69435 39.5869 6.69435C39.5869 6.69435 39.5869 6.80474 39.4766 6.80474C39.4766 6.80474 39.4766 6.69435 39.4766 6.58396C39.4766 6.47356 39.4766 6.36317 39.2558 6.36317C39.1454 6.36317 38.5934 6.25278 38.483 6.14239L38.3726 6.58396C38.3726 6.80474 38.2622 7.24631 38.1519 7.3567C38.0415 7.68788 38.1519 7.79827 38.7038 7.90866C38.8142 7.90866 39.035 8.01905 39.2558 7.90866C39.3662 7.90866 39.4766 7.79827 39.5869 7.57748C39.5869 7.57748 39.5869 7.46709 39.6973 7.57748C39.6973 7.57748 39.6973 7.57748 39.6973 7.68787C39.6973 7.79827 39.5869 8.12944 39.4766 8.23983C39.3662 8.35023 39.3662 8.35023 39.1454 8.23983C38.5934 8.23983 38.3726 8.12944 38.1519 8.12944C37.9311 8.12944 37.8207 8.01905 37.5999 8.01905C37.5999 8.01905 37.4895 8.01905 37.2687 7.90866C37.1583 7.90866 37.0479 7.90866 36.9375 7.79827C36.9375 7.79827 36.8271 7.79827 36.8271 7.68787C36.8271 7.68787 36.8271 7.68787 36.9375 7.68787C37.0479 7.68787 37.0479 7.68787 37.1583 7.68787C37.2687 7.68787 37.2687 7.57748 37.3791 7.46709C37.4895 7.24631 37.5999 6.80474 37.7103 6.36317L37.8207 5.36964Z" fill="#8A6934"/>
<path d="M42.0155 7.79828C41.6843 8.46063 41.5739 8.79181 41.5739 8.9022C41.5739 9.01259 41.6843 9.12298 42.1258 9.23338C42.3466 9.34377 42.5674 9.45416 42.7882 9.34377C42.8986 9.34377 43.009 9.23338 43.009 9.12298C43.009 9.12298 43.009 9.12298 43.1194 9.12298C43.1194 9.12298 43.1194 9.12298 43.1194 9.23338C43.1194 9.23338 42.8986 9.67494 42.7882 9.78534C42.6778 9.89573 42.6778 9.89573 42.457 9.78534C42.1258 9.67494 41.9051 9.45416 41.6843 9.34377C41.4635 9.23338 41.3531 9.12298 41.1323 9.01259C41.1323 9.01259 41.0219 8.9022 40.9115 8.9022C40.8011 8.9022 40.6908 8.79181 40.5804 8.79181C40.5804 8.79181 40.47 8.79181 40.47 8.68142C40.47 8.68142 40.47 8.68142 40.5804 8.68142C40.6908 8.68142 40.6908 8.68142 40.8011 8.68142C40.9115 8.68142 41.0219 8.68142 41.0219 8.46063C41.1323 8.23985 41.3531 7.90867 41.5739 7.46711L41.7947 6.58397C42.1258 5.81123 42.2362 5.70083 42.2362 5.59044C42.2362 5.48005 42.2362 5.36966 42.1258 5.25927C42.1258 5.25927 42.0155 5.25927 42.0155 5.14888C42.0155 5.14888 41.9051 5.14887 42.0155 5.03848C42.0155 5.03848 42.0155 5.03848 42.1258 5.03848C42.3466 5.14887 42.6778 5.25927 42.7882 5.36966C42.8986 5.36966 43.2298 5.59044 43.4506 5.70083C43.5609 5.70083 43.5609 5.70083 43.5609 5.81123C43.5609 5.81123 43.5609 5.81123 43.4506 5.81123C43.3402 5.81123 43.3402 5.81123 43.2298 5.70083C43.1194 5.70083 43.009 5.70083 42.8986 5.92162C42.7882 6.03201 42.7882 6.25279 42.3466 6.91515L42.0155 7.79828Z" fill="#8A6934"/>
<path d="M46.4311 10.8893C46.4311 10.7789 46.4311 10.7789 46.4311 10.8893L45.6584 11.2204C45.548 11.2204 45.4376 11.3308 45.3272 11.4412C45.3272 11.5516 45.2168 11.5516 45.3272 11.662C45.3272 11.662 45.3272 11.662 45.3272 11.7724C45.3272 11.7724 45.3272 11.7724 45.2168 11.7724C45.2168 11.662 45.1064 11.4412 44.996 11.4412C44.996 11.4412 44.7752 11.2204 44.5544 10.9996V10.8893C44.5544 10.8893 44.5544 10.8893 44.6648 10.8893L44.7752 10.9996C44.996 11.11 45.2168 11.11 45.4376 10.9996L48.7493 9.45416C48.8597 9.34377 48.9701 9.34377 48.9701 9.45416C48.9701 9.45416 48.9701 9.56455 48.9701 9.67495C48.8597 10.0061 47.9766 12.214 47.7558 12.9867C47.535 13.4283 47.6454 13.6491 47.7558 13.7594L47.8662 13.8698C47.8662 13.8698 47.8662 13.8698 47.8662 13.9802C47.8662 13.9802 47.7558 13.9802 47.6454 13.8698C47.535 13.7594 47.2038 13.4283 46.8727 13.2075C46.8727 13.0971 46.7623 13.0971 46.7623 13.0971C46.7623 13.0971 46.7623 13.0971 46.8727 13.0971H46.9831L47.4246 11.9932L46.4311 10.8893ZM47.4246 11.4412L47.9766 10.1165L46.7623 10.7789L47.4246 11.4412Z" fill="#8A6934"/>
<path d="M50.7365 12.1036C50.8469 11.9932 50.9573 11.8828 50.9573 11.7724C50.9573 11.662 50.9573 11.662 50.8469 11.5516C50.7365 11.4412 50.8469 11.4412 50.8469 11.4412C50.8469 11.4412 50.8469 11.4412 50.9573 11.5516C51.0677 11.7724 51.2884 11.9932 51.2884 12.1036C51.2884 12.1036 51.3988 12.3244 51.6196 12.5451V12.6555C51.6196 12.6555 51.6196 12.6555 51.5092 12.6555C51.5092 12.6555 51.5092 12.5451 51.3988 12.5451H51.2884C51.2884 12.5451 51.0677 12.7659 50.9573 12.8763C50.7365 13.0971 49.6326 14.4218 49.4118 14.6426L52.3924 13.9802C52.5027 13.9802 52.6131 13.9802 52.6131 13.9802C52.6131 13.9802 52.6131 14.0906 52.5027 14.201L50.8469 16.6296C51.178 16.5193 52.6131 16.0777 53.2755 15.9673C53.3859 15.9673 53.4963 15.8569 53.6067 15.8569C53.7171 15.8569 53.7171 15.7465 53.6067 15.5257V15.4153C53.6067 15.4153 53.6067 15.4153 53.7171 15.5257C53.8274 15.7465 53.9378 15.9673 54.0482 15.9673C54.0482 15.9673 54.1586 16.1881 54.269 16.2985V16.4089C54.269 16.4089 54.269 16.4089 54.1586 16.4089L54.0482 16.2985C53.9378 16.1881 53.7171 16.2985 53.3859 16.2985C52.7235 16.4089 50.9573 16.8504 50.0741 17.0712C49.8533 17.0712 49.8533 17.0712 49.743 17.0712C49.6326 17.0712 49.743 16.9608 49.8533 16.74L51.5092 14.3114C51.178 14.3114 49.191 14.753 48.639 14.8634C48.4183 14.8634 48.3079 14.8634 48.3079 14.8634C48.3079 14.8634 48.3079 14.753 48.4183 14.6426L50.7365 12.1036Z" fill="#8A6934"/>
<path d="M52.2819 19.3894C52.2819 19.279 52.2819 19.279 52.2819 19.3894L51.3988 19.279C51.2884 19.279 51.178 19.279 51.0676 19.279C50.9572 19.279 50.9572 19.3894 50.9572 19.4998V19.6102V19.7206C50.9572 19.7206 50.9572 19.7206 50.8468 19.6102C50.8468 19.4998 50.7364 19.279 50.7364 19.0582C50.7364 19.0582 50.626 18.7271 50.5156 18.5063C50.626 18.7271 50.8468 18.7271 51.0676 18.8374L54.7105 19.0582C54.8209 19.0582 54.9313 19.0582 54.9313 19.1686C54.9313 19.1686 54.9313 19.279 54.8209 19.3894C54.6001 19.6102 52.7235 21.0453 52.0611 21.5972C51.7299 22.0388 51.7299 22.1492 51.7299 22.2596C51.7299 22.37 51.7299 22.37 51.7299 22.4804C51.7299 22.4804 51.7299 22.4804 51.7299 22.5908C51.7299 22.5908 51.7299 22.5908 51.6195 22.37C51.6195 22.1492 51.3988 21.818 51.2884 21.3765C51.2884 21.2661 51.2884 21.2661 51.2884 21.2661C51.2884 21.2661 51.2884 21.2661 51.3988 21.2661H51.5091L52.5027 20.4933L52.2819 19.3894ZM52.8339 20.2725C52.9442 20.3829 52.8339 20.3829 52.8339 20.2725L53.9378 19.3894L52.5027 19.279L52.8339 20.2725Z" fill="#8A6934"/>
<path d="M54.3795 23.2532C55.1522 23.2532 55.373 23.1428 55.4834 23.1428C55.7042 23.1428 55.7042 23.0324 55.8146 22.922C55.8146 22.922 55.8146 22.8116 55.8146 22.7012V22.5908C55.8146 22.5908 55.8146 22.5908 55.8146 22.7012C55.8146 23.0324 55.8146 23.3636 55.8146 23.474C55.8146 23.6947 55.8146 24.0259 55.925 24.2467C55.925 24.5779 55.925 24.9091 55.8146 25.2402C55.7042 25.3506 55.4834 25.6818 55.1522 25.6818C54.7106 25.6818 54.3795 25.5714 53.9379 25.0194C53.3859 25.5714 52.9444 26.013 52.6132 26.3441C52.282 26.6753 52.282 26.8961 52.282 27.0065V27.1169C52.282 27.1169 52.282 27.1169 52.282 27.0065V26.4545C52.282 26.1234 52.282 26.013 52.282 25.9026C52.3924 25.6818 52.6132 25.461 53.0548 25.1298C53.2755 24.909 53.7171 24.5779 53.7171 24.5779C53.7171 24.5779 53.7171 24.5779 53.7171 24.4675V24.0259H53.6067C53.0548 24.0259 52.7236 24.1363 52.5028 24.1363C52.3924 24.1363 52.282 24.2467 52.282 24.3571C52.282 24.4675 52.282 24.5779 52.282 24.5779C52.282 24.5779 52.282 24.5779 52.282 24.4675C52.282 24.1363 52.282 23.8051 52.282 23.6947C52.282 23.5843 52.282 23.2532 52.1716 23.0324C52.1716 23.1428 52.1716 23.1428 52.1716 23.2532C52.1716 23.3636 52.282 23.3636 52.5028 23.3636C52.7236 23.3636 53.1652 23.3636 53.6067 23.3636L54.3795 23.2532ZM54.0483 23.9155C53.9379 23.9155 53.9379 23.9155 54.0483 23.9155C53.9379 24.1363 53.9379 24.2467 53.9379 24.3571C53.9379 24.5779 53.9379 24.6883 54.0483 24.6883C54.1587 24.7987 54.4899 25.0194 54.9314 24.9091C55.7042 24.9091 55.925 24.3571 55.8146 24.0259C55.8146 23.9155 55.8146 23.8051 55.8146 23.6947C55.8146 23.6947 55.8146 23.6947 55.7042 23.6947L54.0483 23.9155Z" fill="#8A6934"/>
<path d="M54.4899 28.2208C55.2626 28.3312 55.4834 28.3312 55.5938 28.4415C55.8146 28.4415 55.8146 28.4415 55.925 28.2208C55.925 28.2208 55.925 28.1104 55.925 28V27.8896C55.925 27.8896 55.925 27.8896 55.925 28C55.925 28.3312 55.8146 28.6623 55.8146 28.7727C55.8146 28.8831 55.7042 29.3247 55.7042 29.6559C55.5938 30.3182 55.4834 31.2013 54.7107 31.6429C54.3795 31.8637 53.9379 31.9741 53.2756 31.8637C52.6132 31.7533 52.1717 31.4221 51.9509 30.9806C51.7301 30.6494 51.5093 30.0974 51.6197 29.1039C51.6197 28.8831 51.7301 28.6623 51.7301 28.5519C51.7301 28.4415 51.8405 28.2208 51.8405 28C51.8405 28 51.8405 27.7792 51.8405 27.6688C51.8405 27.5584 51.8405 27.448 51.8405 27.3376C51.8405 27.2272 51.8405 27.2272 51.9509 27.2272C51.9509 27.2272 51.9509 27.2272 51.9509 27.3376C51.9509 27.448 51.9509 27.448 51.9509 27.5584C51.9509 27.6688 52.0613 27.6688 52.1717 27.7792C52.3924 27.7792 52.834 27.8896 53.2756 28L54.4899 28.2208ZM53.8275 28.7727C53.2756 28.6623 52.834 28.6623 52.7236 28.5519C52.6132 28.5519 52.3924 28.5519 52.282 28.5519C52.1717 28.5519 52.0613 28.7727 51.9509 29.2143C51.8405 29.7662 51.9509 30.0974 52.0613 30.539C52.282 30.9806 52.7236 31.091 53.2756 31.2013C53.9379 31.3117 54.3795 31.091 54.7107 30.9806C55.2626 30.539 55.4834 29.987 55.4834 29.5455C55.4834 29.4351 55.4834 29.2143 55.4834 29.2143C55.4834 29.2143 55.4834 29.1039 55.373 29.1039C55.1522 29.1039 54.7107 28.9935 54.3795 28.8831L53.8275 28.7727Z" fill="#8A6934"/>
<path d="M50.9573 32.6365C50.9573 32.6365 51.0677 32.6365 51.1781 32.6365C51.3988 32.7469 51.73 32.8573 51.8404 32.9676C51.9508 33.078 51.9508 33.078 51.9508 33.078C51.9508 33.078 51.9508 33.078 51.8404 33.078H51.6196C51.1781 33.078 50.9573 33.2988 50.8469 33.5196C50.6261 33.9612 50.8469 34.2924 51.0677 34.4027C51.2884 34.5131 51.6196 34.5131 52.0612 34.2924L52.282 34.182C52.9443 33.8508 53.3859 33.7404 53.7171 33.9612C54.269 34.182 54.4898 34.8443 54.1586 35.5067C54.0482 35.8378 53.9379 36.0586 53.8275 36.169C53.8275 36.169 53.8275 36.169 53.7171 36.169C53.7171 36.169 53.4963 36.0586 53.1651 35.9482C53.0547 35.9482 53.0547 35.8378 53.0547 35.8378C53.0547 35.8378 53.0547 35.8378 53.1651 35.8378C53.1651 35.8378 53.3859 35.8378 53.4963 35.8378C53.6067 35.8378 53.8275 35.7274 53.9379 35.3963C54.0482 35.0651 53.9379 34.7339 53.7171 34.6235C53.4963 34.5131 53.2755 34.6235 52.7235 34.8443L52.6131 34.9547C51.9508 35.3963 51.5092 35.3963 50.9573 35.1755C50.6261 35.0651 50.4053 34.8443 50.2949 34.2924C50.2949 33.9612 50.2949 33.63 50.4053 33.4092C50.6261 33.078 50.7365 32.8573 50.9573 32.6365Z" fill="#8A6934"/>
<mask id="mask21_857_2893" style="mask-type:luminance" maskUnits="userSpaceOnUse" x="47" y="44" width="17" height="10">
<path d="M54.49 44.1172L53.2757 46.9874C51.7302 47.5394 48.308 48.3121 47.2041 49.3057C53.7172 50.1888 58.6848 52.507 60.5615 53.5006L57.8017 48.4225L63.1005 47.6498C63.1005 47.7602 59.8992 45.6627 54.49 44.1172Z" fill="white"/>
</mask>
<g mask="url(#mask21_857_2893)">
<path d="M63.1005 44.1172H47.2041V53.611H63.1005V44.1172Z" fill="url(#paint21_linear_857_2893)"/>
</g>
<path d="M47.2041 49.416C48.308 48.3121 51.8406 47.5394 53.2757 47.0978C52.2821 46.5458 51.0678 45.8835 49.0808 45.2211L47.2041 49.416Z" fill="#E5CD73"/>
<mask id="mask22_857_2893" style="mask-type:luminance" maskUnits="userSpaceOnUse" x="3" y="44" width="17" height="10">
<path d="M12.2099 44.338C6.80069 45.8835 3.70972 47.8706 3.70972 47.8706L8.89813 48.6433L6.13834 53.7213C8.015 52.7278 12.9826 50.4096 19.4957 49.5264C18.3918 48.4225 14.9697 47.6498 13.4242 47.2082L12.2099 44.338Z" fill="white"/>
</mask>
<g mask="url(#mask22_857_2893)">
<path d="M19.6061 44.2276H3.70972V53.7213H19.6061V44.2276Z" fill="url(#paint22_linear_857_2893)"/>
</g>
<path d="M19.6062 49.5264C18.5023 48.4225 15.0802 47.6498 13.5347 47.2082C14.4178 46.7666 16.736 45.6627 17.7296 45.3315L19.6062 49.5264Z" fill="#E5CD73"/>
<mask id="mask23_857_2893" style="mask-type:luminance" maskUnits="userSpaceOnUse" x="11" y="35" width="45" height="13">
<path d="M33.2947 35.5067C20.71 35.5067 11.106 41.247 11.106 41.247L13.5346 47.3186C13.5346 47.3186 22.6971 42.2406 33.4051 42.2406C42.7884 42.2406 50.9574 45.8835 53.2756 47.2082L55.8146 41.3574C55.8146 41.247 46.5417 35.617 33.2947 35.5067Z" fill="white"/>
</mask>
<g mask="url(#mask23_857_2893)">
<path d="M55.8146 35.5067H11.106V47.2082H55.8146V35.5067Z" fill="url(#paint23_linear_857_2893)"/>
</g>
<mask id="mask24_857_2893" style="mask-type:luminance" maskUnits="userSpaceOnUse" x="3" y="35" width="61" height="20">
<path d="M18.5022 48.6433H18.3918C18.3918 48.6433 18.3918 48.6433 18.2814 48.6433C17.2879 48.2017 16.0736 47.8706 14.9696 47.5394C14.9696 47.5394 14.5281 47.429 14.0865 47.3186C14.7489 46.9874 15.9632 46.4355 17.619 45.7731C17.7294 46.1043 18.723 48.0913 19.1645 49.0849C18.8334 48.8641 18.723 48.7537 18.5022 48.6433ZM49.3015 45.4419C49.6327 45.5523 49.8535 45.6627 50.1846 45.7731C50.295 45.7731 50.5158 45.8835 50.6262 45.9939C51.6197 46.4355 52.2821 46.7666 52.834 46.9874C52.5029 47.0978 52.0613 47.2082 52.0613 47.2082C51.1782 47.429 50.1846 47.7602 49.3015 48.0914C48.7495 48.3121 48.308 48.5329 47.8664 48.7537C48.1976 47.8706 49.0807 45.7731 49.3015 45.4419ZM9.22926 48.5329C9.22926 48.5329 5.25516 47.8706 4.37202 47.7602C5.47594 47.0978 8.23574 45.7731 12.2098 44.5588C12.3202 44.7796 12.9826 46.4355 13.2034 47.0978C13.2034 47.2082 13.3138 47.3186 13.3138 47.3186H13.4242H13.5345L14.7489 47.6498C16.1839 48.0913 18.0606 48.6433 19.0541 49.1953C12.8722 50.1888 8.45652 52.1759 6.69025 53.059C7.24221 52.2862 9.22926 48.5329 9.22926 48.5329ZM47.756 49.3057C47.756 49.3057 47.8664 49.1953 47.9768 49.1953C48.9703 48.6433 50.7366 48.0913 52.0613 47.6498L53.2756 47.3186H53.386L53.4964 47.0978L54.4899 44.5588C58.464 45.6627 61.2238 47.0978 62.2173 47.7602C61.2238 47.8706 57.2497 48.5329 57.2497 48.5329C57.2497 48.5329 59.3472 52.2862 59.7887 53.2798C58.2432 52.2862 53.8276 50.2992 47.756 49.3057ZM11.3267 41.2471C12.541 40.5847 21.9243 35.6171 33.2947 35.7275C45.3274 35.7275 54.3795 40.5847 55.5938 41.2471C55.5938 41.3574 54.9315 42.6821 54.4899 44.0068L54.3795 44.1172C54.3795 44.1172 53.4964 46.1043 53.2756 46.7666C52.2821 46.2147 51.0678 45.6627 49.7431 45.1108C49.6327 45.1108 49.5223 45.0004 49.3015 45.0004L49.0807 44.89C45.6586 43.5653 39.587 41.9094 33.4051 41.9094C27.3335 41.9094 21.1516 43.7861 17.619 45.1108C16.6255 45.4419 14.6385 46.3251 13.6449 46.877C13.4242 46.5459 11.4371 41.5782 11.3267 41.2471ZM33.2947 35.2859C20.9308 35.2859 11.1059 40.9159 10.9955 41.0263L10.8851 41.1367L12.0995 44.2276C6.80065 45.7731 3.70967 47.7602 3.70967 47.7602L3.15771 48.0914C3.15771 48.0914 8.12535 48.8641 8.67731 48.9745C8.45652 49.4161 5.69673 54.4941 5.69673 54.4941L6.35908 54.1629C7.3526 53.6109 12.2098 50.9615 19.6061 49.968C19.7165 49.968 19.8269 49.968 19.9373 49.968L17.9502 45.6627C21.3724 44.338 27.4439 42.5718 33.4051 42.5718C39.4766 42.5718 45.5482 44.2276 48.8599 45.5523L46.9833 49.5264L46.8729 49.8576C46.8729 49.8576 46.9833 49.8576 47.2041 49.8576C54.4899 50.8511 59.5679 53.5006 60.4511 54.0525L61.1134 54.3837C61.1134 54.3837 58.3536 49.3057 58.1328 48.8641C58.6848 48.7537 63.6524 48.0914 63.6524 48.0914L63.2109 47.7602C63.2109 47.7602 60.1199 45.7731 54.8211 44.2276L56.0354 41.2471L55.925 41.1367C55.8146 40.9159 46.3209 35.2859 33.2947 35.2859Z" fill="white"/>
</mask>
<g mask="url(#mask24_857_2893)">
<path d="M63.6524 35.2859H3.15771V54.3837H63.6524V35.2859Z" fill="url(#paint24_linear_857_2893)"/>
</g>
<path d="M16.4048 40.5847C16.2944 40.4743 16.184 40.3639 16.0736 40.2535H15.8528H15.7424C15.7424 40.2535 15.7424 40.2535 15.8528 40.1431C16.0736 40.0327 16.4048 40.0327 16.4048 39.9223C16.4048 39.9223 16.6256 39.8119 16.9567 39.7015C17.0671 39.7015 17.0671 39.7015 17.0671 39.7015C17.0671 39.7015 17.0671 39.7015 16.9567 39.8119C16.8464 39.9223 16.8463 39.8119 16.8463 39.8119V39.9223C16.8463 39.9223 16.9567 40.1431 17.0671 40.3639C17.2879 40.695 18.2814 42.0197 18.3918 42.3509L18.5022 39.3703C18.5022 39.2599 18.5022 39.1496 18.5022 39.1496C18.5022 39.1496 18.6126 39.1496 18.723 39.3703L20.7101 41.5782C20.7101 41.247 20.7101 39.7015 20.5997 39.0392C20.5997 38.9288 20.5997 38.8184 20.5997 38.708C20.5997 38.5976 20.4893 38.5976 20.2685 38.5976H20.1581C20.1581 38.5976 20.1581 38.5976 20.2685 38.4872C20.4893 38.3768 20.7101 38.3768 20.8205 38.3768C20.8205 38.3768 21.0412 38.2664 21.262 38.2664H21.3724C21.3724 38.2664 21.3724 38.2664 21.3724 38.3768C21.3724 38.3768 21.262 38.3768 21.262 38.4872C21.1516 38.5976 21.1516 38.8184 21.1516 39.1496C21.1516 39.9223 21.1516 41.6886 21.1516 42.5717C21.1516 42.7925 21.1516 42.7925 21.1516 42.9029C21.1516 42.9029 21.0412 42.9029 20.9308 42.6821L18.9438 40.4743C18.9438 40.8054 18.8334 42.7925 18.8334 43.3444C18.8334 43.5652 18.8334 43.6756 18.723 43.6756C18.723 43.6756 18.6126 43.6756 18.5022 43.5652L16.4048 40.5847Z" fill="#8A6934"/>
<path d="M24.4634 39.3704C24.353 38.5976 24.2426 38.3768 24.2426 38.2665C24.2426 38.0457 24.1322 38.0457 24.0218 38.0457C24.0218 38.0457 23.9115 38.0457 23.8011 38.0457H23.6907C23.6907 38.0457 23.6907 38.0457 23.8011 38.0457C24.0218 38.0457 24.353 37.9353 24.4634 37.9353C24.5738 37.9353 24.905 37.8249 25.1258 37.8249H25.2362C25.2362 37.8249 25.2362 37.8249 25.1258 37.9353H25.0154C24.905 37.9353 24.905 38.0457 24.905 38.2665C24.905 38.3768 24.905 38.5976 25.1258 39.3704L25.3466 40.2535C25.4569 40.8055 25.5673 41.247 25.5673 41.3574C25.5673 41.4678 25.6777 41.5782 25.7881 41.5782C25.8985 41.5782 26.0089 41.5782 26.0089 41.5782H26.1193C26.1193 41.5782 26.1193 41.5782 26.0089 41.6886C25.6777 41.799 25.3466 41.799 25.1258 41.799C25.0154 41.799 24.6842 41.9094 24.4634 41.9094C24.5738 41.9094 24.5738 41.9094 24.6842 41.9094C24.7946 41.9094 24.7946 41.799 24.7946 41.5782C24.7946 41.3574 24.6842 40.9159 24.5738 40.4743L24.4634 39.3704Z" fill="#8A6934"/>
<path d="M29.0999 40.3639C29.0999 40.8054 29.2103 40.9158 29.3207 40.9158C29.4311 40.9158 29.5415 40.9158 29.6519 40.9158H29.7622C29.7622 40.9158 29.7622 40.9158 29.6519 40.9158C29.3207 40.9158 29.0999 40.9158 28.9895 40.9158C28.9895 40.9158 28.6583 40.9158 28.4375 40.9158C28.5479 40.9158 28.5479 40.9158 28.6583 40.9158C28.7687 40.9158 28.7687 40.6951 28.7687 40.2535L28.5479 37.0521C28.5479 36.9417 28.5479 36.8313 28.5479 36.8313C28.5479 36.8313 28.6583 36.8313 28.7687 36.9417C28.8791 36.9417 29.7622 37.8249 30.535 38.4872C30.9766 38.8184 31.7493 39.4807 31.7493 39.5911L31.5285 37.1625C31.5285 36.8313 31.4181 36.7209 31.3077 36.7209C31.1973 36.7209 31.0869 36.7209 30.9766 36.7209H30.8662C30.8662 36.7209 30.8662 36.7209 30.9766 36.7209C31.1973 36.7209 31.5285 36.7209 31.6389 36.7209C31.6389 36.7209 31.8597 36.7209 32.1909 36.7209H32.0805C31.9701 36.7209 31.8597 36.8313 31.9701 37.1625L32.1909 40.5847C32.1909 40.6951 32.1909 40.6951 32.1909 40.6951C32.1909 40.6951 32.0805 40.6951 31.9701 40.5847C31.6389 40.2535 30.8662 39.5911 30.3142 39.1496C29.6519 38.5976 28.9895 38.0456 28.8791 37.9353L29.0999 40.3639Z" fill="#8A6934"/>
<path d="M35.7233 40.1431C35.7233 40.5847 35.7233 40.6951 35.8337 40.8055C35.944 40.8055 36.0544 40.8055 36.0544 40.8055H36.1648C36.1648 40.8055 36.1648 40.8055 36.0544 40.8055C35.7233 40.8055 35.5025 40.8055 35.3921 40.6951C35.3921 40.6951 35.0609 40.6951 34.8401 40.6951C34.9505 40.6951 34.9505 40.6951 35.0609 40.6951C35.1713 40.6951 35.2817 40.4743 35.2817 40.0327L35.6129 36.8313C35.6129 36.721 35.6129 36.6106 35.7233 36.721C35.7233 36.721 35.8337 36.8313 35.944 36.9417C35.944 37.0521 36.7168 37.9353 37.4895 38.8184C37.8207 39.26 38.4831 40.0327 38.5934 40.1431L38.7038 37.7145C38.7038 37.3833 38.7038 37.2729 38.5934 37.1625C38.4831 37.1625 38.3727 37.1625 38.2623 37.1625H38.1519C38.1519 37.1625 38.1519 37.1625 38.2623 37.1625C38.4831 37.1625 38.8142 37.1625 38.9246 37.2729C38.9246 37.2729 39.1454 37.2729 39.4766 37.2729H39.3662C39.2558 37.2729 39.1454 37.3833 39.1454 37.7145L38.8142 41.1366C38.8142 41.247 38.8142 41.247 38.7038 41.247L38.5934 41.1366C38.2623 40.8055 37.5999 40.0327 37.1584 39.3704C36.6064 38.708 36.0544 38.0457 36.0544 37.9353L35.7233 40.1431Z" fill="#8A6934"/>
<path d="M42.3468 39.26C42.5676 38.4872 42.5676 38.2665 42.5676 38.1561C42.5676 37.9353 42.5676 37.9353 42.4572 37.8249C42.4572 37.8249 42.3468 37.8249 42.2364 37.8249H42.126C42.126 37.8249 42.126 37.8249 42.2364 37.8249C42.3468 37.8249 42.5676 37.9353 42.678 37.9353C42.7884 37.9353 42.8988 37.9353 43.0091 38.0457C43.1195 38.0457 44.2235 38.2665 44.3339 38.3768C44.4442 38.3768 44.5546 38.3768 44.5546 38.3768C44.5546 38.3768 44.5546 38.3768 44.665 38.3768C44.665 38.3768 44.665 38.4872 44.5546 38.708C44.5546 38.708 44.4442 38.9288 44.4442 39.0392C44.4442 39.0392 44.4442 39.0392 44.4442 38.9288C44.4442 38.9288 44.4442 38.8184 44.4442 38.708C44.4442 38.5976 44.4442 38.4872 44.1131 38.4872C44.0027 38.4872 43.4507 38.3768 43.3403 38.2665L43.0091 39.5912C43.1195 39.5912 43.7819 39.7016 43.8923 39.8119C44.0027 39.8119 44.1131 39.8119 44.1131 39.8119H44.2235C44.2235 39.8119 44.2235 39.9223 44.1131 40.1431C44.1131 40.2535 44.0027 40.4743 44.0027 40.4743C44.0027 40.4743 44.0027 40.5847 43.8923 40.5847C43.8923 40.5847 43.8923 40.4743 43.8923 40.3639C43.8923 40.2535 43.8923 40.1431 43.6715 40.1431C43.5611 40.1431 43.0092 40.0327 42.8988 39.9223L42.7884 40.3639C42.7884 40.5847 42.678 41.0263 42.5676 41.1366C42.4572 41.4678 42.5676 41.5782 43.1195 41.6886C43.2299 41.6886 43.4507 41.799 43.6715 41.6886C43.7819 41.6886 43.8923 41.5782 44.0027 41.3574C44.0027 41.3574 44.0027 41.247 44.1131 41.3574C44.1131 41.3574 44.1131 41.3574 44.1131 41.4678C44.1131 41.5782 44.0027 41.9094 43.8923 42.0198C43.8923 42.1302 43.7819 42.1302 43.5611 42.1302C43.1195 42.0198 42.8988 42.0198 42.678 41.9094C42.4572 41.9094 42.3468 41.799 42.126 41.799C42.126 41.799 42.0156 41.799 41.7948 41.799C41.6844 41.799 41.5741 41.799 41.4637 41.6886C41.4637 41.6886 41.3533 41.6886 41.3533 41.5782C41.3533 41.5782 41.3533 41.5782 41.4637 41.5782C41.5741 41.5782 41.5741 41.5782 41.6845 41.5782C41.7948 41.5782 41.7948 41.4678 41.9052 41.3574C42.0156 41.1366 42.0156 40.6951 42.126 40.2535L42.3468 39.26Z" fill="#8A6934"/>
<path d="M47.3144 40.5847C47.5352 39.8119 47.6456 39.7015 47.6456 39.4807C47.6456 39.2599 47.6456 39.2599 47.5352 39.1496C47.5352 39.1496 47.4248 39.1496 47.3144 39.0392C47.3144 39.0392 47.204 39.0392 47.204 38.9288C47.204 38.9288 47.204 38.9288 47.3144 38.9288C47.5352 39.0392 47.8664 39.1496 47.9768 39.1496C48.0871 39.1496 48.5287 39.3703 48.7495 39.3703C49.0807 39.4807 49.4118 39.5911 49.6326 39.9223C49.743 40.0327 49.8534 40.3639 49.743 40.8054C49.6326 41.1366 49.3015 41.4678 48.6391 41.6886C48.8599 42.4613 49.0807 43.0133 49.3015 43.4548C49.5222 43.8964 49.6326 44.0068 49.743 44.0068H49.8534C49.8534 44.0068 49.8534 44.0068 49.743 44.0068H49.5222C49.1911 43.8964 49.0807 43.8964 48.9703 43.6756C48.8599 43.4548 48.6391 43.1237 48.5287 42.6821C48.4183 42.3509 48.3079 41.9094 48.3079 41.799C48.3079 41.799 48.3079 41.799 48.1975 41.799L47.756 41.6886V41.799C47.6456 42.2405 47.4248 42.6821 47.4248 42.9029C47.4248 43.0133 47.4248 43.1237 47.5352 43.2341C47.6456 43.2341 47.756 43.3444 47.756 43.3444C47.756 43.3444 47.756 43.3444 47.6456 43.3444C47.3144 43.2341 46.9832 43.1237 46.8728 43.0133C46.7624 43.0133 46.4313 42.9029 46.2105 42.7925C46.2105 42.7925 46.1001 42.7925 46.1001 42.6821C46.1001 42.6821 46.1001 42.6821 46.2105 42.6821C46.3209 42.6821 46.3209 42.6821 46.4313 42.6821C46.5417 42.6821 46.5417 42.5717 46.6521 42.4613C46.7624 42.2405 46.8728 41.9094 47.0936 41.3574L47.3144 40.5847ZM47.8664 41.247C47.756 41.247 47.756 41.247 47.8664 41.247C47.9768 41.4678 48.0872 41.4678 48.3079 41.5782C48.5287 41.6886 48.5287 41.6886 48.6391 41.5782C48.8599 41.5782 49.0807 41.3574 49.1911 40.9158C49.4119 40.1431 49.0807 39.8119 48.7495 39.7015C48.6391 39.7015 48.5287 39.5911 48.5287 39.5911C48.5287 39.5911 48.5287 39.5911 48.4183 39.5911L47.8664 41.247Z" fill="#8A6934"/>
<path d="M54.821 48.2017L54.6003 48.7537L54.3795 48.2017H54.1587V49.0849H54.2691V48.3121L54.6003 49.0849H54.7107L54.9314 48.3121V49.0849H55.1522V48.2017H54.821Z" fill="#8A6934"/>
<path d="M53.2756 48.3121H53.4964V49.0849H53.7172V48.3121H53.938V48.2017H53.2756V48.3121Z" fill="#8A6934"/>
<path d="M52.3924 49.0849C52.3924 49.1953 52.3925 49.1953 52.2821 49.1953H52.1717C52.0613 49.1953 52.0613 49.1953 51.9509 49.0849C51.9509 49.0849 51.8405 48.9745 51.8405 48.8641C51.8405 48.7537 51.8405 48.7537 51.8405 48.6433C51.8405 48.5329 51.9509 48.5329 52.0613 48.5329C52.1717 48.5329 52.1717 48.5329 52.1717 48.5329V48.6433H52.2821C52.2821 48.5329 52.1717 48.4225 52.0613 48.3121C52.0613 48.3121 51.9509 48.3121 51.8405 48.3121C51.7301 48.3121 51.6197 48.3121 51.5093 48.4225C51.3989 48.5329 51.3989 48.6433 51.3989 48.7537C51.3989 48.8641 51.3989 48.9745 51.5093 49.0849C51.6197 49.1953 51.7301 49.1953 51.8405 49.1953C51.9509 49.1953 52.0613 49.1953 52.0613 49.0849C52.3925 49.3057 52.3924 49.3057 52.3924 49.0849Z" fill="#8A6934"/>
<path d="M52.0614 48.0913C51.8406 48.0913 51.6198 48.2017 51.399 48.3121C51.2886 48.4225 51.1782 48.6433 51.1782 48.9744C51.1782 49.1952 51.2886 49.416 51.399 49.6368C51.5094 49.7472 51.7302 49.8576 52.0614 49.8576C52.2821 49.8576 52.5029 49.7472 52.7237 49.6368C52.8341 49.5264 52.9445 49.3056 52.9445 48.9744C52.9445 48.6433 52.8341 48.5329 52.7237 48.3121C52.5029 48.0913 52.2821 48.0913 52.0614 48.0913ZM52.0614 49.6368C51.8406 49.6368 51.7302 49.5264 51.5094 49.416C51.399 49.3056 51.2886 49.0848 51.2886 48.8641C51.2886 48.6433 51.399 48.5329 51.5094 48.3121C51.6198 48.2017 51.8406 48.0913 52.0614 48.0913C52.2821 48.0913 52.3925 48.2017 52.6133 48.3121C52.7237 48.4225 52.8341 48.6433 52.8341 48.8641C52.8341 49.0848 52.7237 49.1952 52.6133 49.416C52.3925 49.5264 52.2821 49.6368 52.0614 49.6368Z" fill="#8A6934"/>
<path d="M26.0087 44.4484L25.8984 44.338C26.2295 44.1172 26.8919 43.6756 27.4438 43.8964C27.9958 44.1172 28.327 44.7795 28.1062 45.4419C27.9958 45.9939 27.4438 46.325 26.7815 46.7666C26.3399 47.0978 26.0087 47.2082 25.6776 47.429C25.8984 47.5393 26.7815 47.8705 27.1127 47.9809C27.2231 47.9809 27.4438 47.9809 27.775 47.5393L27.8854 47.6497C27.775 47.8705 27.3334 48.4225 27.2231 48.5329C27.2231 48.5329 27.1127 48.5329 26.8919 48.5329C26.4503 48.4225 25.6776 48.0913 25.1256 47.8705C25.0152 47.8705 24.9048 47.7601 24.7944 47.7601V47.6497C25.4568 47.3186 25.788 47.2082 26.3399 46.7666C26.8919 46.4354 27.2231 45.9939 27.4438 45.5523C27.5542 45.1107 27.5542 44.5588 27.0023 44.338C26.6711 44.1172 26.3399 44.2276 26.0087 44.4484Z" fill="#8A6934"/>
<path d="M32.301 45.2211C32.5218 45.5523 32.7426 46.1043 32.6322 46.9874C32.5218 47.9809 32.1906 48.6433 31.7491 48.9744C31.4179 49.1952 31.0867 49.1952 30.8659 49.1952C30.5348 49.1952 30.314 49.0848 30.0932 48.8641C29.6516 48.5329 29.5412 47.8705 29.6516 46.877C29.762 46.1043 29.9828 45.5523 30.4244 45.1107C30.7556 44.7796 31.1971 44.6692 31.5283 44.7796C31.8595 44.7796 32.1906 45.0003 32.301 45.2211ZM30.7556 45.1107C30.5348 45.3315 30.314 45.9939 30.2036 46.6562C30.0932 48.0913 30.314 48.8641 30.8659 48.9744C31.0867 48.9744 31.1971 48.9744 31.3075 48.8641C31.5283 48.6433 31.7491 48.0913 31.8595 47.0978C31.9699 45.7731 31.7491 45.0003 31.1971 44.8899C31.0867 44.8899 30.8659 45.0003 30.7556 45.1107Z" fill="#8A6934"/>
<path d="M33.9571 45.8835L33.8467 45.7731C33.9571 45.442 34.509 44.7796 35.061 44.7796C35.7233 44.7796 36.2753 45.2212 36.2753 45.8835C36.2753 46.4355 36.0545 46.9874 35.6129 47.5394C35.2818 47.981 35.1714 48.2017 34.8402 48.5329C35.061 48.5329 36.0545 48.5329 36.3857 48.4225C36.4961 48.4225 36.6065 48.3121 36.8273 47.7602H36.9376C36.9376 47.981 36.7169 48.6433 36.6065 48.7537C36.6065 48.7537 36.4961 48.7537 36.2753 48.8641C35.7233 48.8641 34.9506 48.9745 34.3986 48.9745C34.2882 48.9745 34.1779 48.9745 34.0675 48.9745V48.8641C34.509 48.3121 34.7298 48.0914 35.1714 47.429C35.5026 46.877 35.7233 46.3251 35.6129 45.8835C35.6129 45.442 35.2818 44.89 34.7298 45.0004C34.509 45.3316 34.1779 45.5523 33.9571 45.8835Z" fill="#8A6934"/>
<path d="M40.139 44.6692C40.2494 45.1108 40.0286 45.5523 39.8079 45.7731C40.3598 45.7731 40.9118 45.8835 41.1326 46.5459C41.2429 47.0978 41.1326 47.5394 40.8014 47.8706C40.5806 48.2017 40.2494 48.4225 39.8079 48.5329C39.5871 48.6433 39.3663 48.6433 39.1455 48.5329C39.0351 48.5329 38.9247 48.5329 38.8143 48.3121C38.7039 48.2017 38.5935 47.981 38.5935 47.8706L38.7039 47.7602C38.9247 47.981 39.0351 48.0913 39.2559 48.2017C39.4767 48.2017 39.6975 48.2017 39.9182 48.2017C40.3598 48.0913 40.691 47.6498 40.4702 46.9874C40.2494 46.4355 39.8079 46.1043 39.1455 46.3251C39.1455 46.3251 39.0351 46.3251 38.9247 46.4355V46.2147C39.4767 45.8835 39.6975 45.4419 39.5871 45.1108C39.4767 44.6692 39.1455 44.4484 38.5935 44.5588C38.2624 44.6692 38.0416 44.89 37.9312 45.2212L37.8208 45.1108C37.9312 44.7796 38.2624 44.2276 38.8143 44.1172C39.4767 43.7861 40.0286 44.1172 40.139 44.6692Z" fill="#8A6934"/>
<defs>
<linearGradient id="paint0_linear_857_2893" x1="20.2787" y1="17.4343" x2="38.3986" y2="30.122" gradientUnits="userSpaceOnUse">
<stop stop-color="#CCAA51"/>
<stop offset="1" stop-color="#8A6834"/>
</linearGradient>
<linearGradient id="paint1_linear_857_2893" x1="21.8237" y1="16.2938" x2="36.8197" y2="31.2898" gradientUnits="userSpaceOnUse">
<stop stop-color="#F5E99C"/>
<stop offset="0.0328" stop-color="#F1E397"/>
<stop offset="0.3492" stop-color="#D3BB6C"/>
<stop offset="0.6272" stop-color="#C1A151"/>
<stop offset="0.8536" stop-color="#B79344"/>
<stop offset="1" stop-color="#B38E40"/>
</linearGradient>
<radialGradient id="paint2_radial_857_2893" cx="0" cy="0" r="1" gradientUnits="userSpaceOnUse" gradientTransform="translate(25.4562 18.8977) scale(16.2868 16.2868)">
<stop stop-color="white"/>
<stop offset="0.005618" stop-color="white"/>
<stop offset="0.0546" stop-color="#FFFEF9"/>
<stop offset="0.1154" stop-color="#FDFAED"/>
<stop offset="0.1822" stop-color="#FAF6DA"/>
<stop offset="0.2536" stop-color="#F8F0C2"/>
<stop offset="0.3277" stop-color="#F5EAA3"/>
<stop offset="0.3427" stop-color="#F5E99C"/>
<stop offset="0.5843" stop-color="#E5CD73"/>
<stop offset="0.9213" stop-color="#B48E40"/>
<stop offset="1" stop-color="#B48E40"/>
</radialGradient>
<radialGradient id="paint3_radial_857_2893" cx="0" cy="0" r="1" gradientUnits="userSpaceOnUse" gradientTransform="translate(25.6992 18.8343) scale(16.1871 16.1871)">
<stop stop-color="#E5CD73"/>
<stop offset="0.1784" stop-color="#DABE64"/>
<stop offset="0.382" stop-color="#CCAA51"/>
<stop offset="0.5448" stop-color="#B99749"/>
<stop offset="0.8485" stop-color="#917037"/>
<stop offset="0.9607" stop-color="#836231"/>
<stop offset="1" stop-color="#836231"/>
</radialGradient>
<radialGradient id="paint4_radial_857_2893" cx="0" cy="0" r="1" gradientUnits="userSpaceOnUse" gradientTransform="translate(25.7183 18.8227) scale(16.2036 16.2036)">
<stop stop-color="#E5CD73"/>
<stop offset="0.1784" stop-color="#DABE64"/>
<stop offset="0.382" stop-color="#CCAA51"/>
<stop offset="0.5448" stop-color="#B99749"/>
<stop offset="0.8485" stop-color="#917037"/>
<stop offset="0.9607" stop-color="#836231"/>
<stop offset="1" stop-color="#836231"/>
</radialGradient>
<radialGradient id="paint5_radial_857_2893" cx="0" cy="0" r="1" gradientUnits="userSpaceOnUse" gradientTransform="translate(25.7234 18.8243) scale(16.1946 16.1946)">
<stop stop-color="#E5CD73"/>
<stop offset="0.1784" stop-color="#DABE64"/>
<stop offset="0.382" stop-color="#CCAA51"/>
<stop offset="0.5448" stop-color="#B99749"/>
<stop offset="0.8485" stop-color="#917037"/>
<stop offset="0.9607" stop-color="#836231"/>
<stop offset="1" stop-color="#836231"/>
</radialGradient>
<radialGradient id="paint6_radial_857_2893" cx="0" cy="0" r="1" gradientUnits="userSpaceOnUse" gradientTransform="translate(25.7282 18.8359) scale(16.2041 16.2041)">
<stop stop-color="#E5CD73"/>
<stop offset="0.1784" stop-color="#DABE64"/>
<stop offset="0.382" stop-color="#CCAA51"/>
<stop offset="0.5448" stop-color="#B99749"/>
<stop offset="0.8485" stop-color="#917037"/>
<stop offset="0.9607" stop-color="#836231"/>
<stop offset="1" stop-color="#836231"/>
</radialGradient>
<radialGradient id="paint7_radial_857_2893" cx="0" cy="0" r="1" gradientUnits="userSpaceOnUse" gradientTransform="translate(25.7138 18.8269) scale(16.1949 16.1949)">
<stop stop-color="#E5CD73"/>
<stop offset="0.1784" stop-color="#DABE64"/>
<stop offset="0.382" stop-color="#CCAA51"/>
<stop offset="0.5448" stop-color="#B99749"/>
<stop offset="0.8485" stop-color="#917037"/>
<stop offset="0.9607" stop-color="#836231"/>
<stop offset="1" stop-color="#836231"/>
</radialGradient>
<radialGradient id="paint8_radial_857_2893" cx="0" cy="0" r="1" gradientUnits="userSpaceOnUse" gradientTransform="translate(25.7147 18.8195) scale(16.1993 16.1993)">
<stop stop-color="#E5CD73"/>
<stop offset="0.1784" stop-color="#DABE64"/>
<stop offset="0.382" stop-color="#CCAA51"/>
<stop offset="0.5448" stop-color="#B99749"/>
<stop offset="0.8485" stop-color="#917037"/>
<stop offset="0.9607" stop-color="#836231"/>
<stop offset="1" stop-color="#836231"/>
</radialGradient>
<radialGradient id="paint9_radial_857_2893" cx="0" cy="0" r="1" gradientUnits="userSpaceOnUse" gradientTransform="translate(25.7171 18.8355) scale(16.1946 16.1947)">
<stop stop-color="#E5CD73"/>
<stop offset="0.1784" stop-color="#DABE64"/>
<stop offset="0.382" stop-color="#CCAA51"/>
<stop offset="0.5448" stop-color="#B99749"/>
<stop offset="0.8485" stop-color="#917037"/>
<stop offset="0.9607" stop-color="#836231"/>
<stop offset="1" stop-color="#836231"/>
</radialGradient>
<radialGradient id="paint10_radial_857_2893" cx="0" cy="0" r="1" gradientUnits="userSpaceOnUse" gradientTransform="translate(25.7351 18.8199) scale(16.1875 16.1875)">
<stop stop-color="#E5CD73"/>
<stop offset="0.1784" stop-color="#DABE64"/>
<stop offset="0.382" stop-color="#CCAA51"/>
<stop offset="0.5448" stop-color="#B99749"/>
<stop offset="0.8485" stop-color="#917037"/>
<stop offset="0.9607" stop-color="#836231"/>
<stop offset="1" stop-color="#836231"/>
</radialGradient>
<linearGradient id="paint11_linear_857_2893" x1="34.4054" y1="21.3507" x2="51.8358" y2="33.5557" gradientUnits="userSpaceOnUse">
<stop stop-color="#E5CD73"/>
<stop offset="0.0843" stop-color="#E5CD73"/>
<stop offset="0.2553" stop-color="#DDC268"/>
<stop offset="0.5393" stop-color="#CCAA51"/>
<stop offset="1" stop-color="#8A6934"/>
</linearGradient>
<linearGradient id="paint12_linear_857_2893" x1="29.9393" y1="31.3429" x2="37.2689" y2="50.6661" gradientUnits="userSpaceOnUse">
<stop stop-color="#E5CD73"/>
<stop offset="0.1798" stop-color="#E5CD73"/>
<stop offset="0.4831" stop-color="#CCAA51"/>
<stop offset="0.5937" stop-color="#C3A14E"/>
<stop offset="0.7372" stop-color="#B18E45"/>
<stop offset="0.8983" stop-color="#957338"/>
<stop offset="0.9551" stop-color="#8A6834"/>
<stop offset="1" stop-color="#8A6834"/>
</linearGradient>
<linearGradient id="paint13_linear_857_2893" x1="19.587" y1="30.5726" x2="33.5282" y2="40.3344" gradientUnits="userSpaceOnUse">
<stop stop-color="#E5CD73"/>
<stop offset="0.1798" stop-color="#E5CD73"/>
<stop offset="0.4831" stop-color="#CCAA51"/>
<stop offset="0.5937" stop-color="#C3A14E"/>
<stop offset="0.7372" stop-color="#B18E45"/>
<stop offset="0.8983" stop-color="#957338"/>
<stop offset="0.9551" stop-color="#8A6834"/>
<stop offset="1" stop-color="#8A6834"/>
</linearGradient>
<linearGradient id="paint14_linear_857_2893" x1="35.5098" y1="29.4888" x2="41.442" y2="33.6426" gradientUnits="userSpaceOnUse">
<stop stop-color="#F5E99C"/>
<stop offset="0.3989" stop-color="#E5CD73"/>
<stop offset="0.5379" stop-color="#E2C86E"/>
<stop offset="0.718" stop-color="#D8BA61"/>
<stop offset="0.882" stop-color="#CCAA51"/>
<stop offset="1" stop-color="#CCAA51"/>
</linearGradient>
<linearGradient id="paint15_linear_857_2893" x1="37.4724" y1="16.9701" x2="48.6812" y2="24.8186" gradientUnits="userSpaceOnUse">
<stop stop-color="white"/>
<stop offset="0.005618" stop-color="white"/>
<stop offset="0.0432" stop-color="#FEFDF8"/>
<stop offset="0.0898" stop-color="#FBF8EC"/>
<stop offset="0.1411" stop-color="#F7F2D9"/>
<stop offset="0.1958" stop-color="#F2EBC0"/>
<stop offset="0.2527" stop-color="#EDE3A1"/>
<stop offset="0.2753" stop-color="#EBE094"/>
<stop offset="0.8315" stop-color="#CCAA51"/>
<stop offset="1" stop-color="#CCAA51"/>
</linearGradient>
<linearGradient id="paint16_linear_857_2893" x1="34.442" y1="20.9282" x2="52.5965" y2="33.6401" gradientUnits="userSpaceOnUse">
<stop stop-color="#B48E40"/>
<stop offset="0.1132" stop-color="#AD883E"/>
<stop offset="0.2599" stop-color="#9C7939"/>
<stop offset="0.382" stop-color="#8A6834"/>
<stop offset="0.882" stop-color="#8A6834"/>
<stop offset="1" stop-color="#8A6834"/>
</linearGradient>
<linearGradient id="paint17_linear_857_2893" x1="19.1653" y1="30.8874" x2="31.9686" y2="39.8524" gradientUnits="userSpaceOnUse">
<stop stop-color="#B48E48"/>
<stop offset="0.2062" stop-color="#A68241"/>
<stop offset="0.6256" stop-color="#916F37"/>
<stop offset="0.9045" stop-color="#8A6834"/>
<stop offset="1" stop-color="#8A6834"/>
</linearGradient>
<linearGradient id="paint18_linear_857_2893" x1="33.321" y1="1.84653" x2="33.321" y2="50.4611" gradientUnits="userSpaceOnUse">
<stop stop-color="#E5CD73"/>
<stop offset="0.3315" stop-color="#FEF0D3"/>
<stop offset="0.8258" stop-color="#E5CD73"/>
<stop offset="1" stop-color="#E5CD73"/>
</linearGradient>
<linearGradient id="paint19_linear_857_2893" x1="33.334" y1="1.61413" x2="33.334" y2="50.6854" gradientUnits="userSpaceOnUse">
<stop stop-color="#B38E40"/>
<stop offset="0.0608" stop-color="#B99544"/>
<stop offset="0.2292" stop-color="#C6A44D"/>
<stop offset="0.3652" stop-color="#CCAA51"/>
<stop offset="1" stop-color="#8A6934"/>
</linearGradient>
<linearGradient id="paint20_linear_857_2893" x1="33.3471" y1="8.51775" x2="33.3471" y2="43.8755" gradientUnits="userSpaceOnUse">
<stop stop-color="#B48E40"/>
<stop offset="0.0671" stop-color="#BA9544"/>
<stop offset="0.232" stop-color="#C7A44D"/>
<stop offset="0.3652" stop-color="#CCAA51"/>
<stop offset="0.598" stop-color="#AF8B43"/>
<stop offset="0.8307" stop-color="#9C783A"/>
<stop offset="0.9882" stop-color="#967237"/>
<stop offset="1" stop-color="#967237"/>
</linearGradient>
<linearGradient id="paint21_linear_857_2893" x1="3.20668" y1="48.9035" x2="63.7639" y2="48.9035" gradientUnits="userSpaceOnUse">
<stop stop-color="#E5CD73"/>
<stop offset="0.5" stop-color="#FEEEC3"/>
<stop offset="1" stop-color="#E5CD73"/>
</linearGradient>
<linearGradient id="paint22_linear_857_2893" x1="3.26055" y1="48.9899" x2="63.7615" y2="48.9899" gradientUnits="userSpaceOnUse">
<stop stop-color="#E5CD73"/>
<stop offset="0.5" stop-color="#FEEEC3"/>
<stop offset="1" stop-color="#E5CD73"/>
</linearGradient>
<linearGradient id="paint23_linear_857_2893" x1="3.25907" y1="41.3875" x2="63.7601" y2="41.3875" gradientUnits="userSpaceOnUse">
<stop stop-color="#E5CD73"/>
<stop offset="0.5" stop-color="#FEEEC3"/>
<stop offset="1" stop-color="#E5CD73"/>
</linearGradient>
<linearGradient id="paint24_linear_857_2893" x1="3.13695" y1="44.8417" x2="63.6337" y2="44.8417" gradientUnits="userSpaceOnUse">
<stop stop-color="#CCA946"/>
<stop offset="0.5" stop-color="#8A6934"/>
<stop offset="1" stop-color="#CCA946"/>
</linearGradient>
</defs>
</svg>
