<?xml version="1.0" encoding="utf-8"?>
<!-- Generator: Adobe Illustrator 25.2.3, SVG Export Plug-In . SVG Version: 6.00 Build 0)  -->
<svg version="1.1" id="Layer_1" xmlns="http://www.w3.org/2000/svg" xmlns:xlink="http://www.w3.org/1999/xlink" x="0px" y="0px"
	 viewBox="0 0 110.5 37.5" style="enable-background:new 0 0 110.5 37.5;" xml:space="preserve">
<style type="text/css">
	.st0{fill-rule:evenodd;clip-rule:evenodd;fill:#2D2D2B;}
	.st1{fill-rule:evenodd;clip-rule:evenodd;fill:#76B72A;}
</style>
<desc>Created with Sketch.</desc>
<g id="logo-club-tap-miles_x26_go">
	<g id="Group-20" transform="translate(5.000000, 0.000000)">
		<path id="Fill-1" class="st0" d="M7.5,26.9c-1.8,0-3.5-0.4-5.1-1c-1.5-0.7-2.9-1.6-3.9-2.8c-1.1-1.2-1.9-2.6-2.5-4.3
			C-4.7,17.1-5,15.3-5,13.4c0-1.9,0.3-3.6,0.9-5.2c0.6-1.6,1.4-3.1,2.5-4.3C-0.5,2.7,0.9,1.7,2.4,1c1.5-0.7,3.2-1,5.1-1
			c1.5,0,2.8,0.2,4,0.6c1.1,0.4,2.1,0.9,2.8,1.4C15,2.6,15.6,3.2,16,3.7c0.4,0.5,0.7,0.9,0.9,1.2L17,5.1l-1.7,1.2l-0.1-0.2
			c-0.2-0.2-0.4-0.5-0.7-1c-0.3-0.4-0.8-0.9-1.4-1.3c-0.6-0.5-1.4-0.8-2.3-1.2c-0.9-0.4-2-0.5-3.2-0.5c-1.6,0-3,0.3-4.3,0.9
			C2,3.5,1,4.3,0.1,5.3c-0.9,1-1.5,2.2-2,3.6c-0.5,1.4-0.7,2.9-0.7,4.5c0,1.6,0.2,3.1,0.7,4.5c0.5,1.4,1.2,2.6,2,3.6
			c0.9,1,1.9,1.8,3.2,2.4c1.3,0.6,2.7,0.9,4.3,0.9c1.2,0,2.2-0.2,3.1-0.5c0.9-0.4,1.6-0.7,2.2-1.2c0.6-0.5,1.1-0.9,1.4-1.3
			c0.4-0.5,0.6-0.8,0.8-1l0.1-0.2l1.7,1.2L16.8,22c-0.2,0.3-0.5,0.6-0.9,1.2c-0.4,0.5-1,1.1-1.8,1.6c-0.8,0.5-1.7,1-2.8,1.4
			C10.3,26.7,9,26.9,7.5,26.9z"/>
		<polygon id="Fill-3" class="st0" points="27,26.3 27,0.5 29.3,0.5 29.3,24.2 43.6,24.2 43.6,26.3 		"/>
		<path id="Fill-4" class="st0" d="M61,26.9c-1.9,0-3.4-0.3-4.7-0.9c-1.3-0.6-2.3-1.4-3.1-2.4c-0.8-1-1.3-2.2-1.6-3.5
			c-0.3-1.3-0.5-2.7-0.5-4.3V0.5h2.2V15c0,1.4,0.1,2.8,0.4,4c0.2,1.2,0.6,2.2,1.2,3.1c0.6,0.8,1.4,1.5,2.4,2c1,0.5,2.3,0.7,3.8,0.7
			c1.5,0,2.8-0.3,3.8-0.7c1-0.5,1.8-1.2,2.4-2c0.6-0.9,1-1.9,1.2-3.1c0.2-1.2,0.4-2.5,0.4-4V0.5H71V16c0,1.5-0.2,2.9-0.5,4.3
			c-0.3,1.3-0.9,2.5-1.6,3.5c-0.8,1-1.8,1.8-3.1,2.4C64.5,26.6,62.9,26.9,61,26.9z"/>
		<path id="Fill-5" class="st0" d="M85.1,26.3v-2.1h10.2c1,0,1.9,0,2.9-0.1c0.9-0.1,1.8-0.3,2.5-0.6c0.7-0.3,1.4-0.8,1.8-1.5
			c0.4-0.6,0.7-1.2,0.7-2.4c0-3.2-3.7-4.5-4.7-4.6c-0.8-0.1-2.2-0.2-2.9-0.2h-0.2v-2.5h0.2c0.6,0,1.7-0.1,2.4-0.3
			c0.7-0.2,1.3-0.5,1.9-0.8c0.5-0.4,1-0.9,1.4-1.5c0.3-0.5,0.5-1.5,0.5-2.4c0-1-0.2-1.8-0.5-2.3c-0.4-0.6-0.8-1-1.4-1.3
			C99.4,3.2,98.7,3,98,2.9c-0.7-0.1-1.4-0.2-2.1-0.2H85.1V0.6h11.9c0.4,0,3.7,0.1,5.5,1.9c0.6,0.6,1,1.3,1.3,2.1
			c0.3,0.8,0.4,1.6,0.4,2.4c0,0.6-0.1,1.6-0.4,2.4c-0.2,0.6-0.5,1.3-1,1.8c-0.4,0.5-0.9,1-1.5,1.4c-0.4,0.2-0.7,0.4-1.2,0.5
			c1,0.3,2.4,0.9,3.3,1.9c0.5,0.5,1.1,1.1,1.5,2c0.4,0.9,0.6,1.4,0.6,2.6c0,1.3-0.2,2.3-0.8,3.2c-0.5,0.9-1.3,1.6-2.2,2.2
			c-0.9,0.5-1.9,0.9-3.1,1.1c-1.2,0.2-2.4,0.3-3.7,0.3L85.1,26.3L85.1,26.3z"/>
		<polygon id="Fill-6" class="st1" points="94.2,12.5 85.2,12.5 85.2,3.5 83.3,3.5 83.3,12.5 74.4,12.5 74.4,14.4 83.3,14.4 
			83.3,23.3 85.2,23.3 85.2,14.4 94.2,14.4 		"/>
		<polygon id="Fill-7" class="st0" points="79,36.6 79.3,36.6 79.3,35 80.9,35 80.9,34.7 79.3,34.7 79.3,33.1 79,33.1 79,34.7 
			77.4,34.7 77.4,35 79,35 		"/>
		<polygon id="Fill-8" class="st0" points="79,37.4 82.6,37.4 82.6,37 79,37 		"/>
		<polygon id="Fill-9" class="st0" points="79,32.6 82.6,32.6 82.6,32.3 79,32.3 		"/>
		<polygon id="Fill-10" class="st0" points="66.2,32.3 66.6,32.3 68.6,35.3 70.7,32.3 71,32.3 71,37.4 70.6,37.4 70.6,32.9 
			68.6,35.9 68.6,35.9 66.6,32.9 66.6,37.4 66.2,37.4 		"/>
		<polygon id="Fill-11" class="st0" points="72.5,37.4 72.9,37.4 72.9,32.3 72.5,32.3 		"/>
		<polygon id="Fill-12" class="st0" points="74.5,32.3 74.9,32.3 74.9,37 77.9,37 77.9,37.4 74.5,37.4 		"/>
		<path id="Fill-13" class="st0" d="M83.8,36.6l0.3-0.3c0.6,0.5,1.1,0.8,1.8,0.8c0.8,0,1.3-0.4,1.3-1l0,0c0-0.5-0.3-0.9-1.4-1.1
			c-1.2-0.3-1.7-0.7-1.7-1.4l0,0c0-0.8,0.7-1.4,1.6-1.4c0.7,0,1.2,0.2,1.8,0.6l-0.3,0.3c-0.5-0.4-1-0.6-1.5-0.6
			c-0.7,0-1.3,0.4-1.3,1l0,0c0,0.5,0.3,0.9,1.5,1.1c1.2,0.3,1.7,0.7,1.7,1.4l0,0c0,0.8-0.7,1.4-1.7,1.4C85,37.5,84.4,37.2,83.8,36.6
			"/>
		<path id="Fill-14" class="st0" d="M92.1,36.6c-0.5,0.6-1.1,0.9-1.7,0.9c-0.9,0-1.6-0.6-1.6-1.4l0,0c0-0.7,0.5-1.2,1.3-1.5
			c-0.4-0.4-0.6-0.7-0.6-1.2l0,0c0-0.6,0.5-1.2,1.3-1.2c0.7,0,1.2,0.5,1.2,1.1l0,0c0,0.6-0.5,1.1-1.3,1.3l1.4,1.4
			c0.3-0.4,0.5-0.8,0.7-1.3l0.4,0.1c-0.2,0.5-0.5,1-0.8,1.4l0.9,1L93,37.5L92.1,36.6z M91.8,36.3l-1.5-1.6c-0.8,0.3-1.2,0.7-1.2,1.3
			l0,0c0,0.6,0.5,1.1,1.2,1.1C90.9,37.1,91.4,36.8,91.8,36.3L91.8,36.3z M91.6,33.3L91.6,33.3c0-0.5-0.4-0.8-0.8-0.8
			c-0.5,0-0.9,0.4-0.9,0.8l0,0c0,0.3,0.1,0.6,0.6,1.1C91.3,34.2,91.6,33.8,91.6,33.3L91.6,33.3z"/>
		<path id="Fill-15" class="st0" d="M100.4,34.8L100.4,34.8c0-1.4,1-2.7,2.6-2.7c1.5,0,2.6,1.2,2.6,2.6l0,0c0,1.4-1,2.6-2.6,2.6
			C101.4,37.5,100.4,36.2,100.4,34.8 M105.1,34.8L105.1,34.8c0-1.3-0.9-2.3-2.2-2.3c-1.3,0-2.2,1-2.2,2.3l0,0c0,1.3,0.9,2.3,2.2,2.3
			C104.2,37.1,105.1,36.1,105.1,34.8"/>
		<path id="Fill-16" class="st0" d="M97.5,34.7v0.3h1.6c-0.1,1.2-1,2.1-2.2,2.1c-1.3,0-2.2-1-2.2-2.3l0,0c0-1.3,0.9-2.3,2.2-2.3
			c0.6,0,1.2,0.3,1.6,0.7l0.3-0.3c-0.5-0.5-1.1-0.8-1.9-0.8c-1.5,0-2.6,1.3-2.6,2.6l0,0c0,1.4,1,2.6,2.6,2.6c1.5,0,2.5-1.1,2.6-2.4
			l0,0l0,0c0-0.1,0-0.2,0-0.2l0,0c0,0,0-0.1,0-0.1L97.5,34.7L97.5,34.7z"/>
		<polygon id="Fill-17" class="st0" points="53.2,32.6 51.2,32.6 51.2,32.3 55.5,32.3 55.5,32.6 53.5,32.6 53.5,37.4 53.2,37.4 		
			"/>
		<path id="Fill-18" class="st0" d="M57.1,32.3h0.4l2.1,5.1h-0.4l-0.7-1.6H56l-0.7,1.6H55L57.1,32.3z M58.3,35.4l-1.1-2.7l-1.1,2.7
			H58.3z"/>
		<path id="Fill-19" class="st0" d="M60.4,32.3h1.6c0.3,0,0.6,0,0.8,0.1c0.2,0.1,0.4,0.2,0.5,0.3c0.1,0.1,0.2,0.3,0.3,0.5
			c0.1,0.2,0.1,0.4,0.1,0.6c0,0.2,0,0.4-0.1,0.6c-0.1,0.2-0.2,0.3-0.3,0.5c-0.1,0.1-0.3,0.2-0.5,0.3c-0.2,0.1-0.5,0.1-0.8,0.1h-1.2
			v2.2h-0.4V32.3z M62,34.9c0.4,0,0.7-0.1,1-0.3c0.2-0.2,0.3-0.5,0.3-0.8s-0.1-0.6-0.3-0.8c-0.2-0.2-0.5-0.3-1-0.3h-1.3v2.3H62z"/>
	</g>
</g>
</svg>
