<?xml version="1.0" encoding="utf-8"?>
<!-- Generator: Adobe Illustrator 25.2.3, SVG Export Plug-In . SVG Version: 6.00 Build 0)  -->
<svg version="1.1" id="Layer_1" xmlns="http://www.w3.org/2000/svg" xmlns:xlink="http://www.w3.org/1999/xlink" x="0px" y="0px"
	 viewBox="0 0 120.7 29" style="enable-background:new 0 0 120.7 29;" xml:space="preserve">
<style type="text/css">
	.st0{fill-rule:evenodd;clip-rule:evenodd;fill:#84BD00;}
	.st1{fill-rule:evenodd;clip-rule:evenodd;fill:#2C2A29;}
	.st2{fill-rule:evenodd;clip-rule:evenodd;fill:#E30613;}
	.st3{fill-rule:evenodd;clip-rule:evenodd;fill:#C8D300;}
	.st4{fill-rule:evenodd;clip-rule:evenodd;fill:#76B82A;}
	.st5{fill-rule:evenodd;clip-rule:evenodd;fill:#B70E0C;}
	.st6{fill-rule:evenodd;clip-rule:evenodd;fill:#1D1D1C;}
</style>
<desc>Created with Sketch.</desc>
<g id="logo-programa-miles_x26_go">
	<g id="Group-9" transform="translate(0.000000, 4.000000)">
		<polygon id="Fill-1" class="st0" points="39.2,22.1 40.3,22.1 40.3,17.3 45.2,17.3 45.2,16.2 40.3,16.2 40.3,11.4 39.2,11.4 
			39.2,16.2 34.4,16.2 34.4,17.3 39.2,17.3 		"/>
		<path id="Fill-3" class="st1" d="M39.2,23.5h11v1.1h-11V23.5z M39.2,10h11V8.9h-11V10z M0.1,24.6h1.1V11L7.4,20h0.1l6.2-9.1v13.7
			h1.2V8.9h-1.1l-6.3,9.3L1.2,8.9H0.1L0.1,24.6L0.1,24.6z M19.6,24.6h1.2V8.9h-1.2V24.6z M25.5,24.6h10.4v-1.1h-9.2V8.9h-1.2V24.6z
			 M53.9,22.3c1.9,1.7,3.8,2.5,6.3,2.5c3,0,5.2-1.8,5.2-4.3v0c0-2.3-1.5-3.6-5.2-4.3c-3.7-0.8-4.6-1.8-4.6-3.4v0c0-1.7,1.5-3,3.9-3
			c1.7,0,3.2,0.5,4.7,1.8l0.8-0.9c-1.6-1.3-3.1-1.9-5.4-1.9c-2.9,0-5.1,1.8-5.1,4.1v0c0,2.4,1.5,3.7,5.3,4.4
			c3.6,0.7,4.4,1.7,4.4,3.3v0c0,1.8-1.6,3.1-4,3.1c-2.3,0-3.9-0.8-5.7-2.3L53.9,22.3L53.9,22.3z M82.2,25l0.9-0.8l-2.9-3
			c0.9-1.1,1.6-2.6,2.3-4.2l-1.1-0.4c-0.6,1.4-1.3,2.8-2,3.8l-4.1-4.2c2.4-0.8,3.9-2.1,3.9-4.1v0c0-1.9-1.6-3.4-3.6-3.4
			c-2.3,0-3.9,1.6-3.9,3.6v0c0,1.3,0.6,2.3,1.8,3.6c-2.6,0.9-4.1,2.5-4.1,4.6v0c0,2.6,2.1,4.4,4.8,4.4c2.1,0,3.9-1,5.3-2.7L82.2,25z
			 M78.7,21.4c-1.3,1.5-2.8,2.5-4.6,2.5c-2.2,0-3.7-1.5-3.7-3.4v0c0-1.5,1.1-3,3.6-3.9L78.7,21.4L78.7,21.4z M78,12.1
			c0,1.5-1.1,2.6-3.4,3.3c-1.4-1.5-1.8-2.2-1.8-3.2v0c0-1.4,1.1-2.6,2.7-2.6C76.9,9.6,78,10.7,78,12.1L78,12.1L78,12.1z M104.8,16.8
			c0,4.3,3.1,8.1,7.9,8.1c4.8,0,7.9-3.9,7.9-8.1v0c0-4.3-3.1-8.1-7.9-8.1S104.8,12.5,104.8,16.8L104.8,16.8L104.8,16.8z M119.4,16.8
			c0,3.9-2.8,7-6.7,7c-3.9,0-6.7-3.2-6.7-7.1v0c0-3.9,2.8-7,6.7-7C116.6,9.7,119.4,12.9,119.4,16.8L119.4,16.8L119.4,16.8z M96,16.5
			v1h5c-0.3,3.6-3,6.3-6.7,6.3c-3.9,0-6.7-3.2-6.7-7.1v0c0-3.9,2.8-7,6.7-7c2,0,3.7,0.8,4.9,2.2l0.9-0.8c-1.4-1.5-3.3-2.4-5.7-2.4
			c-4.8,0-7.9,3.9-7.9,8.1v0c0,4.3,3.1,8.1,7.9,8.1c4.5,0,7.6-3.4,7.9-7.4l0,0v0c0-0.2,0-0.5,0-0.7v0c0-0.1,0-0.1,0-0.2H96z"/>
		<path id="Fill-4" class="st2" d="M10-1.7h1.8c0.3,0,0.6,0.3,0.6,0.6S12-0.5,11.7-0.5H10V-1.7z M7.6-4h4.1c1.6,0,2.9,1.3,2.9,2.9
			s-1.3,2.9-2.9,2.9H10v2.3H7.6V-4L7.6-4z"/>
		<path id="Fill-5" class="st3" d="M5.2,0.4h1.2l-0.6-2L5.2,0.4z M1.8,4.2v-5.9H0V-4h7.6v8.2L7.2,2.7v0H4.6L4.1,4.2H1.8z"/>
		<polygon id="Fill-6" class="st4" points="1.8,4.2 4.1,4.2 4.1,-1.7 5.9,-1.7 5.9,-4 4.1,-4 		"/>
		<polygon id="Fill-7" class="st5" points="7.6,4.2 10,4.2 7.6,-4 		"/>
		<path id="Fill-8" class="st6" d="M25.8-1.3c0.1,0,0.3,0,0.5,0c0.5,0,0.9,0.2,0.9,0.7s-0.3,0.8-1,0.8c-0.2,0-0.3,0-0.4,0L25.8-1.3
			L25.8-1.3z M25.3,1.9h0.5V0.4c0.1,0,0.3,0,0.4,0c0.5,0,0.9-0.1,1.1-0.4c0.2-0.2,0.3-0.4,0.3-0.8s-0.1-0.6-0.3-0.7
			c-0.2-0.2-0.6-0.3-1.1-0.3c-0.4,0-0.7,0-1,0.1V1.9z M29.8,1.6c-0.8,0-1.3-0.7-1.3-1.4c0-0.8,0.4-1.5,1.3-1.5
			c0.9,0,1.3,0.7,1.3,1.4C31.1,0.9,30.6,1.6,29.8,1.6L29.8,1.6z M29.8,1.9c1,0,1.8-0.7,1.8-1.9c0-1-0.7-1.8-1.8-1.8
			c-1,0-1.8,0.8-1.8,1.9C28,1.2,28.7,1.9,29.8,1.9L29.8,1.9z M32.4-1.3c0.1,0,0.3,0,0.5,0c0.5,0,0.9,0.2,0.9,0.7
			C33.8-0.2,33.5,0,33,0h-0.6L32.4-1.3L32.4-1.3z M32,1.9h0.5V0.3H33c0.4,0,0.6,0.2,0.8,0.7c0.1,0.4,0.2,0.7,0.2,0.8h0.5
			c-0.1-0.1-0.2-0.5-0.3-1c-0.1-0.3-0.2-0.6-0.5-0.7l0,0c0.4-0.1,0.7-0.4,0.7-0.9c0-0.3-0.1-0.5-0.3-0.7c-0.2-0.2-0.6-0.3-1.1-0.3
			c-0.3,0-0.7,0-1,0.1V1.9z M35.7,1.9h0.5v-3.1h1.2v-0.4h-2.9v0.4h1.2V1.9z M37.7-1.7v2c0,1.2,0.6,1.6,1.4,1.6
			c0.8,0,1.5-0.5,1.5-1.6v-2h-0.5v2c0,0.8-0.4,1.2-1,1.2c-0.6,0-0.9-0.4-0.9-1.2v-2L37.7-1.7L37.7-1.7z M44.3,0H43v0.4h0.8v1
			c-0.1,0.1-0.4,0.1-0.7,0.1c-1,0-1.5-0.6-1.5-1.4c0-0.8,0.6-1.4,1.6-1.4c0.4,0,0.7,0.1,0.9,0.2l0.1-0.4c-0.2-0.1-0.6-0.2-1-0.2
			c-1.4,0-2.1,0.9-2.1,1.8c0,0.5,0.2,1,0.5,1.3c0.4,0.3,0.9,0.5,1.5,0.5c0.6,0,1-0.1,1.2-0.2L44.3,0L44.3,0z M45.6,0.4L46-0.7
			c0.1-0.2,0.1-0.4,0.2-0.6l0,0c0.1,0.2,0.1,0.4,0.2,0.6l0.4,1L45.6,0.4L45.6,0.4z M46.9,0.7l0.4,1.1h0.5l-1.3-3.5h-0.6l-1.3,3.5
			h0.5l0.4-1.1H46.9z M48.1,1.9h2.1V1.5h-1.7v-3.1h-0.4V1.9z M20.2,1.9h0.7v-3.5h-0.7V1.9z M17.6,0.3l0.3-0.9C18-0.8,18-1,18.1-1.2
			l0,0c0.1,0.2,0.1,0.4,0.2,0.6l0.3,0.9H17.6z M18.7,0.8l0.3,1h0.8l-1.3-3.5h-0.9l-1.3,3.5h0.7l0.3-1H18.7z M22.3,0.5h0.4
			c0.4,0,0.6,0.2,0.7,0.6c0.1,0.4,0.1,0.6,0.2,0.7h0.7C24.2,1.7,24.1,1.4,24,1L24,1c-0.1-0.3-0.2-0.5-0.4-0.7
			c0.3-0.1,0.6-0.4,0.6-0.9c0-0.3-0.1-0.6-0.3-0.7c-0.2-0.2-0.6-0.3-1.2-0.3c-0.3,0-0.7,0-1,0.1h-0.1v3.4h0.7L22.3,0.5L22.3,0.5z
			 M22.3-1.1c0.1,0,0.2,0,0.4,0c0.3,0,0.8,0.1,0.8,0.6c0,0.3-0.3,0.6-0.8,0.6h-0.5V-1.1z"/>
	</g>
</g>
</svg>
