
<svg width="32px" height="32px" viewBox="0 0 32 32" version="1.1" xmlns:xlink="http://www.w3.org/1999/xlink" xmlns="http://www.w3.org/2000/svg">
  <defs>
    <path d="M0 0L29.3093 0L29.3093 29.3575L0 29.3575L0 0Z" transform="translate(0 0.09658272)" id="path_1" />
    <clipPath id="mask_1">
      <use xlink:href="#path_1" />
    </clipPath>
  </defs>
  <g id="icons--Social-Media--24--Pinterest-Copy-3">
    <g id="Group-6" transform="translate(1.3333334 1.3333334)">
      <path d="M14.6667 0C22.7669 0 29.3333 6.56644 29.3333 14.6667C29.3333 22.7669 22.7669 29.3333 14.6667 29.3333C6.56644 29.3333 0 22.7669 0 14.6667C0 6.56644 6.56644 0 14.6667 0" transform="translate(0 0.12072536)" id="Fill-1" fill="#FFFFFF" fill-rule="evenodd" stroke="none" />
      <g id="Group-5" transform="translate(0 0.024142658)">
        <path d="M0 0L29.3093 0L29.3093 29.3575L0 29.3575L0 0Z" transform="translate(0 0.09658272)" id="Clip-4" fill="none" fill-rule="evenodd" stroke="none" />
        <g clip-path="url(#mask_1)">
          <path d="M14.6667 0C6.5668 0 0 6.5668 0 14.6667C0 20.8834 3.86283 26.1948 9.31907 28.3314C9.18628 27.1726 9.07764 25.386 9.36735 24.1185C9.63292 22.9717 11.0815 16.8274 11.0815 16.8274C11.0815 16.8274 10.6469 15.9462 10.6469 14.6546C10.6469 12.6145 11.8299 11.0936 13.3026 11.0936C14.558 11.0936 15.1616 12.0351 15.1616 13.1577C15.1616 14.4132 14.3649 16.2963 13.9424 18.0466C13.5923 19.5073 14.6787 20.7023 16.1152 20.7023C18.7226 20.7023 20.7265 17.9501 20.7265 13.9907C20.7265 10.4779 18.2036 8.02743 14.5942 8.02743C10.4176 8.02743 7.96708 11.1539 7.96708 14.389C7.96708 15.6444 8.44993 16.9964 9.0535 17.7328C9.17421 17.8776 9.18628 18.0104 9.15007 18.1553C9.04143 18.614 8.78793 19.6159 8.73964 19.8211C8.67929 20.0867 8.52236 20.147 8.24472 20.0143C6.40988 19.1572 5.2631 16.4894 5.2631 14.3287C5.2631 9.70535 8.61893 5.45624 14.9564 5.45624C20.0384 5.45624 23.9978 9.07764 23.9978 13.9303C23.9978 18.9882 20.811 23.0562 16.3929 23.0562C14.9081 23.0562 13.5078 22.2837 13.037 21.3663C13.037 21.3663 12.3007 24.1668 12.1196 24.8549C11.7937 26.1344 10.9004 27.7278 10.2968 28.7056C11.673 29.1281 13.1215 29.3575 14.6425 29.3575C22.7424 29.3575 29.3092 22.7907 29.3092 14.6908C29.3333 6.5668 22.7665 0 14.6667 0" transform="translate(0 0.09658272)" id="Fill-3" fill="#000000" fill-rule="evenodd" stroke="none" />
        </g>
      </g>
    </g>
  </g>
</svg>