<?xml version="1.0" encoding="UTF-8"?>
<svg width="170px" height="60px" viewBox="0 0 170 60" version="1.1" xmlns="http://www.w3.org/2000/svg" xmlns:xlink="http://www.w3.org/1999/xlink">
    <title>premios-tap / airline-raitings / default</title>
    <defs>
        <polygon id="path-1" points="0.0516911058 0.139024038 12.0761262 0.139024038 12.0761262 15.7331731 0.0516911058 15.7331731"></polygon>
        <polygon id="path-3" points="0.0803822115 0.138308894 9.46564904 0.138308894 9.46564904 11.483357 0.0803822115 11.483357"></polygon>
        <polygon id="path-5" points="0.28611899 0.975456731 8.8378137 0.975456731 8.8378137 7.56865745 0.28611899 7.56865745"></polygon>
    </defs>
    <g id="premios-tap-/-airline-raitings-/-default" stroke="none" stroke-width="1" fill="none" fill-rule="evenodd">
        <g id="Group-44" transform="translate(0.000000, 11.000000)">
            <path d="M39.3448041,24.8875913 L45.6294916,24.8875913 L46.8652608,19.1349712 C46.8652608,19.1349712 42.4742752,18.9490337 40.6849844,21.9326154 C39.7567272,23.4773269 39.3448041,24.8875913 39.3448041,24.8875913 L39.3448041,24.8875913 Z M45.12603,27.1975072 L38.8299002,27.1975072 L38.0046238,29.2471106 C37.4167752,30.3355601 37.2336983,31.6743101 35.9964988,31.6743101 L34.0098281,31.6743101 L36.6787464,23.1812572 C37.9145156,19.2665577 40.6206214,16.1113413 48.3012704,16.059851 L50.5739988,16.1113413 L47.2256935,31.6743101 L44.2092151,31.7029159 L45.12603,27.1975072 Z" id="Fill-1" fill="#3A3D4D"></path>
            <path d="M64.5383341,21.0087921 L63.7545361,23.5675781 C63.362637,23.4645974 62.9492837,23.4216887 62.3929014,23.4216887 C61.6491514,23.4216887 60.9068317,23.6691286 60.2689231,24.2884435 L58.6798726,31.6744531 L55.7921202,31.6744531 L58.061988,20.968744 L61.0312668,20.7613522 L60.6193438,22.5964123 C61.3201851,21.1332272 62.3714471,20.6183233 63.3011346,20.6183233 C63.8989952,20.6183233 64.2908942,20.7828065 64.5383341,21.0087921" id="Fill-3" fill="#3A3D4D"></path>
            <polygon id="Fill-5" fill="#3A3D4D" points="67.3444171 16.2653834 70.3136959 16.0579916 66.9939964 31.673881 64.0847897 31.673881"></polygon>
            <path d="M86.4660865,23.4643113 C86.4660865,24.1036502 86.3631058,24.6614627 86.1356899,25.7542031 L84.8784663,31.6741671 C83.379524,31.6741671 82.2610385,30.2939387 82.5699808,28.827893 L83.2479375,25.6311983 C83.3308942,25.1563425 83.4124207,24.7429892 83.4124207,24.3725445 C83.4124207,23.2783738 82.8975168,22.8449964 81.9063269,22.8449964 C81.1640072,22.8449964 80.4631659,23.175393 79.843851,23.7532296 L78.15325,31.6741671 L75.2654976,31.6741671 L77.5339351,20.9684579 L80.5046442,20.7610661 L80.2986827,21.647845 C81.4128774,20.9684579 82.4855938,20.6180373 83.4124207,20.6180373 C85.5378293,20.6180373 86.4660865,21.8766911 86.4660865,23.4643113" id="Fill-7" fill="#3A3D4D"></path>
            <path d="M94.3857368,23.7729675 C94.3857368,23.2165853 94.0567704,22.8661647 93.4789339,22.8661647 C92.3861935,22.8661647 91.3549555,23.9803594 90.9215781,25.7110084 C93.1900156,25.6094579 94.3857368,24.7627272 94.3857368,23.7729675 M90.6526839,27.5060204 C90.6526839,29.0535925 91.4779603,29.6729075 92.9840541,29.6729075 C93.7878762,29.6729075 94.634607,29.5084243 95.8088738,29.0335685 L96.057744,30.9315613 C94.654631,31.653857 93.251518,31.9627993 91.7883329,31.9627993 C89.5184651,31.9627993 87.7234531,30.7241695 87.7234531,27.796369 C87.7234531,24.1648666 90.2193065,20.6177512 94.1797752,20.6177512 C96.0977921,20.6177512 97.1919627,21.75197 97.1919627,23.175107 C97.1919627,25.4649988 95.3769267,27.3830156 90.6526839,27.5060204" id="Fill-9" fill="#3A3D4D"></path>
            <path d="M107.815716,20.5548185 C107.815716,19.1946142 106.867435,18.67828 105.525825,18.67828 L103.813769,18.67828 L102.802555,23.4440012 L105.236906,23.4440012 C106.640019,23.4440012 107.815716,22.2053714 107.815716,20.5548185 M107.053373,25.0730998 L109.383313,31.673881 L108.307736,31.673881 C106.948962,31.673881 105.74895,30.7871022 105.349899,29.4884002 L104.16419,25.6309123 L102.32913,25.6309123 L101.050452,31.673881 L98.0783125,31.673881 L101.317916,16.4098425 L104.288625,16.4098425 L104.865031,16.4098425 C105.691738,16.4098425 106.414034,16.4098425 107.217856,16.4927993 C109.238853,16.6773065 110.869382,17.8730276 110.869382,20.1228714 C110.869382,22.515744 109.341834,24.2692776 107.053373,25.0730998" id="Fill-11" fill="#3A3D4D"></path>
            <path d="M117.757794,28.5597139 L118.994994,23.0716971 C118.686052,22.927238 118.272698,22.8457115 117.654814,22.8457115 C115.715343,22.8457115 114.127722,24.8266611 114.127722,27.6929591 C114.127722,29.0960721 114.828564,29.7339808 115.819754,29.7339808 C116.540619,29.7339808 117.199982,29.343512 117.757794,28.5597139 L117.757794,28.5597139 Z M120.56402,28.8071538 C120.295126,29.9413726 120.253648,30.8066971 120.253648,31.6748822 L118.458636,31.7278029 C117.936581,31.7449663 117.501773,31.3301827 117.490331,30.8066971 C116.562073,31.5504471 115.467903,31.9623702 114.31366,31.9623702 C112.601605,31.9623702 111.074056,30.8281514 111.074056,28.1463606 C111.074056,23.9398822 113.797326,20.6173221 118.357085,20.6173221 C119.800246,20.6173221 121.140427,20.8862163 122.2961,21.3396178 L120.56402,28.8071538 Z" id="Fill-13" fill="#3A3D4D"></path>
            <path d="M127.205565,27.5274748 C126.83369,29.219506 127.144062,29.7344099 128.195325,29.7344099 C128.5672,29.7344099 128.91762,29.7143858 129.372452,29.611405 L129.4125,31.5294219 C128.607248,31.8397945 127.741923,31.9828233 126.647752,31.9828233 C124.771214,31.9828233 124.050349,31.1174988 124.050349,29.8373906 C124.050349,29.1165252 124.173353,28.1467897 124.462272,26.7436767 L125.24607,23.0106238 L123.76143,23.0106238 L124.214832,20.9052392 L125.699471,20.9052392 L126.174327,18.6368017 L129.248017,17.914506 L128.607248,20.9052392 L131.537909,20.9052392 L130.774135,23.0106238 L128.153846,23.0106238 L127.205565,27.5274748 Z" id="Fill-15" fill="#3A3D4D"></path>
            <path d="M137.157512,17.7081154 C137.157512,18.6149183 136.422344,19.3486562 135.516971,19.3486562 C134.610168,19.3486562 133.875,18.6149183 133.875,17.7081154 C133.875,16.8013125 134.610168,16.0661442 135.516971,16.0661442 C136.422344,16.0661442 137.157512,16.8013125 137.157512,17.7081154 L137.157512,17.7081154 Z M133.434471,20.9677428 L136.406611,20.7617812 L134.053786,31.6748822 L131.167464,31.6748822 L133.434471,20.9677428 Z" id="Fill-17" fill="#3A3D4D"></path>
            <g id="Group-21" transform="translate(148.319712, 20.479013)">
                <mask id="mask-2" fill="white">
                    <use xlink:href="#path-1"></use>
                </mask>
                <g id="Clip-20"></g>
                <path d="M7.47631851,8.76080288 L8.8164988,2.48898798 C8.34164303,2.40746154 7.86821755,2.36598317 7.45486418,2.36598317 C5.31086178,2.36598317 3.97068149,4.44848317 3.97068149,6.75982933 C3.97068149,8.38892788 4.83600601,9.00824279 6.11468389,9.00824279 C6.61099399,9.00824279 7.02291707,8.94674038 7.47631851,8.76080288 M12.0761262,0.861319712 L9.95071755,10.8847813 C9.22985216,14.2688438 7.06439543,15.7334591 3.82479207,15.7334591 C2.2586262,15.7334591 0.937039663,15.4030625 0.0516911058,14.7637236 L0.0602728365,14.7394087 C0.465044471,13.7725337 1.4776887,13.2504784 2.51321755,13.3977981 C2.95517668,13.4621611 3.40428726,13.4850457 3.84624639,13.4850457 C5.70276082,13.4850457 6.7955012,12.7412957 7.12589784,10.6988438 C6.46510457,11.0921731 5.78428726,11.2352019 5.10490024,11.2352019 C2.83503245,11.2352019 0.957063702,9.9365 0.957063702,7.2346851 C0.957063702,3.31426442 3.51584976,0.139024038 7.76523678,0.139024038 C9.14689543,0.139024038 10.8589507,0.406487981 12.0761262,0.861319712" id="Fill-19" fill="#3A3D4D" mask="url(#mask-2)"></path>
            </g>
            <g id="Group-24" transform="translate(160.192308, 20.479013)">
                <mask id="mask-4" fill="white">
                    <use xlink:href="#path-3"></use>
                </mask>
                <g id="Clip-23"></g>
                <path d="M0.0803822115,10.2261334 L1.23605529,8.53410216 C2.07992548,9.13196274 2.88660817,9.37940264 3.85634375,9.37940264 C4.90760577,9.37940264 5.52692067,8.90454688 5.52692067,8.22515986 C5.52692067,7.60584495 5.09354327,7.21394591 3.93787019,6.53312861 C2.74071875,5.83228726 1.87539423,5.08853726 1.87539423,3.72833293 C1.87539423,1.43701082 4.1223774,0.138308894 6.37079087,0.138308894 C7.79535817,0.138308894 8.80657212,0.510183894 9.4659351,1.06799639 L8.41324279,2.86157813 C7.8783149,2.48970313 7.15601923,2.24226322 6.22776202,2.24226322 C5.44396394,2.24226322 4.76314663,2.71711899 4.76314663,3.31497957 C4.76314663,3.91284014 5.31952885,4.32619351 6.22776202,4.84109736 C7.62944471,5.64634976 8.41324279,6.49308053 8.41324279,7.75030409 C8.41324279,10.2461575 6.10332692,11.483357 3.67040625,11.483357 C2.0398774,11.483357 0.802677885,11.0299555 0.0803822115,10.2261334" id="Fill-22" fill="#3A3D4D" mask="url(#mask-4)"></path>
            </g>
            <path d="M75.6536779,17.7081154 C75.6536779,18.6149183 74.9170793,19.3486562 74.0117067,19.3486562 C73.1049038,19.3486562 72.3697356,18.6149183 72.3697356,17.7081154 C72.3697356,16.8013125 73.1049038,16.0661442 74.0117067,16.0661442 C74.9170793,16.0661442 75.6536779,16.8013125 75.6536779,17.7081154 L75.6536779,17.7081154 Z M71.930637,20.9677428 L74.9013462,20.7617812 L72.5499519,31.6748822 L69.6621995,31.6748822 L71.930637,20.9677428 Z" id="Fill-25" fill="#3A3D4D"></path>
            <path d="M56.1814447,17.7081154 C56.1814447,18.6149183 55.4462764,19.3486562 54.5409038,19.3486562 C53.634101,19.3486562 52.8989327,18.6149183 52.8989327,17.7081154 C52.8989327,16.8013125 53.634101,16.0661442 54.5409038,16.0661442 C55.4462764,16.0661442 56.1814447,16.8013125 56.1814447,17.7081154 L56.1814447,17.7081154 Z M52.4598341,20.9677428 L55.4305433,20.7617812 L53.079149,31.6748822 L50.1913966,31.6748822 L52.4598341,20.9677428 Z" id="Fill-27" fill="#3A3D4D"></path>
            <g id="Group-31" transform="translate(33.959135, 0.454975)">
                <mask id="mask-6" fill="white">
                    <use xlink:href="#path-5"></use>
                </mask>
                <g id="Clip-30"></g>
                <polygon id="Fill-29" fill="#6BAEE0" mask="url(#mask-6)" points="0.28611899 7.56865745 5.2306262 7.56865745 8.8378137 0.975027644"></polygon>
            </g>
            <path d="M22.9117909,8.53910817 C22.9117909,8.53910817 39.8077885,10.2897813 46.8133413,8.33314663 C46.8133413,8.33314663 40.6330649,10.9090962 37.1288582,11.5269808 L34.1424159,16.3685072 L31.7724279,14.1029303 L24.4579327,16.1625457 L29.1979087,11.8359231 L22.9117909,8.53910817 Z" id="Fill-32" fill="#6BAEE0"></path>
            <polygon id="Fill-34" fill="#6BAEE0" points="17.6055637 21.3816683 20.7464772 21.3816683 23.0377993 17.1923534"></polygon>
            <path d="M10.4052055,21.7084892 C10.4052055,21.7084892 21.1395204,22.8212536 25.5905781,21.5783329 C25.5905781,21.5783329 21.663006,23.2145829 19.4374772,23.606482 L17.5394844,26.6844627 L16.0348209,25.2441623 L11.3878137,26.5528762 L14.3985709,23.8038618 L10.4052055,21.7084892 Z" id="Fill-36" fill="#6BAEE0"></path>
            <polygon id="Fill-38" fill="#6BAEE0" points="5.87133413 30.4997572 8.43298077 30.4997572 10.3023678 27.0827981"></polygon>
            <path d="M0.000715144231,30.766506 C0.000715144231,30.766506 8.75408053,31.6733089 12.3827224,30.6592344 C12.3827224,30.6592344 9.18030649,31.9936935 7.36527043,32.3140781 L5.81769832,34.8228041 L4.59051082,33.6485373 L0.801676683,34.7155325 L3.25605168,32.4728401 L0.000715144231,30.766506 Z" id="Fill-40" fill="#6BAEE0"></path>
            <path d="M147.816308,23.4643113 C147.816308,24.1036502 147.713327,24.6614627 147.485911,25.7542031 L146.228688,31.6741671 C144.729745,31.6741671 143.61126,30.2939387 143.920202,28.827893 L144.598159,25.6311983 C144.681115,25.1563425 144.762642,24.7429892 144.762642,24.3725445 C144.762642,23.2783738 144.247738,22.8449964 143.256548,22.8449964 C142.514228,22.8449964 141.813387,23.175393 141.194072,23.7532296 L139.503471,31.6741671 L136.615719,31.6741671 L138.884156,20.9684579 L141.854865,20.7610661 L141.648904,21.647845 C142.763099,20.9684579 143.835815,20.6180373 144.762642,20.6180373 C146.88805,20.6180373 147.816308,21.8766911 147.816308,23.4643113" id="Fill-42" fill="#3A3D4D"></path>
        </g>
    </g>
</svg>