<?xml version="1.0" encoding="UTF-8"?>
<svg width="93px" height="60px" viewBox="0 0 93 60" version="1.1" xmlns="http://www.w3.org/2000/svg" xmlns:xlink="http://www.w3.org/1999/xlink">
    <title>premios-tap / melhores-destinos / default</title>
    <defs>
        <polygon id="path-1" points="0 0.47109375 29.0498906 0.47109375 29.0498906 38.1355312 0 38.1355312"></polygon>
        <polygon id="path-3" points="0.078890625 0.38684375 7.17890625 0.38684375 7.17890625 8.702 0.078890625 8.702"></polygon>
    </defs>
    <g id="premios-tap-/-melhores-destinos-/-default" stroke="none" stroke-width="1" fill="none" fill-rule="evenodd">
        <g id="Group-47" transform="translate(1.000000, 7.000000)">
            <path d="M35.4598594,30.5267344 L33.4137656,22.6222031 L31.3676719,22.6222031 C31.0639219,22.6531406 30.8150156,22.7712656 30.5984531,22.9639219 C30.3917344,23.1664219 30.2778281,23.4476719 30.2876719,23.7387656 L30.2876719,32.9778281 L32.2662656,32.9778281 L32.2662656,24.6387656 L34.3798594,32.9778281 L36.5693906,32.9778281 L38.6843906,24.6387656 L38.6843906,32.9764219 L40.6686094,32.9764219 L40.6686094,22.6222031 L37.5059531,22.6222031 L35.4598594,30.5267344 Z" id="Fill-1" fill="#1957A4"></path>
            <path d="M34.122375,10.9909688 L31.39425,10.981125 C31.0905,11.0120625 30.8415938,11.1301875 30.6264375,11.3228438 C30.4169063,11.5253438 30.3044063,11.808 30.3156563,12.0976875 L30.3156563,21.33675 L32.2928438,21.33675 L32.2928438,12.7600313" id="Fill-3" fill="#1957A4"></path>
            <path d="M37.8466875,14.2703437 C37.8466875,13.2451875 37.5035625,12.4197188 36.8215313,11.8206562 C36.1662187,11.2525312 35.2127812,10.9881562 34.0160625,10.9881562 L31.6816875,12.933 L34.3746563,12.933 C34.8316875,12.961125 35.2015313,13.0750312 35.458875,13.3605 C35.7091875,13.6164375 35.847,13.9159688 35.8554375,14.299875 C35.852625,14.7470625 35.7260625,15.0887813 35.4729375,15.3137812 C35.2437188,15.5359687 34.873875,15.6850312 34.3887188,15.7131562 L31.8110625,15.7131562 L31.6240313,17.7001875 L33.9977813,17.7072187 C35.2240313,17.7072187 36.1648125,17.3950313 36.8468438,16.8240937 C37.4937187,16.2390937 37.832625,15.391125 37.8410625,14.3294063 L37.8466875,14.328 L37.8466875,14.2703437 Z" id="Fill-5" fill="#1957A4"></path>
            <g id="Group-9" transform="translate(0.000000, 0.935859)">
                <mask id="mask-2" fill="white">
                    <use xlink:href="#path-1"></use>
                </mask>
                <g id="Clip-8"></g>
                <path d="M20.4731719,6.81553125 C18.9853594,6.56803125 17.1530156,8.1050625 14.4755156,13.0114688 C13.8300469,12.8638125 13.1859844,12.7639688 12.5419219,12.664125 C12.5419219,12.5150625 12.4434844,12.3561563 12.2958281,12.2169375 C12.0469219,12.0186563 11.7502031,12.067875 11.5505156,12.3167813 C11.4998906,12.366 11.4520781,12.4658438 11.4520781,12.5642813 C10.8066094,12.4658438 10.1133281,12.4658438 9.46926563,12.4152188 C8.24864063,12.3167813 7.02098438,12.3167813 5.79895313,12.4152188 L4.75832813,13.7567813 L11.6011406,16.236 L11.5519219,16.286625 L4.71051563,13.8074063 L4.51223438,14.0549063 L11.7502031,16.6325625 L9.86442188,19.6067813 L6.89020313,20.0033438 L5.80176563,21.439125 L9.66754688,22.23225 L11.7502031,25.6044375 L12.7430156,24.0674063 L12.0497344,21.1424063 L14.2294219,18.3650625 L19.1372344,24.3135 L19.2848906,24.0069375 L14.6259844,18.4536563 L14.6766094,18.4044375 L19.3355156,23.9056875 L20.2270781,22.4713125 C19.8797344,21.3308438 19.4845781,20.190375 18.9881719,19.1005313 L18.1950469,17.366625 L18.1458281,17.2161563 C18.2442656,17.2161563 18.2948906,17.1177188 18.3427031,17.0685 C18.4931719,16.821 18.4439531,16.4736563 18.1458281,16.3245938 C17.9953594,16.22475 17.7984844,16.174125 17.6494219,16.275375 C17.3527031,15.6805313 17.0039531,15.0870938 16.7072344,14.5400625 C20.3761406,10.324125 21.1664531,8.09521875 20.4731719,6.80428125 L20.4731719,6.81553125 Z M14.5261406,0.47053125 C22.5544219,0.47053125 29.0498906,6.9631875 29.0498906,14.9956875 C29.0498906,20.0525625 26.0742656,25.3555313 22.4559844,29.916 L22.3575469,29.6192813 L22.3083281,29.4224063 L22.1578594,29.2719375 L22.0102031,29.122875 L21.8105156,28.9738125 L21.6136406,28.9245938 L21.4153594,28.8767813 L21.2170781,28.8767813 L21.0187969,28.9245938 L20.4731719,29.0750625 L19.5816094,26.2499063 C23.7455156,24.3135 26.6212969,20.1017813 26.6212969,15.184125 C26.6212969,8.49178125 21.1678594,3.03834375 14.4755156,3.03834375 C7.73395313,3.03834375 2.28051563,8.49178125 2.28051563,15.184125 C2.28051563,21.9256875 7.73395313,27.3805313 14.4755156,27.3805313 C15.2208281,27.3805313 15.9619219,27.3270938 16.6580156,27.1794375 L17.5495781,29.9567813 L17.1037969,30.1058438 L16.9055156,30.2056875 L16.7564531,30.3055313 L16.6087969,30.4531875 L16.4597344,30.652875 L16.4091094,30.84975 L16.3570781,31.0480313 L16.3570781,31.294125 L16.4091094,31.4431875 L17.5973906,35.3089688 C16.5075469,36.3495938 15.4655156,37.2931875 14.5247344,38.1355313 C8.82379688,33.1785 4.65989063,27.7770938 1.73489063,21.9270938 L1.78410938,21.9270938 C0.643640625,19.8542813 -0.000423927979,17.48475 -0.000423927979,14.9956875 C-0.004640625,6.97725 6.49364063,0.47475 14.5106719,0.47053125 L14.5261406,0.47053125 Z" id="Fill-7" fill="#8DD7F7" mask="url(#mask-2)"></path>
            </g>
            <path d="M25.9759687,15.0606563 L25.9253437,14.9115937 L25.9253437,14.6050312 L25.876125,14.5065938 L25.876125,14.3575313 L25.8283125,14.2084687 L25.8283125,14.058 L25.7776875,13.9103438 L25.7776875,13.8105 L25.7256563,13.6122188 L25.6778438,13.512375 L25.6778438,13.3633125 C25.628625,13.3140938 25.628625,13.264875 25.628625,13.2156563 C25.628625,13.1664375 25.5794063,13.1158125 25.5794063,13.017375 L25.5301875,12.96675 L25.4795625,12.6587813 C23.9509688,7.8845625 19.5170625,4.64315625 14.5065938,4.6305 L14.5065938,6.15065625 C16.6370625,6.15065625 18.7590938,6.79471875 20.6026875,8.18128125 C25.0140938,11.6139375 25.8676875,17.9069063 22.4870625,22.321125 L22.3365938,22.518 L22.3365938,22.5672188 L22.1889375,22.7162813 L22.1383125,22.7655 L21.9906563,22.9145625 L21.9906563,22.9637813 L21.8415938,23.1128437 L21.7909688,23.1620625 L21.6433125,23.2619063 L21.6433125,23.3097188 L21.4928438,23.4601875 L21.4450313,23.5094063 C21.3944063,23.5572188 21.3451875,23.6078438 21.2959688,23.6078438 L21.2481563,23.6584688 L20.9401875,23.9664375 L20.8909688,24.0170625 C20.8403437,24.0170625 20.791125,24.064875 20.7405,24.1169063 L20.6912813,24.166125 L20.543625,24.2645625 L20.4437813,24.3644063 L20.3439375,24.413625 L20.2455,24.5134688 L20.1456563,24.5134688 L20.0472187,24.616125 L19.9487812,24.6639375 C19.8362813,24.7750313 19.7012813,24.8608125 19.5522187,24.9100313 C19.204875,25.1589375 18.8069063,25.308 18.41175,25.5076875 C17.8562812,25.7453438 17.2726875,25.9028438 16.6272188,26.0519062 C16.0112812,26.1995625 15.3770625,26.2459688 14.7822187,26.298 L14.4812813,26.298 L14.4812813,26.2740938 L13.9862813,26.2740938 C13.8864375,26.224875 13.8358125,26.224875 13.737375,26.224875 L13.3914375,26.224875 L13.3408125,26.1770625 L13.0947188,26.1770625 L12.94425,26.1250313 L12.69675,26.1250313 L12.646125,26.0744063 L12.4478438,26.0744063 L12.4000313,26.0237812 L12.2003438,26.0237812 L12.1497188,25.9759688 C12.0794063,25.977375 12.0105,25.9605 11.9514375,25.9253438 L11.8994063,25.9253438 L11.75175,25.8733125 L11.6519063,25.8733125 L11.5028438,25.8255 L11.453625,25.7762813 C11.4044063,25.7762813 11.3045625,25.7762813 11.2553438,25.7256563 L11.206125,25.7256563 C11.1569063,25.673625 11.1090937,25.673625 11.0570625,25.673625 L10.9572188,25.6258125 C10.908,25.6258125 10.8587813,25.5751875 10.7603438,25.5751875 L10.7603438,25.5231563 C10.6605,25.5231563 10.609875,25.471125 10.5606563,25.471125 L10.5114375,25.471125 C10.4228438,25.3740938 10.2639375,25.3262813 10.1162813,25.27425 L10.06425,25.2264375 L9.86596875,25.1251875 L9.81675,25.1251875 L9.6676875,25.02675 L9.61565625,25.02675 L9.41878125,24.8762813 C9.3189375,24.8762813 9.271125,24.82425 9.2205,24.7764375 L9.17128125,24.7764375 C9.1220625,24.7258125 9.0714375,24.6765938 8.973,24.6287813 L8.77471875,24.4783125 L8.72409375,24.4783125 L8.5764375,24.32925 L8.3289375,24.1815938 C3.9076875,20.8009688 3.0639375,14.4531563 6.48534375,10.04175 C8.393625,7.5639375 11.3481562,6.11690625 14.4756563,6.12534375 L14.4756563,4.62909375 C13.2859688,4.62909375 12.1440937,4.77675 10.9558125,5.1733125 L10.9614375,5.15221875 C6.38971875,6.5908125 3.36628125,10.654875 2.971125,15.166125 L2.971125,17.0997188 C3.02034375,17.9420625 3.21721875,18.7844063 3.466125,19.62675 L3.5645625,19.9347188 L3.6151875,20.082375 L3.66440625,20.1808125 L3.71503125,20.329875 L3.76425,20.4789375 L3.814875,20.577375 L3.86409375,20.7278438 L3.91471875,20.8755 L4.01596875,20.9739375 L4.0651875,21.0737812 C4.0651875,21.1722188 4.11440625,21.2214375 4.11440625,21.2720625 L4.163625,21.3705 L4.26346875,21.5195625 L4.3126875,21.5687813 C4.3126875,21.6672188 4.36190625,21.7164375 4.36190625,21.7670625 L4.46034375,21.8669063 L4.5095625,22.0145625 L4.5601875,22.1144063 L4.658625,22.21425 L4.70784375,22.3619063 L4.80628125,22.46175 L4.85409375,22.5615938 L4.95534375,22.70925 L5.05378125,22.8090938 L5.10440625,22.9089375 L5.20425,23.058 L5.3026875,23.1564375 L5.35190625,23.2534688 L5.5501875,23.45175 C5.5501875,23.5009687 5.59940625,23.5501875 5.59940625,23.5501875 L5.74846875,23.69925 L5.89753125,23.896125 L5.94675,23.896125 C6.04659375,24.0465938 6.14503125,24.1422188 6.2955,24.2926875 C6.39534375,24.402375 6.49378125,24.4994063 6.64284375,24.6006563 L6.64284375,24.6512813 C6.6920625,24.6990938 6.7426875,24.751125 6.79190625,24.751125 L6.8383125,24.8495625 L6.93675,24.8987813 L7.0858125,25.0478438 L7.18565625,25.0970625 L7.28409375,25.1969063 C7.33190625,25.1969063 7.3839375,25.2447188 7.3839375,25.29675 L7.482375,25.347375 L7.6314375,25.4472188 L7.68065625,25.4978438 L7.831125,25.5962813 L7.9295625,25.6975313 L8.078625,25.74675 L8.12784375,25.7987813 L8.27971875,25.9183125 L8.37815625,26.0181563 L8.47940625,26.0687813 L8.6270625,26.1208125 L8.7255,26.2206563 L8.87596875,26.2712813 L8.97440625,26.3697188 L9.07425,26.3697188 C9.124875,26.4189375 9.17409375,26.4695625 9.27253125,26.4695625 L9.71971875,26.7184688 L9.77034375,26.7184688 C10.4144063,27.0137813 11.0570625,27.214875 11.7025312,27.41175 L11.9514375,27.462375 L12.0006563,27.462375 L12.1975313,27.5115937 L12.2495625,27.5115937 L12.4970625,27.5622188 C12.5969063,27.5622188 12.646125,27.6128438 12.69675,27.6128438 L12.7951875,27.6128438 C12.8444062,27.6128438 12.94425,27.6128438 12.9934688,27.6620625 L13.3408125,27.6620625 C13.3900312,27.6620625 13.43925,27.7126875 13.5376875,27.7126875 L14.47425,27.7126875 L14.47425,27.7351875 L14.9706563,27.7351875 C15.6639375,27.7351875 16.3572188,27.6283125 17.0519063,27.428625 L18.3414375,31.343625 L17.3008125,31.692375 C17.0420625,31.7401875 16.8944062,32.0383125 16.9928438,32.2858125 L20.66175,44.1714375 C20.7615938,44.42175 20.99925,44.5708125 21.3072188,44.5187813 L25.1251875,43.2897188 C25.4205,43.2405 25.5695625,42.9437813 25.471125,42.6976875 L21.8022188,30.8008125 C21.702375,30.5533125 21.4056563,30.4028438 21.15675,30.5012813 L20.0669063,30.8008125 L18.8378438,26.883 C19.5409688,26.584875 20.1765938,26.2895625 20.7714375,25.8915938 L20.7714375,25.842375 C21.4155,25.4950313 21.9625313,25.0506562 22.456125,24.55425 L22.5053438,24.5022188 C23.254875,23.794875 23.8919063,22.9764375 24.3897188,22.0750313 L24.4389375,22.023 L24.7862813,21.3775313 L24.7862813,21.3297188 L24.8875313,21.1806563 L24.93675,21.0808125 L24.9845625,20.93175 L25.0337812,20.8319062 L25.083,20.6828438 L25.133625,20.5844063 L25.2334688,20.4339375 L25.2334688,20.3355 L25.2826875,20.1864375 L25.3333125,20.0865938 L25.3825312,19.8897188 L25.43175,19.8376875 L25.4795625,19.6900313 L25.5301875,19.5915938 C25.5301875,19.49175 25.5301875,19.441125 25.5794063,19.3919062 L25.5794063,19.3426875 L25.628625,19.1458125 L25.6778438,19.0459688 L25.6778438,18.8476875 C25.7776875,18.6494062 25.7776875,18.4019063 25.8283125,18.2022188 L25.876125,18.1051875 L25.876125,17.7972188 L25.9253437,17.697375 L25.9253437,17.3908125 L25.9759687,17.2909687 L25.9759687,16.6975313 L26.0251875,16.5976875 L26.0251875,15.7553438 L25.9759687,15.6062813 L25.9759687,15.0606563 Z" id="Fill-10" fill="#1957A4"></path>
            <path d="M17.3915156,18.9347344 L17.3718281,18.9347344 C17.3774531,18.9347344 17.3844844,18.9347344 17.3915156,18.9347344 Z" id="Fill-12" fill="#FFFFFF"></path>
            <path d="M78.6224531,28.1728125 L78.6224531,28.1685937 L77.0713594,28.1685937 C77.1037031,27.6721875 77.2583906,27.2685937 77.5382344,26.98875 C77.8166719,26.7103125 78.1879219,26.5570313 78.6224531,26.555625 L78.6224531,26.5598437 C79.0865156,26.5598437 79.4591719,26.7145312 79.7390156,26.9929687 C79.9499531,27.241875 80.1102656,27.6454687 80.1426094,28.1728125 L78.6224531,28.1728125 Z M78.6224531,24.82875 L78.6224531,24.8259375 L78.6224531,24.8090625 L78.5605781,24.8090625 C77.4144844,24.8090625 76.5144844,25.1817187 75.8957344,25.9242187 C75.2741719,26.6371875 74.9633906,27.6285938 74.9633906,28.9321875 C74.9633906,30.2765625 75.2741719,31.2946875 75.9252656,32.0076562 C76.5454219,32.7515625 77.4383906,33.1242187 78.5929219,33.1242187 L78.6224531,33.1242187 L78.6224531,33.1326562 L78.6224531,33.1382812 C79.5519844,33.1382812 80.3282344,32.9217187 80.9160469,32.4576562 C81.5038594,32.0217187 81.9369844,31.3720312 82.1563594,30.5353125 L80.6994844,30.5353125 C80.4505781,30.5353125 80.2649531,30.5971875 80.1412031,30.69 C79.9865156,30.7828125 79.9246406,30.875625 79.8922969,30.9375 L79.7390156,31.0921875 C79.6771406,31.1554688 79.6462031,31.1864063 79.5829219,31.1864063 C79.3354219,31.3410937 79.0583906,31.404375 78.7152656,31.404375 L78.6224531,31.404375 L78.6224531,31.393125 C78.1260469,31.393125 77.7857344,31.2075 77.5382344,30.9276562 C77.2640156,30.6182813 77.1051094,30.1528125 77.0713594,29.5340625 L78.6224531,29.5340625 L78.6224531,29.536875 L78.6224531,29.5439062 L82.2477656,29.5439062 C82.2787031,29.5171875 82.2787031,29.4496875 82.2787031,29.3245312 L82.2787031,29.0165625 C82.2787031,27.680625 81.9693281,26.6582812 81.3491719,25.914375 C80.6994844,25.2014062 79.7994844,24.8301562 78.6224531,24.82875 L78.6224531,24.82875 Z" id="Fill-14" fill="#1957A4"></path>
            <path d="M66.3823125,30.7161563 C66.1348125,31.0564688 65.856375,31.3039687 65.5455938,31.3967813 C65.3909063,31.429125 65.26575,31.4586563 65.1124688,31.4586563 C64.9423125,31.4558437 64.7735625,31.4249062 64.6146563,31.36725 C64.3362188,31.2420938 64.1196563,31.1183438 63.9959063,30.9636562 C63.6921563,30.591 63.5304375,29.9399062 63.4995,29.0413125 C63.4362188,28.1483438 63.62325,27.4606875 64.0577813,26.9952187 C64.2110625,26.8461562 64.4290313,26.7477188 64.708875,26.6535 C64.8635625,26.591625 64.9873125,26.591625 65.1110625,26.591625 L65.1110625,26.5986563 C65.2784063,26.5719375 65.451375,26.591625 65.6060625,26.6605313 C65.9168438,26.7533438 66.1952813,27.0008438 66.4118438,27.3425625 C66.66075,27.7138125 66.7549688,28.2425625 66.7549688,28.9864688 C66.7549688,29.7542813 66.598875,30.3435 66.3823125,30.7161563 M66.5974688,25.0770937 C66.16575,24.8914688 65.6679375,24.8295938 65.1110625,24.8295938 L65.1110625,24.831 C64.8930938,24.831 64.647,24.831 64.3995,24.86475 C63.561375,24.9885 62.9102813,25.3288125 62.3829375,25.9489687 C62.0412188,26.2906875 61.8246563,26.7561563 61.6685625,27.2820938 C61.5223125,27.8164688 61.4491875,28.369125 61.4534063,28.9245937 C61.4548125,29.5630313 61.5391875,30.1986562 61.7009063,30.8145938 C61.8893438,31.4361562 62.1973125,31.9311563 62.6318438,32.2714687 C63.0030938,32.6370937 63.561375,32.886 64.2124688,33.0406875 C64.5077813,33.1011563 64.8087188,33.1335 65.1110625,33.1349063 L65.1096563,33.1405313 C65.4809063,33.1405313 65.8535625,33.1095938 66.2262188,32.9830312 C66.970125,32.8283438 67.5579375,32.4261562 68.0543438,31.7750625 C68.2905938,31.41225 68.4677813,31.0142812 68.5802813,30.596625 C68.736375,30.1311563 68.7996563,29.5742813 68.7996563,28.9527188 C68.7996563,28.054125 68.6435625,27.2806875 68.30325,26.6295937 C67.932,25.882875 67.3666875,25.3555312 66.5974688,25.0770937" id="Fill-16" fill="#1957A4"></path>
            <path d="M72.3972656,25.2285469 C71.9008594,25.3522969 71.4353906,25.5688594 71.0641406,25.8796406 C70.6619531,26.1904219 70.3511719,26.6221406 70.1346094,27.1494844 C69.8871094,27.6768281 69.7914844,28.3349531 69.7914844,29.1041719 L69.7914844,32.9797969 L71.8699219,32.9797969 L71.8699219,28.8876094 C71.8699219,28.2674531 72.0246094,27.8343281 72.3044531,27.5530781 C72.5828906,27.2732344 73.0174219,27.1494844 73.6052344,27.1494844 L74.2886719,27.1494844 L74.2886719,25.0105781 L73.9778906,25.0105781 C73.4519531,25.0105781 72.9246094,25.0738594 72.3972656,25.2285469" id="Fill-18" fill="#1957A4"></path>
            <path d="M58.6231875,25.0432031 C58.0339688,24.7957031 57.4152188,24.7647656 56.7317813,24.9194531 C56.0820938,25.0657031 55.5280313,25.4861719 55.2130313,26.0725781 L55.2130313,23.6861719 C55.2130313,23.4063281 55.121625,23.1644531 54.90225,22.9732031 C54.7180313,22.7566406 54.469125,22.6624219 54.1906875,22.6624219 L53.1669375,22.6624219 L53.1669375,32.9800781 L55.2144375,32.9800781 L55.2144375,28.8864844 C55.2144375,28.1749219 55.3705313,27.6166406 55.6489688,27.2130469 C55.9583438,26.8403906 56.392875,26.6224219 56.9511563,26.6224219 C57.4785,26.6224219 57.8820938,26.8389844 58.1900625,27.2425781 L58.1914688,27.2425781 C58.3531875,27.4774219 58.4670938,27.7417969 58.5331875,28.0174219 C58.5711563,28.2958594 58.59225,28.5757031 58.5936563,28.8555469 L58.5936563,32.9857031 L60.6074063,32.9857031 L60.6074063,28.3366406 C60.6074063,27.4366406 60.4217813,26.6927344 60.0505313,26.1963281 C59.677875,25.6619531 59.1800625,25.2597656 58.6231875,25.0432031" id="Fill-20" fill="#1957A4"></path>
            <g id="Group-24" transform="translate(82.968750, 24.435859)">
                <mask id="mask-4" fill="white">
                    <use xlink:href="#path-3"></use>
                </mask>
                <g id="Clip-23"></g>
                <path d="M6.62217187,4.57746875 C6.21717187,4.23715625 5.50420312,3.926375 4.48185937,3.678875 L4.23295312,3.64653125 L3.89264062,3.55371875 C2.86748437,3.33715625 2.34154687,3.05871875 2.34154687,2.7479375 C2.34154687,2.5004375 2.42732812,2.3204375 2.61998437,2.1910625 C2.81404687,2.06028125 3.11498437,1.99840625 3.51857812,1.99840625 C3.92217187,1.99840625 4.26389062,2.08559375 4.51279687,2.27684375 C4.56764062,2.3710625 4.66748437,2.4329375 4.76029687,2.52434375 C4.94732812,2.8660625 5.22435937,3.02075 5.62795312,3.02075 L6.89920312,3.02075 C6.86826562,2.22059375 6.55748437,1.56246875 5.96826562,1.06746875 C5.34810937,0.60340625 4.54232812,0.38684375 3.48764062,0.38684375 C2.52717187,0.38684375 1.75232812,0.60340625 1.13217187,1.06746875 C0.573890625,1.56246875 0.264515625,2.2135625 0.264515625,2.958875 C0.264515625,3.577625 0.481078125,4.04309375 0.884671875,4.41575 C1.23060937,4.75465625 1.94498437,5.0654375 2.99967187,5.343875 C3.18529687,5.41278125 3.46514062,5.47465625 3.83779687,5.53653125 C4.67310937,5.69121875 5.07670312,5.9710625 5.07670312,6.3423125 C5.07670312,6.59121875 4.95435937,6.7754375 4.73639062,6.8991875 C4.45935937,7.05528125 4.14717187,7.11715625 3.80826562,7.11715625 C3.27951562,7.11715625 2.90826562,7.02434375 2.59889062,6.80778125 C2.32467187,6.62075 2.16295312,6.30996875 2.13342187,5.90778125 L0.087328125,5.90778125 L0.078890625,5.91059375 L0.080296875,5.91059375 L0.080296875,6.0048125 C0.080296875,6.90340625 0.388265625,7.5545 0.977484375,8.0185625 C1.53717187,8.482625 2.36826562,8.702 3.52139062,8.702 C4.73076562,8.702 5.62935937,8.482625 6.21857812,8.05090625 C6.86967187,7.5854375 7.17904687,6.902 7.17904687,6.0048125 C7.17904687,5.41559375 6.99342187,4.91778125 6.62217187,4.57746875" id="Fill-22" fill="#1957A4" mask="url(#mask-4)"></path>
            </g>
            <path d="M51.1538906,22.6556719 L50.0696719,22.6556719 L50.0626406,22.6556719 L50.0626406,32.9789531 L52.1776406,32.9789531 L52.1776406,23.6484844 C52.1776406,23.3686406 52.0609219,23.1534844 51.8682656,22.9341094 C51.6502969,22.7484844 51.4323281,22.6556719 51.1538906,22.6556719" id="Fill-25" fill="#1957A4"></path>
            <path d="M30.1123125,43.9108594 L30.1123125,34.6703906 C30.1123125,34.3610156 30.2360625,34.1121094 30.4512188,33.8955469 C30.6509063,33.6986719 30.9180938,33.5889844 31.1965313,33.5847656 L34.452,33.5847656 L34.452,35.4142969 C34.3591875,35.3833594 34.266375,35.3833594 34.1721563,35.3833594 L32.1893437,35.3833594 L32.1893437,42.0489844 L33.9246562,42.0489844 C34.1116875,42.0489844 34.2973125,42.0489844 34.452,42.0166406 L34.452,43.9080469 L30.1123125,43.9080469 L30.1123125,43.9108594 Z M43.4421563,35.7560156 L43.4421563,37.4871094 C43.0090312,37.4871094 42.636375,37.6403906 42.3579375,37.9202344 C42.0780938,38.2000781 41.9234062,38.6022656 41.9234062,39.0986719 L43.4421563,39.0986719 L43.4421563,40.4641406 L41.9234062,40.4641406 C41.9234062,41.0842969 42.0780938,41.5483594 42.3579375,41.8591406 C42.6068438,42.1375781 42.9766875,42.3246094 43.4421563,42.3246094 L43.4421563,44.0599219 L43.4112188,44.0599219 C42.2580938,44.0599219 41.365125,43.6900781 40.746375,42.9447656 C40.0952812,42.2332031 39.7845,41.2080469 39.7845,39.8692969 C39.7845,38.5671094 40.0952812,37.5742969 40.7140313,36.8613281 C41.3341875,36.1188281 42.2327813,35.7447656 43.3802812,35.7447656 L43.4421563,35.7447656 L43.4421563,35.7560156 Z M34.446375,33.5861719 C35.90325,33.6494531 36.988875,34.0516406 37.7341875,34.8588281 C38.5034063,35.7264844 38.8802812,37.0272656 38.8802812,38.7639844 C38.8802812,39.6949219 38.7565313,40.5007031 38.4780937,41.2446094 C38.1377813,42.0124219 37.7355937,42.6086719 37.20825,42.9813281 C36.7723125,43.3216406 36.30825,43.5705469 35.8118438,43.7252344 C35.4715312,43.8180469 35.0440313,43.8799219 34.4477813,43.9108594 L34.4477813,42.0194531 C35.16075,41.9561719 35.6866875,41.7100781 36.0593437,41.2755469 C36.493875,40.8114844 36.741375,39.9733594 36.741375,38.7639844 C36.741375,37.5855469 36.5234063,36.7488281 36.0902813,36.1919531 C35.7485625,35.7264844 35.1916875,35.4466406 34.4477813,35.4157031 L34.4477813,33.5847656 L34.446375,33.5861719 Z M70.3521563,43.9108594 L69.298875,43.9108594 C68.9895,43.9108594 68.7405938,43.8194531 68.556375,43.6324219 C68.37075,43.4453906 68.2765313,43.1978906 68.2765313,42.9208594 L68.2765313,38.8258594 C68.2765313,38.3294531 68.1218438,37.9891406 67.842,37.7725781 C67.5312187,37.5532031 67.2218438,37.4308594 66.8491875,37.4308594 C66.4990313,37.4308594 66.160125,37.5503906 65.8873125,37.7725781 C65.608875,37.9891406 65.4837188,38.3294531 65.4837188,38.8258594 L65.4837188,43.9108594 L63.37575,43.9108594 L63.37575,39.2294531 C63.37575,37.8639844 63.7160625,36.9667969 64.4304375,36.4999219 C65.1448125,36.0358594 65.9196563,35.7897656 66.7873125,35.7574219 C67.6859063,35.7574219 68.4916875,35.9753906 69.2355938,36.4408594 C69.9795,36.9035156 70.35075,37.8344531 70.35075,39.2294531 L70.35075,43.9108594 L70.3521563,43.9108594 Z M60.5252812,33.5875781 L61.6095,33.5875781 C61.8893437,33.5875781 62.1368437,33.6817969 62.323875,33.8983594 C62.5404375,34.0839844 62.6318438,34.3314844 62.6318438,34.6113281 L62.6318438,35.2624219 L60.51825,35.2624219 L60.51825,33.5875781 L60.5252812,33.5875781 Z M60.5252812,35.9430469 L61.6095,35.9430469 C61.8893437,35.9430469 62.1368437,36.0372656 62.323875,36.2228906 C62.5404375,36.4408594 62.6318438,36.6883594 62.6318438,36.9682031 L62.6318438,43.9108594 L60.51825,43.9108594 L60.51825,35.9430469 L60.5252812,35.9430469 Z M59.533875,43.9108594 C58.8827812,43.9741406 58.1684062,43.9432031 57.3949687,43.9108594 C56.62575,43.8503906 56.215125,43.3539844 56.215125,42.4230469 L56.215125,33.5805469 L57.3021562,33.5805469 C57.5791875,33.5805469 57.7971563,33.6747656 58.0137187,33.8913281 C58.1993438,34.0769531 58.2921563,34.3258594 58.2921563,34.6042969 L58.2921563,35.9697656 L59.533875,35.9697656 L59.533875,36.3733594 C59.533875,36.6827344 59.4396562,36.9302344 59.2230937,37.1158594 C59.0304375,37.3028906 58.7885625,37.3957031 58.5115312,37.3957031 L58.2935625,37.3957031 L58.2935625,41.8591406 C58.2935625,42.2008594 58.5115312,42.3569531 58.9123125,42.3569531 L59.5352813,42.3569531 L59.533875,43.9066406 L59.533875,43.9108594 Z M47.9393437,41.2769531 L49.9840313,41.2769531 C49.9840313,41.6791406 50.1387188,41.9899219 50.4185625,42.1755469 C50.7279375,42.3921094 51.130125,42.4835156 51.6279375,42.4835156 C51.9991875,42.4835156 52.3099688,42.4230469 52.5574688,42.2683594 C52.8049688,42.1446094 52.9287188,41.9575781 52.9287188,41.7114844 C52.9287188,41.3388281 52.4955937,41.0589844 51.6574688,40.9042969 C51.287625,40.8410156 51.0387188,40.7791406 50.8502813,40.7172656 C49.7674688,40.4388281 49.0840313,40.1294531 48.711375,39.7891406 C48.306375,39.4178906 48.1235625,38.9538281 48.1235625,38.3322656 C48.1235625,37.5897656 48.402,36.9372656 48.9898125,36.4408594 C49.5804375,35.9767969 50.3552813,35.7602344 51.3143438,35.7602344 C52.3690313,35.7602344 53.2071563,35.9782031 53.8259063,36.4408594 C54.3841875,36.9386719 54.6935625,37.5953906 54.7568438,38.3955469 L53.4546562,38.3955469 C53.082,38.3955469 52.772625,38.2408594 52.5855938,37.8991406 L52.3380937,37.6516406 C52.0891875,37.4589844 51.7798125,37.3732031 51.3466875,37.3732031 C50.9430938,37.3732031 50.66325,37.4350781 50.4466875,37.5644531 C50.2540312,37.6882031 50.16825,37.8752344 50.16825,38.1227344 C50.16825,38.4321094 50.6955938,38.7119531 51.748875,38.9285156 L52.05825,39.0199219 C52.1524687,39.0199219 52.2452813,39.0536719 52.3071562,39.0536719 C53.3309062,39.3011719 54.043875,39.6105469 54.4474687,39.9522656 C54.8187188,40.2939844 55.0043437,40.7889844 55.0043437,41.3782031 C55.0043437,42.2767969 54.6949688,42.9588281 54.0452813,43.4242969 C53.4560625,43.8574219 52.5574688,44.0753906 51.3480938,44.0753906 C50.2005938,44.0753906 49.3624687,43.8574219 48.807,43.3933594 C48.216375,42.9292969 47.9379375,42.2782031 47.9379375,41.3782031 L47.9379375,41.2853906 L47.9393437,41.2769531 Z M43.4421563,40.4697656 L43.4421563,39.1042969 L44.9623125,39.1042969 C44.9299688,38.5769531 44.8062188,38.1747656 44.5573125,37.9258594 C44.2774688,37.6460156 43.9062188,37.4927344 43.44075,37.4927344 L43.44075,35.7616406 C44.6191875,35.7616406 45.5177813,36.1342969 46.168875,36.8472656 C46.821375,37.5897656 47.13075,38.6135156 47.13075,39.9480469 L47.13075,40.2560156 C47.13075,40.3811719 47.13075,40.4430469 47.097,40.4753906 L43.4421563,40.4753906 L43.4421563,40.4767969 L43.4421563,40.4697656 Z M43.4421563,44.0655469 L43.4421563,42.3288281 L43.536375,42.3288281 C43.8766875,42.3288281 44.155125,42.2669531 44.4040313,42.1122656 C44.4673125,42.1122656 44.5277813,42.0799219 44.5587187,42.0180469 L44.751375,41.8633594 C44.751375,41.8014844 44.8455937,41.7086719 44.9679375,41.6158594 C45.0930938,41.5230469 45.2787187,41.4611719 45.5262187,41.4611719 L47.0154375,41.4611719 C46.7960625,42.2992969 46.3924687,42.9475781 45.7737188,43.3835156 C45.1535625,43.8475781 44.380125,44.0641406 43.4491875,44.0641406 L43.4421563,44.0655469 Z M74.811375,35.7574219 L74.811375,37.5250781 C74.6566875,37.5250781 74.5315313,37.5250781 74.4077812,37.5869531 C74.0984062,37.6797656 73.8804375,37.7725781 73.72575,37.9272656 C73.3235625,38.3927344 73.1365313,39.0747656 73.168875,39.9733594 C73.2012188,40.8719531 73.3840313,41.5244531 73.6652812,41.8957031 C73.787625,42.0503906 74.0041875,42.1755469 74.316375,42.2992969 C74.4696562,42.3611719 74.6243438,42.3921094 74.811375,42.3921094 L74.811375,44.0669531 C74.5005938,44.0669531 74.1898125,44.0360156 73.911375,43.9741406 C73.2293437,43.8194531 72.702,43.5705469 72.2998125,43.2049219 C71.8652812,42.8646094 71.5868437,42.3667969 71.3998125,41.7480469 C71.2141875,41.1588281 71.121375,40.5077344 71.121375,39.8566406 C71.121375,39.2997656 71.2155938,38.7724219 71.3379375,38.2141406 C71.4940312,37.6867969 71.7429375,37.2227344 72.0523125,36.8824219 C72.5768437,36.2622656 73.2616875,35.9205469 74.0674688,35.7967969 C74.316375,35.7644531 74.5624687,35.7644531 74.8099687,35.7644531 L74.811375,35.7574219 Z M79.2762187,41.2755469 L81.3209062,41.2755469 C81.35325,41.6777344 81.4755937,41.9885156 81.7554375,42.1755469 C82.0662187,42.3921094 82.4684062,42.4835156 82.9648125,42.4835156 C83.3374687,42.4835156 83.6468438,42.4216406 83.8943437,42.2669531 C84.14325,42.1432031 84.2655937,41.9575781 84.2655937,41.7100781 C84.2655937,41.3388281 83.8296562,41.0589844 82.9943438,40.9028906 L82.1871562,40.7172656 C81.133875,40.4388281 80.4209062,40.1294531 80.0496562,39.7877344 C79.6460625,39.4178906 79.4604375,38.9524219 79.4604375,38.3308594 C79.4604375,37.5883594 79.738875,36.9372656 80.3280938,36.4408594 C80.9173125,35.9753906 81.7230937,35.7602344 82.6849687,35.7602344 C83.7073125,35.7602344 84.5440312,35.9767969 85.1641875,36.4408594 C85.7534062,36.9372656 86.0627812,37.5953906 86.095125,38.3941406 L84.7915312,38.3941406 C84.4202813,38.3941406 84.1404375,38.2394531 83.9252812,37.8991406 C83.862,37.8049219 83.7677812,37.7444531 83.676375,37.6502344 C83.4584062,37.4575781 83.1180937,37.3717969 82.7145,37.3717969 C82.3109063,37.3717969 82.0015312,37.4350781 81.7849687,37.5630469 C81.6302812,37.6882031 81.5360625,37.8738281 81.5360625,38.1213281 C81.5360625,38.4321094 82.0648125,38.7119531 83.0871562,38.9271094 L83.3979375,39.0199219 L83.676375,39.0522656 C84.6691875,39.3011719 85.38075,39.6091406 85.791375,39.9522656 C86.2005937,40.2939844 86.3805937,40.7875781 86.3805937,41.3782031 C86.3805937,42.2767969 86.0402812,42.9588281 85.420125,43.4228906 C84.7999687,43.8574219 83.901375,44.0739844 82.7229375,44.0739844 C81.5768437,44.0739844 80.7077812,43.8574219 80.1480938,43.3933594 C79.5602813,42.9292969 79.2804375,42.2767969 79.2804375,41.3782031 L79.2804375,41.2853906 L79.2762187,41.2755469 Z M74.811375,44.0655469 L74.811375,42.3921094 C74.9337187,42.3921094 75.0898125,42.3597656 75.2149687,42.3288281 C75.52575,42.2374219 75.8041875,41.9885156 76.0516875,41.6482031 C76.3005938,41.2755469 76.4243437,40.6863281 76.4552812,39.9114844 C76.4552812,39.1675781 76.3315312,38.6402344 76.0840313,38.2675781 C75.8660625,37.9272656 75.5890313,37.6783594 75.3091875,37.5869531 C75.1221562,37.5250781 74.9660625,37.4941406 74.8127813,37.5250781 L74.8127813,35.7560156 C75.3387187,35.7560156 75.8365313,35.8178906 76.3005938,36.0035156 C77.0445,36.2819531 77.6027813,36.8092969 77.9740312,37.5532031 C78.3143438,38.2042969 78.4704375,38.9805469 78.4704375,39.8791406 C78.4704375,40.4978906 78.4085625,41.0575781 78.2777812,41.5230469 C78.1230937,41.9871094 77.9374687,42.3583594 77.7195,42.7014844 C77.2540312,43.3525781 76.633875,43.7561719 75.8927812,43.9108594 C75.5187188,44.0360156 75.177,44.0655469 74.80575,44.0655469 L74.811375,44.0655469 Z" id="Fill-27" fill="#8DD7F7"></path>
            <path d="M48.6765,19.436625 C48.7411875,19.3395937 48.7693125,19.2819375 48.8930625,19.189125 C49.0182188,19.0963125 49.2038438,19.0330313 49.4513438,19.0330313 L50.9391563,19.0330313 C50.7211875,19.8711563 50.3175938,20.5208438 49.6988437,20.9567812 C49.0786875,21.4208438 48.3038437,21.6374063 47.3743125,21.6374063 L47.3672813,21.6388125 L47.3672813,21.6331875 L47.3363437,21.6331875 C46.1832187,21.6331875 45.29025,21.2619375 44.6700937,20.5180312 C44.019,19.8050625 43.709625,18.7813125 43.709625,17.4425625 C43.709625,16.140375 44.019,15.1489687 44.6391563,14.4345938 C45.2593125,13.6920937 46.1579063,13.3180313 47.304,13.3180313 L47.3672813,13.3180313 L47.3672813,13.3180313 C48.5443125,13.3180313 49.4429063,13.7075625 50.094,14.419125 C50.7465,15.1630312 51.0544688,16.1867812 51.0544688,17.5213125 L51.0544688,17.8306875 C51.0544688,17.9544375 51.0530625,18.007875 51.0488437,18.0486563 L47.3672813,18.0388125 L47.3672813,16.6719375 L48.8860313,16.6775625 C48.8536875,16.1502188 48.7313438,15.746625 48.4824375,15.499125 C48.2025937,15.2192813 47.8299375,15.060375 47.3644688,15.060375 L47.3644688,15.060375 C46.9313438,15.060375 46.5615,15.2150625 46.2816562,15.4935 C46.0032187,15.7733437 45.8485313,16.1755313 45.8485313,16.6733438 L47.365875,16.6733438 L47.365875,18.0374062 L45.8485313,18.0374062 C45.8485313,18.6575625 46.0032187,19.121625 46.2816562,19.4324062 C46.5319688,19.71225 46.9018125,19.897875 47.3672813,19.897875 L47.4615,19.9035 C48.2869687,19.8795938 48.6765,19.436625 48.6765,19.436625" id="Fill-29" fill="#1957A4"></path>
            <path d="M65.8549687,13.5171562 L64.77075,13.5171562 L64.7637187,13.5171562 L64.7637187,21.4849688 L66.8787188,21.4849688 L66.8787188,14.5409063 C66.8787188,14.2610625 66.7845,14.0149687 66.5693438,13.7955938 C66.3823125,13.6099687 66.1334063,13.5171562 65.8549687,13.5171562" id="Fill-31" fill="#1957A4"></path>
            <path d="M72.8559844,13.5769219 C72.3919219,13.3912969 71.8941094,13.3294219 71.3681719,13.3294219 L71.3681719,15.0984844 C71.5228594,15.0675469 71.6775469,15.0984844 71.8645781,15.1589531 C72.1444219,15.2517656 72.4214531,15.5006719 72.6408281,15.8409844 C72.8869219,16.2136406 73.0106719,16.7409844 73.0106719,17.4848906 C72.9797344,18.2597344 72.8559844,18.8503594 72.6070781,19.2216094 C72.3595781,19.5619219 72.0811406,19.8094219 71.7717656,19.9036406 C71.6466094,19.9345781 71.4905156,19.9641094 71.3667656,19.9641094 L71.3667656,19.9655156 C71.1811406,19.9655156 71.0250469,19.9345781 70.8717656,19.8727031 C70.5595781,19.7489531 70.3430156,19.6237969 70.2206719,19.4691094 C69.9408281,19.0978594 69.7566094,18.4453594 69.7242656,17.5467656 C69.6919219,16.6481719 69.8789531,15.9661406 70.2825469,15.5006719 C70.4372344,15.3459844 70.6552031,15.2531719 70.9631719,15.1589531 C71.0883281,15.0984844 71.2120781,15.0984844 71.3667656,15.0984844 L71.3667656,13.3308281 L71.3667656,13.3378594 C71.1192656,13.3378594 70.8717656,13.3378594 70.6228594,13.3702031 C69.8170781,13.4939531 69.1336406,13.8356719 68.6077031,14.4558281 C68.2983281,14.7961406 68.0494219,15.2616094 67.8947344,15.7875469 C67.7709844,16.3458281 67.6767656,16.8731719 67.6767656,17.4314531 C67.6767656,18.0811406 67.7709844,18.7336406 67.9566094,19.3200469 C68.1422344,19.9416094 68.4220781,20.4366094 68.8552031,20.7783281 C69.2573906,21.1425469 69.7847344,21.3914531 70.4681719,21.5461406 C70.7452031,21.6094219 71.0573906,21.6403594 71.3667656,21.6403594 L71.3667656,21.6389531 C71.7366094,21.6389531 72.0769219,21.6094219 72.4481719,21.4842656 C73.1892656,21.3281719 73.8108281,20.9259844 74.2762969,20.2748906 C74.4928594,19.9331719 74.6784844,19.5605156 74.8331719,19.0950469 C74.9639531,18.6295781 75.0258281,18.0727031 75.0258281,17.4525469 C75.0258281,16.5539531 74.8711406,15.7791094 74.5308281,15.1280156 C74.1581719,14.3827031 73.5998906,13.8553594 72.8559844,13.5769219" id="Fill-33" fill="#1957A4"></path>
            <path d="M62.8007344,14.0128594 C62.0582344,13.5487969 61.2510469,13.3308281 60.3538594,13.3308281 C59.4862031,13.3617656 58.7113594,13.6092656 57.9969844,14.0747344 C57.2826094,14.5402031 56.9422969,15.4373906 56.9422969,16.8028594 L56.9422969,21.4828594 L59.0502656,21.4828594 L59.0502656,16.3992656 C59.0502656,15.9028594 59.1754219,15.5625469 59.4538594,15.3445781 C59.7238594,15.1237969 60.0641719,15.0028594 60.4143281,15.0042656 C60.7869844,15.0042656 61.0977656,15.1266094 61.4071406,15.3445781 C61.6869844,15.5625469 61.8402656,15.9028594 61.8402656,16.3992656 L61.8402656,20.4942656 C61.8402656,20.7712969 61.9372969,21.0187969 62.1215156,21.2058281 C62.3057344,21.3914531 62.5546406,21.4842656 62.8654219,21.4842656 L63.9158906,21.4842656 L63.9158906,16.8028594 C63.9158906,15.4078594 63.5446406,14.4769219 62.8007344,14.0128594" id="Fill-35" fill="#1957A4"></path>
            <path d="M57.8884219,14.0128594 C57.1459219,13.5487969 56.3387344,13.3308281 55.4415469,13.3308281 C54.5738906,13.3617656 53.7976406,13.6092656 53.0846719,14.0747344 C52.3702969,14.5402031 52.0299844,15.4373906 52.0299844,16.8028594 L52.0299844,21.4828594 L54.1379531,21.4828594 L54.1379531,16.3992656 C54.1379531,15.9028594 54.2631094,15.5625469 54.5415469,15.3445781 C54.8115469,15.1237969 55.1518594,15.0028594 55.5020156,15.0042656 C55.8746719,15.0042656 56.1840469,15.1266094 56.4948281,15.3445781 C56.7746719,15.5625469 56.9279531,15.9028594 56.9279531,16.3992656 L56.9279531,20.4942656 C56.9279531,20.7712969 57.0249844,21.0187969 57.2092031,21.2058281 C57.3920156,21.3914531 57.6423281,21.4842656 57.9517031,21.4842656 L59.0035781,21.4842656 L59.0035781,16.8028594 C59.0035781,15.4078594 58.6309219,14.4769219 57.8884219,14.0128594" id="Fill-37" fill="#1957A4"></path>
            <path d="M65.8549687,11.1605625 L64.77075,11.1605625 L64.7637187,11.1605625 L64.7637187,12.8354062 L66.8787188,12.8354062 L66.8787188,12.1843125 C66.8787188,11.9044687 66.7845,11.6569688 66.5693438,11.4713437 C66.3823125,11.2547812 66.1334063,11.1605625 65.8549687,11.1605625" id="Fill-39" fill="#1957A4"></path>
            <path d="M41.5064531,13.6942031 C41.0100469,13.8179531 40.5445781,14.0359219 40.1747344,14.3452969 C39.7711406,14.6560781 39.4617656,15.0892031 39.2437969,15.6165469 C38.9962969,16.1438906 38.9020781,16.8006094 38.9020781,17.5698281 L38.9020781,21.4454531 L40.9805156,21.4454531 L40.9805156,17.3532656 C40.9805156,16.7331094 41.1337969,16.2999844 41.4150469,16.0201406 C41.6934844,15.7402969 42.1266094,15.6165469 42.7158281,15.6165469 L43.3992656,15.6165469 L43.3992656,13.4762344 L43.0884844,13.4762344 C42.5611406,13.4762344 42.0337969,13.5395156 41.5064531,13.6942031" id="Fill-41" fill="#1957A4"></path>
            <polygon id="Fill-43" fill="#1957A4" points="45.2280937 12.6464062 46.59075 12.6464062 47.4710625 11.604375 48.2993437 12.6379687 49.7674687 12.6379687 48.2290312 10.7507812 46.7229375 10.7507812"></polygon>
            <path d="M46.5931406,30.9166875 C46.6578281,30.8210625 46.6859531,30.762 46.8111094,30.6691875 C46.9348594,30.576375 47.1204844,30.5145 47.3693906,30.5145 L48.8557969,30.5145 C48.6392344,31.352625 48.2356406,32.0009062 47.6168906,32.4368438 C46.9967344,32.9009063 46.2204844,33.1174688 45.2909531,33.1174688 L45.2853281,33.118875 L45.2853281,33.11325 L45.2529844,33.11325 C44.0998594,33.11325 43.2082969,32.7434062 42.5867344,31.9980938 C41.9370469,31.2865313 41.6262656,30.261375 41.6262656,28.922625 C41.6262656,27.6204375 41.9370469,26.627625 42.5572031,25.9146563 C43.1759531,25.1721563 44.0759531,24.7980937 45.2220469,24.7980937 L45.2853281,24.7980937 L45.2839219,24.7980937 C46.4623594,24.7980937 47.3609531,25.187625 48.0106406,25.9005938 C48.6631406,26.6430938 48.9711094,27.6668438 48.9711094,29.001375 L48.9711094,29.31075 C48.9711094,29.4345 48.9697031,29.4879375 48.9654844,29.5287188 L45.2853281,29.518875 L45.2853281,28.152 L46.8026719,28.157625 C46.7717344,27.6302813 46.6479844,27.2280938 46.3990781,26.9791875 C46.1192344,26.6993438 45.7465781,26.5418438 45.2811094,26.5418438 L45.2825156,26.5404375 C44.8493906,26.5418438 44.4781406,26.6937188 44.1997031,26.9735625 C43.9212656,27.2548125 43.7651719,27.6555938 43.7651719,28.152 L45.2839219,28.152 L45.2839219,29.5174688 L43.7651719,29.5174688 C43.7651719,30.137625 43.9198594,30.6016875 44.1997031,30.9124688 C44.4486094,31.1923125 44.8198594,31.3779375 45.2853281,31.3779375 L45.3781406,31.3835625 C46.2036094,31.3596563 46.5931406,30.9166875 46.5931406,30.9166875" id="Fill-45" fill="#1957A4"></path>
        </g>
    </g>
</svg>