<?xml version="1.0" encoding="UTF-8"?>
<svg width="149px" height="60px" viewBox="0 0 149 60" version="1.1" xmlns="http://www.w3.org/2000/svg" xmlns:xlink="http://www.w3.org/1999/xlink">
    <title>premios-tap / ftawards-logo / default</title>
    <defs>
        <path d="M8.96629412,0.511858824 L0.0543411765,10.0794118 L15.5380706,14.0235294 L31.0954235,10.1530353 L22.1869765,0.438235294 L8.96629412,0.511858824 Z M16.5617882,1.16921176 L20.7986471,1.16921176 L27.0058118,8.10735294 L16.4881647,10.7367647 L16.5617882,1.16921176 Z" id="path-1"></path>
        <path d="M22.9031059,0.0718354375 C22.9031059,0.0718354375 18.2280118,-0.0368117647 1.71881176,11.8323529 L1.71881176,11.8323529 C1.71881176,11.8323529 0.186741176,12.9279412 0.915964706,13.4766118 L0.915964706,13.4766118 C0.915964706,13.4766118 1.86781176,14.2794588 3.10714118,14.4074235 L3.10714118,14.4074235 C3.10714118,14.4074235 9.35287059,10.9558824 9.53692941,10.8103882 L9.53692941,10.8103882 L23.0486,3.725 C23.0486,3.725 24.2896824,3.17632941 24.2160588,1.86337647 L24.2160588,1.86337647 C24.2160588,1.86337647 24.0723176,0.0718354375 22.9364118,0.0718354375 L22.9364118,0.0718354375 C22.9258941,0.0718354375 22.9136235,0.0718354375 22.9031059,0.0718354375" id="path-3"></path>
        <path d="M12.1058118,3.05455294 C12.1058118,3.05455294 0.767788235,7.05301176 0.601258824,8.1486 L0.601258824,8.1486 C0.601258824,8.1486 1.36904706,8.91463529 1.97205882,9.07941176 L1.97205882,9.07941176 C1.97205882,9.07941176 2.44535294,9.27749412 4.98536471,7.92948235 L4.98536471,7.92948235 C4.98536471,7.92948235 11.9971294,4.58662353 17.6941882,3.60147059 L17.6941882,3.60147059 C17.6941882,3.60147059 22.1484118,3.00371765 22.4569294,1.04918824 L22.4569294,1.04918824 C22.4569294,1.04918824 22.4323882,0.631988235 21.2421412,0.631988235 L21.2421412,0.631988235 C19.9765176,0.631988235 17.3891765,1.10352941 12.1058118,3.05455294" id="path-5"></path>
        <path d="M9.13375294,2.90287059 C5.24397647,7.66911765 0.232317647,9.28532941 0.232317647,9.28532941 L0.232317647,9.28532941 C0.232317647,9.28532941 1.46463529,9.42205882 2.50588235,9.20294118 L2.50588235,9.20294118 C11.5037294,7.30801176 14.4486706,0.273458824 14.4486706,0.273458824 L14.4486706,0.273458824 C14.1874824,0.196329412 13.9245412,0.161270588 13.6633529,0.161270588 L13.6633529,0.161270588 C11.3459647,0.161270588 9.13375294,2.90287059 9.13375294,2.90287059" id="path-7"></path>
        <path d="M15.0516824,2.48391765 C15.0516824,2.48391765 6.43071765,5.54981176 0.0780588235,8.98382353 L0.0780588235,8.98382353 C0.0780588235,8.98382353 0.553105882,11.0295059 2.41648235,13.2206824 L2.41648235,13.2206824 C2.41648235,13.2206824 8.87957647,9.12931765 27.2486471,4.09136471 L27.2486471,4.09136471 C27.2486471,4.09136471 28.5265412,1.16745882 24.6560471,0.3278 L24.6560471,0.3278 C24.6560471,0.3278 24.4404353,0.254176471 23.883,0.254176471 L23.883,0.254176471 C22.7400824,0.254176471 20.158,0.567952941 15.0516824,2.48391765" id="path-9"></path>
        <path d="M16.9824941,1.52072941 C-1.14992941,9.90154118 1.07805882,13.2426471 1.07805882,13.2426471 L1.07805882,13.2426471 L26.4028,3.16323529 C26.6780118,2.67065882 26.1836824,1.62941176 26.1836824,1.62941176 L26.1836824,1.62941176 C25.5140588,0.418129412 24.2344118,0.0184588235 22.8373176,0.0184588235 L22.8373176,0.0184588235 C20.1290235,0.0184588235 16.9824941,1.52072941 16.9824941,1.52072941" id="path-11"></path>
        <path d="M16.1042706,0.876470588 C16.1042706,0.876470588 2.62941176,3.56022353 0,6.68396471 L0,6.68396471 C0,6.68396471 0.108682353,8.76470588 1.31470588,8.76470588 L1.31470588,8.76470588 C1.31470588,8.76470588 11.3941176,5.20448235 16.9824941,4.27367059 L16.9824941,4.27367059 C16.9824941,4.27367059 23.1353176,3.21314118 25.5438588,3.59703529 L25.5438588,3.59703529 C25.5438588,3.59703529 24.8339176,0.5066 19.5821059,0.5066 L19.5821059,0.5066 C18.5916941,0.5066 17.4417647,0.615282353 16.1042706,0.876470588" id="path-13"></path>
        <path d="M0,10.1618 C2.24727059,8.40885882 5.80749412,7.14849412 5.80749412,7.14849412 L5.80749412,7.14849412 C9.36596471,1.94401176 15.5012588,0.110435294 15.5012588,0.110435294 L15.5012588,0.110435294 C4.16323529,1.47948235 0,10.1618 0,10.1618" id="path-15"></path>
        <path d="M2.66364706,0.947517647 L5.09848235,3.97835294 C5.42803529,4.43236471 5.24222353,4.70056471 4.83554118,5.00908235 L4.83554118,5.00908235 C4.83554118,5.00908235 4.41658824,5.33863529 3.48928235,5.56651765 L3.48928235,5.56651765 C2.56022353,5.79264706 2.08517647,5.57352941 2.08517647,5.57352941 L2.08517647,5.57352941 L1.01412941,4.65323529 C0.986082353,4.62694118 0.949270588,4.61992941 0.912458824,4.62694118 L0.912458824,4.62694118 L0.449682353,4.74614118 C0.414623529,4.75490588 0.386576471,4.7812 0.372552941,4.81275294 L0.372552941,4.81275294 C0.358529412,4.84605882 0.363788235,4.88287059 0.381317647,4.91267059 L0.381317647,4.91267059 L1.15787059,6.14323529 L0.793258824,6.45525882 L1.2648,6.56744706 L1.11404706,8.01537647 C1.11054118,8.05043529 1.12456471,8.08374118 1.15261176,8.10828235 L1.15261176,8.10828235 C1.17890588,8.13107059 1.21571765,8.14158824 1.24902353,8.13282353 L1.24902353,8.13282353 L1.71705882,8.03465882 C1.75387059,8.02589412 1.78191765,8.00310588 1.79769412,7.96804706 L1.79769412,7.96804706 L2.34811765,6.66561176 C2.34811765,6.66561176 2.67767059,6.25892941 3.61023529,6.05032941 L3.61023529,6.05032941 C4.54104706,5.84348235 5.06342353,5.95041176 5.06342353,5.95041176 L5.06342353,5.95041176 C5.56476471,6.04857647 5.84874118,6.20634118 5.75583529,6.75851765 L5.75583529,6.75851765 L4.91968235,10.5571412 C5.57352941,10.8078118 5.81894118,10.2293412 5.81894118,10.2293412 L5.81894118,10.2293412 L6.26594118,9.17231765 L7.08631765,8.99877647 C7.18448235,8.97774118 7.24758824,8.87957647 7.22830588,8.78316471 L7.22830588,8.78316471 L7.1652,8.49918824 C7.14591765,8.40277647 7.04950588,8.33967059 6.95134118,8.36070588 L6.95134118,8.36070588 L6.57445882,8.44134118 L6.96536471,7.49475294 L7.66128235,7.34750588 C7.75944706,7.32647059 7.8208,7.23005882 7.79976471,7.13364706 L7.79976471,7.13364706 L7.74016471,6.85142353 C7.71912941,6.75325882 7.62271765,6.69015294 7.52805882,6.70943529 L7.52805882,6.70943529 L7.27563529,6.76552941 L7.8804,5.47711765 L9.37741176,5.05816471 C9.89452941,4.92669412 10.6658235,4.60590588 10.5711647,4.16942353 L10.5711647,4.16942353 C10.5711647,4.16942353 10.5694118,3.59971765 9.09869412,3.89596471 L9.09869412,3.89596471 L7.57188235,4.1852 L6.45525882,3.29996471 L6.70592941,3.23510588 C6.80409412,3.21056471 6.86194118,3.1124 6.83564706,3.01598824 L6.83564706,3.01598824 L6.76552941,2.73551765 C6.73923529,2.63910588 6.64282353,2.58125882 6.54465882,2.6058 L6.54465882,2.6058 L5.85575294,2.78284706 L5.08445882,2.10621176 L5.45958824,2.01155294 C5.556,1.98701176 5.61384706,1.88884706 5.58755294,1.79243529 L5.58755294,1.79243529 L5.51743529,1.51196471 C5.49289412,1.41555294 5.39472941,1.35770588 5.29831765,1.38224706 L5.29831765,1.38224706 L4.4832,1.58909412 L3.61374118,0.842341176 C3.61374118,0.842341176 3.43494118,0.686329412 3.18602353,0.686329412 L3.18602353,0.686329412 C3.03001176,0.686329412 2.84770588,0.747682353 2.66364706,0.947517647" id="path-17"></path>
        <linearGradient x1="100%" y1="69.6551751%" x2="0%" y2="69.6551751%" id="linearGradient-19">
            <stop stop-color="#26A1D3" offset="0%"></stop>
            <stop stop-color="#0067AC" offset="100%"></stop>
        </linearGradient>
        <linearGradient x1="0.00396399974%" y1="50.000789%" x2="100.002894%" y2="50.000789%" id="linearGradient-20">
            <stop stop-color="#26A1D3" offset="0%"></stop>
            <stop stop-color="#0067AC" offset="100%"></stop>
        </linearGradient>
        <linearGradient x1="0.00154130703%" y1="49.9987816%" x2="99.9938348%" y2="49.9987816%" id="linearGradient-21">
            <stop stop-color="#26A1D3" offset="0%"></stop>
            <stop stop-color="#0067AC" offset="100%"></stop>
        </linearGradient>
        <linearGradient x1="50%" y1="0%" x2="50%" y2="100%" id="linearGradient-22">
            <stop stop-color="#26A1D3" offset="0%"></stop>
            <stop stop-color="#0067AC" offset="100%"></stop>
        </linearGradient>
        <linearGradient x1="-0.00276185784%" y1="49.9992749%" x2="100.001378%" y2="49.9992749%" id="linearGradient-23">
            <stop stop-color="#26A1D3" offset="0%"></stop>
            <stop stop-color="#0067AC" offset="100%"></stop>
        </linearGradient>
        <linearGradient x1="0%" y1="49.9990023%" x2="100.002929%" y2="49.9990023%" id="linearGradient-24">
            <stop stop-color="#0067AC" offset="0%"></stop>
            <stop stop-color="#26A1D3" offset="100%"></stop>
        </linearGradient>
        <linearGradient x1="0%" y1="49.9945501%" x2="100.008481%" y2="49.9945501%" id="linearGradient-25">
            <stop stop-color="#26A1D3" offset="0%"></stop>
            <stop stop-color="#0067AC" offset="100%"></stop>
        </linearGradient>
        <linearGradient x1="-0.00266853534%" y1="49.9979005%" x2="99.9975714%" y2="49.9979005%" id="linearGradient-26">
            <stop stop-color="#0067AC" offset="0%"></stop>
            <stop stop-color="#26A1D3" offset="100%"></stop>
        </linearGradient>
        <linearGradient x1="0.00344321467%" y1="49.9986524%" x2="99.9920867%" y2="49.9986524%" id="linearGradient-27">
            <stop stop-color="#26A1D3" offset="0%"></stop>
            <stop stop-color="#0067AC" offset="100%"></stop>
        </linearGradient>
    </defs>
    <g id="premios-tap-/-ftawards-logo-/-default" stroke="none" stroke-width="1" fill="none" fill-rule="evenodd">
        <g id="Group-30" transform="translate(0.000000, 4.000000)">
            <path d="M48.3273612,14.1838012 L52.1487729,14.0681071 L52.4169729,12.7674247 L48.5727729,12.6902953 L48.9216082,10.55346 C48.9724435,10.2466953 49.2388906,10.0223188 49.5474082,10.0240718 L53.4477024,10.0451071 L53.6527965,8.80928353 L49.3703612,8.67606 C48.4009847,8.64801294 47.5613259,9.34393059 47.4140788,10.3027894 L46.2150671,18.0472835 L47.6945494,18.0472835 L48.3273612,14.1838012 Z M60.3542906,13.23546 C60.3542906,13.23546 60.8871847,12.2205071 62.3771847,12.4378718 C62.3771847,12.4378718 63.5025729,12.6710129 62.8855376,13.6193541 C62.8855376,13.6193541 62.4595729,14.5273776 60.2999494,14.3766247 L59.9423494,14.3555894 C60.0299965,14.0067541 60.1579612,13.6088365 60.3542906,13.23546 L60.3542906,13.23546 Z M58.4365729,16.8552835 C58.4365729,16.8552835 58.7380788,18.0770835 60.1754906,18.1577188 C62.3736788,18.2821776 63.6270318,17.8404365 63.6270318,17.8404365 L63.7637612,16.7606247 C61.1396082,17.4705659 60.1965259,16.8728129 60.1965259,16.8728129 C60.1965259,16.8728129 59.6636318,16.6238953 59.7775729,15.3740482 C60.1123847,15.4494247 60.6084671,15.5248012 61.3026318,15.5318129 C62.7330318,15.5440835 63.7479847,15.0953306 64.1634318,14.3626012 C65.7568553,11.5438718 62.8995612,11.1319306 62.8995612,11.1319306 C61.8407847,10.8760012 60.3823376,11.0092247 59.5426788,11.8874482 C59.5426788,11.8874482 57.8002553,13.6719424 58.4365729,16.8552835 L58.4365729,16.8552835 Z M54.3890318,18.00346 L55.1340318,13.4423071 C55.1340318,13.4423071 56.1261965,12.3572365 58.1894082,12.7130835 L58.4681259,11.2861894 C58.4681259,11.2861894 56.82562,10.8356835 55.33562,12.1240953 L55.1953847,11.23886 C55.1953847,11.23886 53.9630671,11.2160718 53.9858553,11.23886 L52.8990318,18.00346 L54.3890318,18.00346 Z M111.256196,28.7560012 L110.928396,26.67526 C110.928396,26.67526 108.025526,26.6209188 108.079867,26.67526 L105.524079,42.5972247 L109.029961,42.5972247 L110.782902,31.86046 C110.782902,31.86046 113.119573,29.3046718 117.97522,30.1443306 L118.632573,26.7839424 C118.632573,26.7839424 114.762079,25.7251659 111.256196,28.7560012 L111.256196,28.7560012 Z M73.4592788,18.0262482 C73.4592788,18.0262482 75.1035376,18.3698247 76.5935376,17.0814129 L76.73202,17.9666482 C76.73202,17.9666482 77.9660906,17.9894365 77.9433024,17.9666482 L79.0283729,11.2020482 L77.5383729,11.2020482 L76.7074788,16.1085306 C76.7074788,16.1085306 76.2131494,16.5011894 75.5733259,16.7062835 C74.7582082,16.9674718 73.7835729,16.7606247 73.84142,16.1698835 L73.9641259,15.1181188 L74.64602,11.1389424 L73.0981729,11.1389424 L72.3566788,16.0454247 C72.0464082,17.6335894 73.4592788,18.0262482 73.4592788,18.0262482 L73.4592788,18.0262482 Z M85.9489847,26.67526 C85.9489847,26.67526 85.8753612,28.5736953 84.4151612,31.1312365 L80.4710435,38.4339894 L79.0827141,31.4222247 C79.0827141,31.4222247 80.7637847,29.1591776 80.1064318,26.7839424 L76.9651612,26.7839424 C76.9651612,26.7839424 76.8196671,28.8664365 75.7959494,30.5089424 L71.5959024,38.6899188 L69.4415376,26.7103188 C69.4415376,26.7103188 65.82522,26.67526 65.7901612,26.67526 L69.0769259,42.7444718 L73.0946671,42.7444718 L76.67242,35.8045776 L78.0607494,42.6708482 L81.7857494,42.6708482 L88.3592788,30.9121188 C88.3592788,30.9121188 89.6003612,28.7209424 89.0902553,26.67526 L85.9489847,26.67526 Z M66.8419259,15.2268012 C66.8419259,15.2268012 66.9506082,13.9383894 67.4624671,12.9620012 C67.4624671,12.9620012 67.8954435,12.1556482 69.3854435,12.37126 L70.20582,12.5430482 L69.5747612,16.7062835 C69.5747612,16.7062835 67.8638906,17.4284953 67.1714788,16.7588718 C67.1714788,16.7588718 66.7174671,16.4976835 66.8419259,15.2268012 L66.8419259,15.2268012 Z M69.4082318,17.6966953 L68.7473729,21.5812129 L70.2811965,21.6355541 L71.81502,11.5280953 C71.81502,11.5280953 67.6517847,10.5972835 66.6385847,11.7980482 C66.6385847,11.7980482 64.7944906,13.6719424 65.4290553,16.8552835 C65.4290553,16.8552835 65.8006788,19.3041424 69.4082318,17.6966953 L69.4082318,17.6966953 Z M81.3895847,13.23546 C81.3895847,13.23546 81.9224788,12.2205071 83.4124788,12.4378718 C83.4124788,12.4378718 84.5378671,12.6710129 83.9208318,13.6193541 C83.9208318,13.6193541 83.4948671,14.5273776 81.3352435,14.3766247 L80.9776435,14.3555894 C81.0652906,14.0067541 81.1932553,13.6088365 81.3895847,13.23546 L81.3895847,13.23546 Z M81.2107847,18.1577188 C83.4089729,18.2821776 84.6623259,17.8404365 84.6623259,17.8404365 L84.7990553,16.7606247 C82.1749024,17.4705659 81.23182,16.8728129 81.23182,16.8728129 C81.23182,16.8728129 80.6989259,16.6238953 80.8128671,15.3740482 C81.1476788,15.4494247 81.6437612,15.5248012 82.3379259,15.5318129 C83.7683259,15.5440835 84.7832788,15.0953306 85.1987259,14.3626012 C86.7921494,11.5438718 83.9331024,11.1319306 83.9331024,11.1319306 C82.8760788,10.8760012 81.4176318,11.0092247 80.5779729,11.8874482 C80.5779729,11.8874482 78.8355494,13.6719424 79.4718671,16.8552835 C79.4718671,16.8552835 79.7733729,18.0770835 81.2107847,18.1577188 L81.2107847,18.1577188 Z M99.2783494,29.3397306 L101.213596,29.7429071 L99.8988906,38.4339894 C99.8988906,38.4339894 96.7944318,40.5883541 94.2754553,39.63826 C94.2754553,39.63826 92.9958082,39.0545306 93.2885494,36.0605071 C93.2885494,36.0605071 93.5444788,33.0296718 94.7487494,30.72806 C94.7487494,30.72806 95.7724671,28.8296247 99.2783494,29.3397306 L99.2783494,29.3397306 Z M92.8152553,27.9899659 C92.8152553,27.9899659 88.4679612,32.4003659 89.9667259,39.8959424 C89.9667259,39.8959424 91.3533024,45.8121188 99.5342788,41.2106482 L100.191632,42.8163424 L102.601926,42.8163424 L104.793102,28.3545776 C104.793102,28.3545776 97.6446082,23.9915071 92.8152553,27.9899659 L92.8152553,27.9899659 Z M54.3592318,34.1988835 L58.7783965,25.3237424 L60.2017847,34.1988835 L54.3592318,34.1988835 Z M57.6091847,20.4663424 L46.2150671,42.6708482 C46.2150671,42.7059071 50.3064318,42.6708482 50.3064318,42.6708482 L52.8972788,37.3752129 L60.6768318,37.3752129 L61.6619847,42.7444718 L65.3151141,42.7444718 L61.4078082,20.4663424 L57.6091847,20.4663424 Z M91.2481259,13.0356247 L91.12542,14.0873894 L90.4435259,18.0683188 L91.9913729,18.0683188 L92.73462,13.1600835 C93.0431376,11.5719188 91.6302671,11.17926 91.6302671,11.17926 C91.6302671,11.17926 89.9877612,10.8356835 88.4977612,12.1240953 L88.3575259,11.23886 C88.3575259,11.23886 87.1252082,11.2160718 87.1479965,11.23886 L86.0611729,18.00346 L87.5511729,18.00346 L88.38382,13.0969776 C88.38382,13.0969776 88.8763965,12.7043188 89.51622,12.4992247 C90.3313376,12.2380365 91.3059729,12.4448835 91.2481259,13.0356247 L91.2481259,13.0356247 Z M109.010679,10.0223188 L109.229796,8.62522471 L102.354761,8.62522471 L102.109349,10.07666 L104.710714,10.07666 L103.478396,18.0472835 L104.957879,18.0472835 L106.272585,10.0223188 L109.010679,10.0223188 Z M141.001855,29.5237894 L148.287079,29.6359776 L148.670973,27.1678365 C146.988149,26.3492129 140.47422,26.4614012 140.47422,26.4614012 C137.546808,26.5017188 136.558149,28.0706012 136.558149,28.0706012 C135.423996,29.6570129 135.341608,32.6685659 135.341608,32.6685659 C135.052373,36.5040012 138.721279,36.2971541 138.721279,36.2971541 L143.177255,36.2971541 C144.507738,36.2568365 144.351726,37.2472482 144.351726,37.2472482 C144.351726,37.2472482 144.346467,37.7030129 144.188702,38.6496012 C143.939785,40.1133071 142.426996,39.9870953 142.426996,39.9870953 L134.866561,39.9310012 L134.482667,42.2326129 C137.495973,42.9986482 140.928232,43.0705188 140.928232,43.0705188 C144.972267,43.1792012 146.095902,42.2326129 146.095902,42.2326129 C148.01362,40.9722482 147.848844,36.3707776 147.848844,36.3707776 C147.904938,33.3031306 145.000314,33.2487894 145.000314,33.2487894 L140.290161,33.1944482 C138.826455,33.2452835 138.86502,32.42666 138.86502,32.42666 L139.140232,30.40026 C139.320785,29.3695306 141.001855,29.5237894 141.001855,29.5237894 L141.001855,29.5237894 Z M138.524949,13.23546 C138.524949,13.23546 139.057844,12.2205071 140.546091,12.4378718 C140.546091,12.4378718 141.673232,12.6710129 141.054444,13.6193541 C141.054444,13.6193541 140.628479,14.5273776 138.470608,14.3766247 L138.113008,14.3555894 C138.200655,14.0067541 138.32862,13.6088365 138.524949,13.23546 L138.524949,13.23546 Z M138.346149,18.1577188 C140.542585,18.2821776 141.795938,17.8404365 141.795938,17.8404365 L141.932667,16.7606247 C139.308514,17.4705659 138.365432,16.8728129 138.365432,16.8728129 C138.365432,16.8728129 137.834291,16.6238953 137.948232,15.3740482 C138.281291,15.4494247 138.779126,15.5248012 139.473291,15.5318129 C140.903691,15.5440835 141.918644,15.0953306 142.334091,14.3626012 C143.927514,11.5438718 141.068467,11.1319306 141.068467,11.1319306 C140.011444,10.8760012 138.552996,11.0092247 137.713338,11.8874482 C137.713338,11.8874482 135.970914,13.6719424 136.605479,16.8552835 C136.605479,16.8552835 136.908738,18.0770835 138.346149,18.1577188 L138.346149,18.1577188 Z M136.000714,18.1086365 L136.207561,17.0568718 L135.402961,16.8920953 C134.598361,16.7273188 134.885844,15.7193776 134.885844,15.7193776 L136.053302,7.97663647 L134.556291,7.97663647 L133.443173,15.0567659 C133.174973,16.5625424 133.360785,17.0779071 133.360785,17.0779071 C133.567632,18.5012953 136.000714,18.1086365 136.000714,18.1086365 L136.000714,18.1086365 Z M128.445538,13.23546 C128.445538,13.23546 128.978432,12.2205071 130.466679,12.4378718 C130.466679,12.4378718 131.59382,12.6710129 130.975032,13.6193541 C130.975032,13.6193541 130.549067,14.5273776 128.391196,14.3766247 L128.033596,14.3555894 C128.121244,14.0067541 128.249208,13.6088365 128.445538,13.23546 L128.445538,13.23546 Z M128.266738,18.1577188 C130.463173,18.2821776 131.716526,17.8404365 131.716526,17.8404365 L131.853255,16.7606247 C129.229102,17.4705659 128.28602,16.8728129 128.28602,16.8728129 C128.28602,16.8728129 127.754879,16.6238953 127.86882,15.3740482 C128.201879,15.4494247 128.699714,15.5248012 129.393879,15.5318129 C130.824279,15.5440835 131.839232,15.0953306 132.254679,14.3626012 C133.848102,11.5438718 130.989055,11.1319306 130.989055,11.1319306 C129.932032,10.8760012 128.473585,11.0092247 127.633926,11.8874482 C127.633926,11.8874482 125.891502,13.6719424 126.526067,16.8552835 C126.526067,16.8552835 126.829326,18.0770835 128.266738,18.1577188 L128.266738,18.1577188 Z M145.266761,13.4423071 C145.266761,13.4423071 146.258926,12.3572365 148.322138,12.7130835 L148.600855,11.2861894 C148.600855,11.2861894 146.958349,10.8356835 145.468349,12.1240953 L145.328114,11.23886 C145.328114,11.23886 144.095796,11.2160718 144.118585,11.23886 L143.031761,18.00346 L144.521761,18.00346 L145.266761,13.4423071 Z M94.1843024,15.0567659 C93.9161024,16.5625424 94.1019141,17.0779071 94.1019141,17.0779071 C94.3070082,18.5012953 96.7418435,18.1086365 96.7418435,18.1086365 L96.9469376,17.0568718 L96.1440906,16.8920953 C95.3394906,16.7273188 95.62522,15.7193776 95.62522,15.7193776 L96.1475965,12.4168365 L97.8269141,12.4168365 L98.0337612,11.2213306 L96.3386671,11.2213306 L96.6489376,9.25453059 L95.3342318,9.25453059 L94.9450788,11.2213306 L94.7960788,11.2213306 L93.5374671,11.5508835 L93.3937259,12.4168365 L94.7084318,12.4168365 L94.1843024,15.0567659 Z M108.402408,11.23886 L107.315585,18.00346 L108.805585,18.00346 L109.550585,13.4423071 C109.550585,13.4423071 110.542749,12.3572365 112.605961,12.7130835 L112.884679,11.2861894 C112.884679,11.2861894 111.242173,10.8356835 109.752173,12.1240953 L109.611938,11.23886 C109.611938,11.23886 108.37962,11.2160718 108.402408,11.23886 L108.402408,11.23886 Z M128.438526,38.4339894 C128.438526,38.4339894 125.33582,40.5883541 122.815091,39.63826 C122.815091,39.63826 121.537196,39.0545306 121.829938,36.0605071 C121.829938,36.0605071 122.084114,33.0296718 123.290138,30.72806 C123.290138,30.72806 124.313855,28.8296247 127.819738,29.3397306 L129.753232,29.7429071 L128.438526,38.4339894 Z M131.634138,19.0604835 L130.333455,27.0153306 C127.816232,26.1756718 124.185891,25.6445306 121.354891,27.9899659 C121.354891,27.9899659 117.009349,32.4003659 118.506361,39.8959424 C118.506361,39.8959424 119.892938,45.8121188 128.073914,41.2106482 L128.731267,42.8163424 L131.141561,42.8163424 L134.81222,19.1709188 L131.634138,19.0604835 Z M114.902314,12.9620012 C114.902314,12.9620012 115.335291,12.1556482 116.823538,12.37126 L117.645667,12.5430482 L117.088232,16.2347424 C117.088232,16.2347424 115.77002,17.1497776 114.698973,16.7466012 C114.698973,16.7466012 114.157314,16.4976835 114.28002,15.2268012 C114.28002,15.2268012 114.390455,13.9383894 114.902314,12.9620012 L114.902314,12.9620012 Z M112.867149,16.8552835 C112.867149,16.8552835 113.457891,19.3690012 116.933973,17.4144718 L117.212691,18.0963659 L118.236408,18.0963659 L119.16722,11.95406 C119.16722,11.95406 116.131126,10.0994482 114.078432,11.7980482 C114.078432,11.7980482 112.232585,13.6719424 112.867149,16.8552835 L112.867149,16.8552835 Z M123.144644,18.1296718 L124.674961,15.1654482 L125.703938,13.2933071 C125.703938,13.2933071 126.422644,12.3239306 126.142173,11.3107306 L124.79942,11.3107306 C124.79942,11.3107306 124.736314,12.1994718 124.299832,12.9024012 L122.50482,16.3977659 L121.584526,11.2791776 C121.584526,11.2791776 120.040185,11.2634012 120.022655,11.2634012 L121.428514,18.1296718 L123.144644,18.1296718 Z" id="Fill-1" fill="#2E3B4F"></path>
            <g id="Group-5" transform="translate(1.752941, 35.878201)">
                <mask id="mask-2" fill="white">
                    <use xlink:href="#path-1"></use>
                </mask>
                <g id="Clip-4"></g>
            </g>
            <g id="Group-8" transform="translate(4.505882, 20.101731)">
                <mask id="mask-4" fill="white">
                    <use xlink:href="#path-3"></use>
                </mask>
                <g id="Clip-7"></g>
            </g>
            <g id="Group-11" transform="translate(7.011765, 26.360554)">
                <mask id="mask-6" fill="white">
                    <use xlink:href="#path-5"></use>
                </mask>
                <g id="Clip-10"></g>
            </g>
            <g id="Group-14" transform="translate(15.023529, 27.113495)">
                <mask id="mask-8" fill="white">
                    <use xlink:href="#path-7"></use>
                </mask>
                <g id="Clip-13"></g>
            </g>
            <g id="Group-17" transform="translate(1.000000, 16.595848)">
                <mask id="mask-10" fill="white">
                    <use xlink:href="#path-9"></use>
                </mask>
                <g id="Clip-16"></g>
            </g>
            <g id="Group-20" transform="translate(0.000000, 12.337025)">
                <mask id="mask-12" fill="white">
                    <use xlink:href="#path-11"></use>
                </mask>
                <g id="Clip-19"></g>
            </g>
            <g id="Group-23" transform="translate(0.000000, 9.584084)">
                <mask id="mask-14" fill="white">
                    <use xlink:href="#path-13"></use>
                </mask>
                <g id="Clip-22"></g>
            </g>
            <g id="Group-26" transform="translate(0.000000, 6.078201)">
                <mask id="mask-16" fill="white">
                    <use xlink:href="#path-15"></use>
                </mask>
                <g id="Clip-25"></g>
            </g>
            <g id="Group-29" transform="translate(15.023529, 0.066436)">
                <mask id="mask-18" fill="white">
                    <use xlink:href="#path-17"></use>
                </mask>
                <g id="Clip-28"></g>
            </g>
            <path d="M10.7192353,36.39006 L1.80728235,45.9576129 L17.2910118,49.9017306 L32.8483647,46.0312365 L23.9399176,36.3164365 L10.7192353,36.39006 Z M18.3147294,37.0474129 L22.5515882,37.0474129 L28.7587529,43.9855541 L18.2411059,46.6149659 L18.3147294,37.0474129 Z" id="Fill-3" fill="url(#linearGradient-19)"></path>
            <path d="M27.4089882,20.173566 C27.4089882,20.173566 22.7338941,20.0649188 6.22469412,31.9340835 L6.22469412,31.9340835 C6.22469412,31.9340835 4.69262353,33.0296718 5.42184706,33.5783424 L5.42184706,33.5783424 C5.42184706,33.5783424 6.37369412,34.3811894 7.61302353,34.5091541 L7.61302353,34.5091541 C7.61302353,34.5091541 13.8587529,31.0576129 14.0428118,30.9121188 L14.0428118,30.9121188 L27.5544824,23.8267306 C27.5544824,23.8267306 28.7955647,23.27806 28.7219412,21.9651071 L28.7219412,21.9651071 C28.7219412,21.9651071 28.5782,20.173566 27.4422941,20.173566 L27.4422941,20.173566 C27.4317765,20.173566 27.4195059,20.173566 27.4089882,20.173566" id="Fill-6" fill="url(#linearGradient-20)"></path>
            <path d="M24.1572824,30.0163659 C20.2675059,34.7826129 15.2558471,36.3988247 15.2558471,36.3988247 L15.2558471,36.3988247 C15.2558471,36.3988247 16.4881647,36.5355541 17.5294118,36.3164365 L17.5294118,36.3164365 C26.5272588,34.4215071 29.4722,27.3869541 29.4722,27.3869541 L29.4722,27.3869541 C29.2110118,27.3098247 28.9480706,27.2747659 28.6868824,27.2747659 L28.6868824,27.2747659 C26.3694941,27.2747659 24.1572824,30.0163659 24.1572824,30.0163659" id="Fill-12" fill="url(#linearGradient-21)"></path>
            <path d="M19.1175765,29.4151071 C19.1175765,29.4151071 7.77955294,33.4135659 7.61302353,34.5091541 L7.61302353,34.5091541 C7.61302353,34.5091541 8.38081176,35.2751894 8.98382353,35.4399659 L8.98382353,35.4399659 C8.98382353,35.4399659 9.45711765,35.6380482 11.9971294,34.2900365 L11.9971294,34.2900365 C11.9971294,34.2900365 19.0088941,30.9471776 24.7059529,29.9620247 L24.7059529,29.9620247 C24.7059529,29.9620247 29.1601765,29.3642718 29.4686941,27.4097424 L29.4686941,27.4097424 C29.4686941,27.4097424 29.4441529,26.9925424 28.2539059,26.9925424 L28.2539059,26.9925424 C26.9882824,26.9925424 24.4009412,27.4640835 19.1175765,29.4151071" id="Fill-9" fill="url(#linearGradient-22)"></path>
            <path d="M16.9824941,13.8577541 C-1.14992941,22.2385659 1.07805882,25.5796718 1.07805882,25.5796718 L1.07805882,25.5796718 L26.4028,15.50026 C26.6780118,15.0076835 26.1836824,13.9664365 26.1836824,13.9664365 L26.1836824,13.9664365 C25.5140588,12.7551541 24.2344118,12.3554835 22.8373176,12.3554835 L22.8373176,12.3554835 C20.1290235,12.3554835 16.9824941,13.8577541 16.9824941,13.8577541" id="Fill-18" fill="url(#linearGradient-23)"></path>
            <path d="M16.1042706,10.4605541 C16.1042706,10.4605541 2.62941176,13.1443071 0,16.2680482 L0,16.2680482 C0,16.2680482 0.108682353,18.3487894 1.31470588,18.3487894 L1.31470588,18.3487894 C1.31470588,18.3487894 11.3941176,14.7885659 16.9824941,13.8577541 L16.9824941,13.8577541 C16.9824941,13.8577541 23.1353176,12.7972247 25.5438588,13.1811188 L25.5438588,13.1811188 C25.5438588,13.1811188 24.8339176,10.0906835 19.5821059,10.0906835 L19.5821059,10.0906835 C18.5916941,10.0906835 17.4417647,10.1993659 16.1042706,10.4605541" id="Fill-21" fill="url(#linearGradient-24)"></path>
            <path d="M0,16.2400012 C2.24727059,14.48706 5.80749412,13.2266953 5.80749412,13.2266953 L5.80749412,13.2266953 C9.36596471,8.02221294 15.5012588,6.18863647 15.5012588,6.18863647 L15.5012588,6.18863647 C4.16323529,7.55768353 0,16.2400012 0,16.2400012" id="Fill-24" fill="url(#linearGradient-25)"></path>
            <path d="M16.0516824,19.0797659 C16.0516824,19.0797659 7.43071765,22.14566 1.07805882,25.5796718 L1.07805882,25.5796718 C1.07805882,25.5796718 1.55310588,27.6253541 3.41648235,29.8165306 L3.41648235,29.8165306 C3.41648235,29.8165306 9.87957647,25.7251659 28.2486471,20.6872129 L28.2486471,20.6872129 C28.2486471,20.6872129 29.5265412,17.7633071 25.6560471,16.9236482 L25.6560471,16.9236482 C25.6560471,16.9236482 25.4404353,16.8500247 24.883,16.8500247 L24.883,16.8500247 C23.7400824,16.8500247 21.158,17.1638012 16.0516824,19.0797659" id="Fill-15" fill="url(#linearGradient-26)"></path>
            <path d="M17.6871765,1.01395412 L20.1220118,4.04478941 C20.4515647,4.49880118 20.2657529,4.76700118 19.8590706,5.07551882 L19.8590706,5.07551882 C19.8590706,5.07551882 19.4401176,5.40507176 18.5128118,5.63295412 L18.5128118,5.63295412 C17.5837529,5.85908353 17.1087059,5.63996588 17.1087059,5.63996588 L17.1087059,5.63996588 L16.0376588,4.71967176 C16.0096118,4.69337765 15.9728,4.68636588 15.9359882,4.69337765 L15.9359882,4.69337765 L15.4732118,4.81257765 C15.4381529,4.82134235 15.4101059,4.84763647 15.3960824,4.87918941 L15.3960824,4.87918941 C15.3820588,4.91249529 15.3873176,4.94930706 15.4048471,4.97910706 L15.4048471,4.97910706 L16.1814,6.20967176 L15.8167882,6.52169529 L16.2883294,6.63388353 L16.1375765,8.08181294 C16.1340706,8.11687176 16.1480941,8.15017765 16.1761412,8.17471882 L16.1761412,8.17471882 C16.2024353,8.19750706 16.2392471,8.20802471 16.2725529,8.19926 L16.2725529,8.19926 L16.7405882,8.10109529 C16.7774,8.09233059 16.8054471,8.06954235 16.8212235,8.03448353 L16.8212235,8.03448353 L17.3716471,6.73204824 C17.3716471,6.73204824 17.7012,6.32536588 18.6337647,6.11676588 L18.6337647,6.11676588 C19.5645765,5.90991882 20.0869529,6.01684824 20.0869529,6.01684824 L20.0869529,6.01684824 C20.5882941,6.11501294 20.8722706,6.27277765 20.7793647,6.82495412 L20.7793647,6.82495412 L19.9432118,10.6235776 C20.5970588,10.8742482 20.8424706,10.2957776 20.8424706,10.2957776 L20.8424706,10.2957776 L21.2894706,9.23875412 L22.1098471,9.06521294 C22.2080118,9.04417765 22.2711176,8.94601294 22.2518353,8.84960118 L22.2518353,8.84960118 L22.1887294,8.56562471 C22.1694471,8.46921294 22.0730353,8.40610706 21.9748706,8.42714235 L21.9748706,8.42714235 L21.5979882,8.50777765 L21.9888941,7.56118941 L22.6848118,7.41394235 C22.7829765,7.39290706 22.8443294,7.29649529 22.8232941,7.20008353 L22.8232941,7.20008353 L22.7636941,6.91786 C22.7426588,6.81969529 22.6462471,6.75658941 22.5515882,6.77587176 L22.5515882,6.77587176 L22.2991647,6.83196588 L22.9039294,5.54355412 L24.4009412,5.12460118 C24.9180588,4.99313059 25.6893529,4.67234235 25.5946941,4.23586 L25.5946941,4.23586 C25.5946941,4.23586 25.5929412,3.66615412 24.1222235,3.96240118 L24.1222235,3.96240118 L22.5954118,4.25163647 L21.4787882,3.36640118 L21.7294588,3.30154235 C21.8276235,3.27700118 21.8854706,3.17883647 21.8591765,3.08242471 L21.8591765,3.08242471 L21.7890588,2.80195412 C21.7627647,2.70554235 21.6663529,2.64769529 21.5681882,2.67223647 L21.5681882,2.67223647 L20.8792824,2.84928353 L20.1079882,2.17264824 L20.4831176,2.07798941 C20.5795294,2.05344824 20.6373765,1.95528353 20.6110824,1.85887176 L20.6110824,1.85887176 L20.5409647,1.57840118 C20.5164235,1.48198941 20.4182588,1.42414235 20.3218471,1.44868353 L20.3218471,1.44868353 L19.5067294,1.65553059 L18.6372706,0.908777647 C18.6372706,0.908777647 18.4584706,0.752765882 18.2095529,0.752765882 L18.2095529,0.752765882 C18.0535412,0.752765882 17.8712353,0.814118824 17.6871765,1.01395412" id="Fill-27" fill="url(#linearGradient-27)"></path>
        </g>
    </g>
</svg>