<?xml version="1.0" encoding="UTF-8"?>
<svg width="60px" height="60px" viewBox="0 0 60 60" version="1.1" xmlns="http://www.w3.org/2000/svg" xmlns:xlink="http://www.w3.org/1999/xlink">
    <title>premios-tap / 10best2020-best-economy-class-europe / default</title>
    <defs>
        <polygon id="path-1" points="0 0 59.9997857 0 59.9997857 60 0 60"></polygon>
        <polygon id="path-3" points="0 60 60 60 60 0 0 0"></polygon>
    </defs>
    <g id="premios-tap-/-10best2020-best-economy-class-europe-/-default" stroke="none" stroke-width="1" fill="none" fill-rule="evenodd">
        <g id="Group-74">
            <g id="Group-3">
                <mask id="mask-2" fill="white">
                    <use xlink:href="#path-1"></use>
                </mask>
                <g id="Clip-2"></g>
                <path d="M59.9997857,30 C59.9997857,46.5685714 46.5683571,60 29.9997857,60 C13.4312143,60 -0.000214285714,46.5685714 -0.000214285714,30 C-0.000214285714,13.4314286 13.4312143,0 29.9997857,0 C46.5683571,0 59.9997857,13.4314286 59.9997857,30" id="Fill-1" fill="#E0AA69" mask="url(#mask-2)"></path>
            </g>
            <path d="M51.5711786,29.9079643 C51.5711786,44.1033214 40.0640357,55.6093929 25.8686786,55.6093929 C11.6743929,55.6093929 0.16725,44.1033214 0.16725,29.9079643 C0.16725,15.7126071 11.6743929,4.20546429 25.8686786,4.20546429 C40.0640357,4.20546429 51.5711786,15.7126071 51.5711786,29.9079643" id="Fill-4" fill="#329BFF"></path>
            <path d="M51.645,29.8676786 C51.645,41.7316071 42.0267857,51.3498214 30.1628571,51.3498214 C18.2989286,51.3498214 8.68071429,41.7316071 8.68071429,29.8676786 C8.68071429,18.00375 18.2989286,8.38553571 30.1628571,8.38553571 C42.0267857,8.38553571 51.645,18.00375 51.645,29.8676786" id="Fill-6" fill="#000000"></path>
            <polygon id="Fill-8" fill="#E0AA69" points="24.4088571 25.4605714 24.3992143 25.4605714 23.7970714 25.7466429 23.6738571 25.1916429 24.5138571 24.8005714 25.1245714 24.8005714 25.1245714 27.9677143 24.4088571 27.9677143"></polygon>
            <path d="M26.4711429,26.3881071 C26.469,27.1166786 26.6457857,27.4616786 26.9286429,27.4616786 C27.2168571,27.4616786 27.3754286,27.1006071 27.3754286,26.3806071 C27.3754286,25.67775 27.2222143,25.3091786 26.9265,25.3091786 C26.6543571,25.3091786 26.4700714,25.6509643 26.4711429,26.3881071 M28.1168571,26.3709643 C28.1168571,27.3470357 27.7204286,28.0209643 26.9136429,28.0209643 C26.094,28.0209643 25.7329286,27.2870357 25.7297143,26.3913214 C25.7297143,25.4709643 26.1154286,24.7466786 26.9350714,24.7466786 C27.7815,24.7466786 28.1168571,25.5031071 28.1168571,26.3709643" id="Fill-10" fill="#E0AA69"></path>
            <path d="M29.3306786,27.4391786 C29.4013929,27.4509643 29.48925,27.4520357 29.6156786,27.4520357 C29.9521071,27.4520357 30.2488929,27.3223929 30.2488929,26.9763214 C30.2488929,26.6473929 29.95425,26.5166786 29.5846071,26.5156071 L29.3306786,26.5156071 L29.3306786,27.4391786 Z M29.3306786,25.9863214 L29.57175,25.9863214 C29.9649643,25.9863214 30.1696071,25.8234643 30.1696071,25.5791786 C30.1696071,25.3295357 29.9810357,25.19775 29.6446071,25.19775 C29.4828214,25.19775 29.39175,25.2084643 29.3306786,25.2213214 L29.3306786,25.9863214 Z M28.5946071,24.7284643 C28.7906786,24.6909643 29.1806786,24.65775 29.5535357,24.65775 C30.0056786,24.65775 30.28425,24.70275 30.52425,24.8431071 C30.7535357,24.9641786 30.9153214,25.1881071 30.9153214,25.49025 C30.9153214,25.7784643 30.7460357,26.0516786 30.3763929,26.1888214 L30.3763929,26.2006071 C30.7513929,26.2991786 31.0299643,26.58525 31.0299643,27.00525 C31.0299643,27.3063214 30.89175,27.5409643 30.6881786,27.70275 C30.4471071,27.8966786 30.0506786,28.0016786 29.3971071,28.0016786 C29.03175,28.0016786 28.76175,27.9770357 28.5946071,27.9534643 L28.5946071,24.7284643 Z" id="Fill-12" fill="#E0AA69"></path>
            <path d="M32.9781429,26.5058571 C32.9792143,26.3269286 32.8999286,26.0226429 32.5624286,26.0226429 C32.2495714,26.0226429 32.1220714,26.3087143 32.1017143,26.5058571 L32.9781429,26.5058571 Z M32.1081429,27.0137143 C32.1295714,27.3212143 32.4338571,27.4669286 32.7799286,27.4669286 C33.0306429,27.4669286 33.2363571,27.4337143 33.4356429,27.3662143 L33.5363571,27.8676429 C33.2899286,27.9683571 32.9920714,28.0187143 32.6717143,28.0187143 C31.8638571,28.0187143 31.401,27.5483571 31.401,26.8047857 C31.401,26.1994286 31.7781429,25.5287143 32.6020714,25.5287143 C33.3756429,25.5287143 33.6670714,26.1297857 33.6670714,26.7201429 C33.6670714,26.8487143 33.6531429,26.9590714 33.6402857,27.0137143 L32.1081429,27.0137143 Z" id="Fill-14" fill="#E0AA69"></path>
            <path d="M34.1018571,27.3214286 C34.2368571,27.405 34.5218571,27.4992857 34.7372143,27.4992857 C34.9611429,27.4992857 35.0565,27.4232143 35.0565,27.3021429 C35.0565,27.1789286 34.9804286,27.1189286 34.7061429,27.0267857 C34.2111429,26.8628571 34.0247143,26.5928571 34.0268571,26.3132143 C34.0268571,25.8653571 34.4050714,25.5289286 34.9965,25.5289286 C35.2761429,25.5289286 35.5225714,25.5953571 35.6682857,25.6682143 L35.5397143,26.1792857 C35.4325714,26.1225 35.2247143,26.0442857 35.0222143,26.0442857 C34.8411429,26.0442857 34.7382857,26.1160714 34.7382857,26.2360714 C34.7382857,26.3507143 34.8325714,26.4107143 35.1250714,26.5114286 C35.5772143,26.6657143 35.7668571,26.8982143 35.7700714,27.2453571 C35.7700714,27.6910714 35.4229286,28.0189286 34.7393571,28.0189286 C34.4286429,28.0189286 34.149,27.9482143 33.9679286,27.8507143 L34.1018571,27.3214286 Z" id="Fill-16" fill="#E0AA69"></path>
            <path d="M37.0451786,24.9028929 L37.0451786,25.58325 L37.57875,25.58325 L37.57875,26.1296786 L37.0451786,26.1296786 L37.0451786,26.9943214 C37.0451786,27.2814643 37.1158929,27.4143214 37.3376786,27.4143214 C37.4330357,27.4143214 37.5069643,27.4036071 37.5583929,27.3918214 L37.56375,27.9553929 C37.4683929,27.9896786 37.2905357,28.0186071 37.08375,28.0186071 C36.8448214,28.0186071 36.6433929,27.9350357 36.5255357,27.8118214 C36.3873214,27.6703929 36.3198214,27.4443214 36.3198214,27.1046786 L36.3198214,26.1296786 L36.0026786,26.1296786 L36.0026786,25.58325 L36.3198214,25.58325 L36.3198214,25.0711071 L37.0451786,24.9028929 Z" id="Fill-18" fill="#E0AA69"></path>
            <path d="M24.2874643,20.7881786 L24.2874643,22.6771071 C24.2874643,23.2438929 24.5049643,23.53425 24.8821071,23.53425 C25.2721071,23.53425 25.4863929,23.2588929 25.4863929,22.6771071 L25.4863929,20.7881786 L26.2288929,20.7881786 L26.2288929,22.6310357 C26.2288929,23.6446071 25.71675,24.1256786 24.8574643,24.1256786 C24.0281786,24.1256786 23.5449643,23.6660357 23.5449643,22.6224643 L23.5449643,20.7881786 L24.2874643,20.7881786 Z" id="Fill-20" fill="#FFFFFF"></path>
            <path d="M26.89125,23.3057143 C27.0883929,23.4117857 27.3969643,23.5114286 27.7141071,23.5114286 C28.0548214,23.5114286 28.2358929,23.3710714 28.2358929,23.1546429 C28.2358929,22.9521429 28.0794643,22.8342857 27.68625,22.695 C27.13875,22.5010714 26.7798214,22.2021429 26.7798214,21.7221429 C26.7798214,21.1628571 27.2501786,20.7375 28.0226786,20.7375 C28.3966071,20.7375 28.6676786,20.8114286 28.8605357,20.9025 L28.6976786,21.4982143 C28.5669643,21.4360714 28.3301786,21.3417857 28.0108929,21.3417857 C27.6883929,21.3417857 27.5341071,21.4917857 27.5341071,21.66 C27.5341071,21.8678571 27.71625,21.9610714 28.1416071,22.1217857 C28.7233929,22.3382143 28.9923214,22.6403571 28.9923214,23.1042857 C28.9923214,23.6528571 28.5723214,24.1232143 27.6691071,24.1232143 C27.29625,24.1232143 26.9244643,24.0214286 26.74125,23.9196429 L26.89125,23.3057143 Z" id="Fill-22" fill="#FFFFFF"></path>
            <path d="M31.0906071,22.6758214 L30.8859643,21.9783214 C30.8291786,21.7833214 30.7713214,21.5379643 30.7209643,21.3461786 L30.7113214,21.3461786 C30.6631071,21.5390357 30.61275,21.7876071 30.56025,21.9793929 L30.3641786,22.6758214 L31.0906071,22.6758214 Z M30.2559643,23.2286786 L30.0245357,24.0718929 L29.2573929,24.0718929 L30.2591786,20.7879643 L31.2309643,20.7879643 L32.2531071,24.0718929 L31.45275,24.0718929 L31.2009643,23.2286786 L30.2559643,23.2286786 Z" id="Fill-24" fill="#FFFFFF"></path>
            <polygon id="Fill-26" fill="#FFFFFF" points="34.1150357 21.4118571 33.2289643 21.4118571 33.2289643 20.7882857 35.7564643 20.7882857 35.7564643 21.4118571 34.8575357 21.4118571 34.8575357 24.0722143 34.1150357 24.0722143"></polygon>
            <path d="M36.6361071,22.4388214 C36.6361071,23.0816786 36.9393214,23.5348929 37.4343214,23.5348929 C37.93575,23.5348929 38.2228929,23.0613214 38.2228929,22.42275 C38.2228929,21.8313214 37.94325,21.3245357 37.43325,21.3245357 C36.9296786,21.3245357 36.6361071,21.80025 36.6361071,22.4388214 M39.00825,22.3970357 C39.00825,23.4748929 38.3578929,24.12525 37.3978929,24.12525 C36.4239643,24.12525 35.8518214,23.3891786 35.8518214,22.45275 C35.8518214,21.4713214 36.4818214,20.73525 37.4493214,20.73525 C38.4575357,20.73525 39.00825,21.4884643 39.00825,22.3970357" id="Fill-28" fill="#FFFFFF"></path>
            <path d="M40.2385714,23.5133571 C40.3039286,23.5251429 40.4067857,23.5262143 40.4978571,23.5262143 C41.1696429,23.5315714 41.612145,23.1597857 41.612145,22.3755 C41.6132143,21.693 41.2146429,21.3340714 40.575,21.3340714 C40.4132143,21.3340714 40.3039286,21.348 40.2385714,21.363 L40.2385714,23.5133571 Z M39.4971429,20.8337143 C39.7703571,20.7897857 40.1260714,20.763 40.4978571,20.763 C41.1214286,20.763 41.5285714,20.8776429 41.8425,21.1155 C42.1832143,21.3705 42.3985714,21.7701429 42.3985714,22.3508571 C42.3985714,22.9797857 42.1703571,23.4147857 41.8553571,23.6815714 C41.5092857,23.9687143 40.98,24.1058571 40.3403571,24.1058571 C39.9546429,24.1058571 39.6792857,24.0833571 39.4971429,24.0576429 L39.4971429,20.8337143 Z" id="Fill-30" fill="#FFFFFF"></path>
            <path d="M44.4039643,22.6758214 L44.1993214,21.9783214 C44.1425357,21.7833214 44.0846786,21.5379643 44.0343214,21.3461786 L44.0246786,21.3461786 C43.9764643,21.5390357 43.9261071,21.7876071 43.8736071,21.9793929 L43.6775357,22.6758214 L44.4039643,22.6758214 Z M43.5693214,23.2286786 L43.3378929,24.0718929 L42.57075,24.0718929 L43.5725357,20.7879643 L44.5443214,20.7879643 L45.5664643,24.0718929 L44.7661071,24.0718929 L44.5143214,23.2286786 L43.5693214,23.2286786 Z" id="Fill-32" fill="#FFFFFF"></path>
            <path d="M46.2956786,24.0721071 L46.2956786,22.7263929 L45.2585357,20.7881786 L46.10925,20.7881786 L46.4424643,21.5778214 C46.5431786,21.8146071 46.6160357,21.9903214 46.6963929,22.2078214 L46.7060357,22.2078214 C46.7788929,22.0021071 46.8581786,21.8103214 46.9535357,21.5778214 L47.2846071,20.7881786 L48.1213929,20.7881786 L47.0381786,22.7006786 L47.0381786,24.0721071 L46.2956786,24.0721071 Z" id="Fill-34" fill="#FFFFFF"></path>
            <path d="M23.6942143,44.3156786 L23.6942143,44.0263929 L24.066,43.6663929 C24.9617143,42.8124643 25.3688571,42.3560357 25.3720714,41.8278214 C25.3720714,41.4721071 25.2027857,41.1410357 24.6799286,41.1410357 C24.3606429,41.1410357 24.0970714,41.3049643 23.9342143,41.4378214 L23.7831429,41.10675 C24.0231429,40.9021071 24.3713571,40.7499643 24.7752857,40.7499643 C25.5295714,40.7499643 25.8467143,41.2674643 25.8467143,41.76675 C25.8467143,42.4181786 25.3774286,42.9421071 24.6392143,43.6503214 L24.3617143,43.91175 L24.3617143,43.9224643 L25.9324286,43.9224643 L25.9324286,44.3156786 L23.6942143,44.3156786 Z" id="Fill-36" fill="#FFFFFF"></path>
            <path d="M26.8907112,42.57675 C26.8896429,43.49175 27.1714286,44.0071071 27.6021429,44.0071071 C28.0864286,44.0071071 28.3178571,43.4413929 28.3178571,42.5488929 C28.3178571,41.6831786 28.0982143,41.1196071 27.6053571,41.1196071 C27.1928571,41.1196071 26.8907112,41.6253214 26.8907112,42.57675 M28.7946429,42.5263929 C28.7946429,43.7156786 28.35,44.3756786 27.5753571,44.3756786 C26.8907143,44.3756786 26.4246429,43.7338929 26.4128571,42.5756786 C26.4128571,41.3960357 26.9217857,40.7499643 27.6332143,40.7499643 C28.3725,40.7499643 28.7946429,41.4099643 28.7946429,42.5263929" id="Fill-38" fill="#FFFFFF"></path>
            <path d="M29.2255714,44.3156786 L29.2255714,44.0263929 L29.5973571,43.6663929 C30.4930714,42.8124643 30.9002143,42.3560357 30.9034286,41.8278214 C30.9034286,41.4721071 30.7341429,41.1410357 30.2112857,41.1410357 C29.892,41.1410357 29.6284286,41.3049643 29.4655714,41.4378214 L29.3145,41.10675 C29.5545,40.9021071 29.9027143,40.7499643 30.3066429,40.7499643 C31.0609286,40.7499643 31.3780714,41.2674643 31.3780714,41.76675 C31.3780714,42.4181786 30.9087857,42.9421071 30.1705714,43.6503214 L29.8930714,43.91175 L29.8930714,43.9224643 L31.4637857,43.9224643 L31.4637857,44.3156786 L29.2255714,44.3156786 Z" id="Fill-40" fill="#FFFFFF"></path>
            <path d="M32.0987112,42.57675 C32.0976429,43.49175 32.3794286,44.0071071 32.8101429,44.0071071 C33.2944286,44.0071071 33.5258571,43.4413929 33.5258571,42.5488929 C33.5258571,41.6831786 33.3062143,41.1196071 32.8133571,41.1196071 C32.4008571,41.1196071 32.0987112,41.6253214 32.0987112,42.57675 M34.0026429,42.5263929 C34.0026429,43.7156786 33.558,44.3756786 32.7833571,44.3756786 C32.0987143,44.3756786 31.6326429,43.7338929 31.6208571,42.5756786 C31.6208571,41.3960357 32.1297857,40.7499643 32.8412143,40.7499643 C33.5805,40.7499643 34.0026429,41.4099643 34.0026429,42.5263929" id="Fill-42" fill="#FFFFFF"></path>
            <path d="M17.2692857,27.2105357 L16.0671429,27.2105357 L16.0671429,23.00625 L16.0510714,23.00625 L15.0417857,23.4851786 L14.8360714,22.5530357 L16.2439286,21.8983929 L17.2692857,21.8983929 L17.2692857,27.2105357 Z M20.1096429,27.3005357 C18.7360714,27.3005357 18.1285714,26.0694643 18.1242857,24.56625 C18.1242857,23.0233929 18.7714286,21.8083929 20.145,21.8083929 C20.8189286,21.8083929 21.2978571,22.0966071 21.6171429,22.5519643 C20.9325,20.9898214 19.3746429,19.8969643 17.5596429,19.8969643 C15.1125,19.8969643 13.1292857,21.8801786 13.1292857,24.3273214 C13.1292857,26.7733929 15.1125,28.7566071 17.5596429,28.7566071 C18.9653571,28.7566071 20.2157143,28.1008929 21.0267857,27.0798214 C20.7675,27.2223214 20.4621429,27.3005357 20.1096429,27.3005357 L20.1096429,27.3005357 Z" id="Fill-44" fill="#329BFF"></path>
            <path d="M19.3671429,24.5612143 C19.3639286,25.7837143 19.6596429,26.3622857 20.1353571,26.3622857 C20.6185714,26.3622857 20.8842857,25.7547857 20.8842857,24.5483571 C20.8842857,23.3708571 20.6271429,22.7526429 20.1321429,22.7526429 C19.6757143,22.7526429 19.3660714,23.3247857 19.3671429,24.5612143" id="Fill-46" fill="#329BFF"></path>
            <path d="M24.4872857,32.5990714 L24.798,32.5990714 C25.1901429,32.5990714 25.4258571,32.3987143 25.4258571,32.0944286 C25.4258571,31.773 25.2051429,31.6090714 24.8440714,31.6069286 C24.6544286,31.6069286 24.543,31.6197857 24.4872857,31.6347857 L24.4872857,32.5990714 Z M23.7019286,31.0926429 C23.9558571,31.0497857 24.333,31.0165714 24.7551429,31.0165714 C25.2747857,31.0165714 25.6390714,31.0969286 25.8887143,31.2951429 C26.0976429,31.4612143 26.2133571,31.7065714 26.2133571,32.0290714 C26.2133571,32.4737143 25.8951429,32.7822857 25.5951429,32.8894286 L25.5951429,32.9065714 C25.8372857,33.0051429 25.9744286,33.2376429 26.0633571,33.5590714 C26.1715714,33.9565714 26.2765714,34.4119286 26.3451429,34.548 L25.5351429,34.548 C25.4805,34.4472857 25.3937143,34.1655 25.293,33.7315714 C25.1955,33.2933571 25.0487143,33.1765714 24.723,33.1722857 L24.4872857,33.1722857 L24.4872857,34.548 L23.7019286,34.548 L23.7019286,31.0926429 Z" id="Fill-48" fill="#E0AA69"></path>
            <polygon id="Fill-50" fill="#E0AA69" points="28.8718929 33.0656786 27.5818929 33.0656786 27.5818929 33.89925 29.0240357 33.89925 29.0240357 34.5485357 26.7901071 34.5485357 26.7901071 31.0438929 28.9490357 31.0438929 28.9490357 31.6931786 27.5818929 31.6931786 27.5818929 32.4228214 28.8718929 32.4228214"></polygon>
            <path d="M31.2721071,33.0583929 L31.0535357,32.31375 C30.9935357,32.1058929 30.9313929,31.8433929 30.8778214,31.63875 L30.8671071,31.63875 C30.8156786,31.8444643 30.7621071,32.11125 30.7063929,32.3148214 L30.4963929,33.0583929 L31.2721071,33.0583929 Z M30.38175,33.64875 L30.13425,34.54875 L29.3156786,34.54875 L30.3849643,31.0441071 L31.4221071,31.0441071 L32.5128214,34.54875 L31.6588929,34.54875 L31.3888929,33.64875 L30.38175,33.64875 Z" id="Fill-52" fill="#E0AA69"></path>
            <path d="M33.7764643,33.9519643 C33.8461071,33.9648214 33.9564643,33.9658929 34.0528929,33.9658929 C34.77075,33.9723214 35.2421866,33.5748214 35.2421866,32.7369643 C35.2443214,32.0105357 34.8178929,31.6269643 34.1364643,31.6269643 C33.9628929,31.6269643 33.8461071,31.6419643 33.7764643,31.6569643 L33.7764643,33.9519643 Z M32.98575,31.0923214 C33.2771786,31.0451786 33.6564643,31.0173214 34.0539643,31.0173214 C34.71825,31.0173214 35.15325,31.1394643 35.4886071,31.3933929 C35.8518214,31.6644643 36.0811071,32.0919643 36.0811071,32.7123214 C36.0811071,33.3830357 35.8378929,33.8469643 35.5014643,34.1308929 C35.1328929,34.4383929 34.56825,34.5851786 33.88575,34.5851786 C33.47325,34.5851786 33.1796786,34.5594643 32.98575,34.5326786 L32.98575,31.0923214 Z" id="Fill-54" fill="#E0AA69"></path>
            <polygon id="Fill-56" fill="#E0AA69" points="38.6931429 33.0656786 37.4031429 33.0656786 37.4031429 33.89925 38.8452857 33.89925 38.8452857 34.5485357 36.6113571 34.5485357 36.6113571 31.0438929 38.7702857 31.0438929 38.7702857 31.6931786 37.4031429 31.6931786 37.4031429 32.4228214 38.6931429 32.4228214"></polygon>
            <path d="M40.1763214,32.5990714 L40.4870357,32.5990714 C40.8791786,32.5990714 41.1148929,32.3987143 41.1148929,32.0944286 C41.1148929,31.773 40.8941786,31.6090714 40.5331071,31.6069286 C40.3434643,31.6069286 40.2320357,31.6197857 40.1763214,31.6347857 L40.1763214,32.5990714 Z M39.3909643,31.0926429 C39.6448929,31.0497857 40.0220357,31.0165714 40.4441786,31.0165714 C40.9638214,31.0165714 41.3281071,31.0969286 41.57775,31.2951429 C41.7866786,31.4612143 41.9023929,31.7065714 41.9023929,32.0290714 C41.9023929,32.4737143 41.58525,32.7822857 41.2841786,32.8894286 L41.2841786,32.9065714 C41.5263214,33.0051429 41.6634643,33.2376429 41.7523929,33.5590714 C41.8606071,33.9565714 41.9656071,34.4119286 42.0341786,34.548 L41.2241786,34.548 C41.1695357,34.4472857 41.08275,34.1655 40.9820357,33.7315714 C40.8845357,33.2933571 40.73775,33.1765714 40.4120357,33.1722857 L40.1763214,33.1722857 L40.1763214,34.548 L39.3909643,34.548 L39.3909643,31.0926429 Z" id="Fill-58" fill="#E0AA69"></path>
            <path d="M43.4020714,30.9872143 C43.2413571,31.4950714 43.0152857,32.004 42.7774286,32.394 L42.2985,32.4379286 C42.4570714,31.9932857 42.591,31.4886429 42.6627857,31.0332857 L43.4020714,30.9872143 Z" id="Fill-60" fill="#E0AA69"></path>
            <path d="M43.8023571,33.7300714 C44.0123571,33.8425714 44.3423571,33.9507857 44.6809286,33.9507857 C45.0452143,33.9507857 45.2380714,33.7986429 45.2380714,33.5693571 C45.2380714,33.3529286 45.0709286,33.2265 44.6509286,33.0797143 C44.067,32.8718571 43.6845,32.5525714 43.6845,32.0415 C43.6845,31.4436429 44.1859286,30.9893571 45.0098571,30.9893571 C45.4095,30.9893571 45.6977143,31.0686429 45.9045,31.1661429 L45.7298571,31.8015 C45.5905714,31.7350714 45.3387857,31.6354286 44.9980714,31.6354286 C44.6530714,31.6354286 44.4880714,31.794 44.4880714,31.974 C44.4880714,32.1957857 44.682,32.2943571 45.1373571,32.4657857 C45.7577143,32.6982857 46.0448571,33.0207857 46.0448571,33.5157857 C46.0448571,34.1007857 45.597,34.6022143 44.6316429,34.6022143 C44.2352143,34.6022143 43.8377143,34.4950714 43.6427143,34.3847143 L43.8023571,33.7300714 Z" id="Fill-62" fill="#E0AA69"></path>
            <path d="M26.2377857,39.3425357 C26.0963571,39.4121786 25.7642143,39.4936071 25.3420714,39.4936071 C24.1292143,39.4936071 23.5035,38.7350357 23.5035,37.7364643 C23.5035,36.5418214 24.3595714,35.88075 25.4170714,35.88075 C25.8295714,35.88075 26.1424286,35.9611071 26.2806429,36.0350357 L26.1188571,36.6618214 C25.9613571,36.59325 25.7363571,36.5300357 25.4535,36.5300357 C24.8277857,36.5300357 24.3381429,36.9114643 24.3381429,37.6903929 C24.3381429,38.3921786 24.7517143,38.8336071 25.4567143,38.8336071 C25.6999286,38.8336071 25.9624286,38.7853929 26.1199286,38.7211071 L26.2377857,39.3425357 Z" id="Fill-64" fill="#E0AA69"></path>
            <polygon id="Fill-66" fill="#E0AA69" points="27.5582143 35.93475 27.5582143 37.2826071 28.8653571 37.2826071 28.8653571 35.93475 29.6571429 35.93475 29.6571429 39.4393929 28.8653571 39.4393929 28.8653571 37.9726071 27.5582143 37.9726071 27.5582143 39.4393929 26.7664286 39.4393929 26.7664286 35.93475"></polygon>
            <path d="M31.02525,37.6956429 C31.02525,38.3824286 31.3488214,38.8667143 31.8770357,38.8667143 C32.41275,38.8667143 32.7191786,38.3599286 32.7191786,37.6785 C32.7191786,37.0474286 32.42025,36.5085 31.8748929,36.5085 C31.3391786,36.5085 31.02525,37.0142143 31.02525,37.6956429 M33.5570357,37.6517143 C33.5570357,38.8013571 32.86275,39.4967143 31.8384643,39.4967143 C30.7991786,39.4967143 30.1873929,38.7092143 30.1873929,37.7106429 C30.1873929,36.6627857 30.8613214,35.8774286 31.8931071,35.8774286 C32.9688214,35.8774286 33.5570357,36.6820714 33.5570357,37.6517143" id="Fill-68" fill="#E0AA69"></path>
            <mask id="mask-4" fill="white">
                <use xlink:href="#path-3"></use>
            </mask>
            <g id="Clip-71"></g>
            <polygon id="Fill-70" fill="#E0AA69" mask="url(#mask-4)" points="34.0875 39.4392857 34.8792857 39.4392857 34.8792857 35.9346429 34.0875 35.9346429"></polygon>
            <path d="M38.1417857,39.3425357 C38.0003571,39.4121786 37.6682143,39.4936071 37.2460714,39.4936071 C36.0332143,39.4936071 35.4075,38.7350357 35.4075,37.7364643 C35.4075,36.5418214 36.2635714,35.88075 37.3210714,35.88075 C37.7335714,35.88075 38.0464286,35.9611071 38.1846429,36.0350357 L38.0228571,36.6618214 C37.8653571,36.59325 37.6403571,36.5300357 37.3575,36.5300357 C36.7317857,36.5300357 36.2421429,36.9114643 36.2421429,37.6903929 C36.2421429,38.3921786 36.6557143,38.8336071 37.3607143,38.8336071 C37.6039286,38.8336071 37.8664286,38.7853929 38.0239286,38.7211071 L38.1417857,39.3425357 Z" id="Fill-72" fill="#E0AA69" mask="url(#mask-4)"></path>
            <polygon id="Fill-73" fill="#E0AA69" mask="url(#mask-4)" points="40.7517857 37.9562143 39.4617857 37.9562143 39.4617857 38.7897857 40.9039286 38.7897857 40.9039286 39.4390714 38.67 39.4390714 38.67 35.9344286 40.8289286 35.9344286 40.8289286 36.5837143 39.4617857 36.5837143 39.4617857 37.3133571 40.7517857 37.3133571"></polygon>
        </g>
    </g>
</svg>