<?xml version="1.0" encoding="utf-8"?>
<!-- Generator: Adobe Illustrator 25.2.3, SVG Export Plug-In . SVG Version: 6.00 Build 0)  -->
<svg version="1.1" id="Layer_1" xmlns="http://www.w3.org/2000/svg" xmlns:xlink="http://www.w3.org/1999/xlink" x="0px" y="0px"
	 viewBox="0 0 1622 1622" style="enable-background:new 0 0 1622 1622;" xml:space="preserve">
<style type="text/css">
	.st0{fill:#4A73B8;}
	.st1{fill:#FFFFFF;}
	.st2{fill:#61B2F7;}
	.st3{font-family:'EffraMedium-Regular';}
	.st4{font-size:141.573px;}
	.st5{letter-spacing:-19;}
</style>
<path class="st0" d="M811,0C363.1,0,0,363.1,0,811s363.1,811,811,811s811-363.1,811-811S1258.9,0,811,0z M811,1572
	c-420.3,0-761-340.7-761-761S390.7,50,811,50s761,340.7,761,761S1231.3,1572,811,1572z"/>
<circle class="st0" cx="811" cy="811" r="729.8"/>
<g>
	<path class="st1" d="M1053.1,1308.7H884.9c-13.4-25.8-40.4-43.5-71.5-43.5s-58.1,17.7-71.5,43.5H574.1c-5,0-9,4-9,9c0,5,4,9,9,9
		h161.1c-0.5,2.2-1,4.5-1.3,6.7H596.2c-5,0-9,4-9,9c0,5,4,9,9,9h137c0.2,2.6,0.5,5.2,0.9,7.7H617.7c-5,0-9,4-9,9l0,0c0,5,4,9,9,9
		h121.7c12.2,28.8,40.8,49,74.1,49s61.9-20.2,74.1-49h118.7c5,0,9-4,9-9l0,0c0-5-4-9-9-9H892.8c0.4-2.5,0.7-5.1,0.9-7.7h133.7
		c5,0,9-4,9-9c0-5-4-9-9-9H893c-0.3-2.3-0.8-4.5-1.3-6.7h161.4c5,0,9-4,9-9C1062.1,1312.7,1058,1308.7,1053.1,1308.7z"/>
	<polygon class="st1" points="516.9,1138.3 587.2,1088 537.3,1088 492.4,1120.7 492.4,1088 460.5,1088 460.5,1188.5 491.6,1188.5 
		491.6,1155 539.8,1188.5 587.2,1188.5 	"/>
	<polygon class="st1" points="646.9,1188.5 679.5,1188.5 679.5,1154.2 740.8,1088 698.3,1088 664.8,1127.2 626.4,1088 587.2,1088 
		647.7,1154.2 	"/>
	<polygon class="st1" points="1301.5,1088 1258.2,1088 1226.3,1124 1192.8,1088 1151.1,1088 1197.7,1138.3 1151.1,1188.5 
		1193.6,1188.5 1226.3,1152.6 1259,1188.5 1301.5,1188.5 1254.1,1138.3 	"/>
	<path class="st1" d="M1067.3,1087.9c-0.8,0-1.6,0-2.5,0c-12.1-0.8-24.9,19-24.9,19l-58.8,81.7h40l44.1-61.3l25.3,34.3H1049
		l-18.8,27h118.4l-57.1-81.7C1080.4,1089.2,1070.6,1087.8,1067.3,1087.9z"/>
	<path class="st1" d="M970.3,1122.1c-3.2-34.1-39.5-34.3-39.5-34.3H756.5l-20.6,26.5h40.4v74.2h32.5v-75H926c6.1,0,11.1,5,11.1,11.1
		s-5,11.1-11.1,11.1h-95.4v52.7h32v-26.2l41.8,0.3l30.4,25.9h46.5l-36.2-31.1C959.6,1153.3,971.8,1138.1,970.3,1122.1z"/>
	<path class="st1" d="M422.2,1122.3h-0.7h-61.6c-2.1,0-3.8-1.7-3.8-3.8c0-2.1,1.7-3.8,3.8-3.8h73.2l20.3-26.7h-99.9H350
		c-16.3,0-29.5,13.2-29.5,29.5v0c0,16.3,13.2,29.5,29.5,29.5h3.5h66.8c3.8,0,6.9,3.1,6.9,6.9s-3.1,6.9-6.9,6.9h-78.5l-21.4,27.7
		h101.7h0c17.3,0,34.8-14.1,34.8-31.3v-3.7C457,1136.2,439.4,1122.3,422.2,1122.3z"/>
</g>
<g>
	<path class="st2" d="M417.6,618.2c2.7-2.2,6.5-2.2,9.1,0c5.7,4.7,15.7,13,26.3,20.3c12,8.2,25.7,13.8,40,16.5
		c17.3,3.3,33.4,3.7,34.1,3.7c7.6,0.3,7.7,8.3,7.6,13.9l-0.4,120.2c-5.1,68.8-87.5,120.9-108,131.8c-2.9,1.5-6.4,1.6-9.3,0.1
		c-21.2-10.7-102.6-62.7-107.7-131.9l-0.4-120.2c0-5.6,0-12.9,7.9-13.8c4.9-0.6,16.8-0.5,34.6-4c14-2.7,27.4-8.3,39.2-16.4
		C401.4,631.3,411.9,622.9,417.6,618.2z"/>
	<polygon class="st1" points="422,670.7 444.4,739.8 517.1,739.8 458.3,782.6 480.8,851.7 422,809 363.1,851.7 385.6,782.6 
		326.8,739.8 399.5,739.8 	"/>
</g>
<g>
	<path class="st2" d="M677,618.2c2.7-2.2,6.5-2.2,9.1,0c5.7,4.7,15.7,13,26.3,20.3c12,8.2,25.7,13.8,40,16.5
		c17.3,3.3,33.4,3.7,34.1,3.7c7.6,0.3,7.7,8.3,7.6,13.9l-0.4,120.2c-5.1,68.8-87.5,120.9-108,131.8c-2.9,1.5-6.4,1.6-9.3,0.1
		c-21.2-10.7-102.6-62.7-107.7-131.9l-0.4-120.2c0-5.6,0-12.9,7.9-13.8c4.9-0.6,16.8-0.5,34.6-4c14-2.7,27.4-8.3,39.2-16.4
		C660.8,631.3,671.3,622.9,677,618.2z"/>
	<polygon class="st1" points="681.3,670.7 703.8,739.8 776.5,739.8 717.7,782.6 740.1,851.7 681.3,809 622.5,851.7 645,782.6 
		586.1,739.8 658.9,739.8 	"/>
</g>
<g>
	<path class="st2" d="M936.4,618.2c2.7-2.2,6.5-2.2,9.1,0c5.7,4.7,15.7,13,26.3,20.3c12,8.2,25.7,13.8,40,16.5
		c17.3,3.3,33.4,3.7,34.1,3.7c7.6,0.3,7.7,8.3,7.6,13.9l-0.4,120.2c-5.1,68.8-87.5,120.9-108,131.8c-2.9,1.5-6.4,1.6-9.3,0.1
		c-21.2-10.7-102.6-62.7-107.7-131.9l-0.4-120.2c0-5.6,0-12.9,7.9-13.8c4.9-0.6,16.8-0.5,34.6-4c14-2.7,27.4-8.3,39.2-16.4
		C920.1,631.3,930.7,622.9,936.4,618.2z"/>
	<polygon class="st1" points="940.7,670.7 963.1,739.8 1035.9,739.8 977,782.6 999.5,851.7 940.7,809 881.9,851.7 904.3,782.6 
		845.5,739.8 918.2,739.8 	"/>
</g>
<g>
	<path class="st2" d="M1195.7,618.2c2.7-2.2,6.5-2.2,9.1,0c5.7,4.7,15.7,13,26.3,20.3c12,8.2,25.7,13.8,40,16.5
		c17.3,3.3,33.4,3.7,34.1,3.7c7.6,0.3,7.7,8.3,7.6,13.9l-0.4,120.2c-5.1,68.8-87.5,120.9-108,131.8c-2.9,1.5-6.4,1.6-9.3,0.1
		c-21.2-10.7-102.6-62.7-107.7-131.9l-0.4-120.2c0-5.6,0-12.9,7.9-13.8c4.9-0.6,16.8-0.5,34.6-4c14-2.7,27.4-8.3,39.2-16.4
		C1179.5,631.3,1190,622.9,1195.7,618.2z"/>
	<polygon class="st1" points="1200,670.7 1222.5,739.8 1295.2,739.8 1236.4,782.6 1258.9,851.7 1200,809 1141.2,851.7 1163.7,782.6 
		1104.9,739.8 1177.6,739.8 	"/>
</g>
<text transform="matrix(1 0 0 1 483.5845 335.8203)"><tspan x="0" y="0" class="st1 st3 st4">COVID</tspan><tspan x="437.5" y="0" class="st1 st3 st4 st5"> </tspan><tspan x="443.3" y="0" class="st1 st3 st4">-19</tspan><tspan x="-187" y="149" class="st1 st3 st4">SAFETY RATING</tspan></text>
</svg>
