<svg xmlns="http://www.w3.org/2000/svg">

  <!-- ViewBox (background-position of icon's): -->
  <view preserveAspectRatio="xMidYMid meet" viewBox="0 3 13 13" id="svg-icn-user-view" />
  <view preserveAspectRatio="xMidYMid meet" viewBox="16 3 13 13" id="svg-icn-user-dark-view" />
  <view preserveAspectRatio="xMidYMid meet" viewBox="0 16 16 16" id="svg-icn-user-new-view" />
  <view preserveAspectRatio="xMidYMid meet" viewBox="16 16 16 16" id="svg-icn-user-new-dark-view" />
  <view preserveAspectRatio="xMidYMid meet" viewBox="0 32 16 16" id="svg-icn-support-view" />
  <view preserveAspectRatio="xMidYMid meet" viewBox="16 32 16 16" id="svg-icn-support-dark-view" />
  <view preserveAspectRatio="xMidYMid meet" viewBox="0 48 24 23" id="svg-icn-search-view" />
  <view preserveAspectRatio="xMidYMid meet" viewBox="24 48 24 23" id="svg-icn-search-dark-view" />
  <view preserveAspectRatio="xMidYMid meet" viewBox="48 48 24 23" id="svg-icn-search-black-view" />
  <view preserveAspectRatio="xMidYMid meet" viewBox="72 48 24 23" id="svg-icn-search-white-view" />
  <view preserveAspectRatio="xMidYMid meet" viewBox="0 72 32 20" id="svg-icn-hamburger-view" />
  <view preserveAspectRatio="xMidYMid meet" viewBox="0 92 24 24" id="svg-icn-information-view" />
  <view preserveAspectRatio="xMidYMid meet" viewBox="0 116 16 16" id="svg-icn-open-plus-grey-16x16-view" />
  <view preserveAspectRatio="xMidYMid meet" viewBox="16 116 16 16" id="svg-icn-open-plus-black-16x16-view" />
  <view preserveAspectRatio="xMidYMid meet" viewBox="0 139 16 2" id="svg-icn-close-minus-grey-view" />
  <view preserveAspectRatio="xMidYMid meet" viewBox="16 139 16 2" id="svg-icn-close-minus-black-view" />
  <view preserveAspectRatio="xMidYMid meet" viewBox="0 148 24 24" id="svg-icn-form-icn-close-white-view" />
  <view preserveAspectRatio="xMidYMid meet" viewBox="0 172 13 13" id="svg-icn-user-log-view" />
  <view preserveAspectRatio="xMidYMid meet" viewBox="0 185 17 17" id="svg-icn-user-log-notified-view" />
  <view preserveAspectRatio="xMidYMid meet" viewBox="0 202 12 12" id="svg-icn-close-cross-white-16x16-view" />
  <view preserveAspectRatio="xMidYMid meet" viewBox="12 202 12 12" id="svg-icn-close-cross-black-16x16-view" />
  <view preserveAspectRatio="xMidYMid meet" viewBox="0 261 24 24" id="svg-check2-view" />
  <view preserveAspectRatio="xMidYMid meet" viewBox="24 261 24 24" id="svg-check1-view" />
  <view preserveAspectRatio="xMidYMid meet" viewBox="0 285 16 16" id="svg-icn-show-pass-grey-view" />
  <view preserveAspectRatio="xMidYMid meet" viewBox="17 285 24 23" id="svg-icn-show-pass-dark-view" />
  <view preserveAspectRatio="xMidYMid meet" viewBox="0 308 16 16" id="svg-icn-hide-pass-grey-view" />
  <view preserveAspectRatio="xMidYMid meet" viewBox="17 308 24 23" id="svg-icn-hide-pass-dark-view" />
  <view preserveAspectRatio="xMidYMid meet" viewBox="0 331 24 24" id="svg-icn-attention-view" />
  <view preserveAspectRatio="xMidYMid meet" viewBox="0 355 29 30" id="svg-btn-theme-google-view" />
  <view preserveAspectRatio="xMidYMid meet" viewBox="0 385 16 30" id="svg-btn-inset-theme-facebook-view" />
  <view preserveAspectRatio="xMidYMid meet" viewBox="16 385 24 24" id="svg-btn-outset-theme-facebook-view" />
  <view preserveAspectRatio="xMidYMid meet" viewBox="0 415 19 22" id="svg-btn-theme-apple-view" />
  <view preserveAspectRatio="xMidYMid meet" viewBox="0 440 12 12" id="svg-megamenu-external-link-view" />
  <view preserveAspectRatio="xMidYMid meet" viewBox="0 455 8 8" id="svg-megamenu-banner-arrow-white-view" />
  <view preserveAspectRatio="xMidYMid meet" viewBox="8 455 8 8" id="svg-megamenu-banner-arrow-dark-view" />
  <view preserveAspectRatio="xMidYMid meet" viewBox="0 465 16 16" id="svg-icn-close-view" />
  <view preserveAspectRatio="xMidYMid meet" viewBox="0 485 14 8" id="svg-icn-expand-arrow-menu-view" />
  <view preserveAspectRatio="xMidYMid meet" viewBox="0 500 20 14" id="svg-icn-hamburger-menu-view" />
  <view preserveAspectRatio="xMidYMid meet" viewBox="0 520 24 24" id="svg-icn-search-menu-view" />
  <view preserveAspectRatio="xMidYMid meet" viewBox="0 800 16 16" id="svg-icn-search-desktop-menu-view" />
  <view preserveAspectRatio="xMidYMid meet" viewBox="20 800 16 16" id="svg-icn-search-desktop-menu-darksite-view" />
  <view preserveAspectRatio="xMidYMid meet" viewBox="0 570 24 24" id="svg-icn-user-dark-menu-view" />
  <view preserveAspectRatio="xMidYMid meet" viewBox="40 570 24 24" id="svg-icn-user-dark-menu-darksite-view" />
  <view preserveAspectRatio="xMidYMid meet" viewBox="80 570 24 24" id="svg-icn-user-white-menu-view" />
  <view preserveAspectRatio="xMidYMid meet" viewBox="120 570 24 24" id="svg-icn-user-white-menu-darksite-view" />
  <view preserveAspectRatio="xMidYMid meet" viewBox="0 600 24 24" id="svg-icn-register-dark-menu-view" />
  <view preserveAspectRatio="xMidYMid meet" viewBox="40 600 24 24" id="svg-icn-register-dark-menu-darksite-view" />
  <view preserveAspectRatio="xMidYMid meet" viewBox="80 600 24 24" id="svg-icn-register-white-menu-view" />
  <view preserveAspectRatio="xMidYMid meet" viewBox="0 630 24 24" id="svg-icn-logout-menu-view" />
  <view preserveAspectRatio="xMidYMid meet" viewBox="0 660 16 16" id="svg-icn-expand-arrow-footer-view" />
  <view preserveAspectRatio="xMidYMid meet" viewBox="0 680 14 14" id="svg-icn-miles-client-menu-view" />
  <view preserveAspectRatio="xMidYMid meet" viewBox="0 700 40 40" id="svg-icn-register-white-menu-green-plus-view" />
  <view preserveAspectRatio="xMidYMid meet" viewBox="60 700 40 40" id="svg-icn-register-white-menu-green-plus-darksite-view" />
  <view preserveAspectRatio="xMidYMid meet" viewBox="0 900 24 24" id="svg-icn-error-box-view" />


  <!-- icons: -->
  <g id="svg-icn-user">
    <path fill="#DBDBDB" d="M12.4253383,16 L0.574661621,16 C0.285670852,16 0.0453721829,15.7836155 0.0229232281,15.5030543 C0.0109082948,15.3520776 0,14.6382858 0,14.5079318 C0,12.433503 1.05288759,10.4935835 2.78303801,9.31593466 C2.39413358,8.67539953 2.19098635,7.95221973 2.19098635,7.19502781 C2.19098635,4.8818989 4.12412591,3 6.50023709,3 C8.87619019,3 10.8093297,4.8818989 10.8093297,7.19502781 C10.8093297,7.95221973 10.6061825,8.67524564 10.2172781,9.31593466 C11.9475866,10.4935835 13.0003161,12.4336569 12.9999999,14.5080857 C12.9999999,14.6150467 12.9895659,15.3486918 12.9769186,15.5038238 C12.9541535,15.7840772 12.7140129,16 12.4253383,16 Z M1.11232989,14.9226945 L11.88767,14.9226945 C11.8909899,14.7472476 11.8933613,14.577495 11.8933613,14.5079318 C11.8936775,12.6240322 10.8472716,10.8738724 9.1623353,9.93984848 C9.02179219,9.86197468 8.92330136,9.72823487 8.89278977,9.57356459 C8.86212008,9.41889427 8.90274951,9.25899136 9.00361172,9.1358707 C9.46096966,8.57751865 9.70269113,7.90635729 9.70269113,7.19502781 C9.70269113,5.47595596 8.26611612,4.07730555 6.50023709,4.07730555 C4.73419997,4.07730555 3.29762496,5.47595596 3.29762496,7.19502781 C3.29762496,7.90651119 3.53934647,8.57767254 3.99686247,9.1358707 C4.09756658,9.25899136 4.13819602,9.41889427 4.10752633,9.57356459 C4.07701473,9.72808098 3.9785239,9.86197468 3.83798079,9.93984848 C2.15320255,10.8737185 1.10663861,12.6240322 1.10663861,14.5079318 C1.10663861,14.5771872 1.10900998,14.7470936 1.11232989,14.9226945 Z"></path>
  </g>
  <g  id="svg-icn-user-dark">
    <path fill="#666666" d="M28.4253383,16 L16.5746616,16 C16.2856709,16 16.0453722,15.7836155 16.0229232,15.5030543 C16.0109083,15.3520776 16,14.6382858 16,14.5079318 C16,12.433503 17.0528876,10.4935835 18.783038,9.31593466 C18.3941336,8.67539953 18.1909864,7.95221973 18.1909864,7.19502781 C18.1909864,4.8818989 20.1241259,3 22.5002371,3 C24.8761902,3 26.8093297,4.8818989 26.8093297,7.19502781 C26.8093297,7.95221973 26.6061825,8.67524564 26.2172781,9.31593466 C27.9475866,10.4935835 29.0003161,12.4336569 28.9999999,14.5080857 C28.9999999,14.6150467 28.9895659,15.3486918 28.9769186,15.5038238 C28.9541535,15.7840772 28.7140129,16 28.4253383,16 Z M17.1123299,14.9226945 L27.88767,14.9226945 C27.8909899,14.7472476 27.8933613,14.577495 27.8933613,14.5079318 C27.8936775,12.6240322 26.8472716,10.8738724 25.1623353,9.93984848 C25.0217922,9.86197468 24.9233014,9.72823487 24.8927898,9.57356459 C24.8621201,9.41889427 24.9027495,9.25899136 25.0036117,9.1358707 C25.4609697,8.57751865 25.7026911,7.90635729 25.7026911,7.19502781 C25.7026911,5.47595596 24.2661161,4.07730555 22.5002371,4.07730555 C20.7342,4.07730555 19.297625,5.47595596 19.297625,7.19502781 C19.297625,7.90651119 19.5393465,8.57767254 19.9968625,9.1358707 C20.0975666,9.25899136 20.138196,9.41889427 20.1075263,9.57356459 C20.0770147,9.72808098 19.9785239,9.86197468 19.8379808,9.93984848 C18.1532025,10.8737185 17.1066386,12.6240322 17.1066386,14.5079318 C17.1066386,14.5771872 17.10901,14.7470936 17.1123299,14.9226945 Z"></path>
  </g>
  <g id="svg-icn-user-new">
    <path fill="#DBDBDB" d="M12.2446805,23.6748252 C11.6613043,23.6748252 11.108411,23.5379847 10.6152396,23.294342 C10.5601835,23.9349968 10.3702868,24.5460903 10.051304,25.0974253 C11.7536864,26.3134139 12.7893309,28.3170693 12.7890199,30.4593134 C12.7890199,30.5697711 12.7789107,31.3267642 12.7663132,31.4876033 C12.7439175,31.7768595 12.5075187,32 12.2236846,32 L0.565179777,32 C0.281034634,32 0.0446358273,31.7763827 0.0225512019,31.4868086 C0.0107312616,31.3308964 0,30.5937699 0,30.4591545 C0,28.3169104 1.03580003,26.3134139 2.73787144,25.0974253 C2.35527863,24.4359504 2.15542833,23.6891291 2.15542833,22.9071837 C2.15542833,20.5182772 4.057039,18.5750159 6.39474323,18.5750159 C7.1652167,18.5750159 7.9022522,18.7836936 8.54690553,19.1735537 C8.8556237,17.3730134 10.3956375,16 12.2446805,16 C14.3151919,16 16,17.7215512 16,19.8374126 C16,21.9534329 14.3151919,23.6748252 12.2446805,23.6748252 Z M9.5780398,19.8374126 C9.5780398,21.3397966 10.7743422,22.5623013 12.2446805,22.5623013 C13.7150189,22.5623013 14.9113213,21.3397966 14.9113213,19.8374126 C14.9113213,18.3348697 13.7150189,17.1125238 12.2446805,17.1125238 C10.7743422,17.1125238 9.5780398,18.3348697 9.5780398,19.8374126 Z M12.7890199,21.0972664 C12.7890199,21.4044819 12.5454669,21.6535283 12.2446805,21.6535283 C11.9440497,21.6535283 11.7003412,21.4046408 11.7003412,21.0972664 L11.7003412,20.3936745 L11.0766838,20.3936745 C10.7762085,20.3936745 10.5323445,20.144787 10.5323445,19.8374126 C10.5323445,19.530356 10.776053,19.2811507 11.0766838,19.2811507 L11.7003412,19.2811507 L11.7003412,18.5775588 C11.7003412,18.2703433 11.9438942,18.0212969 12.2446805,18.0212969 C12.5453114,18.0212969 12.7890199,18.2703433 12.7890199,18.5775588 L12.7890199,19.2811507 L13.4126773,19.2809917 C13.7131526,19.2809917 13.9570166,19.5300381 13.9570166,19.8372537 C13.9570166,20.1444692 13.7133081,20.3935156 13.4126773,20.3935156 L12.7890199,20.3936745 L12.7890199,21.0972664 Z M11.7003412,30.4591545 C11.7006522,28.5138271 10.6712287,26.7062937 9.01363763,25.7418945 C8.87537543,25.6613159 8.77848303,25.5230451 8.7484666,25.3634774 C8.71829467,25.2037508 8.75826473,25.0386205 8.85749,24.9114749 C9.30742537,24.3350286 9.54537943,23.6419263 9.54537943,22.9071837 C9.54537943,22.7590591 9.53215977,22.6117292 9.51256353,22.4659886 C9.0358778,21.9488239 8.69760977,21.2972028 8.5595031,20.5729498 C7.97192763,20.0030197 7.20938597,19.6875397 6.39474323,19.6875397 C4.65736753,19.6875397 3.24410704,21.1319135 3.24410704,22.9071837 C3.24410704,23.6419263 3.48190557,24.3350286 3.93199647,24.9114749 C4.03106623,25.0386205 4.07088077,25.2037508 4.04086433,25.3634774 C4.01100343,25.5230451 3.91411103,25.6613159 3.7756933,25.7418945 C2.11825773,26.7061348 1.08867871,28.5138271 1.08867871,30.4591545 C1.08867871,30.5290846 1.0910116,30.7053401 1.09443316,30.8874762 L11.6947423,30.8874762 C11.6980083,30.7062937 11.7003412,30.5308328 11.7003412,30.4591545 Z"></path>
  </g>
  <g  id="svg-icn-user-new-dark">
    <path fill="#666666" d="M28.2446805,23.6748252 C27.6613043,23.6748252 27.108411,23.5379847 26.6152396,23.294342 C26.5601835,23.9349968 26.3702868,24.5460903 26.051304,25.0974253 C27.7536864,26.3134139 28.7893309,28.3170693 28.7890199,30.4593134 C28.7890199,30.5697711 28.7789107,31.3267642 28.7663132,31.4876033 C28.7439175,31.7768595 28.5075187,32 28.2236846,32 L16.5651798,32 C16.2810346,32 16.0446358,31.7763827 16.0225512,31.4868086 C16.0107313,31.3308964 16,30.5937699 16,30.4591545 C16,28.3169104 17.0358,26.3134139 18.7378714,25.0974253 C18.3552786,24.4359504 18.1554283,23.6891291 18.1554283,22.9071837 C18.1554283,20.5182772 20.057039,18.5750159 22.3947432,18.5750159 C23.1652167,18.5750159 23.9022522,18.7836936 24.5469055,19.1735537 C24.8556237,17.3730134 26.3956375,16 28.2446805,16 C30.3151919,16 32,17.7215512 32,19.8374126 C32,21.9534329 30.3151919,23.6748252 28.2446805,23.6748252 Z M25.5780398,19.8374126 C25.5780398,21.3397966 26.7743422,22.5623013 28.2446805,22.5623013 C29.7150189,22.5623013 30.9113213,21.3397966 30.9113213,19.8374126 C30.9113213,18.3348697 29.7150189,17.1125238 28.2446805,17.1125238 C26.7743422,17.1125238 25.5780398,18.3348697 25.5780398,19.8374126 Z M28.7890199,21.0972664 C28.7890199,21.4044819 28.5454669,21.6535283 28.2446805,21.6535283 C27.9440497,21.6535283 27.7003412,21.4046408 27.7003412,21.0972664 L27.7003412,20.3936745 L27.0766838,20.3936745 C26.7762085,20.3936745 26.5323445,20.144787 26.5323445,19.8374126 C26.5323445,19.530356 26.776053,19.2811507 27.0766838,19.2811507 L27.7003412,19.2811507 L27.7003412,18.5775588 C27.7003412,18.2703433 27.9438942,18.0212969 28.2446805,18.0212969 C28.5453114,18.0212969 28.7890199,18.2703433 28.7890199,18.5775588 L28.7890199,19.2811507 L29.4126773,19.2809917 C29.7131526,19.2809917 29.9570166,19.5300381 29.9570166,19.8372537 C29.9570166,20.1444692 29.7133081,20.3935156 29.4126773,20.3935156 L28.7890199,20.3936745 L28.7890199,21.0972664 Z M27.7003412,30.4591545 C27.7006522,28.5138271 26.6712287,26.7062937 25.0136376,25.7418945 C24.8753754,25.6613159 24.778483,25.5230451 24.7484666,25.3634774 C24.7182947,25.2037508 24.7582647,25.0386205 24.85749,24.9114749 C25.3074254,24.3350286 25.5453794,23.6419263 25.5453794,22.9071837 C25.5453794,22.7590591 25.5321598,22.6117292 25.5125635,22.4659886 C25.0358778,21.9488239 24.6976098,21.2972028 24.5595031,20.5729498 C23.9719276,20.0030197 23.209386,19.6875397 22.3947432,19.6875397 C20.6573675,19.6875397 19.244107,21.1319135 19.244107,22.9071837 C19.244107,23.6419263 19.4819056,24.3350286 19.9319965,24.9114749 C20.0310662,25.0386205 20.0708808,25.2037508 20.0408643,25.3634774 C20.0110034,25.5230451 19.914111,25.6613159 19.7756933,25.7418945 C18.1182577,26.7061348 17.0886787,28.5138271 17.0886787,30.4591545 C17.0886787,30.5290846 17.0910116,30.7053401 17.0944332,30.8874762 L27.6947423,30.8874762 C27.6980083,30.7062937 27.7003412,30.5308328 27.7003412,30.4591545 Z"></path>
  </g>
  <g  id="svg-icn-support">
    <path fill="#DBDBDB" d="M8,47.1011531 C4.08436604,47.1011531 0.899466556,43.9154664 0.899466556,40.0003283 C0.899466556,36.0845336 4.08436604,32.8995035 8,32.8995035 C11.915634,32.8995035 15.1005334,36.0845336 15.1005334,40.0003283 C15.1005334,43.9154664 11.915634,47.1011531 8,47.1011531 M8,32 C3.5886746,32 0,35.5888219 0,40.0003283 C0,44.4111781 3.5886746,48 8,48 C12.4113254,48 16,44.4111781 16,40.0003283 C16,35.5888219 12.4113254,32 8,32 M8,43.2713694 C7.60607304,43.2713694 7.28764876,43.5898067 7.28764876,43.9830933 C7.28764876,44.3770364 7.60607304,44.6954738 8,44.6954738 C8.3932704,44.6954738 8.71235124,44.3770364 8.71235124,43.9830933 C8.71235124,43.5898067 8.3932704,43.2713694 8,43.2713694 M8.16413624,36.4246378 C7.21477228,36.4246378 6.42560524,36.7332266 5.74870744,37.3714145 C5.6344686,37.4692437 5.57209684,37.6051541 5.57209684,37.7541959 C5.57209684,38.0201075 5.79597868,38.2374328 6.071071,38.2374328 C6.18334016,38.2374328 6.30611408,38.1914728 6.40196964,38.1146539 C6.9245794,37.6445484 7.49577348,37.4154048 8.14837916,37.4154048 C9.08329912,37.4154048 9.71161264,37.9393492 9.71161264,38.7180434 L9.71161264,38.7423366 C9.71161264,39.3201198 9.38005744,40.0423489 7.7971276,40.194017 C7.67697988,40.207805 7.57718508,40.2570479 7.518096,40.3338668 C7.46622896,40.4021503 7.44587608,40.491444 7.46163316,40.5951824 L7.57981124,41.6089294 C7.6041034,41.7973655 7.73935168,41.9188313 7.92252768,41.9188313 L7.92252768,41.9194879 L7.99343456,41.9194879 C8.16807552,41.9194879 8.3026672,41.7973655 8.33680756,41.6154951 L8.39786624,40.9536707 L8.52786212,40.9313472 C9.5619204,40.7540728 10.7942552,40.221593 10.7942552,38.6944068 L10.7942552,38.6707703 C10.7942552,37.3064139 9.7621666,36.4246378 8.16413624,36.4246378"></path>
  </g>
  <g  id="svg-icn-support-dark">
    <path fill="#666666" d="M24,47.1011531 C20.084366,47.1011531 16.8994666,43.9154664 16.8994666,40.0003283 C16.8994666,36.0845336 20.084366,32.8995035 24,32.8995035 C27.915634,32.8995035 31.1005334,36.0845336 31.1005334,40.0003283 C31.1005334,43.9154664 27.915634,47.1011531 24,47.1011531 M24,32 C19.5886746,32 16,35.5888219 16,40.0003283 C16,44.4111781 19.5886746,48 24,48 C28.4113254,48 32,44.4111781 32,40.0003283 C32,35.5888219 28.4113254,32 24,32 M24,43.2713694 C23.606073,43.2713694 23.2876488,43.5898067 23.2876488,43.9830933 C23.2876488,44.3770364 23.606073,44.6954738 24,44.6954738 C24.3932704,44.6954738 24.7123512,44.3770364 24.7123512,43.9830933 C24.7123512,43.5898067 24.3932704,43.2713694 24,43.2713694 M24.1641362,36.4246378 C23.2147723,36.4246378 22.4256052,36.7332266 21.7487074,37.3714145 C21.6344686,37.4692437 21.5720968,37.6051541 21.5720968,37.7541959 C21.5720968,38.0201075 21.7959787,38.2374328 22.071071,38.2374328 C22.1833402,38.2374328 22.3061141,38.1914728 22.4019696,38.1146539 C22.9245794,37.6445484 23.4957735,37.4154048 24.1483792,37.4154048 C25.0832991,37.4154048 25.7116126,37.9393492 25.7116126,38.7180434 L25.7116126,38.7423366 C25.7116126,39.3201198 25.3800574,40.0423489 23.7971276,40.194017 C23.6769799,40.207805 23.5771851,40.2570479 23.518096,40.3338668 C23.466229,40.4021503 23.4458761,40.491444 23.4616332,40.5951824 L23.5798112,41.6089294 C23.6041034,41.7973655 23.7393517,41.9188313 23.9225277,41.9188313 L23.9225277,41.9194879 L23.9934346,41.9194879 C24.1680755,41.9194879 24.3026672,41.7973655 24.3368076,41.6154951 L24.3978662,40.9536707 L24.5278621,40.9313472 C25.5619204,40.7540728 26.7942552,40.221593 26.7942552,38.6944068 L26.7942552,38.6707703 C26.7942552,37.3064139 25.7621666,36.4246378 24.1641362,36.4246378"></path>
  </g>
  <g id="svg-icn-search">
    <path fill="#C2C2C2" d="M22.0147583,69.0791865 C21.5006607,69.5768066 20.6633378,69.5772489 20.1487831,69.0791865 L16.242419,65.2997067 C16.9341305,64.7689119 17.5531506,64.1534112 18.0798205,63.4666955 L22.0147583,67.274042 C22.5290844,67.7716621 22.5290844,68.5815664 22.0147583,69.0791865 M10.0252448,65.8506274 C5.37985127,65.8506274 1.60012572,62.1941151 1.60012572,57.6996106 C1.60012572,53.205106 5.37985127,49.5481514 10.0252448,49.5481514 C14.6706384,49.5481514 18.4499068,53.205106 18.4499068,57.6996106 C18.4499068,62.1941151 14.6706384,65.8506274 10.0252448,65.8506274 M18.9461743,62.1156017 C19.6500011,60.790163 20.0500325,59.2893408 20.0500325,57.6996106 C20.0500325,52.3511899 15.5527649,48 10.0252448,48 C4.49726763,48 0,52.3511899 0,57.6996106 C0,63.04781 4.49726763,67.3987788 10.0252448,67.3987788 C11.7885834,67.3987788 13.446085,66.9546805 14.8871126,66.1777297 L19.0174942,70.1739507 C19.5864532,70.724429 20.3339405,71 21.081885,71 C21.8293723,71 22.5770882,70.724429 23.1460472,70.1739507 C24.2846509,69.0725516 24.2846509,67.2804558 23.1460472,66.1792779 L18.9461743,62.1156017 Z"></path>
  </g>
  <g id="svg-icn-search-dark">
    <path fill="#666666" d="M46.0147583,69.0791865 C45.5006607,69.5768066 44.6633378,69.5772489 44.1487831,69.0791865 L40.242419,65.2997067 C40.9341305,64.7689119 41.5531506,64.1534112 42.0798205,63.4666955 L46.0147583,67.274042 C46.5290844,67.7716621 46.5290844,68.5815664 46.0147583,69.0791865 M34.0252448,65.8506274 C29.3798513,65.8506274 25.6001257,62.1941151 25.6001257,57.6996106 C25.6001257,53.205106 29.3798513,49.5481514 34.0252448,49.5481514 C38.6706384,49.5481514 42.4499068,53.205106 42.4499068,57.6996106 C42.4499068,62.1941151 38.6706384,65.8506274 34.0252448,65.8506274 M42.9461743,62.1156017 C43.6500011,60.790163 44.0500325,59.2893408 44.0500325,57.6996106 C44.0500325,52.3511899 39.5527649,48 34.0252448,48 C28.4972676,48 24,52.3511899 24,57.6996106 C24,63.04781 28.4972676,67.3987788 34.0252448,67.3987788 C35.7885834,67.3987788 37.446085,66.9546805 38.8871126,66.1777297 L43.0174942,70.1739507 C43.5864532,70.724429 44.3339405,71 45.081885,71 C45.8293723,71 46.5770882,70.724429 47.1460472,70.1739507 C48.2846509,69.0725516 48.2846509,67.2804558 47.1460472,66.1792779 L42.9461743,62.1156017 Z"></path>
  </g>
  <g id="svg-icn-search-black">
    <path fill="#2C2C2C" d="M70.0147583,69.0791865 C69.5006607,69.5768066 68.6633378,69.5772489 68.1487831,69.0791865 L64.242419,65.2997067 C64.9341305,64.7689119 65.5531506,64.1534112 66.0798205,63.4666955 L70.0147583,67.274042 C70.5290844,67.7716621 70.5290844,68.5815664 70.0147583,69.0791865 M58.0252448,65.8506274 C53.3798513,65.8506274 49.6001257,62.1941151 49.6001257,57.6996106 C49.6001257,53.205106 53.3798513,49.5481514 58.0252448,49.5481514 C62.6706384,49.5481514 66.4499068,53.205106 66.4499068,57.6996106 C66.4499068,62.1941151 62.6706384,65.8506274 58.0252448,65.8506274 M66.9461743,62.1156017 C67.6500011,60.790163 68.0500325,59.2893408 68.0500325,57.6996106 C68.0500325,52.3511899 63.5527649,48 58.0252448,48 C52.4972676,48 48,52.3511899 48,57.6996106 C48,63.04781 52.4972676,67.3987788 58.0252448,67.3987788 C59.7885834,67.3987788 61.446085,66.9546805 62.8871126,66.1777297 L67.0174942,70.1739507 C67.5864532,70.724429 68.3339405,71 69.081885,71 C69.8293723,71 70.5770882,70.724429 71.1460472,70.1739507 C72.2846509,69.0725516 72.2846509,67.2804558 71.1460472,66.1792779 L66.9461743,62.1156017 Z"></path>
  </g>
  <g id="svg-icn-search-white">
    <path fill="#FFFFFF" d="M94.0147583,69.0791865 C93.5006607,69.5768066 92.6633378,69.5772489 92.1487831,69.0791865 L88.242419,65.2997067 C88.9341305,64.7689119 89.5531506,64.1534112 90.0798205,63.4666955 L94.0147583,67.274042 C94.5290844,67.7716621 94.5290844,68.5815664 94.0147583,69.0791865 M82.0252448,65.8506274 C77.3798513,65.8506274 73.6001257,62.1941151 73.6001257,57.6996106 C73.6001257,53.205106 77.3798513,49.5481514 82.0252448,49.5481514 C86.6706384,49.5481514 90.4499068,53.205106 90.4499068,57.6996106 C90.4499068,62.1941151 86.6706384,65.8506274 82.0252448,65.8506274 M90.9461743,62.1156017 C91.6500011,60.790163 92.0500325,59.2893408 92.0500325,57.6996106 C92.0500325,52.3511899 87.5527649,48 82.0252448,48 C76.4972676,48 72,52.3511899 72,57.6996106 C72,63.04781 76.4972676,67.3987788 82.0252448,67.3987788 C83.7885834,67.3987788 85.446085,66.9546805 86.8871126,66.1777297 L91.0174942,70.1739507 C91.5864532,70.724429 92.3339405,71 93.081885,71 C93.8293723,71 94.5770882,70.724429 95.1460472,70.1739507 C96.2846509,69.0725516 96.2846509,67.2804558 95.1460472,66.1792779 L90.9461743,62.1156017 Z"></path>
  </g>
  <g id="svg-icn-hamburger">
    <path fill="#666666" d="M1.31147541,89.3252026 L30.6885246,89.3252026 C31.4128325,89.3252026 32,89.9239764 32,90.6626013 C32,91.4012262 31.4128325,92 30.6885246,92 L1.31147541,92 C0.587167544,92 8.87021314e-17,91.4012262 0,90.6626013 C-8.87021314e-17,89.9239764 0.587167544,89.3252026 1.31147541,89.3252026 Z M1.31147541,80.5606883 L30.6885246,80.5606883 C31.4128325,80.5606883 32,81.1594621 32,81.898087 C32,82.636712 31.4128325,83.2354858 30.6885246,83.2354858 L1.31147541,83.2354858 C0.587167544,83.2354858 8.87021314e-17,82.636712 0,81.898087 C-8.87021314e-17,81.1594621 0.587167544,80.5606883 1.31147541,80.5606883 Z M1.31147541,72 L9.35304446,72 L30.6885246,72 C31.4128325,72 32,72.5987738 32,73.3373987 C32,74.0760236 31.4128325,74.6747974 30.6885246,74.6747974 L1.31147541,74.6747974 C0.587167544,74.6747974 8.87021314e-17,74.0760236 0,73.3373987 C-8.87021314e-17,72.5987738 0.587167544,72 1.31147541,72 Z"></path>
  </g>
  <g id="svg-icn-information">
    <path fill="#3E8518" d="M12,97.0652121 C11.4189091,97.0652121 10.9481212,97.536 10.9481212,98.1170909 C10.9481212,98.6981818 11.4189091,99.1689697 12,99.1689697 C12.5808485,99.1689697 13.0518788,98.6981818 13.0518788,98.1170909 C13.0518788,97.5362424 12.5808485,97.0652121 12,97.0652121 M12,114.30303 C6.31878788,114.30303 1.6969697,109.681212 1.6969697,104 C1.6969697,98.3190303 6.31878788,93.6969697 12,93.6969697 C17.6812121,93.6969697 22.3030303,98.3190303 22.3030303,104 C22.3030303,109.681212 17.6812121,114.30303 12,114.30303 M12,92 C5.38327273,92 0,97.3832727 0,104 C0,110.61697 5.38327273,116 12,116 C18.6167273,116 24,110.61697 24,104 C24,97.3832727 18.6167273,92 12,92 M12,101.09503 C11.5313939,101.09503 11.1515152,101.474909 11.1515152,101.943515 L11.1515152,110.407273 C11.1515152,110.875879 11.5313939,111.255758 12,111.255758 C12.4686061,111.255758 12.8484848,110.875879 12.8484848,110.407273 L12.8484848,101.943515 C12.8484848,101.474909 12.4686061,101.09503 12,101.09503"></path>
  </g>
  <g id="svg-icn-open-plus-grey-16x16">
    <path fill="#999999" d="M7,123 L7,117 C7,116.447715 7.44771525,116 8,116 C8.55228475,116 9,116.447715 9,117 L9,123 L15,123 C15.5522847,123 16,123.447715 16,124 C16,124.552285 15.5522847,125 15,125 L9,125 L9,131 C9,131.552285 8.55228475,132 8,132 C7.44771525,132 7,131.552285 7,131 L7,125 L1,125 C0.44771525,125 6.76353751e-17,124.552285 0,124 C-6.76353751e-17,123.447715 0.44771525,123 1,123 L7,123 Z"></path>
  </g>
  <g id="svg-icn-open-plus-black-16x16">
    <path fill="#2C2C2C" d="M23,123 L23,117 C23,116.447715 23.4477153,116 24,116 C24.5522847,116 25,116.447715 25,117 L25,123 L31,123 C31.5522847,123 32,123.447715 32,124 C32,124.552285 31.5522847,125 31,125 L25,125 L25,131 C25,131.552285 24.5522847,132 24,132 C23.4477153,132 23,131.552285 23,131 L23,125 L17,125 C16.4477153,125 16,124.552285 16,124 C16,123.447715 16.4477153,123 17,123 L23,123 Z"></path>
  </g>
  <g id="svg-icn-close-minus-grey">
    <rect fill="#999999" x="0" y="139" width="16" height="2" rx="1"></rect>
  </g>
  <g id="svg-icn-close-minus-black">
    <rect fill="#2C2C2C" x="16" y="139" width="16" height="2" rx="1"></rect>
  </g>
  <g  id="svg-icn-form-icn-close-white">
    <path fill="#FFFFFF" d="M6.79547768,160 L1.07789187,154.282414 C-0.359297289,152.845225 -0.359297289,150.515081 1.07789187,149.077892 C2.51508102,147.640703 4.84522503,147.640703 6.28241419,149.077892 L12,154.795478 L17.7175858,149.077892 C19.154775,147.640703 21.484919,147.640703 22.9221081,149.077892 C24.3592973,150.515081 24.3592973,152.845225 22.9221081,154.282414 L17.2045223,160 L22.9221081,165.717586 C24.3592973,167.154775 24.3592973,169.484919 22.9221081,170.922108 C21.484919,172.359297 19.154775,172.359297 17.7175858,170.922108 L12,165.204522 L6.28241419,170.922108 C4.84522503,172.359297 2.51508102,172.359297 1.07789187,170.922108 C-0.359297289,169.484919 -0.359297289,167.154775 1.07789187,165.717586 L6.79547768,160 Z"></path>
  </g>
  <g id="svg-icn-user-log">
    <path fill="#94CE28" d="M12.4253383,185 L0.574661621,185 C0.285670852,185 0.0453721829,184.783615 0.0229232281,184.503054 C0.0109082948,184.352078 0,183.638286 0,183.507932 C0,181.433503 1.05288759,179.493584 2.78303801,178.315935 C2.39413358,177.6754 2.19098635,176.95222 2.19098635,176.195028 C2.19098635,173.881899 4.12412591,172 6.50023709,172 C8.87619019,172 10.8093297,173.881899 10.8093297,176.195028 C10.8093297,176.95222 10.6061825,177.675246 10.2172781,178.315935 C11.9475866,179.493584 13.0003161,181.433657 12.9999999,183.508086 C12.9999999,183.615047 12.9895659,184.348692 12.9769186,184.503824 C12.9541535,184.784077 12.7140129,185 12.4253383,185 Z"></path>
  </g>
  <g id="svg-icn-user-log-notified">
    <g transform="translate(0.000000, 185.000000)">
      <path fill="#DC000A" d="M11.8484848,17 C9.28789192,17 7.21212121,14.9242293 7.21212121,12.3636364 C7.21212121,9.80304343 9.28789192,7.72727273 11.8484848,7.72727273 C14.4090778,7.72727273 16.4848485,9.80304343 16.4848485,12.3636364 C16.4848485,14.9242293 14.4090778,17 11.8484848,17 Z M11.8484848,13.9090909 C12.7020158,13.9090909 13.3939394,13.2171673 13.3939394,12.3636364 C13.3939394,11.5101054 12.7020158,10.8181818 11.8484848,10.8181818 C10.9949539,10.8181818 10.3030303,11.5101054 10.3030303,12.3636364 C10.3030303,13.2171673 10.9949539,13.9090909 11.8484848,13.9090909 Z"></path>
      <path fill="#94CE28" d="M10.4781818,6.87160606 C10.2515152,6.64751515 10.0124848,6.43372727 9.75027273,6.24518182 C10.1100228,5.61389837 10.2979492,4.89931651 10.295303,4.17272727 C10.295303,1.87206061 8.45054545,0 6.18181818,0 C3.91309091,0 2.06781818,1.87206061 2.06781818,4.17272727 C2.06781818,4.91145455 2.25533333,5.61824242 2.61181818,6.24621212 C0.987545455,7.41406061 0,9.32424242 0,11.3657879 C0,11.4837576 0.0103030303,12.2394848 0.0216363636,12.3873333 C0.0437878788,12.688697 0.289515152,12.964303 0.586757576,12.964303 L6.20809091,12.964303 C6.19263636,12.964303 6.18130303,12.5805152 6.18130303,12.4069091 C6.18130303,9.75542424 8.01524242,7.48669697 10.4781818,6.87160606"></path>
    </g>
  </g>
  <g id="svg-icn-close-cross-white-16x16">
    <path fill="#FFFFFF" d="M7.53381233,208 L11.6823365,212.148524 C12.1058878,212.572075 12.1058878,213.258785 11.6823365,213.682336 C11.2587852,214.105888 10.5720755,214.105888 10.1485242,213.682337 L5.99999998,209.533812 L1.85147584,213.682336 C1.42814362,214.105669 0.741214833,214.105888 0.317663492,213.682337 C-0.10588785,213.258785 -0.105668694,212.571856 0.31766353,212.148524 L4.46618766,208 L0.317663472,203.851476 C-0.105887832,203.427925 -0.105887829,202.741215 0.31766351,202.317663 C0.741214812,201.894112 1.42792452,201.894112 1.85147583,202.317663 L6.00000002,206.466188 L10.1485242,202.317663 C10.5718564,201.894331 11.2587852,201.894112 11.6823365,202.317663 C12.1058878,202.741215 12.1056687,203.428144 11.6823365,203.851476 L7.53381233,208 Z"></path>
  </g>
  <g id="svg-icn-close-cross-black-16x16">
    <path fill="#2C2C2C" d="M19.5338123,208 L23.6823365,212.148524 C24.1058878,212.572075 24.1058878,213.258785 23.6823365,213.682336 C23.2587852,214.105888 22.5720755,214.105888 22.1485242,213.682337 L18,209.533812 L13.8514758,213.682336 C13.4281436,214.105669 12.7412148,214.105888 12.3176635,213.682337 C11.8941122,213.258785 11.8943313,212.571856 12.3176635,212.148524 L16.4661877,208 L12.3176635,203.851476 C11.8941122,203.427925 11.8941122,202.741215 12.3176635,202.317663 C12.7412148,201.894112 13.4279245,201.894112 13.8514758,202.317663 L18,206.466188 L22.1485242,202.317663 C22.5718564,201.894331 23.2587852,201.894112 23.6823365,202.317663 C24.1058878,202.741215 24.1056687,203.428144 23.6823365,203.851476 L19.5338123,208 Z"></path>
  </g>
  <g id="svg-check2">
    <g transform="translate(0.000000, 261.000000)">
      <rect fill="#999999" x="0" y="0" width="24" height="24"></rect>
      <rect fill="#FFFFFF" x="2" y="2" width="20" height="20"></rect>
    </g>
  </g>
  <g id="svg-check1">
    <g  transform="translate(24.000000, 261.000000)">
      <g>
        <rect fill="#999999" x="0" y="0" width="24" height="24"></rect>
        <rect fill="#FFFFFF" x="2" y="2" width="20" height="20"></rect>
      </g>
      <g transform="translate(6.000000, 7.000000)" stroke="#999999" stroke-linecap="round" stroke-linejoin="round" stroke-width="2.6777">
        <path d="M4.742,9.312 L12.988,0.688"></path>
        <path d="M4.742,9.312 L0.012,4.582"></path>
      </g>
    </g>
  </g>
  <g id="svg-icn-show-pass-grey">
    <g transform="translate(0.000000, 285.000000)">
      <path fill="#C2C2C2" d="M7.98840016,6.51617658 C7.17526068,6.51617658 6.51379489,7.17764237 6.51379489,7.99078184 C6.51379489,8.80392132 7.17526068,9.46538711 7.98840016,9.46538711 C8.80153963,9.46538711 9.46300542,8.80392132 9.46300542,7.99078184 C9.46300542,7.17764237 8.80153963,6.51617658 7.98840016,6.51617658 L7.98840016,6.51617658 Z M7.98840016,10.4484573 C6.63330814,10.4484573 5.53072472,9.34587386 5.53072472,7.99078184 C5.53072472,6.63568982 6.63330814,5.5331064 7.98840016,5.5331064 C9.34349218,5.5331064 10.4460756,6.63568982 10.4460756,7.99078184 C10.4460756,9.34587386 9.34349218,10.4484573 7.98840016,10.4484573 Z M1.13446298,7.99092228 C1.47390307,8.37684754 2.1336836,9.07707439 3.01044175,9.76929623 C4.1829636,10.6950675 5.99841333,11.7984935 7.98842825,11.7984935 C11.2202012,11.7984935 14.0060817,8.94014675 14.8423935,7.9906414 C14.5030939,7.60471614 13.8430325,6.9044893 12.9664147,6.21226746 C11.7938929,5.28663667 9.97844316,4.18307018 7.98842825,4.18307018 C4.7567957,4.18307018 1.97091526,7.04113605 1.13446298,7.99092228 Z M7.98842825,12.7815637 C6.1835114,12.7815637 4.24489702,12.0015677 2.38211947,10.5256985 C0.995288333,9.42704737 0.139876842,8.33906956 0.104065,8.29328658 C-0.0346883333,8.11549132 -0.0346883333,7.86607237 0.104065,7.68827711 C0.139876842,7.64249412 0.995288333,6.55451632 2.38211947,5.45586518 C4.24489702,3.9801364 6.1835114,3.2 7.98842825,3.2 C9.79320465,3.2 11.7319595,3.9801364 13.594737,5.45586518 C14.9814277,6.55451632 15.8369796,7.64249412 15.8726511,7.68827711 C16.0115448,7.86607237 16.0115448,8.11549132 15.8726511,8.29328658 C15.8369796,8.33906956 14.9815682,9.42704737 13.594737,10.5256985 C11.7319595,12.0015677 9.79320465,12.7815637 7.98842825,12.7815637 Z"></path>
    </g>
  </g>
  <g id="svg-icn-show-pass-dark">
    <path fill="#666666" d="M31.6606106,293.308274 C29.1210521,294.144759 27.0930578,295.494743 26.0597839,296.26909 C27.0939596,297.04207 29.1230813,298.390916 31.6581306,299.228312 C31.0915547,298.383405 30.7601315,297.364828 30.7601315,296.27 C30.7601315,295.173351 31.0924565,294.153863 31.6606106,293.308274 Z M40.3420949,299.228312 C42.8760169,298.391372 44.9046877,297.043208 45.9393142,296.27 C44.9049131,295.496792 42.8762424,294.148401 40.3418694,293.311688 C40.9086707,294.156595 41.2398685,295.174944 41.2398685,296.27 C41.2398685,297.364828 40.9086707,298.383405 40.3420949,299.228312 Z M32.3383373,296.27 C32.3383373,298.308292 33.981024,299.966695 36.0002255,299.966695 C38.0192015,299.966695 39.6616627,298.308292 39.6616627,296.27 C39.6616627,294.231708 38.0192015,292.573305 36.0002255,292.573305 C33.981024,292.573305 32.3383373,294.231708 32.3383373,296.27 Z M24,296.27 C24,296.042157 24.0967215,295.82524 24.2655895,295.674104 C24.4795491,295.482452 29.5809864,290.98 36.0002255,290.98 C42.4190136,290.98 47.5204509,295.482452 47.7344105,295.674104 C47.9032786,295.82524 48,296.042157 48,296.27 C48,296.497843 47.9032786,296.71476 47.7344105,296.865896 C47.5204509,297.057548 42.4190136,301.56 36.0002255,301.56 C29.5809864,301.56 24.4795491,297.057548 24.2655895,296.865896 C24.0967215,296.71476 24,296.497843 24,296.27 Z M35.3207547,305.087718 C35.3207547,304.663718 35.6248625,304.32 36,304.32 C36.3751375,304.32 36.6792453,304.663718 36.6792453,305.087718 L36.6792453,307.232282 C36.6792453,307.656282 36.3751375,308 36,308 C35.6248625,308 35.3207547,307.656282 35.3207547,307.232282 L35.3207547,305.087718 Z M39.7919884,303.053171 C40.1718901,302.822025 40.6599123,302.956147 40.8813888,303.353518 L42.0049325,305.368435 C42.2261814,305.765806 42.0975748,306.275421 41.7174456,306.506567 C41.5913428,306.583378 41.4534037,306.62 41.3172855,306.62 C41.0430006,306.62 40.7759997,306.471848 40.6280452,306.206458 L39.5045014,304.191303 C39.2832525,303.793932 39.4118592,303.284555 39.7919884,303.053171 Z M31.1185421,303.353284 C31.3400289,302.956122 31.8278462,302.822228 32.2079932,303.052915 C32.5881401,303.284315 32.7167527,303.793967 32.4954935,304.191129 L31.3721251,306.206428 C31.2241637,306.471837 30.9571503,306.62 30.6828527,306.62 C30.5467282,306.62 30.4087827,306.583375 30.282674,306.506797 C29.9025271,306.275397 29.7736868,305.765983 29.9951737,305.368583 L31.1185421,303.353284 Z M36.6792453,287.912282 C36.6792453,288.336282 36.3751375,288.68 36,288.68 C35.6248625,288.68 35.3207547,288.336282 35.3207547,287.912282 L35.3207547,285.767718 C35.3207547,285.343718 35.6248625,285 36,285 C36.3751375,285 36.6792453,285.343718 36.6792453,285.767718 L36.6792453,287.912282 Z M40.1922754,290.06 C40.0561614,290.06 39.9182265,290.023377 39.7921276,289.946562 C39.4117824,289.715407 39.2831798,289.20577 39.5046495,288.808381 L40.6281587,286.793378 C40.8494008,286.396227 41.337408,286.2621 41.7175256,286.493018 C42.0976432,286.724411 42.2262459,287.23381 42.0047762,287.631199 L40.8814945,289.64644 C40.7335446,289.911841 40.4665518,290.06 40.1922754,290.06 Z M31.807743,290.06 C31.5334555,290.06 31.2664521,289.911846 31.1184962,289.646452 L29.9951697,287.631268 C29.773691,287.233892 29.9025265,286.724507 30.2826593,286.49312 C30.6630197,286.261971 31.1508189,286.396332 31.3720698,286.793471 L32.4953964,288.808417 C32.716875,289.205794 32.5880395,289.715416 32.2079068,289.946566 C32.0818028,290.023378 31.9438624,290.06 31.807743,290.06 Z"></path>
  </g>
  <g id="svg-icn-hide-pass-grey">
    <g transform="translate(0.000000, 308.000000)">
      <path fill="#C2C2C2" d="M7.70788108,10.4244692 L10.3221807,7.24981966 C10.3982282,7.48596716 10.4502607,7.732788 10.4502607,7.99428466 C10.4502607,9.349798 9.34690483,10.4531538 7.9913915,10.4531538 C7.89399733,10.4531538 7.80193983,10.4351426 7.70788108,10.4244692 Z M12.9712353,6.21517341 C12.640362,5.95367675 12.2534536,5.6795055 11.8298557,5.41867591 L12.4589153,4.6548655 C12.841154,4.89634966 13.2220586,5.1591805 13.5996278,5.45803383 C14.9871611,6.55738716 15.843029,7.64606716 15.8790515,7.69142883 C16.0178049,7.86954008 16.0178049,8.11902925 15.8790515,8.2971405 C15.843029,8.34250216 14.9871611,9.43118216 13.5996278,10.5305355 C11.736464,12.0067909 9.79658571,12.7872784 7.99145821,12.7872784 C7.34438738,12.7872784 6.68063946,12.6825463 6.00955363,12.4864238 L6.70065196,11.6479001 C7.11958029,11.7426259 7.54984904,11.8033305 7.99145821,11.8033305 C11.224144,11.8033305 14.0118853,8.94421133 14.8477407,7.99428466 C14.5088624,7.60804341 13.8484499,6.90760591 12.9712353,6.21517341 Z M3.01121417,9.77372946 C3.33474958,10.0292224 3.71165167,10.2967228 4.12390917,10.5522157 L3.49551667,11.315359 C3.12261708,11.0792115 2.75105167,10.8223845 2.38282167,10.530202 C0.995288333,9.43151571 0.139420417,8.34283571 0.104065,8.29680696 C-0.0346883333,8.11936279 -0.0346883333,7.86987362 0.104065,7.69176237 C0.139420417,7.64573362 0.995288333,6.55772071 2.38282167,5.45836737 C4.2466525,3.98211196 6.18586375,3.20162446 7.99099125,3.20162446 C8.62605458,3.20162446 9.27846208,3.30368821 9.93754042,3.49247279 L9.24510792,4.33366487 C8.83752,4.24427571 8.41992583,4.18490529 7.99099125,4.18490529 C4.75830542,4.18490529 1.97123125,7.04469154 1.13470875,7.99461821 C1.47425417,8.38085946 2.13399958,9.08129696 3.01121417,9.77372946 Z M12.5647147,1.35240275 C12.8488922,1.586549 12.8895843,2.0068115 12.655438,2.29165608 L11.254563,3.99271858 L10.6074922,4.77854275 L9.52748429,6.09002858 L8.90509554,6.84516691 L7.03926346,9.111249 L6.41687471,9.86705441 L5.32686054,11.1905477 L4.68112388,11.9743707 L3.31627138,13.6320727 C3.18418888,13.7921727 2.99340304,13.8748911 2.80128304,13.8748911 C2.65185638,13.8748911 2.50176263,13.8248598 2.37768513,13.7227961 C2.09284054,13.4886498 2.05214846,13.0677202 2.28629471,12.7835427 L3.49571679,11.3152923 L4.12410929,10.5528161 L5.64839471,8.70099275 C5.58035221,8.47551858 5.53232221,8.24137233 5.53232221,7.9945515 C5.53232221,6.63837108 6.63567804,5.53568233 7.99119138,5.53568233 C8.07524388,5.53568233 8.15395971,5.55169233 8.23534388,5.56036441 L9.24530804,4.33359816 L9.93774054,3.49240608 L11.6254614,1.44312608 C11.8596076,1.15894858 12.2805372,1.11758941 12.5647147,1.35240275 Z"></path>
    </g>
  </g>
  <g id="svg-icn-hide-pass-dark">
    <path fill="#666666" d="M40.3325868,322.474548 C40.906607,321.602406 41.2427772,320.549285 41.2427772,319.416012 C41.2427772,318.284133 40.9075028,317.232174 40.3348264,316.360729 C42.8826428,317.224507 44.9213886,318.62077 45.9552072,319.416942 C44.9222845,320.214275 42.8846585,321.611467 40.3325868,322.474548 M31.6676372,316.357245 C31.093617,317.229386 30.7572229,318.282507 30.7572229,319.416012 C30.7572229,320.547891 31.0924972,321.599618 31.6651736,322.471063 C29.1175812,321.607285 27.0788354,320.211487 26.0447928,319.415083 C27.0777156,318.617517 29.1155655,317.220325 31.6676372,316.357245 M32.324972,319.416012 C32.324972,317.313719 33.9735722,315.603588 36,315.603588 C36.6960806,315.603588 37.3451288,315.808962 37.9005599,316.159073 L32.8604703,321.387275 C32.5229563,320.811113 32.324972,320.137841 32.324972,319.416012 M39.675028,319.416012 C39.675028,321.518073 38.0264278,323.228204 36,323.228204 C35.2362822,323.228204 34.5263158,322.984729 33.9379619,322.569335 L39.0400896,317.27678 C39.4405375,317.887325 39.675028,318.623558 39.675028,319.416012 M41.268981,314.964931 L46.6447929,309.388245 C46.9509518,309.070891 46.9509518,308.55583 46.6447929,308.238477 C46.3386338,307.920659 45.8423292,307.920659 45.5361702,308.238477 L39.5614782,314.435931 C38.4409855,314.153194 37.2456887,313.977325 36,313.977325 C29.5816349,313.977325 24.4774916,318.61078 24.2633819,318.808022 C24.0958567,318.962285 24,319.183689 24,319.416012 C24,319.648335 24.0958567,319.86974 24.2633819,320.024002 C24.4114222,320.160376 26.8972005,322.416234 30.5381859,323.796234 L24.931467,329.612214 C24.625308,329.929568 24.625308,330.444628 24.931467,330.761982 C25.0844345,330.920659 25.2851064,331.000113 25.4857783,331.000113 C25.6862262,331.000113 25.8868981,330.920659 26.0400896,330.761982 L32.2300112,324.341032 C33.4103024,324.655598 34.6765957,324.854467 36,324.854467 C42.4183651,324.854467 47.5225084,320.221245 47.7366182,320.024002 C47.9041434,319.86974 48,319.648335 48,319.416012 C48,319.183689 47.9041434,318.962285 47.7366182,318.808022 C47.5861142,318.669325 45.0141097,316.3368 41.268981,314.964931"></path>
  </g>
  <g id="svg-icn-attention">
    <g transform="translate(0.000000, 331.000000)">
      <path fill="#FFFFFF" d="M11.9076191,22.2139669 C6.28146152,22.2139669 1.70443164,17.636937 1.70443164,12.0107794 C1.70443164,6.38462174 6.28146152,1.80759187 11.9076191,1.80759187 C17.5337768,1.80759187 22.1108066,6.38462174 22.1108066,12.0107794 C22.1108066,17.636937 17.5337768,22.2139669 11.9076191,22.2139669 M11.9076191,0.127066868 C5.35501209,0.127066868 0.02390664,5.45817232 0.02390664,12.0107794 C0.02390664,18.5633864 5.35501209,23.8944919 11.9076191,23.8944919 C18.4602262,23.8944919 23.7913316,18.5633864 23.7913316,12.0107794 C23.7913316,5.45817232 18.4602262,0.127066868 11.9076191,0.127066868 M11.9076191,14.8875981 C12.3716841,14.8875981 12.7478816,14.5114006 12.7478816,14.0473356 L12.7478816,5.66559712 C12.7478816,5.20153214 12.3716841,4.82533462 11.9076191,4.82533462 C11.4435542,4.82533462 11.0673566,5.20153214 11.0673566,5.66559712 L11.0673566,14.0473356 C11.0673566,14.5114006 11.4435542,14.8875981 11.9076191,14.8875981 M11.9076191,16.794994 C11.3321594,16.794994 10.8659337,17.2612196 10.8659337,17.8366794 C10.8659337,18.4118991 11.3323994,18.8783648 11.9076191,18.8783648 C12.4828388,18.8783648 12.9493046,18.4121392 12.9493046,17.8366794 C12.9493046,17.2612196 12.4828388,16.794994 11.9076191,16.794994"></path>
    </g>
  </g>



  <g id="svg-btn-theme-google" stroke="none" stroke-width="1" fill="none" fill-rule="evenodd" transform="translate(0, 355)">
    <path d="M14.4827586,5.6 C17.2022989,5.6 19.0367816,6.77471264 20.0827586,7.75632184 L24.1701149,3.76551724 C21.6597701,1.43218391 18.3931034,0 14.4827586,0 C8.8183908,0 3.92643678,3.25057471 1.54482759,7.9816092 L6.22758621,11.6183908 C7.40229885,8.12643678 10.6528736,5.6 14.4827586,5.6 L14.4827586,5.6 Z" id="Shape" fill="#EA4335"></path>
    <path d="M28.3862069,14.8045977 C28.3862069,13.6137931 28.2896552,12.7448276 28.0804598,11.8436782 L14.4827586,11.8436782 L14.4827586,17.2183908 L22.4643678,17.2183908 C22.3034483,18.554023 21.4344828,20.5655172 19.5034483,21.9172414 L24.0735632,25.4574713 C26.8091954,22.9310345 28.3862069,19.2137931 28.3862069,14.8045977 L28.3862069,14.8045977 Z" id="Shape" fill="#4285F4"></path>
    <path d="M6.24367816,17.3471264 C5.93793103,16.445977 5.76091954,15.4804598 5.76091954,14.4827586 C5.76091954,13.4850575 5.93793103,12.5195402 6.22758621,11.6183908 L1.54482759,7.9816092 C0.563218391,9.94482759 0,12.1494253 0,14.4827586 C0,16.816092 0.563218391,19.0206897 1.54482759,20.983908 L6.24367816,17.3471264 L6.24367816,17.3471264 Z" id="Shape" fill="#FBBC05"></path>
    <path d="M14.4827586,28.9655172 C18.3931034,28.9655172 21.6758621,27.6781609 24.0735632,25.4574713 L19.5034483,21.9172414 C18.2804598,22.7701149 16.6390805,23.3655172 14.4827586,23.3655172 C10.6528736,23.3655172 7.40229885,20.8390805 6.24367816,17.3471264 L1.56091954,20.983908 C3.94252874,25.7149425 8.8183908,28.9655172 14.4827586,28.9655172 L14.4827586,28.9655172 Z" id="Shape" fill="#34A853"></path>
    <polygon id="Shape" points="0 0 28.9655172 0 28.9655172 28.9655172 0 28.9655172"></polygon>
  </g>

  <g id="svg-btn-inset-theme-facebook" stroke="none" stroke-width="1" fill="none" fill-rule="evenodd" transform="translate(0, 385)">
    <g id="Button-/-Login-Simple-/-Facebook-/-default" transform="translate(-20.000000, -13.000000)" fill="#FFFFFF">
      <g id="Group">
        <path d="M30.2718053,42.4827586 L30.2718053,29.2952061 L34.8759973,29.2952061 L35.5423935,24.1143818 L30.2718053,24.1143818 L30.2718053,20.8174937 C30.2718053,19.3456686 30.6958756,18.2859546 32.8768087,18.2859546 L35.7241379,18.2859546 L35.7241379,13.6938604 C34.3913455,13.5761144 32.9979716,13.5172414 31.6045977,13.5172414 C27.6062204,13.5172414 24.8194726,15.8721615 24.8194726,20.2876367 L24.8194726,24.1143818 L20.2758621,24.1143818 L20.2758621,29.2952061 L24.8194726,29.2952061 L24.8194726,42.4827586 L30.2718053,42.4827586 Z" id="f"></path>
      </g>
    </g>
  </g>

  <g id="svg-btn-outset-theme-facebook" stroke="none" stroke-width="1" fill="none" fill-rule="evenodd" transform="translate(16, 385)">
    <g id="Button-/-Login-/-Facebook-/-hover" transform="translate(-8.000000, -8.000000)" fill="#FFFFFF">
      <g id="Group" transform="translate(8.000000, 8.000000)">
        <g id="Rectangle-43-+-Sign-in-with-Google-+-Shape-Copy-2">
          <g id="flogo-HexRBG-Wht-58">
            <path d="M22.6736842,0 L1.32631579,0 C0.593811805,0 0,0.593811805 0,1.32631579 L0,22.6736842 C0,23.4061882 0.593811805,24 1.32631579,24 L12.8210526,24 L12.8210526,14.7368421 L9.68421053,14.7368421 L9.68421053,11.0863158 L12.8042105,11.0863158 L12.8042105,8.42105263 C12.8042105,5.31789474 14.6947368,3.62947368 17.4610526,3.62947368 C18.4007893,3.63226577 19.3396934,3.68567648 20.2736842,3.78947368 L20.2736842,7.02736842 L18.3621053,7.02736842 C16.8589474,7.02736842 16.5684211,7.73894737 16.5684211,8.78736842 L16.5684211,11.1031579 L20.1684211,11.1031579 L19.7010526,14.7368421 L16.5684211,14.7368421 L16.5684211,24 L22.6736842,24 C23.4061882,24 24,23.4061882 24,22.6736842 L24,1.32631579 C24,0.593811805 23.4061882,0 22.6736842,0 Z" id="Path"></path>
          </g>
        </g>
      </g>
    </g>
  </g>

  <g id="svg-btn-theme-apple" stroke="none" stroke-width="1" fill="none" fill-rule="evenodd" transform="translate(0, 415)">
    <g id="Button-/-Login-Simple-/-Apple-2-/-default" transform="translate(-19.000000, -16.000000)" fill="#FFFFFF" fill-rule="nonzero">
      <g id="Group-5">
        <g id="Group-Copy" transform="translate(19.000000, 16.000000)">
          <path d="M13.5161153,5.29651332 L13.7944563,5.31337 C14.4946869,5.33332007 16.4873234,5.58352727 17.7729229,7.41477791 C17.669122,7.47545939 15.3991158,8.77886429 15.4237898,11.4579931 C15.4518671,14.669124 18.2987339,15.7306342 18.3336178,15.7422718 C18.3166012,15.8170845 17.8877845,17.2742713 16.8199967,18.7539018 C15.9283302,20.0564755 14.9941222,21.3299553 13.5102802,21.3532304 C12.0689794,21.3856492 11.5840081,20.524471 9.93085144,20.524471 C8.26237991,20.524471 7.74592799,21.3299553 6.3633343,21.3856492 C4.95011083,21.4363557 3.87041151,19.9949628 2.94641351,18.7040267 C1.09926834,16.068123 -0.338629101,11.2759487 1.58934463,8.01494267 C2.52355255,6.41561165 4.22690798,5.38568902 6.04767752,5.35825767 C7.46260263,5.32999506 8.77542852,6.29175493 9.6449736,6.29175493 C10.4975021,6.29175493 12.1208798,5.1413006 13.7944563,5.31337 Z M13.8123237,0.180381929 C13.953561,1.4347429 13.4447665,2.6708163 12.7011438,3.57937597 C11.9251897,4.47380434 10.6838332,5.15792566 9.47480822,5.06981283 C9.31655442,3.86283329 9.92914978,2.57937846 10.6149163,1.79633801 C11.3900195,0.907728417 12.7360277,0.226932104 13.8123237,0.180381929 Z" id="Combined-Shape"></path>
        </g>
      </g>
    </g>
  </g>

  <g id="svg-megamenu-external-link" transform="translate(0, 440)">
    <path d="M8.85784 3.78121L8.85784 10.17C8.85784 10.5724 8.53041 10.8998 8.12804 10.8998L1.53811 10.8998C1.13563 10.8998 0.808197 10.5724 0.808197 10.17L0.808197 3.78121C0.808197 3.37884 1.13563 3.05141 1.53811 3.05141L8.12804 3.05141C8.20193 3.05141 8.27328 3.06261 8.34059 3.08316L4.73384 6.68991C4.57613 6.84774 4.57613 7.10359 4.73384 7.26142C4.81281 7.34028 4.91626 7.37976 5.0196 7.37976C5.12305 7.37976 5.2265 7.34028 5.30535 7.26142L8.85438 3.7124C8.85645 3.73514 8.85784 3.758 8.85784 3.78121ZM12.0074 0.404099C12.0074 0.180921 11.8265 0 11.6033 0L8.08151 0C7.85845 0 7.67741 0.180805 7.67741 0.404099C7.67741 0.627276 7.85833 0.808197 8.08151 0.808197L10.6156 0.808197L8.94397 2.4799C8.70705 2.33073 8.42788 2.24321 8.12804 2.24321L1.53811 2.24321C0.689969 2.24321 0 2.93318 0 3.78121L0 10.17C0 11.018 0.689969 11.708 1.53811 11.708L8.12804 11.708C8.97607 11.708 9.66604 11.018 9.66604 10.17L9.66604 3.78121C9.66604 3.52628 9.60277 3.28613 9.49251 3.07427L11.1992 1.36747L11.1993 3.92588C11.1993 4.14905 11.3802 4.32997 11.6034 4.32997C11.8266 4.32997 12.0075 4.14905 12.0075 3.92588L12.0074 0.404099Z" transform="translate(-0.00375 -0.00375)" id="External-Link" fill="#4A4A4A" stroke="none" />
  </g>

  <g id="svg-megamenu-banner-arrow-white" transform="translate(0, 455)">
    <path d="M0.0717707 0.415403C-0.0250654 0.319249 -0.0237427 0.164645 0.0747252 0.0700841C0.173193 -0.0244765 0.331518 -0.0231848 0.428354 0.072969L3.76252 3.38364C3.85822 3.47866 3.85822 3.63106 3.76252 3.72608L0.538855 6.92703C0.442019 7.02318 0.283694 7.02448 0.185226 6.92992C0.0867577 6.83536 0.0854349 6.68075 0.182271 6.5846L3.23351 3.55486L0.0717707 0.415403Z" transform="matrix(1 2.1456883E-07 2.1456883E-07 -1 2.1999993 7.5)" fill="#FFFFFF" fill-rule="evenodd" stroke="none" />
  </g>

  <g id="svg-megamenu-banner-arrow-dark" transform="translate(8, 455)">
    <path d="M0.0717707 0.415403C-0.0250654 0.319249 -0.0237427 0.164645 0.0747252 0.0700841C0.173193 -0.0244765 0.331518 -0.0231848 0.428354 0.072969L3.76252 3.38364C3.85822 3.47866 3.85822 3.63106 3.76252 3.72608L0.538855 6.92703C0.442019 7.02318 0.283694 7.02448 0.185226 6.92992C0.0867577 6.83536 0.0854349 6.68075 0.182271 6.5846L3.23351 3.55486L0.0717707 0.415403Z" transform="matrix(1 2.1456883E-07 2.1456883E-07 -1 2.1999993 7.5)" fill="#2c2c2c" fill-rule="evenodd" stroke="none" />
  </g>

  <g id="svg-icn-close" transform="translate(0, 465)">
    <path d="M0.175736 0.175736C-0.0585786 0.410051 -0.0585786 0.789949 0.175736 1.02426L6.15147 7L0.175736 12.9757C-0.0585786 13.2101 -0.0585786 13.5899 0.175736 13.8243C0.410051 14.0586 0.789949 14.0586 1.02426 13.8243L7 7.84853L12.9757 13.8243C13.2101 14.0586 13.5899 14.0586 13.8243 13.8243C14.0586 13.5899 14.0586 13.2101 13.8243 12.9757L7.84853 7L13.8243 1.02426C14.0586 0.789949 14.0586 0.410051 13.8243 0.175736C13.5899 -0.0585786 13.2101 -0.0585786 12.9757 0.175736L7 6.15147L1.02426 0.175736C0.789949 -0.0585786 0.410051 -0.0585786 0.175736 0.175736Z" transform="translate(1 1)" fill="#4A4A4A" fill-rule="evenodd" stroke="none" />
  </g>

  <g id="svg-icn-expand-arror-menu" transform="translate(0, 485)">
    <path d="M0.143541 0.830806C-0.0501312 0.638498 -0.0474857 0.329289 0.14945 0.140168C0.346386 -0.0489532 0.663037 -0.0463698 0.856709 0.145938L7.52504 6.76729C7.71643 6.95733 7.71643 7.26212 7.52504 7.45216L1.07771 13.8541C0.884039 14.0464 0.567388 14.049 0.370453 13.8598C0.173517 13.6707 0.170871 13.3615 0.364544 13.1692L6.46701 7.10972L0.143541 0.830806Z" transform="matrix(9.934766E-08 1 1 -9.934766E-08 0 0)" fill="#3A970E" fill-rule="evenodd" stroke="none" />
  </g>

  <g id="svg-icn-hamburger-menu" transform="translate(0, 500)">
    <path d="M0.868432 0L18.871 0C19.3507 0 19.7395 0.359152 19.7395 0.802702C19.7395 1.24602 19.3507 1.6054 18.871 1.6054L0.868432 1.6054C0.389058 1.6054 0 1.24602 0 0.802702C0 0.359152 0.389058 0 0.868432 0ZM0.670456 6L14.569 6C14.9393 6 15.2395 6.35915 15.2395 6.8027C15.2395 7.24602 14.9393 7.6054 14.569 7.6054L0.670456 7.6054C0.300364 7.6054 0 7.24602 0 6.8027C0 6.35915 0.300364 6 0.670456 6ZM0.868432 12L18.871 12C19.3507 12 19.7395 12.3592 19.7395 12.8027C19.7395 13.246 19.3507 13.6054 18.871 13.6054L0.868432 13.6054C0.389058 13.6054 0 13.246 0 12.8027C0 12.3592 0.389058 12 0.868432 12Z" fill="#4A4A4A" fill-rule="evenodd" stroke="none" />
  </g>

  <g id="svg-icn-search-menu" transform="translate(0, 520)">
    <path d="M21.7252 21.5073C21.2178 22.015 20.3915 22.0155 19.8837 21.5073L16.0288 17.6511C16.7114 17.1095 17.3223 16.4815 17.842 15.7808L21.7252 19.6655C22.2327 20.1732 22.2327 20.9996 21.7252 21.5073M9.89337 18.2132C5.30908 18.2132 1.57908 14.4824 1.57908 9.8966C1.57908 5.31082 5.30908 1.57959 9.89337 1.57959C14.4777 1.57959 18.2072 5.31082 18.2072 9.8966C18.2072 14.4824 14.4777 18.2132 9.89337 18.2132M22.8416 18.5485L18.697 14.4023C19.3915 13.0499 19.7863 11.5186 19.7863 9.8966C19.7863 4.43956 15.3482 0 9.89337 0C4.43811 0 0 4.43956 0 9.8966C0 15.3534 4.43811 19.7928 9.89337 19.7928C11.6335 19.7928 13.2692 19.3396 14.6913 18.5469L18.7673 22.6243C19.3288 23.1859 20.0665 23.4671 20.8046 23.4671C21.5422 23.4671 22.2801 23.1859 22.8416 22.6243C23.9652 21.5005 23.9652 19.672 22.8416 18.5485" fill="#4A4A4A" stroke="none" />
  </g>

  <g id="svg-icn-search-desktop-menu" transform="translate(0, 800)">
    <path d="M14.4834 14.3382C14.1452 14.6767 13.5944 14.677 13.2558 14.3382L10.6858 11.7674C11.1409 11.4063 11.5482 10.9877 11.8947 10.5205L14.4834 13.1103C14.8218 13.4488 14.8218 13.9997 14.4834 14.3382M6.59558 12.1421C3.53939 12.1421 1.05272 9.65493 1.05272 6.59774C1.05272 3.54055 3.53939 1.05306 6.59558 1.05306C9.65177 1.05306 12.1381 3.54055 12.1381 6.59774C12.1381 9.65493 9.65177 12.1421 6.59558 12.1421M15.2277 12.3657L12.4646 9.60152C12.9277 8.69995 13.1909 7.67908 13.1909 6.59774C13.1909 2.95971 10.2321 0 6.59558 0C2.95874 0 0 2.95971 0 6.59774C0 10.2356 2.95874 13.1952 6.59558 13.1952C7.75567 13.1952 8.84614 12.8931 9.79419 12.3646L12.5116 15.0829C12.8859 15.4573 13.3776 15.6447 13.8697 15.6447C14.3615 15.6447 14.8534 15.4573 15.2277 15.0829C15.9768 14.3337 15.9768 13.1147 15.2277 12.3657" transform="translate(-0.0033333334 0.12370371)" fill="#FFFFFF" />
  </g>

  <g id="svg-icn-search-desktop-menu-darksite" transform="translate(20, 800)">
    <path d="M14.4834 14.3382C14.1452 14.6767 13.5944 14.677 13.2558 14.3382L10.6858 11.7674C11.1409 11.4063 11.5482 10.9877 11.8947 10.5205L14.4834 13.1103C14.8218 13.4488 14.8218 13.9997 14.4834 14.3382M6.59558 12.1421C3.53939 12.1421 1.05272 9.65493 1.05272 6.59774C1.05272 3.54055 3.53939 1.05306 6.59558 1.05306C9.65177 1.05306 12.1381 3.54055 12.1381 6.59774C12.1381 9.65493 9.65177 12.1421 6.59558 12.1421M15.2277 12.3657L12.4646 9.60152C12.9277 8.69995 13.1909 7.67908 13.1909 6.59774C13.1909 2.95971 10.2321 0 6.59558 0C2.95874 0 0 2.95971 0 6.59774C0 10.2356 2.95874 13.1952 6.59558 13.1952C7.75567 13.1952 8.84614 12.8931 9.79419 12.3646L12.5116 15.0829C12.8859 15.4573 13.3776 15.6447 13.8697 15.6447C14.3615 15.6447 14.8534 15.4573 15.2277 15.0829C15.9768 14.3337 15.9768 13.1147 15.2277 12.3657" transform="translate(-0.0033333334 0.12370371)" fill="#4A4A4A" />
  </g>

  <g id="svg-icn-user-dark-menu" transform="translate(0, 570)">
    <defs>
      <clipPath id="clip_100">
        <path d="M12 24C18.6274 24 24 18.6274 24 12C24 5.37258 18.6274 0 12 0C5.37258 0 0 5.37258 0 12C0 18.6274 5.37258 24 12 24Z" />
      </clipPath>
    </defs>
    <g>
      <g>
        <g clip-path="url(#clip_100)">
          <path d="M12 24C18.6274 24 24 18.6274 24 12C24 5.37258 18.6274 0 12 0C5.37258 0 0 5.37258 0 12C0 18.6274 5.37258 24 12 24Z" fill="none" stroke="#3A970E" stroke-width="1" stroke-linecap="square" />
        </g>
      </g>
      <path d="M0.131305 3.83154C0.476355 2.42117 1.75136 0 6.43902 0C11.1267 0 12.4017 2.42117 12.7467 3.83154C12.8779 4.36746 12.5064 5.07703 12.0278 5.35155C10.8906 6.00385 8.74321 7.02439 6.43902 7.02439C4.13484 7.02439 1.98744 6.00385 0.85021 5.35155C0.371618 5.07703 0.000188574 4.36746 0.131305 3.83154Z" transform="translate(5.5609756 15.219512)" fill="#3A970E" fill-rule="evenodd" stroke="none" />
      <path d="M3.5122 7.02439C5.45193 7.02439 7.02439 5.45193 7.02439 3.5122C7.02439 1.57246 5.45193 0 3.5122 0C1.57246 0 0 1.57246 0 3.5122C0 5.45193 1.57246 7.02439 3.5122 7.02439Z" transform="translate(8.487804 7.02439)" fill="#3A970E" fill-rule="evenodd" stroke="none" />
    </g>
  </g>

  <g id="svg-icn-user-dark-menu-darksite" transform="translate(40, 570)">
    <defs>
      <clipPath id="clip_100">
        <path d="M12 24C18.6274 24 24 18.6274 24 12C24 5.37258 18.6274 0 12 0C5.37258 0 0 5.37258 0 12C0 18.6274 5.37258 24 12 24Z" />
      </clipPath>
    </defs>
    <g>
      <g>
        <g clip-path="url(#clip_100)">
          <path d="M12 24C18.6274 24 24 18.6274 24 12C24 5.37258 18.6274 0 12 0C5.37258 0 0 5.37258 0 12C0 18.6274 5.37258 24 12 24Z" fill="none" stroke="#999999" stroke-width="1" stroke-linecap="square" />
        </g>
      </g>
      <path d="M0.131305 3.83154C0.476355 2.42117 1.75136 0 6.43902 0C11.1267 0 12.4017 2.42117 12.7467 3.83154C12.8779 4.36746 12.5064 5.07703 12.0278 5.35155C10.8906 6.00385 8.74321 7.02439 6.43902 7.02439C4.13484 7.02439 1.98744 6.00385 0.85021 5.35155C0.371618 5.07703 0.000188574 4.36746 0.131305 3.83154Z" transform="translate(5.5609756 15.219512)" fill="#999999" fill-rule="evenodd" stroke="none" />
      <path d="M3.5122 7.02439C5.45193 7.02439 7.02439 5.45193 7.02439 3.5122C7.02439 1.57246 5.45193 0 3.5122 0C1.57246 0 0 1.57246 0 3.5122C0 5.45193 1.57246 7.02439 3.5122 7.02439Z" transform="translate(8.487804 7.02439)" fill="#999999" fill-rule="evenodd" stroke="none" />
    </g>
  </g>

  <g id="svg-icn-user-white-menu" transform="translate(80, 570)">
    <defs>
      <clipPath id="clip_101">
        <path d="M12 24C18.6274 24 24 18.6274 24 12C24 5.37258 18.6274 0 12 0C5.37258 0 0 5.37258 0 12C0 18.6274 5.37258 24 12 24Z" />
      </clipPath>
    </defs>
    <g>
      <g>
        <g clip-path="url(#clip_101)">
          <path d="M12 24C18.6274 24 24 18.6274 24 12C24 5.37258 18.6274 0 12 0C5.37258 0 0 5.37258 0 12C0 18.6274 5.37258 24 12 24Z" fill="none" stroke="#ffffff" stroke-width="1" stroke-linecap="square" />
        </g>
      </g>
      <path d="M0.131305 3.83154C0.476355 2.42117 1.75136 0 6.43902 0C11.1267 0 12.4017 2.42117 12.7467 3.83154C12.8779 4.36746 12.5064 5.07703 12.0278 5.35155C10.8906 6.00385 8.74321 7.02439 6.43902 7.02439C4.13484 7.02439 1.98744 6.00385 0.85021 5.35155C0.371618 5.07703 0.000188574 4.36746 0.131305 3.83154Z" transform="translate(5.5609756 15.219512)" fill="#ffffff" fill-rule="evenodd" stroke="none" />
      <path d="M3.5122 7.02439C5.45193 7.02439 7.02439 5.45193 7.02439 3.5122C7.02439 1.57246 5.45193 0 3.5122 0C1.57246 0 0 1.57246 0 3.5122C0 5.45193 1.57246 7.02439 3.5122 7.02439Z" transform="translate(8.487804 7.02439)" fill="#ffffff" fill-rule="evenodd" stroke="none" />
    </g>
  </g>

  <g id="svg-icn-user-white-menu-darksite" transform="translate(120, 570)">
    <defs>
      <clipPath id="clip_101">
        <path d="M12 24C18.6274 24 24 18.6274 24 12C24 5.37258 18.6274 0 12 0C5.37258 0 0 5.37258 0 12C0 18.6274 5.37258 24 12 24Z" />
      </clipPath>
    </defs>
    <g>
      <g>
        <g clip-path="url(#clip_101)">
          <path d="M12 24C18.6274 24 24 18.6274 24 12C24 5.37258 18.6274 0 12 0C5.37258 0 0 5.37258 0 12C0 18.6274 5.37258 24 12 24Z" fill="none" stroke="#cccccc" stroke-width="1" stroke-linecap="square" />
        </g>
      </g>
      <path d="M0.131305 3.83154C0.476355 2.42117 1.75136 0 6.43902 0C11.1267 0 12.4017 2.42117 12.7467 3.83154C12.8779 4.36746 12.5064 5.07703 12.0278 5.35155C10.8906 6.00385 8.74321 7.02439 6.43902 7.02439C4.13484 7.02439 1.98744 6.00385 0.85021 5.35155C0.371618 5.07703 0.000188574 4.36746 0.131305 3.83154Z" transform="translate(5.5609756 15.219512)" fill="#cccccc" fill-rule="evenodd" stroke="none" />
      <path d="M3.5122 7.02439C5.45193 7.02439 7.02439 5.45193 7.02439 3.5122C7.02439 1.57246 5.45193 0 3.5122 0C1.57246 0 0 1.57246 0 3.5122C0 5.45193 1.57246 7.02439 3.5122 7.02439Z" transform="translate(8.487804 7.02439)" fill="#cccccc" fill-rule="evenodd" stroke="none" />
    </g>
  </g>

  <g id="svg-icn-register-dark-menu" transform="translate(0, 600)">
    <defs>
      <clipPath id="clip_1001">
        <path d="M12 24C18.6274 24 24 18.6274 24 12C24 5.37258 18.6274 0 12 0C5.37258 0 0 5.37258 0 12C0 18.6274 5.37258 24 12 24Z" />
      </clipPath>
      <clipPath id="clip_1002">
        <path d="M3.60194 3.12896L2.32307 1.85008L3.60236 0.570789C3.7329 0.440244 3.73301 0.228448 3.60244 0.0978793C3.47187 -0.0326904 3.26007 -0.0325881 3.12953 0.0979563L1.85024 1.37725L0.571361 0.0983742C0.440792 -0.0321946 0.229063 -0.0321598 0.0984511 0.0984517C-0.0321603 0.229063 -0.0321946 0.440792 0.0983739 0.571361L1.37725 1.85024L0.0979557 3.12953C-0.0325885 3.26007 -0.03269 3.47187 0.0978789 3.60244C0.228448 3.73301 0.440244 3.73291 0.570788 3.60236L1.85008 2.32307L3.12896 3.60194C3.25953 3.73251 3.47125 3.73248 3.60187 3.60187C3.73248 3.47125 3.73251 3.25953 3.60194 3.12896" transform="matrix(0.70710665 0.7071069 -0.7071069 0.70710665 4.9601173 2.3452191)" />
      </clipPath>
    </defs>
    <g>
      <g id="Mask">
        <g clip-path="url(#clip_1001)">
          <path d="M12 24C18.6274 24 24 18.6274 24 12C24 5.37258 18.6274 0 12 0C5.37258 0 0 5.37258 0 12C0 18.6274 5.37258 24 12 24Z"  fill="none" stroke="#3A970E" stroke-width="1" stroke-linecap="square"/>
        </g>
      </g>
      <path d="M0.131305 3.83154C0.476355 2.42117 1.75136 0 6.43902 0C11.1267 0 12.4017 2.42117 12.7467 3.83154C12.8779 4.36746 12.5064 5.07703 12.0278 5.35155C10.8906 6.00385 8.74321 7.02439 6.43902 7.02439C4.13484 7.02439 1.98744 6.00385 0.85021 5.35155C0.371618 5.07703 0.000188574 4.36746 0.131305 3.83154Z" transform="translate(5.5609756 15.219512)" id="Path-3" fill="#3A970E" fill-rule="evenodd" stroke="none" />
      <path d="M3.5122 7.02439C5.45193 7.02439 7.02439 5.45193 7.02439 3.5122C7.02439 1.57246 5.45193 0 3.5122 0C1.57246 0 0 1.57246 0 3.5122C0 5.45193 1.57246 7.02439 3.5122 7.02439Z" transform="translate(8.487804 7.02439)" id="Oval" fill="#3A970E" fill-rule="evenodd" stroke="none" />
      <g transform="translate(13.996875 13.996875)">
        <path d="M5 0C2.24298 0 0 2.24298 0 5C0 7.75702 2.24298 10 5 10C7.75702 10 10 7.75702 10 5C10 2.24298 7.75702 0 5 0" transform="matrix(1 0 0 1 0 9.094947E-13)" id="Close" fill="#72BE44" fill-rule="evenodd" stroke="none" />
        <g id="Close-path">
          <g clip-path="url(#clip_1002)">
            <path d="M3.60194 3.12896L2.32307 1.85008L3.60236 0.570789C3.7329 0.440244 3.73301 0.228448 3.60244 0.0978793C3.47187 -0.0326904 3.26007 -0.0325881 3.12953 0.0979563L1.85024 1.37725L0.571361 0.0983742C0.440792 -0.0321946 0.229063 -0.0321598 0.0984511 0.0984517C-0.0321603 0.229063 -0.0321946 0.440792 0.0983739 0.571361L1.37725 1.85024L0.0979557 3.12953C-0.0325885 3.26007 -0.03269 3.47187 0.0978789 3.60244C0.228448 3.73301 0.440244 3.73291 0.570788 3.60236L1.85008 2.32307L3.12896 3.60194C3.25953 3.73251 3.47125 3.73248 3.60187 3.60187C3.73248 3.47125 3.73251 3.25953 3.60194 3.12896" transform="matrix(0.70710665 0.7071069 -0.7071069 0.70710665 4.9601173 2.3452191)" fill="none" stroke="#FFFFFF" stroke-width="1" />
          </g>
        </g>
      </g>
    </g>
  </g>
  <g id="svg-icn-register-dark-menu-darksite" transform="translate(40, 600)">
    <defs>
      <clipPath id="clip_1001">
        <path d="M12 24C18.6274 24 24 18.6274 24 12C24 5.37258 18.6274 0 12 0C5.37258 0 0 5.37258 0 12C0 18.6274 5.37258 24 12 24Z" />
      </clipPath>
      <clipPath id="clip_1002">
        <path d="M3.60194 3.12896L2.32307 1.85008L3.60236 0.570789C3.7329 0.440244 3.73301 0.228448 3.60244 0.0978793C3.47187 -0.0326904 3.26007 -0.0325881 3.12953 0.0979563L1.85024 1.37725L0.571361 0.0983742C0.440792 -0.0321946 0.229063 -0.0321598 0.0984511 0.0984517C-0.0321603 0.229063 -0.0321946 0.440792 0.0983739 0.571361L1.37725 1.85024L0.0979557 3.12953C-0.0325885 3.26007 -0.03269 3.47187 0.0978789 3.60244C0.228448 3.73301 0.440244 3.73291 0.570788 3.60236L1.85008 2.32307L3.12896 3.60194C3.25953 3.73251 3.47125 3.73248 3.60187 3.60187C3.73248 3.47125 3.73251 3.25953 3.60194 3.12896" transform="matrix(0.70710665 0.7071069 -0.7071069 0.70710665 4.9601173 2.3452191)" />
      </clipPath>
    </defs>
    <g>
      <g id="Mask">
        <g clip-path="url(#clip_1001)">
          <path d="M12 24C18.6274 24 24 18.6274 24 12C24 5.37258 18.6274 0 12 0C5.37258 0 0 5.37258 0 12C0 18.6274 5.37258 24 12 24Z"  fill="none" stroke="#999999" stroke-width="1" stroke-linecap="square"/>
        </g>
      </g>
      <path d="M0.131305 3.83154C0.476355 2.42117 1.75136 0 6.43902 0C11.1267 0 12.4017 2.42117 12.7467 3.83154C12.8779 4.36746 12.5064 5.07703 12.0278 5.35155C10.8906 6.00385 8.74321 7.02439 6.43902 7.02439C4.13484 7.02439 1.98744 6.00385 0.85021 5.35155C0.371618 5.07703 0.000188574 4.36746 0.131305 3.83154Z" transform="translate(5.5609756 15.219512)" id="Path-3" fill="#999999" fill-rule="evenodd" stroke="none" />
      <path d="M3.5122 7.02439C5.45193 7.02439 7.02439 5.45193 7.02439 3.5122C7.02439 1.57246 5.45193 0 3.5122 0C1.57246 0 0 1.57246 0 3.5122C0 5.45193 1.57246 7.02439 3.5122 7.02439Z" transform="translate(8.487804 7.02439)" id="Oval" fill="#999999" fill-rule="evenodd" stroke="none" />
      <g transform="translate(13.996875 13.996875)">
        <path d="M5 0C2.24298 0 0 2.24298 0 5C0 7.75702 2.24298 10 5 10C7.75702 10 10 7.75702 10 5C10 2.24298 7.75702 0 5 0" transform="matrix(1 0 0 1 0 9.094947E-13)" id="Close" fill="#cccccc" fill-rule="evenodd" stroke="none" />
        <g id="Close-path">
          <g clip-path="url(#clip_1002)">
            <path d="M3.60194 3.12896L2.32307 1.85008L3.60236 0.570789C3.7329 0.440244 3.73301 0.228448 3.60244 0.0978793C3.47187 -0.0326904 3.26007 -0.0325881 3.12953 0.0979563L1.85024 1.37725L0.571361 0.0983742C0.440792 -0.0321946 0.229063 -0.0321598 0.0984511 0.0984517C-0.0321603 0.229063 -0.0321946 0.440792 0.0983739 0.571361L1.37725 1.85024L0.0979557 3.12953C-0.0325885 3.26007 -0.03269 3.47187 0.0978789 3.60244C0.228448 3.73301 0.440244 3.73291 0.570788 3.60236L1.85008 2.32307L3.12896 3.60194C3.25953 3.73251 3.47125 3.73248 3.60187 3.60187C3.73248 3.47125 3.73251 3.25953 3.60194 3.12896" transform="matrix(0.70710665 0.7071069 -0.7071069 0.70710665 4.9601173 2.3452191)" fill="none" stroke="#FFFFFF" stroke-width="1" />
          </g>
        </g>
      </g>
    </g>
  </g>
  <g id="svg-icn-register-white-menu" transform="translate(80, 600)">
    <defs>
      <clipPath id="clip_1001">
        <path d="M12 24C18.6274 24 24 18.6274 24 12C24 5.37258 18.6274 0 12 0C5.37258 0 0 5.37258 0 12C0 18.6274 5.37258 24 12 24Z" />
      </clipPath>
      <clipPath id="clip_1002">
        <path d="M3.60194 3.12896L2.32307 1.85008L3.60236 0.570789C3.7329 0.440244 3.73301 0.228448 3.60244 0.0978793C3.47187 -0.0326904 3.26007 -0.0325881 3.12953 0.0979563L1.85024 1.37725L0.571361 0.0983742C0.440792 -0.0321946 0.229063 -0.0321598 0.0984511 0.0984517C-0.0321603 0.229063 -0.0321946 0.440792 0.0983739 0.571361L1.37725 1.85024L0.0979557 3.12953C-0.0325885 3.26007 -0.03269 3.47187 0.0978789 3.60244C0.228448 3.73301 0.440244 3.73291 0.570788 3.60236L1.85008 2.32307L3.12896 3.60194C3.25953 3.73251 3.47125 3.73248 3.60187 3.60187C3.73248 3.47125 3.73251 3.25953 3.60194 3.12896" transform="matrix(0.70710665 0.7071069 -0.7071069 0.70710665 4.9601173 2.3452191)" />
      </clipPath>
    </defs>
    <g>
      <g id="Mask">
        <g clip-path="url(#clip_1001)">
          <path d="M12 24C18.6274 24 24 18.6274 24 12C24 5.37258 18.6274 0 12 0C5.37258 0 0 5.37258 0 12C0 18.6274 5.37258 24 12 24Z"  fill="none" stroke="#ffffff" stroke-width="1" stroke-linecap="square"/>
        </g>
      </g>
      <path d="M0.131305 3.83154C0.476355 2.42117 1.75136 0 6.43902 0C11.1267 0 12.4017 2.42117 12.7467 3.83154C12.8779 4.36746 12.5064 5.07703 12.0278 5.35155C10.8906 6.00385 8.74321 7.02439 6.43902 7.02439C4.13484 7.02439 1.98744 6.00385 0.85021 5.35155C0.371618 5.07703 0.000188574 4.36746 0.131305 3.83154Z" transform="translate(5.5609756 15.219512)" fill="#ffffff" fill-rule="evenodd" stroke="none" />
      <path d="M3.5122 7.02439C5.45193 7.02439 7.02439 5.45193 7.02439 3.5122C7.02439 1.57246 5.45193 0 3.5122 0C1.57246 0 0 1.57246 0 3.5122C0 5.45193 1.57246 7.02439 3.5122 7.02439Z" transform="translate(8.487804 7.02439)" fill="#ffffff" fill-rule="evenodd" stroke="none" />
      <g transform="translate(13.996875 13.996875)">
        <path d="M5 0C2.24298 0 0 2.24298 0 5C0 7.75702 2.24298 10 5 10C7.75702 10 10 7.75702 10 5C10 2.24298 7.75702 0 5 0" transform="matrix(1 0 0 1 0 9.094947E-13)" fill="#dbdbdb" fill-rule="evenodd" stroke="none" />
        <g id="Close-path">
          <g clip-path="url(#clip_1002)">
            <path d="M3.60194 3.12896L2.32307 1.85008L3.60236 0.570789C3.7329 0.440244 3.73301 0.228448 3.60244 0.0978793C3.47187 -0.0326904 3.26007 -0.0325881 3.12953 0.0979563L1.85024 1.37725L0.571361 0.0983742C0.440792 -0.0321946 0.229063 -0.0321598 0.0984511 0.0984517C-0.0321603 0.229063 -0.0321946 0.440792 0.0983739 0.571361L1.37725 1.85024L0.0979557 3.12953C-0.0325885 3.26007 -0.03269 3.47187 0.0978789 3.60244C0.228448 3.73301 0.440244 3.73291 0.570788 3.60236L1.85008 2.32307L3.12896 3.60194C3.25953 3.73251 3.47125 3.73248 3.60187 3.60187C3.73248 3.47125 3.73251 3.25953 3.60194 3.12896" transform="matrix(0.70710665 0.7071069 -0.7071069 0.70710665 4.9601173 2.3452191)" fill="none" stroke="#666666" stroke-width="1" />
          </g>
        </g>
      </g>
    </g>
  </g>

  <g id="svg-icn-logout-menu" transform="translate(0, 630)">
    <path d="M15.7488 2.78044C15.3475 2.59173 14.87 2.76416 14.6814 3.1652C14.4929 3.56647 14.6651 4.04432 15.066 4.2328C18.3679 5.78559 20.5013 9.14455 20.5013 12.7901C20.5013 18.0018 16.263 22.2417 11.0533 22.2417C5.8433 22.2417 1.60455 18.0018 1.60455 12.7901C1.60455 9.14455 3.73813 5.78559 7.03983 4.23326C7.44097 4.04478 7.61311 3.5667 7.42469 3.16543C7.23627 2.76462 6.75835 2.59265 6.35744 2.78044C2.49553 4.59646 0 8.52545 0 12.7901C0 18.8869 4.95851 23.8468 11.0533 23.8468C17.1478 23.8468 22.1058 18.8869 22.1058 12.7901C22.1058 8.52545 19.6105 4.59646 15.7488 2.78044M11.053 10.7086C11.4961 10.7086 11.8553 10.3493 11.8553 9.90604L11.8553 0.802535C11.8553 0.359307 11.4961 0 11.053 0C10.6099 0 10.2508 0.359307 10.2508 0.802535L10.2508 9.90604C10.2508 10.3493 10.6099 10.7086 11.053 10.7086" fill="#127045" stroke="none" />
  </g>

  <g id="svg-icn-expand-arrow-footer" transform="translate(0, 660)">
    <path d="M0.143541 0.830806C-0.0501312 0.638498 -0.0474857 0.329289 0.14945 0.140168C0.346386 -0.0489532 0.663037 -0.0463698 0.856709 0.145938L7.52504 6.76729C7.71643 6.95733 7.71643 7.26212 7.52504 7.45216L1.07771 13.8541C0.884039 14.0464 0.567388 14.049 0.370453 13.8598C0.173517 13.6707 0.170871 13.3615 0.364544 13.1692L6.46701 7.10972L0.143541 0.830806Z" transform="matrix(4.371139E-08 1 1 -4.371139E-08 1 4.4999995)" fill="#4A4A4A" fill-rule="evenodd" stroke="none" />
  </g>

  <g id="svg-icn-miles-client-menu" transform="translate(0, 680)">
    <path d="M7 13.021C10.32 13.021 13.021 10.3201 13.021 7C13.021 3.67999 10.32 0.978982 7 0.978982C3.67999 0.978982 0.978982 3.67999 0.978982 7C0.978982 10.3201 3.67999 13.021 7 13.021ZM7 0C10.8598 0 14 3.14015 14 7C14 10.8598 10.8598 14 7 14C3.14015 14 0 10.8598 0 7C0 3.14015 3.14015 0 7 0ZM9.4507 4.26308C9.64099 4.33438 9.76744 4.51824 9.76744 4.72386L9.76744 9.27621C9.76744 9.54737 9.55042 9.76744 9.2827 9.76744C9.01499 9.76744 8.79796 9.54737 8.79796 9.27621L8.79796 6.05286L7.54968 7.53008C7.44941 7.64867 7.30565 7.70468 7.16272 7.69934C7.01993 7.70468 6.87617 7.64867 6.77604 7.53008L5.52762 6.05272L5.52762 9.27621C5.52762 9.54737 5.3106 9.76744 5.04288 9.76744C4.77516 9.76744 4.55814 9.54737 4.55814 9.27621L4.55814 4.72386C4.55814 4.51824 4.68445 4.33438 4.87474 4.26308C5.06504 4.19164 5.27916 4.24835 5.41114 4.40442L7.16272 6.47743L8.91444 4.40442C9.04642 4.24835 9.26054 4.19178 9.4507 4.26308Z" fill="#666666" stroke="none" />
  </g>

  <g id="svg-icn-register-white-menu-green-plus" transform="translate(0, 700)">
    <defs>
      <path d="M20 40C31.0457 40 40 31.0457 40 20C40 8.9543 31.0457 0 20 0C8.9543 0 0 8.9543 0 20C0 31.0457 8.9543 40 20 40Z" id="path_1" />
      <path d="M8.33333 0C3.7383 0 0 3.7383 0 8.33333C0 12.9284 3.7383 16.6667 8.33333 16.6667C12.9284 16.6667 16.6667 12.9284 16.6667 8.33333C16.6667 3.7383 12.9284 0 8.33333 0" transform="matrix(1 0 0 1 0 9.094947E-13)" id="path_2" />
      <path d="M6.00337 5.21504L3.87187 3.08354L6.00407 0.951335C6.22165 0.733756 6.22182 0.380755 6.0042 0.163135C5.78658 -0.0544849 5.43358 -0.0543147 5.216 0.163264L3.08379 2.29547L0.952289 0.163961C0.734669 -0.0536594 0.381781 -0.0536017 0.164089 0.164089C-0.0536017 0.381781 -0.0536594 0.734669 0.163961 0.952289L2.29547 3.08379L0.163264 5.216C-0.0543147 5.43358 -0.054485 5.78658 0.163135 6.0042C0.380755 6.22182 0.733756 6.22165 0.951335 6.00407L3.08354 3.87187L5.21504 6.00337C5.43266 6.22099 5.78555 6.22093 6.00324 6.00324C6.22093 5.78555 6.22099 5.43266 6.00337 5.21504" transform="matrix(0.70710665 0.7071069 -0.7071069 0.70710665 8.267044 3.908784)" id="path_3" />
      <rect width="40" height="40" id="artboard_1" />
      <clipPath id="clip_1">
        <use href="#artboard_1" clip-rule="evenodd" />
      </clipPath>
      <clipPath id="clip_2">
        <use href="#path_1" />
      </clipPath>
      <clipPath id="clip_3">
        <use href="#path_3" />
      </clipPath>
      <clipPath id="mask_1">
        <use href="#path_2" />
      </clipPath>
    </defs>
    <g id="Icons-interactions--Avatar--40--Geral-white---register" clip-path="url(#clip_1)">
      <g id="Mask">
        <g clip-path="url(#clip_2)">
          <use href="#path_1" fill="none" stroke="#FFFFFF" stroke-width="2.66" stroke-linecap="square" />
        </g>
      </g>
      <path d="M0.383479 5.80838C1.15966 3.43087 3.52776 0 10.7317 0C17.9357 0 20.3038 3.43087 21.0799 5.80838C21.4683 6.99789 20.6223 8.61636 19.5216 9.2115C17.5343 10.2861 14.2422 11.7073 10.7317 11.7073C7.22126 11.7073 3.92914 10.2861 1.94177 9.2115C0.841072 8.61636 -0.00485507 6.99789 0.383479 5.80838Z" transform="translate(9.268292 25.365854)" id="Path-3" fill="#FFFFFF" fill-rule="evenodd" stroke="none" />
      <path d="M5.85366 11.7073C9.08654 11.7073 11.7073 9.08654 11.7073 5.85366C11.7073 2.62077 9.08654 0 5.85366 0C2.62077 0 0 2.62077 0 5.85366C0 9.08654 2.62077 11.7073 5.85366 11.7073Z" transform="translate(14.146341 11.707317)" id="Oval" fill="#FFFFFF" fill-rule="evenodd" stroke="none" />
      <g id="Icons-interactions--16--Fill--Add-Circle" transform="translate(23.328125 23.328125)">
        <path d="M8.33333 0C3.7383 0 0 3.7383 0 8.33333C0 12.9284 3.7383 16.6667 8.33333 16.6667C12.9284 16.6667 16.6667 12.9284 16.6667 8.33333C16.6667 3.7383 12.9284 0 8.33333 0" transform="matrix(1 0 0 1 0 9.094947E-13)" id="Close" fill="#72BE44" stroke="none" />
        <g id="Close-path">
          <use stroke="none" fill="#FFFFFF" href="#path_3" fill-rule="evenodd" />
          <g clip-path="url(#clip_3)">
            <use href="#path_3" fill="none" stroke="#FFFFFF" stroke-width="2" />
          </g>
        </g>
      </g>
    </g>
  </g>

  <g id="svg-icn-register-white-menu-green-plus-darksite" transform="translate(60, 700)">
    <defs>
      <path d="M20 40C31.0457 40 40 31.0457 40 20C40 8.9543 31.0457 0 20 0C8.9543 0 0 8.9543 0 20C0 31.0457 8.9543 40 20 40Z" id="path_1" />
      <path d="M8.33333 0C3.7383 0 0 3.7383 0 8.33333C0 12.9284 3.7383 16.6667 8.33333 16.6667C12.9284 16.6667 16.6667 12.9284 16.6667 8.33333C16.6667 3.7383 12.9284 0 8.33333 0" transform="matrix(1 0 0 1 0 9.094947E-13)" id="path_2" />
      <path d="M6.00337 5.21504L3.87187 3.08354L6.00407 0.951335C6.22165 0.733756 6.22182 0.380755 6.0042 0.163135C5.78658 -0.0544849 5.43358 -0.0543147 5.216 0.163264L3.08379 2.29547L0.952289 0.163961C0.734669 -0.0536594 0.381781 -0.0536017 0.164089 0.164089C-0.0536017 0.381781 -0.0536594 0.734669 0.163961 0.952289L2.29547 3.08379L0.163264 5.216C-0.0543147 5.43358 -0.054485 5.78658 0.163135 6.0042C0.380755 6.22182 0.733756 6.22165 0.951335 6.00407L3.08354 3.87187L5.21504 6.00337C5.43266 6.22099 5.78555 6.22093 6.00324 6.00324C6.22093 5.78555 6.22099 5.43266 6.00337 5.21504" transform="matrix(0.70710665 0.7071069 -0.7071069 0.70710665 8.267044 3.908784)" id="path_3" />
      <rect width="40" height="40" id="artboard_1" />
      <clipPath id="clip_1">
        <use href="#artboard_1" clip-rule="evenodd" />
      </clipPath>
      <clipPath id="clip_2">
        <use href="#path_1" />
      </clipPath>
      <clipPath id="clip_3">
        <use href="#path_3" />
      </clipPath>
      <clipPath id="mask_1">
        <use href="#path_2" />
      </clipPath>
    </defs>
    <g id="Icons-interactions--Avatar--40--Geral-white---register" clip-path="url(#clip_1)">
      <g id="Mask">
        <g clip-path="url(#clip_2)">
          <use href="#path_1" fill="none" stroke="#cccccc" stroke-width="2.66" stroke-linecap="square" />
        </g>
      </g>
      <path d="M0.383479 5.80838C1.15966 3.43087 3.52776 0 10.7317 0C17.9357 0 20.3038 3.43087 21.0799 5.80838C21.4683 6.99789 20.6223 8.61636 19.5216 9.2115C17.5343 10.2861 14.2422 11.7073 10.7317 11.7073C7.22126 11.7073 3.92914 10.2861 1.94177 9.2115C0.841072 8.61636 -0.00485507 6.99789 0.383479 5.80838Z" transform="translate(9.268292 25.365854)" id="Path-3" fill="#cccccc" fill-rule="evenodd" stroke="none" />
      <path d="M5.85366 11.7073C9.08654 11.7073 11.7073 9.08654 11.7073 5.85366C11.7073 2.62077 9.08654 0 5.85366 0C2.62077 0 0 2.62077 0 5.85366C0 9.08654 2.62077 11.7073 5.85366 11.7073Z" transform="translate(14.146341 11.707317)" id="Oval" fill="#cccccc" fill-rule="evenodd" stroke="none" />
      <g id="Icons-interactions--16--Fill--Add-Circle" transform="translate(23.328125 23.328125)">
        <path d="M8.33333 0C3.7383 0 0 3.7383 0 8.33333C0 12.9284 3.7383 16.6667 8.33333 16.6667C12.9284 16.6667 16.6667 12.9284 16.6667 8.33333C16.6667 3.7383 12.9284 0 8.33333 0" transform="matrix(1 0 0 1 0 9.094947E-13)" id="Close" fill="#999999" stroke="none" />
        <g id="Close-path">
          <use stroke="none" fill="#ffffff" href="#path_3" fill-rule="evenodd" />
          <g clip-path="url(#clip_3)">
            <use href="#path_3" fill="none" stroke="#ffffff" stroke-width="2" />
          </g>
        </g>
      </g>
    </g>
  </g>

  <g id="svg-icn-error-box" transform="translate(0, 900)">
    <defs>
      <path d="M12 22.3073C6.31642 22.3073 1.69268 17.6836 1.69268 12C1.69268 6.31642 6.31642 1.69268 12 1.69268C17.6836 1.69268 22.3073 6.31642 22.3073 12C22.3073 17.6836 17.6836 22.3073 12 22.3073M12 -0.005C5.38052 -0.005 -0.005 5.38052 -0.005 12C-0.005 18.6195 5.38052 24.005 12 24.005C18.6195 24.005 24.005 18.6195 24.005 12C24.005 5.38052 18.6195 -0.005 12 -0.005M17.2504 6.74981C16.9191 6.41828 16.3817 6.41828 16.0499 6.74957L12 10.7995L7.95007 6.74957C7.61854 6.41828 7.0811 6.41804 6.74957 6.74981C6.41804 7.0811 6.41804 7.61854 6.74957 7.95007L10.7995 12L6.74957 16.0499C6.41804 16.3815 6.41804 16.9189 6.74957 17.2504C6.91522 17.4163 7.13252 17.499 7.34982 17.499C7.56688 17.499 7.78418 17.4163 7.95007 17.2504L12 13.2005L16.0499 17.2504C16.2158 17.4163 16.4331 17.499 16.6502 17.499C16.8675 17.499 17.0848 17.4163 17.2504 17.2504C17.582 16.9189 17.582 16.3815 17.2504 16.0499L13.2005 12L17.2504 7.95007C17.582 7.61854 17.582 7.0811 17.2504 6.74981" id="path_1" />
      <clipPath id="mask_1">
      </clipPath>
    </defs>
    <g id="error-icon">
      <path d="M12 22.3073C6.31642 22.3073 1.69268 17.6836 1.69268 12C1.69268 6.31642 6.31642 1.69268 12 1.69268C17.6836 1.69268 22.3073 6.31642 22.3073 12C22.3073 17.6836 17.6836 22.3073 12 22.3073M12 -0.005C5.38052 -0.005 -0.005 5.38052 -0.005 12C-0.005 18.6195 5.38052 24.005 12 24.005C18.6195 24.005 24.005 18.6195 24.005 12C24.005 5.38052 18.6195 -0.005 12 -0.005M17.2504 6.74981C16.9191 6.41828 16.3817 6.41828 16.0499 6.74957L12 10.7995L7.95007 6.74957C7.61854 6.41828 7.0811 6.41804 6.74957 6.74981C6.41804 7.0811 6.41804 7.61854 6.74957 7.95007L10.7995 12L6.74957 16.0499C6.41804 16.3815 6.41804 16.9189 6.74957 17.2504C6.91522 17.4163 7.13252 17.499 7.34982 17.499C7.56688 17.499 7.78418 17.4163 7.95007 17.2504L12 13.2005L16.0499 17.2504C16.2158 17.4163 16.4331 17.499 16.6502 17.499C16.8675 17.499 17.0848 17.4163 17.2504 17.2504C17.582 16.9189 17.582 16.3815 17.2504 16.0499L13.2005 12L17.2504 7.95007C17.582 7.61854 17.582 7.0811 17.2504 6.74981" id="Cancelation" fill="#2C2C2C" stroke="none" />
    </g>
  </g>
</svg>