<svg id="Layer_1" data-name="Layer 1" xmlns="http://www.w3.org/2000/svg" xmlns:xlink="http://www.w3.org/1999/xlink" width="60" height="60" viewBox="0 0 60 60"><defs><style>.cls-1{fill:#131a43;}.cls-2{fill:#fff;}.cls-3{fill:url(#linear-gradient);}.cls-4{fill:url(#linear-gradient-2);}.cls-5{fill:url(#linear-gradient-3);}.cls-6{fill:url(#linear-gradient-4);}</style><linearGradient id="linear-gradient" x1="12.4785" y1="35.8697" x2="19.3456" y2="39.8345" gradientUnits="userSpaceOnUse"><stop offset="0.5153" stop-color="#b2b7c2"/><stop offset="0.6543" stop-color="#b2b7c2" stop-opacity="0.3776"/><stop offset="0.7363" stop-color="#b2b7c2" stop-opacity="0"/></linearGradient><linearGradient id="linear-gradient-2" x1="21.7271" y1="35.8697" x2="28.5942" y2="39.8345" xlink:href="#linear-gradient"/><linearGradient id="linear-gradient-3" x1="30.9757" y1="35.8697" x2="37.8428" y2="39.8345" xlink:href="#linear-gradient"/><linearGradient id="linear-gradient-4" x1="40.2243" y1="35.8697" x2="47.0914" y2="39.8345" xlink:href="#linear-gradient"/></defs><circle class="cls-1" cx="30" cy="30" r="30"/><path class="cls-2" d="M23.0446,13.08h2.0567c1.1605,0,1.9341-.5287,1.9341-1.528,0-.9865-.7736-1.528-1.9341-1.528H22.013v4.513h1.0316Zm0-2.1921h1.9729c.58,0,.967.1547.967.6705s-.3867.6705-.967.6705H23.0446Zm-3.23,2.695.4836.9541h1.1153l-2.3919-4.513H17.8931l-2.392,4.513h1.1025l.4836-.9541Zm-1.3668-2.6756.9348,1.8374h-1.87Zm20.5576,6.1256c-.5949-.13-1.1918-.25-1.7915-.3551a47.2907,47.2907,0,0,0-7.2581-.712c-.3039-.0053-.6079-.0113-.912-.01-.3045-.0017-.6067.0006-.91.0021l-1.8159.0092-3.6321.0185-7.2641.0369v.2829l7.2641.037,3.6319.0184,1.8161.0093c.3026.0016.6057.0022.9065.0071.3013.002.6025.0111.9037.0193a46.8551,46.8551,0,0,1,7.1787.7778c.592.11,1.1808.235,1.7674.3691.5845.1353,1.1746.2828,1.7623.4248l3.529.8591v-.5866l-3.4036-.7992C40.1875,17.3052,39.6015,17.165,39.0052,17.0333ZM40.6527,6.5645c-.5877.142-1.1778.29-1.7623.4248-.5866.1341-1.1754.26-1.7674.369a46.83,46.83,0,0,1-7.1787.7779c-.3012.0083-.6024.0172-.9037.0193-.3008.0048-.6039.0056-.9065.0072l-1.8161.0092L22.6861,8.19l-7.2641.0369V8.51l7.2641.037,3.6321.0185,1.8159.0092c.3028.0015.605.0039.91.0021.3041.001.6081-.005.912-.01a47.3282,47.3282,0,0,0,7.2581-.712c.6-.1047,1.1966-.2255,1.7915-.3552.5963-.1317,1.1823-.2719,1.7729-.4083l3.4036-.7992V5.7054Zm-8.33,4.3238v-.8639H27.739v4.513h4.6485v-.8639H28.7641v-.9928h2.9722v-.864H28.7641v-.9284Zm6.7157,2.21c.0176.0183.0533.0125.0912.0066.0119-.0019.0233-.0038.0323-.0043.0468-.0029.0921-.0595.1547-.1378l.0019-.0025c.0341-.0426.1728-.2555.283-.4266a.05.05,0,0,1,.0521-.0219,5.7608,5.7608,0,0,0,1.1206.0948c.1492,0,.3059-.0014.465-.0026h0a.0245.0245,0,0,1,.0174.0072.024.024,0,0,1,.0072.0173l0,.3149a.65.65,0,0,1-.0514.15l-.0209.0507c-.0224.0531-.05.1173-.0828.1906l-.0226.0508c-.0289.0647-.06.133-.0918.2029l-.1313.2864c-.29.6308-.2979.6592-.2848.6781a.0348.0348,0,0,0,.0258.0138l.01.0006a.8726.8726,0,0,0,.3266-.122c.0084-.0072.0339-.0291.6269-.965a.3318.3318,0,0,0,.11.0173l.2221,0a.0506.0506,0,0,0,.05-.0508l0-.2457A.05.05,0,0,0,41.9,13.149l-.1226,0c.1487-.2357.2769-.44.3414-.5423a.0242.0242,0,0,1,.02-.0113c.64-.0075,1.1618-.0161,1.1662-.0161a1.8476,1.8476,0,0,0,.6618-.1355.4513.4513,0,0,0,.1734-.1076.0429.0429,0,0,0,.0114-.0319.0506.0506,0,0,0-.0114-.0319.4184.4184,0,0,0-.1736-.1078,2.11,2.11,0,0,0-.66-.1357c-.0052,0-.5254-.0144-1.1636-.0267a.0242.0242,0,0,1-.02-.0114c-.0633-.1008-.1943-.309-.3467-.5506l.1238,0a.0506.0506,0,0,0,.05-.0508l0-.2457A.05.05,0,0,0,41.9,11.092l-.2222,0a.3176.3176,0,0,0-.11.0187c-.593-.9358-.6175-.9568-.6267-.9648a.8265.8265,0,0,0-.3363-.1214.0357.0357,0,0,0-.0259.0138c-.0131.0189-.0051.0474.2851.6787l.131.2858c.0319.07.0629.1383.0918.2029l.0226.0508c.0325.0734.06.1375.0827.1906l.021.0506a.6465.6465,0,0,1,.0513.15l0,.3159a.0242.0242,0,0,1-.0073.0174.0234.0234,0,0,1-.0177.0072c-.159-.0018-.3155-.0031-.4646-.0037a5.291,5.291,0,0,0-1.116.1013.05.05,0,0,1-.0527-.0219c-.1632-.2532-.26-.3989-.2873-.4332l-.0022-.0027c-.0625-.0781-.1076-.1346-.1544-.1374l-.0323-.0044c-.0378-.006-.0735-.0117-.0912.0066a.0335.0335,0,0,0-.008.0306h0c.0052.0262.12.37.2151.654a.0243.0243,0,0,1-.0142.03,1.0912,1.0912,0,0,0-.1092.0489.0523.0523,0,0,0,0,.0925.9611.9611,0,0,0,.1051.0463.0243.0243,0,0,1,.0143.03c-.0934.2785-.2058.6158-.2111.6419A.0337.0337,0,0,0,39.0387,13.098Zm-4.9948,1.4394,1.4571-1.5989,1.4571,1.5989h1.2636l-2.076-2.2952,2.0373-2.2178H36.9774l-1.4119,1.56-1.4249-1.56H32.8769l2.0373,2.2307-2.0695,2.2823Z"/><path class="cls-2" d="M3.1676,23.352c0-.681.5012-1.0829,1.2956-1.0829s1.2957.4019,1.2957,1.0829-.5013,1.0828-1.2957,1.0828S3.1676,24.0333,3.1676,23.352Zm2.1165,0c0-.4365-.3177-.681-.8209-.681s-.8208.2445-.8208.681.3139.6813.8208.6813C4.9664,24.0333,5.2841,23.7889,5.2841,23.352Z"/><path class="cls-2" d="M6.7093,22.7349v.4719H8.0541v.4014H6.7093v.7628H6.2431V22.3334H8.3038v.4015Z"/><path class="cls-2" d="M9.1653,22.7349v.4719H10.51v.4014H9.1653v.7628H8.7V22.3334h2.0607v.4015Z"/><path class="cls-2" d="M11.1617,24.371V22.3334h.4662V24.371Z"/><path class="cls-2" d="M14.0678,23.7014l.4246.2123a1.3114,1.3114,0,0,1-1.1178.5211c-.7651,0-1.2625-.4043-1.2625-1.0828s.4974-1.0829,1.2833-1.0829a1.2933,1.2933,0,0,1,1.0914.5183L14.0593,23a.73.73,0,0,0-.67-.3287c-.4833,0-.8039.2327-.8039.681s.3206.6813.8039.6813A.74.74,0,0,0,14.0678,23.7014Z"/><path class="cls-2" d="M14.9067,24.371V22.3334h.4662V24.371Z"/><path class="cls-2" d="M17.6747,23.94H16.4434l-.2184.4308h-.4984l1.08-2.0376h.51l1.08,2.0376h-.5031Zm-.1957-.3783-.4218-.83-.4218.83Z"/><path class="cls-2" d="M20.6594,23.969v.402H18.7529V22.3334h.4652V23.969Z"/><path class="cls-2" d="M23.4653,23.94H22.234l-.2185.4308h-.4984l1.08-2.0376h.51l1.08,2.0376h-.5031Zm-.1958-.3783-.4217-.83-.4218.83Z"/><path class="cls-2" d="M24.5425,24.371V22.3334h.4662V24.371Z"/><path class="cls-2" d="M27.3975,24.371l-.5853-.6928h-.7358v.6928H25.613V22.3334h1.4063c.4974,0,.8728.23.8728.6724a.6476.6476,0,0,1-.5674.64l.6289.7249Zm-.4047-1.0772c.2449,0,.4255-.0582.4255-.2851s-.1806-.2852-.4255-.2852h-.92v.57Z"/><path class="cls-2" d="M30.2867,23.969v.402H28.38V22.3334h.4653V23.969Z"/><path class="cls-2" d="M30.6668,24.371V22.3334h.4663V24.371Z"/><path class="cls-2" d="M34.0581,22.3334V24.371h-.4076l-1.462-1.473v1.473h-.4511V22.3334h.4955l1.3732,1.3973V22.3334Z"/><path class="cls-2" d="M36.7648,23.9808v.39H34.6653V22.3334h2.07v.39H35.1287v.419h1.3419v.39H35.1287v.4482Z"/><path class="cls-2" d="M39.75,24.371l-.5844-.6928h-.7367v.6928h-.4634V22.3334h1.4063c.4974,0,.8738.23.8738.6724a.6485.6485,0,0,1-.5684.64l.6289.7249Zm-.4047-1.0772c.2449,0,.4256-.0582.4256-.2851s-.1807-.2852-.4256-.2852h-.9192v.57Z"/><path class="cls-2" d="M42.5146,23.94H41.2833l-.2175.4308h-.4984l1.08-2.0376h.51l1.08,2.0376h-.5041Zm-.1948-.3783-.4218-.83-.4217.83Z"/><path class="cls-2" d="M45.33,22.7349h-.89V24.371h-.4662V22.7349h-.8852v-.4015H45.33Z"/><path class="cls-2" d="M45.71,24.371V22.3334h.4662V24.371Z"/><path class="cls-2" d="M49.1053,22.3334V24.371h-.4076l-1.4621-1.473v1.473h-.4511V22.3334H47.28l1.3741,1.3973V22.3334Z"/><path class="cls-2" d="M52.0625,23.9577a1.3975,1.3975,0,0,1-1.1585.4771c-.818,0-1.3155-.4015-1.3155-1.0828s.4975-1.0829,1.3155-1.0829a1.5015,1.5015,0,0,1,1.06.3873l-.3641.2648a.9075.9075,0,0,0-.6932-.2563c-.5324,0-.8435.2331-.8435.6871s.32.687.8615.687a.8782.8782,0,0,0,.7017-.2416V23.6h-.7688V23.221h1.2048Z"/><path class="cls-2" d="M54.7426,23.7539c0,.4014-.3811.6809-1.1027.6809a1.8718,1.8718,0,0,1-1.2464-.41l.2686-.3173a1.3871,1.3871,0,0,0,.9892.3376c.4132,0,.6232-.0785.6232-.2473s-.21-.2152-.6781-.2563c-.5825-.0492-1.1244-.1773-1.1244-.6142,0-.4247.4549-.6578,1.0838-.6578a1.7853,1.7853,0,0,1,1.0885.3116l-.2563.323a1.339,1.339,0,0,0-.8322-.2445c-.2771-.0028-.6148.0468-.6148.2331,0,.1745.2913.192.6961.2242C54.2858,23.1685,54.7426,23.3056,54.7426,23.7539Z"/><path class="cls-2" d="M55.7969,22.514h-.3025V23.07h-.1581V22.514h-.3v-.1365h.7611Z"/><path class="cls-2" d="M56.8324,22.3775v.692h-.1582v-.4814l-.3034.3707h-.008l-.3035-.3707V23.07h-.1532v-.692h.172l.2927.3658.2925-.3658Z"/><path class="cls-2" d="M11.7273,51.1767l.1165.3a.8788.8788,0,0,1-.7978-.24.7479.7479,0,1,1,.9955-1.0936.8742.8742,0,0,1,.3119.7571l-.3114-.0852a.4926.4926,0,0,0-.1862-.47.4706.4706,0,1,0-.62.6937A.4962.4962,0,0,0,11.7273,51.1767Z"/><path class="cls-2" d="M13.1,52.54l-.1654.2089-1.1076-.8835.8637-1.0912,1.0923.8713-.1654.2089-.848-.6764-.1777.2244.7083.5649-.1654.2089-.7082-.5649-.19.24Z"/><path class="cls-2" d="M14.1582,53.6166l-.0529-.6151-.407-.2853-.2705.3884-.2557-.1793.7954-1.1424.777.5447c.2751.1929.3928.4673.22.7153a.4391.4391,0,0,1-.5637.1392l.0646.65Zm.1968-.7606c.1352.0947.2576.1321.3463.0048s.0116-.23-.1236-.3246l-.5083-.3564-.2227.32Z"/><path class="cls-2" d="M16.45,53.7412l-.5121-.3149-.5831.9538-.2677-.1646.583-.9538-.5087-.3127.1431-.2342,1.2887.7921Z"/><path class="cls-2" d="M16.0462,54.7871l.6806-1.2148.2739.1541L16.32,54.9412Z"/><path class="cls-2" d="M17.4127,54.2627l-.1464.2871.8078.4136-.1247.2446-.8078-.4136-.2367.4644-.28-.1433.6325-1.24,1.238.6337-.1248.2446Z"/><path class="cls-2" d="M18.0623,55.833l.5838-1.2641.2852.132-.5839,1.2642Z"/><path class="cls-2" d="M20.0763,56.4121l-.102.2462-1.3079-.5421L19.199,54.83l1.29.5347-.102.2463-1.0013-.4151-.11.2647.8362.3466-.1019.2463-.8363-.3467-.1172.2831Z"/><path class="cls-2" d="M21.9738,56.6173c-.1407.41-.54.551-1.03.3828l-.6911-.2368.4521-1.3172.6911.2369C21.8859,55.8511,22.1146,56.2071,21.9738,56.6173Zm-.3028-.1038c.093-.2709-.0736-.4752-.3856-.5822l-.3716-.1274-.2764.8054.3716.1273C21.3211,56.8436,21.5781,56.7845,21.671,56.5135Z"/><path class="cls-2" d="M24.6638,56.5876l.3075,1.1533.71-.9609.3339.0632-.9427,1.2386-.3262-.0617-.42-1.4963Z"/><path class="cls-2" d="M26.9308,58.0654l-.8238-.1085-.1852.2725-.3331-.0439.9077-1.2847.3408.0449.5374,1.4751-.3369-.0444Zm-.0962-.2734-.207-.5991-.3577.5247Z"/><path class="cls-2" d="M28.8861,58.25l-.02.2737-1.2837-.0921.1041-1.388L28,57.0662l-.0835,1.1144Z"/><path class="cls-2" d="M29.0687,58.5238,29.12,57.133l.3142.0105-.0516,1.3908Z"/><path class="cls-2" d="M31.3159,57.8379c.003.4334-.3272.7-.846.7053l-.7311.0082-.01-1.3915.731-.0082C30.9788,57.1459,31.3128,57.4046,31.3159,57.8379Zm-.32.0036c-.0021-.2862-.2271-.4229-.5572-.4192l-.3931.0044.0061.8509.393-.0045C30.7746,58.27,30.9976,58.1278,30.9956,57.8415Z"/><path class="cls-2" d="M32.6467,58.1439l-.8294.0613-.1267.3043-.3353.0248.6312-1.4416.3432-.0254.8236,1.334-.3392.0252Zm-.1492-.248-.3235-.5441-.2452.5861Z"/><path class="cls-2" d="M34.3417,57.1164l-.597.0757.1348,1.1084-.3121.04-.1349-1.1084-.593.0752-.0331-.2721,1.5022-.1906Z"/><path class="cls-2" d="M36.0394,57.6674l.0473.2619-1.3946.259L34.4454,56.82l1.3752-.2554.0472.2619L34.8,57.0249l.0508.2814.8917-.1656.0472.2619-.8917.1657.0543.301Z"/><path class="cls-2" d="M37.7463,56.8037c.1033.42-.1566.7561-.66.883l-.71.1787-.3317-1.35.71-.1788C37.258,56.21,37.643,56.3834,37.7463,56.8037Zm-.311.0784c-.0682-.2777-.3189-.3579-.6395-.2771l-.3816.096.2028.8253.3816-.0961C37.3192,57.35,37.5035,57.16,37.4353,56.8821Z"/><path class="cls-2" d="M39.9931,55.312l.8814.7992.0793-1.1921.3153-.129-.1257,1.5519-.308.126L39.674,55.4425Z"/><path class="cls-2" d="M43.1414,55.1325l.1138.24-1.28.616-.5943-1.2544,1.2623-.6075.1138.24-.98.4717.1223.258.8184-.3939.1139.24-.8185.3939.1307.276Z"/><path class="cls-2" d="M44.5727,54.6433l-.5738-.219-.4349.2439.2283.4129-.2733.1533L42.8474,54.02l.83-.4658c.2939-.1649.5915-.1522.7373.1115a.4434.4434,0,0,1-.1241.57l.61.2236Zm-.5939-.5078c.1444-.081.2318-.1755.1569-.3107s-.2-.11-.3449-.0293l-.5432.3047.188.34Z"/><path class="cls-2" d="M45.1051,54.321l-.7243-1.1835.2681-.1662.7243,1.1834Z"/><path class="cls-2" d="M45.3175,52.8676l.1784.2668.7543-.5108.152.2272-.7543.5109.2886.4315-.2612.1769-.771-1.1529,1.1558-.7829.152.2273Z"/><path class="cls-2" d="M47.0022,53.0515l-.8165-1.1208.2539-.1873.8166,1.1208Z"/><path class="cls-2" d="M48.4874,51.5581l.165.2079-1.1093.8905-.8619-1.0859,1.0939-.8782.165.2079-.8493.6818.1773.2234.7093-.5694.165.2079-.7093.5693.19.2389Z"/><path class="cls-2" d="M49.5883,49.9862c.2893.32.2181.7391-.1668,1.09l-.5423.4948-.929-1.0284.5424-.4949C48.8775,49.6969,49.299,49.666,49.5883,49.9862Zm-.2376.2169c-.1911-.2116-.45-.1628-.6951.0607l-.2916.266.5679.6289.2916-.2661C49.4685,50.6691,49.5418,50.4147,49.3507,50.2031Z"/><circle class="cls-2" cx="22.9479" cy="56.8249" r="0.3362"/><circle class="cls-2" cx="39.1398" cy="56.3061" r="0.3362"/><path class="cls-2" d="M7.8376,28.4868v1.0544h2.9807v.8981H7.8376v1.7053H6.8053V27.5887h4.5679v.8981Z"/><path class="cls-2" d="M11.71,29.8666c0-1.5231,1.11-2.4212,2.8713-2.4212s2.8711.8981,2.8711,2.4212-1.11,2.4213-2.8711,2.4213S11.71,31.39,11.71,29.8666Zm4.6908,0c0-.9763-.7034-1.5231-1.82-1.5231s-1.8195.5468-1.8195,1.5231.6967,1.523,1.8195,1.523C15.6972,31.39,16.4006,30.8428,16.4006,29.8666Z"/><path class="cls-2" d="M23.3,27.5887v2.4082a2.2334,2.2334,0,0,1-2.5357,2.291,2.2335,2.2335,0,0,1-2.5358-2.291V27.5887h1.0324v2.33a1.3466,1.3466,0,0,0,1.5034,1.4579,1.3465,1.3465,0,0,0,1.5033-1.4579v-2.33Z"/><path class="cls-2" d="M28.315,32.1446l-1.297-1.549H25.3856v1.549H24.36V27.5887h3.1163c1.1033,0,1.9356.5141,1.9356,1.5034a1.4441,1.4441,0,0,1-1.2581,1.4319l1.3936,1.6206Zm-.8969-2.4082c.5419,0,.942-.13.942-.6378s-.4-.6379-.942-.6379H25.3792v1.2757Z"/><path class="cls-2" d="M36.9551,30.7648c0,.8982-.8453,1.5231-2.4453,1.5231a4.1238,4.1238,0,0,1-2.7614-.9178l.5935-.71a3.0651,3.0651,0,0,0,2.1938.755c.9161,0,1.3807-.1757,1.3807-.5531s-.4646-.4818-1.5034-.5729c-1.29-.1105-2.49-.3969-2.49-1.3732,0-.95,1.0065-1.471,2.4-1.471a3.93,3.93,0,0,1,2.4132.6965l-.5678.7225a2.9474,2.9474,0,0,0-1.8454-.5468c-.6128-.0066-1.3613.1042-1.3613.5207,0,.39.6453.43,1.5421.5011C35.9421,29.4565,36.9551,29.7625,36.9551,30.7648Z"/><path class="cls-2" d="M42.2521,28.4868H40.2777v3.6578H39.2453V28.4868H37.2839v-.8981h4.9682Z"/><path class="cls-2" d="M45.927,31.1813H43.1976l-.4839.9633H41.61l2.3938-4.5559h1.1292l2.3936,4.5559H46.4108Zm-.4324-.8461L44.5591,28.48l-.9355,1.8548Z"/><path class="cls-2" d="M52.0591,32.1446l-1.297-1.549H49.13v1.549H48.1039V27.5887H51.22c1.1033,0,1.9355.5141,1.9355,1.5034a1.444,1.444,0,0,1-1.258,1.4319l1.3936,1.6206Zm-.897-2.4082c.542,0,.9421-.13.9421-.6378s-.4-.6379-.9421-.6379H49.1232v1.2757Z"/><polygon class="cls-2" points="16.167 33.501 17.206 36.262 20.174 36.393 17.838 38.232 18.632 41.071 16.162 39.437 13.696 41.071 14.508 38.235 12.176 36.393 15.139 36.262 16.167 33.501"/><polygon class="cls-2" points="25.416 33.501 26.455 36.262 29.423 36.393 27.086 38.232 27.88 41.071 25.41 39.437 22.944 41.071 23.756 38.235 21.425 36.393 24.387 36.262 25.416 33.501"/><polygon class="cls-2" points="34.664 33.501 35.704 36.262 38.672 36.393 36.335 38.232 37.129 41.071 34.659 39.437 32.193 41.071 33.005 38.235 30.674 36.393 33.636 36.262 34.664 33.501"/><polygon class="cls-2" points="43.913 33.501 44.952 36.262 47.92 36.393 45.583 38.232 46.378 41.071 43.908 39.437 41.442 41.071 42.254 38.235 39.922 36.393 42.885 36.262 43.913 33.501"/><polygon class="cls-3" points="16.167 33.501 17.206 36.262 20.174 36.393 17.838 38.232 18.632 41.071 16.162 39.437 13.696 41.071 14.508 38.235 12.176 36.393 15.139 36.262 16.167 33.501"/><polygon class="cls-4" points="25.416 33.501 26.455 36.262 29.423 36.393 27.086 38.232 27.88 41.071 25.41 39.437 22.944 41.071 23.756 38.235 21.425 36.393 24.387 36.262 25.416 33.501"/><polygon class="cls-5" points="34.664 33.501 35.704 36.262 38.672 36.393 36.335 38.232 37.129 41.071 34.659 39.437 32.193 41.071 33.005 38.235 30.674 36.393 33.636 36.262 34.664 33.501"/><polygon class="cls-6" points="43.913 33.501 44.952 36.262 47.92 36.393 45.583 38.232 46.378 41.071 43.908 39.437 41.442 41.071 42.254 38.235 39.922 36.393 42.885 36.262 43.913 33.501"/><path class="cls-2" d="M18.7569,45.4221a1.2408,1.2408,0,0,1-1.0317.4288c-.7285,0-1.1718-.3608-1.1718-.9727s.4433-.9728,1.1718-.9728a1.33,1.33,0,0,1,.9436.3478l-.3241.238a.8023.8023,0,0,0-.617-.23c-.4743,0-.7517.2092-.7517.6172s.2851.6171.7673.6171a.7788.7788,0,0,0,.6248-.217V45.1h-.6844v-.34h1.0732Z"/><path class="cls-2" d="M20.7951,45.4325v.3609h-1.698v-1.83h.4148v1.4695Z"/><path class="cls-2" d="M20.8851,44.8782c0-.6119.4459-.9728,1.1536-.9728s1.1535.3609,1.1535.9728-.4458.9727-1.1535.9727S20.8851,45.49,20.8851,44.8782Zm1.8846,0c0-.3923-.2826-.6119-.731-.6119s-.7311.22-.7311.6119.28.6119.7311.6119C22.4871,45.49,22.77,45.27,22.77,44.8782Z"/><path class="cls-2" d="M25.5674,45.2913c0,.3243-.2748.5021-.71.5021H23.5065v-1.83h1.2469c.4355,0,.71.1725.71.468a.3954.3954,0,0,1-.4044.4053C25.3445,44.852,25.5674,45.0011,25.5674,45.2913Zm-1.6513-.5857h.77c.2255,0,.3655-.0366.3655-.2066,0-.1674-.14-.2066-.3655-.2066h-.77Zm1.2262.5387c0-.1857-.1374-.22-.3707-.22h-.8555v.4393h.8555C25.0049,45.4639,25.1423,45.4273,25.1423,45.2443Z"/><path class="cls-2" d="M27.3525,45.4064H26.256l-.1944.387h-.4433l.9617-1.83h.4537l.9617,1.83H27.547Zm-.1737-.34-.3758-.7452-.3759.7452Z"/><path class="cls-2" d="M29.8957,45.4325v.3609h-1.698v-1.83h.4148v1.4695Z"/><path class="cls-2" d="M32.4,45.4064H31.3034l-.1944.387h-.4433l.9617-1.83h.4537l.9617,1.83h-.4484Zm-.1736-.34-.3759-.7452-.3759.7452Z"/><path class="cls-2" d="M33.2451,45.7934v-1.83H33.66v1.83Z"/><path class="cls-2" d="M35.6643,45.7934l-.5211-.6224h-.6559v.6224h-.4121v-1.83h1.2521c.4432,0,.7777.2065.7777.604a.58.58,0,0,1-.5055.5753l.56.6511Zm-.36-.9675c.2178,0,.3785-.0523.3785-.2563s-.1607-.2563-.3785-.2563h-.8191v.5126Z"/><path class="cls-2" d="M38.1208,45.4325v.3609h-1.698v-1.83h.4148v1.4695Z"/><path class="cls-2" d="M38.3415,45.7934v-1.83h.4148v1.83Z"/><path class="cls-2" d="M41.2376,43.963v1.83h-.3629L39.5734,44.47v1.3232h-.4018v-1.83h.4406l1.2236,1.2551V43.963Z"/><path class="cls-2" d="M43.5293,45.443v.35H41.66v-1.83h1.8432v.35h-1.431V44.69h1.1951v.35H42.0724v.4027Z"/><path class="cls-2" d="M23.0767,48.2344c.9215,0,1.8761.384,1.8761,1.1966,0,.6679-.6235,1.0408-1.5008,1.3246-.7174.2393-1.2581.5009-1.385.7736h2.9686v.718h-4.05V51.852c.11-.7235.8111-1.3468,1.9533-1.72.6345-.2171,1.12-.3618,1.12-.6846,0-.3339-.5021-.5065-1.01-.5065a1.91,1.91,0,0,0-1.4568.679l-.5242-.473A2.462,2.462,0,0,1,23.0767,48.2344Z"/><path class="cls-2" d="M25.419,50.2992c0-1.2967.8884-2.07,2.3451-2.07,1.4622,0,2.3506.7736,2.3506,2.07s-.8884,2.07-2.3506,2.07C26.3074,52.37,25.419,51.596,25.419,50.2992Zm3.7963,0c0-.8571-.5518-1.3023-1.4457-1.3023-.8994,0-1.4512.4452-1.4512,1.3023s.5518,1.3024,1.4512,1.3024C28.6635,51.6016,29.2153,51.1563,29.2153,50.2992Z"/><path class="cls-2" d="M32.4851,48.2344c.9215,0,1.876.384,1.876,1.1966,0,.6679-.6235,1.0408-1.5008,1.3246-.7173.2393-1.2581.5009-1.385.7736h2.9686v.718h-4.05V51.852c.11-.7235.8111-1.3468,1.9533-1.72.6346-.2171,1.12-.3618,1.12-.6846,0-.3339-.5022-.5065-1.01-.5065a1.91,1.91,0,0,0-1.4567.679l-.5242-.473A2.4619,2.4619,0,0,1,32.4851,48.2344Z"/><path class="cls-2" d="M37.0451,48.2344c.9215,0,1.876.384,1.876,1.1966,0,.6679-.6235,1.0408-1.5008,1.3246-.7173.2393-1.2581.5009-1.385.7736h2.9686v.718h-4.05V51.852c.11-.7235.8111-1.3468,1.9533-1.72.6346-.2171,1.12-.3618,1.12-.6846,0-.3339-.5022-.5065-1.01-.5065a1.91,1.91,0,0,0-1.4567.679l-.5242-.473A2.4619,2.4619,0,0,1,37.0451,48.2344Z"/></svg>