<?xml version="1.0" encoding="utf-8"?>
<!-- Generator: Adobe Illustrator 26.1.0, SVG Export Plug-In . SVG Version: 6.00 Build 0)  -->
<svg version="1.1" id="Layer_1" xmlns="http://www.w3.org/2000/svg" xmlns:xlink="http://www.w3.org/1999/xlink" x="0px" y="0px"
	 viewBox="0 0 1175 139.83" style="enable-background:new 0 0 1175 139.83;" xml:space="preserve">
<style type="text/css">
	.st0{fill-rule:evenodd;clip-rule:evenodd;fill:#ED1C24;}
	.st1{fill:#BFD730;}
	.st2{fill:#72BF44;}
	.st3{fill:#B82025;}
	.st4{fill-rule:evenodd;clip-rule:evenodd;fill:#1D1D1B;}
	.st5{fill:#1D1D1B;}
</style>
<g>
	<g>
		<path class="st0" d="M169.69,39.95h29.97c5.52,0,9.99,4.47,9.99,9.99c0,5.51-4.47,9.99-9.99,9.99h-29.97L169.69,39.95
			L169.69,39.95z M129.74,0h69.92c27.58,0,49.94,22.35,49.94,49.94c0,27.58-22.36,49.93-49.94,49.93h-29.97v39.96h-39.95V0z"/>
		<path class="st1" d="M89.28,74.91h20.98L99.77,39.95L89.28,74.91z M29.86,139.83V39.95H0V0h129.74v139.83l-7.63-25.43v0.46H77.3
			l-7.49,24.97H29.86z"/>
		<polygon class="st2" points="29.86,139.83 69.81,139.83 69.81,39.95 99.77,39.95 99.77,0 69.81,0 		"/>
		<polygon class="st3" points="129.74,139.83 169.69,139.83 129.74,0 		"/>
	</g>
	<g>
		<path class="st4" d="M525.46,33.28c2.38-0.47,6.98-1.06,13.23-1.06c13.67,0,24.1,5.24,24.1,18.49c0,12.6-9.41,19.88-25.42,19.88
			c-4.68,0-8.72-0.34-11.91-1.27V33.28z M512.93,116.56h12.53V79.44c3.24,0.89,7.14,1.08,11.42,1.08c12.95,0,23.78-3.41,30.67-10.18
			c5.13-4.85,7.79-11.85,7.79-20.24c0-8.39-3.38-15.14-8.61-19.62c-5.89-5.09-15.12-8.04-28.01-8.04c-10.99,0-19.44,0.84-25.8,1.88
			v92.24H512.93z"/>
		<path class="st4" d="M631.64,108.3c-21.24,0-34.46-17.45-34.46-37.64c0-20.91,12.07-39.12,34.82-39.12
			c22.73,0,34.6,18.98,34.6,37.97c0,22.14-13.3,38.8-34.83,38.8h-0.13V108.3z M631.46,118.22c26.55,0,48.57-18.29,48.57-49.32
			c0-27.02-18.9-47.29-47.51-47.29c-27.81,0-48.5,20.35-48.5,49.45c0,27.11,19.48,47.16,47.28,47.16L631.46,118.22L631.46,118.22z"
			/>
		<path class="st4" d="M702.06,33.28c2.29-0.57,6.99-1.21,14.07-1.21c13.12,0,23.3,4.74,23.3,17.29c0,10.57-8.6,17.45-22.44,17.45
			h-14.92V33.28H702.06z M689.58,116.56h12.48V76.2h13.86c11.51,0.5,16.9,5.51,19.91,18.27c2.77,11.74,5,19.43,6.52,22.09h13.01
			c-2.06-3.88-4.4-13.14-7.79-26.29c-2.31-8.79-6.84-15.57-14.03-18.2v-0.33c9.9-3.07,18.46-11.32,18.46-23.72
			c0-7.28-2.99-13.66-7.61-17.56c-6.1-5.43-15.04-8.02-29.05-8.02c-9.24,0-19.1,0.84-25.75,2.06v92.06H689.58z"/>
		<polygon class="st4" points="790.45,116.56 803.07,116.56 803.07,33.64 835.42,33.64 835.42,23.24 758.24,23.24 758.24,33.64 
			790.45,33.64 		"/>
		<path class="st4" d="M842.82,23.24v52.59c0,30.95,16.16,42.39,36.87,42.39c22.39,0,39.13-12.48,39.13-42.67V23.24h-12.61v52.92
			c0,21.83-10.23,32.04-25.89,32.04c-14.44,0-24.87-9.91-24.87-32.04V23.24L842.82,23.24L842.82,23.24z"/>
		<path class="st4" d="M1016.56,67.52h-33.63v9.9h21.16v26.92c-3.43,1.72-9.84,2.98-19.18,2.98c-25.31,0-40.6-15.58-40.6-37.53
			c0-21.5,15.58-37.18,41.86-37.18c10.93,0,18.11,1.96,23.9,4.55l3.25-10.03c-4.41-2.05-14.28-4.81-26.7-4.81
			c-36.22,0-55.55,23.02-55.55,47.99c0,13.67,5.11,25.9,13.57,33.81c10.02,9.4,23.02,13.42,39.18,13.42
			c14.81,0,26.83-3.62,32.74-5.78L1016.56,67.52L1016.56,67.52z"/>
		<path class="st4" d="M1051.16,77.08l10.68-28.15c1.97-5.49,3.46-10.43,4.91-15.33h0.26c1.48,4.81,2.92,9.65,5.16,15.58l10.68,27.9
			H1051.16z M1085.63,86.8l11.29,29.77h13.66L1075,23.24h-15.39l-35.21,93.32h13.22l10.8-29.77h37.21V86.8z"/>
		<polygon class="st4" points="1117.92,116.56 1175,116.56 1175,106.05 1130.51,106.05 1130.51,23.24 1117.92,23.24 		"/>
		<rect x="378.42" y="23.24" class="st4" width="17.84" height="93.32"/>
		<path class="st4" d="M307.46,76.2l8.27-23.63c1.81-5.43,3.27-11.09,4.69-16.23h0.29c1.54,5.08,3.19,10.67,5.18,16.33l8.51,23.52
			h-26.94V76.2z M337.64,89.51l9.61,27.05h19.59l-33.98-93.32h-23.2l-32.99,93.32h18.71l8.94-27.05H337.64z"/>
		<path class="st5" d="M433.21,81.13h11.28c10.4,0.45,14.84,4.59,17.63,16.37c2.44,10.32,4.05,15.88,5.18,19.06h18.31
			c-1.7-4.02-3.74-11.92-6.46-22.43l-0.52-2.02c-2.1-8-5.83-13.94-10.91-17.47c8.11-4.02,15.41-11.92,15.41-24.15
			c0-7.81-3.08-14.89-8.42-19.41c-6.71-5.97-16.17-8.63-30.68-8.63c-9.11,0-19.14,0.8-26.21,2.09l-2.02,0.37v91.65h17.42V81.13
			H433.21z M433.21,37.76c2.12-0.34,5.86-0.76,11.59-0.76c9.51,0,20.84,2.57,20.84,14.82c0,9.25-7.66,14.99-19.98,14.99h-12.45
			V37.76z"/>
	</g>
</g>
</svg>
