<?xml version="1.0" encoding="utf-8"?>
<!-- Generator: Adobe Illustrator 26.1.0, SVG Export Plug-In . SVG Version: 6.00 Build 0)  -->
<svg version="1.1" id="Layer_1" xmlns="http://www.w3.org/2000/svg" xmlns:xlink="http://www.w3.org/1999/xlink" x="0px" y="0px"
	 viewBox="0 0 1200 142.81" style="enable-background:new 0 0 1200 142.81;" xml:space="preserve">
<style type="text/css">
	.st0{fill-rule:evenodd;clip-rule:evenodd;fill:#ED1C24;}
	.st1{fill:#BFD730;}
	.st2{fill:#72BF44;}
	.st3{fill:#B82025;}
	.st4{fill-rule:evenodd;clip-rule:evenodd;fill:#FFFFFF;}
	.st5{fill:#FFFFFF;}
</style>
<g>
	<g>
		<path class="st0" d="M173.3,40.8h30.6c5.63,0,10.2,4.57,10.2,10.2c0,5.63-4.56,10.2-10.2,10.2h-30.6V40.8z M132.5,0h71.4
			c28.17,0,51,22.83,51,51c0,28.17-22.83,51-51,51h-30.6v40.81h-40.8V0z"/>
		<path class="st1" d="M91.18,76.5h21.42L101.9,40.8L91.18,76.5z M30.49,142.81V40.8H0V0h132.5v142.81l-7.79-25.97v0.47H78.95
			l-7.65,25.5H30.49z"/>
		<polygon class="st2" points="30.49,142.81 71.3,142.81 71.3,40.8 101.9,40.8 101.9,0 71.3,0 		"/>
		<polygon class="st3" points="132.5,142.81 173.3,142.81 132.5,0 		"/>
	</g>
	<g>
		<path class="st4" d="M536.64,33.99c2.43-0.48,7.13-1.08,13.52-1.08c13.97,0,24.61,5.35,24.61,18.88c0,12.87-9.61,20.3-25.96,20.3
			c-4.78,0-8.91-0.35-12.17-1.3V33.99z M523.84,119.04h12.8V81.14c3.31,0.91,7.3,1.11,11.67,1.11c13.23,0,24.28-3.49,31.32-10.4
			c5.24-4.96,7.96-12.1,7.96-20.67c0-8.57-3.45-15.46-8.79-20.04c-6.02-5.2-15.44-8.21-28.61-8.21c-11.22,0-19.86,0.86-26.35,1.92
			V119.04z"/>
		<path class="st4" d="M645.08,110.6c-21.69,0-35.19-17.82-35.19-38.45c0-21.35,12.32-39.95,35.57-39.95
			c23.21,0,35.34,19.39,35.34,38.77c0,22.61-13.58,39.62-35.57,39.62H645.08z M644.89,120.74c27.11,0,49.61-18.67,49.61-50.37
			c0-27.6-19.3-48.3-48.52-48.3c-28.4,0-49.53,20.79-49.53,50.5c0,27.69,19.89,48.16,48.29,48.16H644.89z"/>
		<path class="st4" d="M717,33.99c2.34-0.58,7.14-1.24,14.37-1.24c13.4,0,23.79,4.84,23.79,17.66c0,10.8-8.78,17.82-22.92,17.82H717
			V33.99z M704.25,119.04H717V77.82h14.15c11.75,0.52,17.26,5.63,20.33,18.66c2.83,11.99,5.1,19.85,6.66,22.56h13.29
			c-2.1-3.96-4.49-13.42-7.96-26.84c-2.36-8.97-6.99-15.91-14.33-18.59v-0.34c10.11-3.14,18.85-11.56,18.85-24.22
			c0-7.44-3.05-13.95-7.77-17.93c-6.23-5.55-15.36-8.19-29.66-8.19c-9.44,0-19.51,0.86-26.3,2.1V119.04z"/>
		<polygon class="st4" points="807.27,119.04 820.16,119.04 820.16,34.35 853.2,34.35 853.2,23.74 774.37,23.74 774.37,34.35 
			807.27,34.35 		"/>
		<path class="st4" d="M860.75,23.74v53.71c0,31.61,16.5,43.29,37.65,43.29c22.86,0,39.97-12.75,39.97-43.58V23.74h-12.88v54.05
			c0,22.29-10.44,32.72-26.44,32.72c-14.75,0-25.4-10.12-25.4-32.72V23.74H860.75z"/>
		<path class="st4" d="M1038.19,68.96h-34.35v10.11h21.61v27.49c-3.51,1.76-10.05,3.04-19.59,3.04c-25.85,0-41.47-15.91-41.47-38.33
			c0-21.96,15.91-37.97,42.75-37.97c11.16,0,18.5,2,24.41,4.65l3.32-10.24c-4.5-2.1-14.59-4.91-27.27-4.91
			c-36.99,0-56.73,23.51-56.73,49.01c0,13.96,5.22,26.45,13.86,34.53c10.23,9.6,23.51,13.7,40.01,13.7c15.13,0,27.41-3.7,33.44-5.91
			V68.96z"/>
		<path class="st4" d="M1073.52,78.72l10.9-28.75c2.02-5.61,3.54-10.65,5.01-15.66h0.27c1.51,4.91,2.98,9.86,5.27,15.91l10.9,28.5
			H1073.52z M1108.73,88.64l11.53,30.4h13.95l-36.34-95.31h-15.71l-35.96,95.31h13.5l11.03-30.4H1108.73z"/>
		<polygon class="st4" points="1141.7,119.04 1200,119.04 1200,108.31 1154.57,108.31 1154.57,23.74 1141.7,23.74 		"/>
		<rect x="386.47" y="23.74" class="st4" width="18.22" height="95.31"/>
		<path class="st4" d="M314.01,77.82l8.45-24.13c1.85-5.54,3.34-11.33,4.79-16.57h0.3c1.57,5.19,3.25,10.89,5.29,16.68l8.69,24.02
			H314.01z M344.82,91.42l9.82,27.63h20l-34.7-95.31h-23.69l-33.69,95.31h19.11l9.13-27.63H344.82z"/>
		<path class="st5" d="M442.43,82.85h11.52c10.62,0.46,15.16,4.69,18,16.72c2.49,10.53,4.14,16.22,5.29,19.47h18.7
			c-1.74-4.11-3.82-12.18-6.6-22.91l-0.53-2.06c-2.14-8.17-5.96-14.24-11.15-17.85c8.28-4.11,15.74-12.18,15.74-24.66
			c0-7.98-3.15-15.21-8.6-19.82c-6.86-6.1-16.52-8.82-31.33-8.82c-9.3,0-19.55,0.82-26.77,2.13l-2.06,0.38v93.6h17.79V82.85z
			 M442.43,38.57c2.16-0.35,5.99-0.78,11.84-0.78c9.71,0,21.29,2.62,21.29,15.14c0,9.45-7.82,15.31-20.4,15.31h-12.72V38.57z"/>
	</g>
</g>
</svg>
