<svg width="32" height="32" viewBox="0 0 32 32" fill="none" xmlns="http://www.w3.org/2000/svg">
<g clip-path="url(#clip0_84_34)">
<path fill-rule="evenodd" clip-rule="evenodd" d="M32 16.0001C32 24.8365 24.8365 32 16.0001 32C7.16345 32 0 24.8365 0 16.0001C0 7.16345 7.16345 -1.19209e-07 16.0001 -1.19209e-07C24.8365 -1.19209e-07 32 7.16345 32 16.0001Z" fill="black"/>
<path d="M22.1203 10.1938C21.0422 9.49067 20.2638 8.36611 20.0212 7.05507C19.9687 6.77168 19.94 6.48026 19.94 6.18183H16.4988L16.4931 19.9726C16.4353 21.5169 15.1644 22.7565 13.606 22.7565C13.1218 22.7565 12.6656 22.6355 12.2642 22.4239C11.3435 21.9394 10.7136 20.9742 10.7136 19.8637C10.7136 18.2686 12.0113 16.9709 13.606 16.9709C13.9038 16.9709 14.1892 17.02 14.4596 17.1046V13.5916C14.1798 13.5535 13.8958 13.5297 13.606 13.5297C10.114 13.5301 7.27274 16.3714 7.27274 19.8637C7.27274 22.0065 8.34349 23.9027 9.97669 25.0494C11.0053 25.7716 12.2569 26.1973 13.6064 26.1973C17.0987 26.1973 19.94 23.356 19.94 19.8637V12.8707C21.2895 13.8395 22.943 14.4103 24.7273 14.4103V10.9691C23.7662 10.9691 22.8709 10.6834 22.1203 10.1938Z" fill="white"/>
</g>
<defs>
<clipPath id="clip0_84_34">
<rect width="32" height="32" fill="white"/>
</clipPath>
</defs>
</svg>
