<svg width="32" height="32" viewBox="0 0 32 32" fill="none" xmlns="http://www.w3.org/2000/svg">
<path fill-rule="evenodd" clip-rule="evenodd" d="M30.6666 16.0001C30.6666 24.1002 24.1001 30.6667 16 30.6667C7.8998 30.6667 1.33331 24.1002 1.33331 16.0001C1.33331 7.89986 7.8998 1.33337 16 1.33337C24.1001 1.33337 30.6666 7.89986 30.6666 16.0001Z" fill="black"/>
<g clip-path="url(#clip0_1_127)">
<path d="M17.5222 15.0204L23.4785 8.09656H22.0671L16.8952 14.1084L12.7644 8.09656H8L14.2466 17.1875L8 24.4482H9.41155L14.8732 18.0995L19.2356 24.4482H24L17.5218 15.0204H17.5222ZM15.5889 17.2676L14.956 16.3624L9.92015 9.15915H12.0882L16.1522 14.9724L16.7851 15.8776L22.0677 23.4339H19.8997L15.5889 17.268V17.2676Z" fill="white"/>
</g>
<defs>
<clipPath id="clip0_1_127">
<rect width="16" height="16.36" fill="white" transform="translate(8 8.09656)"/>
</clipPath>
</defs>
</svg>
