
<svg width="32px" height="32px" viewBox="0 0 32 32" version="1.1" xmlns:xlink="http://www.w3.org/1999/xlink" xmlns="http://www.w3.org/2000/svg">
  <g id="icons--Social-Media--24--Pinterest-Copy">
    <path d="M12.8 15.9996L12.8 6.4L21.1132 11.1998L12.8 15.9996ZM31.3307 3.49795C30.9631 2.12111 29.8789 1.03691 28.5029 0.66845C26.0068 0 16.0004 0 16.0004 0C16.0004 0 5.99322 0 3.49795 0.66845C2.12111 1.03691 1.03691 2.12111 0.66845 3.49795C0 5.99322 0 11.1998 0 11.1998C0 11.1998 0 16.4064 0.66845 18.9025C1.03691 20.2793 2.12111 21.3635 3.49795 21.7311C5.99322 22.3996 16.0004 22.3996 16.0004 22.3996C16.0004 22.3996 26.0068 22.3996 28.5029 21.7311C29.8789 21.3635 30.9631 20.2793 31.3307 18.9025C32 16.4064 32 11.1998 32 11.1998C32 11.1998 32 5.99322 31.3307 3.49795L31.3307 3.49795Z" transform="translate(0 4.666667)" id="Fill-21" fill="#000000" fill-rule="evenodd" stroke="none" />
  </g>
</svg>